G04 #@! TF.GenerationSoftware,KiCad,Pcbnew,(5.1.0)-1*
G04 #@! TF.CreationDate,2019-05-12T18:19:35+08:00*
G04 #@! TF.ProjectId,16 ch isolation input,31362063-6820-4697-936f-6c6174696f6e,1.01*
G04 #@! TF.SameCoordinates,Original*
G04 #@! TF.FileFunction,Copper,L2,Bot*
G04 #@! TF.FilePolarity,Positive*
%FSLAX46Y46*%
G04 Gerber Fmt 4.6, Leading zero omitted, Abs format (unit mm)*
G04 Created by KiCad (PCBNEW (5.1.0)-1) date 2019-05-12 18:19:35*
%MOMM*%
%LPD*%
G04 APERTURE LIST*
%ADD10C,0.254000*%
%ADD11C,0.203200*%
%ADD12C,5.500000*%
%ADD13O,2.000000X2.000000*%
%ADD14O,1.500000X1.500000*%
%ADD15R,1.500000X1.500000*%
%ADD16O,1.600000X1.600000*%
%ADD17R,1.600000X1.600000*%
%ADD18C,0.900000*%
%ADD19C,0.800000*%
%ADD20C,1.016000*%
%ADD21C,0.762000*%
%ADD22C,0.635000*%
G04 APERTURE END LIST*
D10*
X131952999Y-100257428D02*
X131952999Y-98733428D01*
X131590142Y-98733428D01*
X131372428Y-98806000D01*
X131227285Y-98951142D01*
X131154714Y-99096285D01*
X131082142Y-99386571D01*
X131082142Y-99604285D01*
X131154714Y-99894571D01*
X131227285Y-100039714D01*
X131372428Y-100184857D01*
X131590142Y-100257428D01*
X131952999Y-100257428D01*
X129848428Y-100184857D02*
X129993571Y-100257428D01*
X130283857Y-100257428D01*
X130428999Y-100184857D01*
X130501571Y-100039714D01*
X130501571Y-99459142D01*
X130428999Y-99314000D01*
X130283857Y-99241428D01*
X129993571Y-99241428D01*
X129848428Y-99314000D01*
X129775857Y-99459142D01*
X129775857Y-99604285D01*
X130501571Y-99749428D01*
X129195285Y-100184857D02*
X129050142Y-100257428D01*
X128759857Y-100257428D01*
X128614714Y-100184857D01*
X128542142Y-100039714D01*
X128542142Y-99967142D01*
X128614714Y-99822000D01*
X128759857Y-99749428D01*
X128977571Y-99749428D01*
X129122714Y-99676857D01*
X129195285Y-99531714D01*
X129195285Y-99459142D01*
X129122714Y-99314000D01*
X128977571Y-99241428D01*
X128759857Y-99241428D01*
X128614714Y-99314000D01*
X127888999Y-100257428D02*
X127888999Y-99241428D01*
X127888999Y-98733428D02*
X127961571Y-98806000D01*
X127888999Y-98878571D01*
X127816428Y-98806000D01*
X127888999Y-98733428D01*
X127888999Y-98878571D01*
X126510142Y-99241428D02*
X126510142Y-100475142D01*
X126582714Y-100620285D01*
X126655285Y-100692857D01*
X126800428Y-100765428D01*
X127018142Y-100765428D01*
X127163285Y-100692857D01*
X126510142Y-100184857D02*
X126655285Y-100257428D01*
X126945571Y-100257428D01*
X127090714Y-100184857D01*
X127163285Y-100112285D01*
X127235857Y-99967142D01*
X127235857Y-99531714D01*
X127163285Y-99386571D01*
X127090714Y-99314000D01*
X126945571Y-99241428D01*
X126655285Y-99241428D01*
X126510142Y-99314000D01*
X125784428Y-99241428D02*
X125784428Y-100257428D01*
X125784428Y-99386571D02*
X125711857Y-99314000D01*
X125566714Y-99241428D01*
X125348999Y-99241428D01*
X125203857Y-99314000D01*
X125131285Y-99459142D01*
X125131285Y-100257428D01*
X123462142Y-99241428D02*
X122881571Y-99241428D01*
X123244428Y-100257428D02*
X123244428Y-98951142D01*
X123171857Y-98806000D01*
X123026714Y-98733428D01*
X122881571Y-98733428D01*
X122155857Y-100257428D02*
X122300999Y-100184857D01*
X122373571Y-100112285D01*
X122446142Y-99967142D01*
X122446142Y-99531714D01*
X122373571Y-99386571D01*
X122300999Y-99314000D01*
X122155857Y-99241428D01*
X121938142Y-99241428D01*
X121792999Y-99314000D01*
X121720428Y-99386571D01*
X121647857Y-99531714D01*
X121647857Y-99967142D01*
X121720428Y-100112285D01*
X121792999Y-100184857D01*
X121938142Y-100257428D01*
X122155857Y-100257428D01*
X120994714Y-100257428D02*
X120994714Y-99241428D01*
X120994714Y-99531714D02*
X120922142Y-99386571D01*
X120849571Y-99314000D01*
X120704428Y-99241428D01*
X120559285Y-99241428D01*
X118091857Y-100257428D02*
X118962714Y-100257428D01*
X118527285Y-100257428D02*
X118527285Y-98733428D01*
X118672428Y-98951142D01*
X118817571Y-99096285D01*
X118962714Y-99168857D01*
X117511285Y-98878571D02*
X117438714Y-98806000D01*
X117293571Y-98733428D01*
X116930714Y-98733428D01*
X116785571Y-98806000D01*
X116712999Y-98878571D01*
X116640428Y-99023714D01*
X116640428Y-99168857D01*
X116712999Y-99386571D01*
X117583857Y-100257428D01*
X116640428Y-100257428D01*
X116204999Y-98733428D02*
X115696999Y-100257428D01*
X115188999Y-98733428D01*
X113519857Y-100257428D02*
X113519857Y-99241428D01*
X113519857Y-98733428D02*
X113592428Y-98806000D01*
X113519857Y-98878571D01*
X113447285Y-98806000D01*
X113519857Y-98733428D01*
X113519857Y-98878571D01*
X112794142Y-99241428D02*
X112794142Y-100257428D01*
X112794142Y-99386571D02*
X112721571Y-99314000D01*
X112576428Y-99241428D01*
X112358714Y-99241428D01*
X112213571Y-99314000D01*
X112140999Y-99459142D01*
X112140999Y-100257428D01*
X111415285Y-99241428D02*
X111415285Y-100765428D01*
X111415285Y-99314000D02*
X111270142Y-99241428D01*
X110979857Y-99241428D01*
X110834714Y-99314000D01*
X110762142Y-99386571D01*
X110689571Y-99531714D01*
X110689571Y-99967142D01*
X110762142Y-100112285D01*
X110834714Y-100184857D01*
X110979857Y-100257428D01*
X111270142Y-100257428D01*
X111415285Y-100184857D01*
X109383285Y-99241428D02*
X109383285Y-100257428D01*
X110036428Y-99241428D02*
X110036428Y-100039714D01*
X109963857Y-100184857D01*
X109818714Y-100257428D01*
X109600999Y-100257428D01*
X109455857Y-100184857D01*
X109383285Y-100112285D01*
X108875285Y-99241428D02*
X108294714Y-99241428D01*
X108657571Y-98733428D02*
X108657571Y-100039714D01*
X108584999Y-100184857D01*
X108439857Y-100257428D01*
X108294714Y-100257428D01*
X107859285Y-100184857D02*
X107714142Y-100257428D01*
X107423857Y-100257428D01*
X107278714Y-100184857D01*
X107206142Y-100039714D01*
X107206142Y-99967142D01*
X107278714Y-99822000D01*
X107423857Y-99749428D01*
X107641571Y-99749428D01*
X107786714Y-99676857D01*
X107859285Y-99531714D01*
X107859285Y-99459142D01*
X107786714Y-99314000D01*
X107641571Y-99241428D01*
X107423857Y-99241428D01*
X107278714Y-99314000D01*
X105391857Y-100112285D02*
X105319285Y-100184857D01*
X105391857Y-100257428D01*
X105464428Y-100184857D01*
X105391857Y-100112285D01*
X105391857Y-100257428D01*
X105391857Y-99676857D02*
X105464428Y-98806000D01*
X105391857Y-98733428D01*
X105319285Y-98806000D01*
X105391857Y-99676857D01*
X105391857Y-98733428D01*
X104666142Y-100112285D02*
X104593571Y-100184857D01*
X104666142Y-100257428D01*
X104738714Y-100184857D01*
X104666142Y-100112285D01*
X104666142Y-100257428D01*
X104666142Y-99676857D02*
X104738714Y-98806000D01*
X104666142Y-98733428D01*
X104593571Y-98806000D01*
X104666142Y-99676857D01*
X104666142Y-98733428D01*
X103940428Y-100112285D02*
X103867857Y-100184857D01*
X103940428Y-100257428D01*
X104012999Y-100184857D01*
X103940428Y-100112285D01*
X103940428Y-100257428D01*
X103940428Y-99676857D02*
X104012999Y-98806000D01*
X103940428Y-98733428D01*
X103867857Y-98806000D01*
X103940428Y-99676857D01*
X103940428Y-98733428D01*
X101182714Y-100112285D02*
X101255285Y-100184857D01*
X101472999Y-100257428D01*
X101618142Y-100257428D01*
X101835857Y-100184857D01*
X101980999Y-100039714D01*
X102053571Y-99894571D01*
X102126142Y-99604285D01*
X102126142Y-99386571D01*
X102053571Y-99096285D01*
X101980999Y-98951142D01*
X101835857Y-98806000D01*
X101618142Y-98733428D01*
X101472999Y-98733428D01*
X101255285Y-98806000D01*
X101182714Y-98878571D01*
X100529571Y-100257428D02*
X100529571Y-98733428D01*
X99876428Y-100257428D02*
X99876428Y-99459142D01*
X99948999Y-99314000D01*
X100094142Y-99241428D01*
X100311857Y-99241428D01*
X100456999Y-99314000D01*
X100529571Y-99386571D01*
X98497571Y-100257428D02*
X98497571Y-99459142D01*
X98570142Y-99314000D01*
X98715285Y-99241428D01*
X99005571Y-99241428D01*
X99150714Y-99314000D01*
X98497571Y-100184857D02*
X98642714Y-100257428D01*
X99005571Y-100257428D01*
X99150714Y-100184857D01*
X99223285Y-100039714D01*
X99223285Y-99894571D01*
X99150714Y-99749428D01*
X99005571Y-99676857D01*
X98642714Y-99676857D01*
X98497571Y-99604285D01*
X97771857Y-99241428D02*
X97771857Y-100257428D01*
X97771857Y-99386571D02*
X97699285Y-99314000D01*
X97554142Y-99241428D01*
X97336428Y-99241428D01*
X97191285Y-99314000D01*
X97118714Y-99459142D01*
X97118714Y-100257428D01*
X95739857Y-99241428D02*
X95739857Y-100475142D01*
X95812428Y-100620285D01*
X95884999Y-100692857D01*
X96030142Y-100765428D01*
X96247857Y-100765428D01*
X96392999Y-100692857D01*
X95739857Y-100184857D02*
X95884999Y-100257428D01*
X96175285Y-100257428D01*
X96320428Y-100184857D01*
X96392999Y-100112285D01*
X96465571Y-99967142D01*
X96465571Y-99531714D01*
X96392999Y-99386571D01*
X96320428Y-99314000D01*
X96175285Y-99241428D01*
X95884999Y-99241428D01*
X95739857Y-99314000D01*
X94433571Y-100184857D02*
X94578714Y-100257428D01*
X94868999Y-100257428D01*
X95014142Y-100184857D01*
X95086714Y-100039714D01*
X95086714Y-99459142D01*
X95014142Y-99314000D01*
X94868999Y-99241428D01*
X94578714Y-99241428D01*
X94433571Y-99314000D01*
X94360999Y-99459142D01*
X94360999Y-99604285D01*
X95086714Y-99749428D01*
X92546714Y-100257428D02*
X92546714Y-99241428D01*
X92546714Y-98733428D02*
X92619285Y-98806000D01*
X92546714Y-98878571D01*
X92474142Y-98806000D01*
X92546714Y-98733428D01*
X92546714Y-98878571D01*
X91820999Y-99241428D02*
X91820999Y-100257428D01*
X91820999Y-99386571D02*
X91748428Y-99314000D01*
X91603285Y-99241428D01*
X91385571Y-99241428D01*
X91240428Y-99314000D01*
X91167857Y-99459142D01*
X91167857Y-100257428D01*
X90442142Y-99241428D02*
X90442142Y-100765428D01*
X90442142Y-99314000D02*
X90296999Y-99241428D01*
X90006714Y-99241428D01*
X89861571Y-99314000D01*
X89788999Y-99386571D01*
X89716428Y-99531714D01*
X89716428Y-99967142D01*
X89788999Y-100112285D01*
X89861571Y-100184857D01*
X90006714Y-100257428D01*
X90296999Y-100257428D01*
X90442142Y-100184857D01*
X88410142Y-99241428D02*
X88410142Y-100257428D01*
X89063285Y-99241428D02*
X89063285Y-100039714D01*
X88990714Y-100184857D01*
X88845571Y-100257428D01*
X88627857Y-100257428D01*
X88482714Y-100184857D01*
X88410142Y-100112285D01*
X87902142Y-99241428D02*
X87321571Y-99241428D01*
X87684428Y-98733428D02*
X87684428Y-100039714D01*
X87611857Y-100184857D01*
X87466714Y-100257428D01*
X87321571Y-100257428D01*
X85652428Y-100257428D02*
X85652428Y-99241428D01*
X85652428Y-99531714D02*
X85579857Y-99386571D01*
X85507285Y-99314000D01*
X85362142Y-99241428D01*
X85216999Y-99241428D01*
X84128428Y-100184857D02*
X84273571Y-100257428D01*
X84563857Y-100257428D01*
X84708999Y-100184857D01*
X84781571Y-100039714D01*
X84781571Y-99459142D01*
X84708999Y-99314000D01*
X84563857Y-99241428D01*
X84273571Y-99241428D01*
X84128428Y-99314000D01*
X84055857Y-99459142D01*
X84055857Y-99604285D01*
X84781571Y-99749428D01*
X83475285Y-100184857D02*
X83330142Y-100257428D01*
X83039857Y-100257428D01*
X82894714Y-100184857D01*
X82822142Y-100039714D01*
X82822142Y-99967142D01*
X82894714Y-99822000D01*
X83039857Y-99749428D01*
X83257571Y-99749428D01*
X83402714Y-99676857D01*
X83475285Y-99531714D01*
X83475285Y-99459142D01*
X83402714Y-99314000D01*
X83257571Y-99241428D01*
X83039857Y-99241428D01*
X82894714Y-99314000D01*
X82168999Y-100257428D02*
X82168999Y-99241428D01*
X82168999Y-98733428D02*
X82241571Y-98806000D01*
X82168999Y-98878571D01*
X82096428Y-98806000D01*
X82168999Y-98733428D01*
X82168999Y-98878571D01*
X81515857Y-100184857D02*
X81370714Y-100257428D01*
X81080428Y-100257428D01*
X80935285Y-100184857D01*
X80862714Y-100039714D01*
X80862714Y-99967142D01*
X80935285Y-99822000D01*
X81080428Y-99749428D01*
X81298142Y-99749428D01*
X81443285Y-99676857D01*
X81515857Y-99531714D01*
X81515857Y-99459142D01*
X81443285Y-99314000D01*
X81298142Y-99241428D01*
X81080428Y-99241428D01*
X80935285Y-99314000D01*
X80427285Y-99241428D02*
X79846714Y-99241428D01*
X80209571Y-98733428D02*
X80209571Y-100039714D01*
X80136999Y-100184857D01*
X79991857Y-100257428D01*
X79846714Y-100257428D01*
X79120999Y-100257428D02*
X79266142Y-100184857D01*
X79338714Y-100112285D01*
X79411285Y-99967142D01*
X79411285Y-99531714D01*
X79338714Y-99386571D01*
X79266142Y-99314000D01*
X79120999Y-99241428D01*
X78903285Y-99241428D01*
X78758142Y-99314000D01*
X78685571Y-99386571D01*
X78612999Y-99531714D01*
X78612999Y-99967142D01*
X78685571Y-100112285D01*
X78758142Y-100184857D01*
X78903285Y-100257428D01*
X79120999Y-100257428D01*
X77959857Y-100257428D02*
X77959857Y-99241428D01*
X77959857Y-99531714D02*
X77887285Y-99386571D01*
X77814714Y-99314000D01*
X77669571Y-99241428D01*
X77524428Y-99241428D01*
X77088999Y-100184857D02*
X76943857Y-100257428D01*
X76653571Y-100257428D01*
X76508428Y-100184857D01*
X76435857Y-100039714D01*
X76435857Y-99967142D01*
X76508428Y-99822000D01*
X76653571Y-99749428D01*
X76871285Y-99749428D01*
X77016428Y-99676857D01*
X77088999Y-99531714D01*
X77088999Y-99459142D01*
X77016428Y-99314000D01*
X76871285Y-99241428D01*
X76653571Y-99241428D01*
X76508428Y-99314000D01*
X74621571Y-100257428D02*
X74621571Y-98733428D01*
X74621571Y-99314000D02*
X74476428Y-99241428D01*
X74186142Y-99241428D01*
X74040999Y-99314000D01*
X73968428Y-99386571D01*
X73895857Y-99531714D01*
X73895857Y-99967142D01*
X73968428Y-100112285D01*
X74040999Y-100184857D01*
X74186142Y-100257428D01*
X74476428Y-100257428D01*
X74621571Y-100184857D01*
X72662142Y-100184857D02*
X72807285Y-100257428D01*
X73097571Y-100257428D01*
X73242714Y-100184857D01*
X73315285Y-100039714D01*
X73315285Y-99459142D01*
X73242714Y-99314000D01*
X73097571Y-99241428D01*
X72807285Y-99241428D01*
X72662142Y-99314000D01*
X72589571Y-99459142D01*
X72589571Y-99604285D01*
X73315285Y-99749428D01*
X72154142Y-99241428D02*
X71573571Y-99241428D01*
X71936428Y-100257428D02*
X71936428Y-98951142D01*
X71863857Y-98806000D01*
X71718714Y-98733428D01*
X71573571Y-98733428D01*
X70847857Y-100257428D02*
X70992999Y-100184857D01*
X71065571Y-100112285D01*
X71138142Y-99967142D01*
X71138142Y-99531714D01*
X71065571Y-99386571D01*
X70992999Y-99314000D01*
X70847857Y-99241428D01*
X70630142Y-99241428D01*
X70484999Y-99314000D01*
X70412428Y-99386571D01*
X70339857Y-99531714D01*
X70339857Y-99967142D01*
X70412428Y-100112285D01*
X70484999Y-100184857D01*
X70630142Y-100257428D01*
X70847857Y-100257428D01*
X69686714Y-100257428D02*
X69686714Y-99241428D01*
X69686714Y-99531714D02*
X69614142Y-99386571D01*
X69541571Y-99314000D01*
X69396428Y-99241428D01*
X69251285Y-99241428D01*
X68162714Y-100184857D02*
X68307857Y-100257428D01*
X68598142Y-100257428D01*
X68743285Y-100184857D01*
X68815857Y-100039714D01*
X68815857Y-99459142D01*
X68743285Y-99314000D01*
X68598142Y-99241428D01*
X68307857Y-99241428D01*
X68162714Y-99314000D01*
X68090142Y-99459142D01*
X68090142Y-99604285D01*
X68815857Y-99749428D01*
X65622714Y-99241428D02*
X65622714Y-100257428D01*
X66275857Y-99241428D02*
X66275857Y-100039714D01*
X66203285Y-100184857D01*
X66058142Y-100257428D01*
X65840428Y-100257428D01*
X65695285Y-100184857D01*
X65622714Y-100112285D01*
X64969571Y-100184857D02*
X64824428Y-100257428D01*
X64534142Y-100257428D01*
X64388999Y-100184857D01*
X64316428Y-100039714D01*
X64316428Y-99967142D01*
X64388999Y-99822000D01*
X64534142Y-99749428D01*
X64751857Y-99749428D01*
X64896999Y-99676857D01*
X64969571Y-99531714D01*
X64969571Y-99459142D01*
X64896999Y-99314000D01*
X64751857Y-99241428D01*
X64534142Y-99241428D01*
X64388999Y-99314000D01*
X63082714Y-100184857D02*
X63227857Y-100257428D01*
X63518142Y-100257428D01*
X63663285Y-100184857D01*
X63735857Y-100039714D01*
X63735857Y-99459142D01*
X63663285Y-99314000D01*
X63518142Y-99241428D01*
X63227857Y-99241428D01*
X63082714Y-99314000D01*
X63010142Y-99459142D01*
X63010142Y-99604285D01*
X63735857Y-99749428D01*
X61195857Y-100257428D02*
X61195857Y-99241428D01*
X61195857Y-98733428D02*
X61268428Y-98806000D01*
X61195857Y-98878571D01*
X61123285Y-98806000D01*
X61195857Y-98733428D01*
X61195857Y-98878571D01*
X60470142Y-99241428D02*
X60470142Y-100257428D01*
X60470142Y-99386571D02*
X60397571Y-99314000D01*
X60252428Y-99241428D01*
X60034714Y-99241428D01*
X59889571Y-99314000D01*
X59816999Y-99459142D01*
X59816999Y-100257428D01*
X57712428Y-100257428D02*
X57857571Y-100184857D01*
X57930142Y-100112285D01*
X58002714Y-99967142D01*
X58002714Y-99531714D01*
X57930142Y-99386571D01*
X57857571Y-99314000D01*
X57712428Y-99241428D01*
X57494714Y-99241428D01*
X57349571Y-99314000D01*
X57276999Y-99386571D01*
X57204428Y-99531714D01*
X57204428Y-99967142D01*
X57276999Y-100112285D01*
X57349571Y-100184857D01*
X57494714Y-100257428D01*
X57712428Y-100257428D01*
X56768999Y-99241428D02*
X56188428Y-99241428D01*
X56551285Y-98733428D02*
X56551285Y-100039714D01*
X56478714Y-100184857D01*
X56333571Y-100257428D01*
X56188428Y-100257428D01*
X55680428Y-100257428D02*
X55680428Y-98733428D01*
X55027285Y-100257428D02*
X55027285Y-99459142D01*
X55099857Y-99314000D01*
X55244999Y-99241428D01*
X55462714Y-99241428D01*
X55607857Y-99314000D01*
X55680428Y-99386571D01*
X53720999Y-100184857D02*
X53866142Y-100257428D01*
X54156428Y-100257428D01*
X54301571Y-100184857D01*
X54374142Y-100039714D01*
X54374142Y-99459142D01*
X54301571Y-99314000D01*
X54156428Y-99241428D01*
X53866142Y-99241428D01*
X53720999Y-99314000D01*
X53648428Y-99459142D01*
X53648428Y-99604285D01*
X54374142Y-99749428D01*
X52995285Y-100257428D02*
X52995285Y-99241428D01*
X52995285Y-99531714D02*
X52922714Y-99386571D01*
X52850142Y-99314000D01*
X52704999Y-99241428D01*
X52559857Y-99241428D01*
X51035857Y-99241428D02*
X50672999Y-100257428D01*
X50310142Y-99241428D01*
X49511857Y-100257428D02*
X49656999Y-100184857D01*
X49729571Y-100112285D01*
X49802142Y-99967142D01*
X49802142Y-99531714D01*
X49729571Y-99386571D01*
X49656999Y-99314000D01*
X49511857Y-99241428D01*
X49294142Y-99241428D01*
X49148999Y-99314000D01*
X49076428Y-99386571D01*
X49003857Y-99531714D01*
X49003857Y-99967142D01*
X49076428Y-100112285D01*
X49148999Y-100184857D01*
X49294142Y-100257428D01*
X49511857Y-100257428D01*
X48132999Y-100257428D02*
X48278142Y-100184857D01*
X48350714Y-100039714D01*
X48350714Y-98733428D01*
X47770142Y-99241428D02*
X47189571Y-99241428D01*
X47552428Y-98733428D02*
X47552428Y-100039714D01*
X47479857Y-100184857D01*
X47334714Y-100257428D01*
X47189571Y-100257428D01*
X46028428Y-100257428D02*
X46028428Y-99459142D01*
X46100999Y-99314000D01*
X46246142Y-99241428D01*
X46536428Y-99241428D01*
X46681571Y-99314000D01*
X46028428Y-100184857D02*
X46173571Y-100257428D01*
X46536428Y-100257428D01*
X46681571Y-100184857D01*
X46754142Y-100039714D01*
X46754142Y-99894571D01*
X46681571Y-99749428D01*
X46536428Y-99676857D01*
X46173571Y-99676857D01*
X46028428Y-99604285D01*
X44649571Y-99241428D02*
X44649571Y-100475142D01*
X44722142Y-100620285D01*
X44794714Y-100692857D01*
X44939857Y-100765428D01*
X45157571Y-100765428D01*
X45302714Y-100692857D01*
X44649571Y-100184857D02*
X44794714Y-100257428D01*
X45084999Y-100257428D01*
X45230142Y-100184857D01*
X45302714Y-100112285D01*
X45375285Y-99967142D01*
X45375285Y-99531714D01*
X45302714Y-99386571D01*
X45230142Y-99314000D01*
X45084999Y-99241428D01*
X44794714Y-99241428D01*
X44649571Y-99314000D01*
X43343285Y-100184857D02*
X43488428Y-100257428D01*
X43778714Y-100257428D01*
X43923857Y-100184857D01*
X43996428Y-100039714D01*
X43996428Y-99459142D01*
X43923857Y-99314000D01*
X43778714Y-99241428D01*
X43488428Y-99241428D01*
X43343285Y-99314000D01*
X43270714Y-99459142D01*
X43270714Y-99604285D01*
X43996428Y-99749428D01*
X41456428Y-100112285D02*
X41383857Y-100184857D01*
X41456428Y-100257428D01*
X41528999Y-100184857D01*
X41456428Y-100112285D01*
X41456428Y-100257428D01*
X41456428Y-99676857D02*
X41528999Y-98806000D01*
X41456428Y-98733428D01*
X41383857Y-98806000D01*
X41456428Y-99676857D01*
X41456428Y-98733428D01*
X40730714Y-100112285D02*
X40658142Y-100184857D01*
X40730714Y-100257428D01*
X40803285Y-100184857D01*
X40730714Y-100112285D01*
X40730714Y-100257428D01*
X40730714Y-99676857D02*
X40803285Y-98806000D01*
X40730714Y-98733428D01*
X40658142Y-98806000D01*
X40730714Y-99676857D01*
X40730714Y-98733428D01*
X40004999Y-100112285D02*
X39932428Y-100184857D01*
X40004999Y-100257428D01*
X40077571Y-100184857D01*
X40004999Y-100112285D01*
X40004999Y-100257428D01*
X40004999Y-99676857D02*
X40077571Y-98806000D01*
X40004999Y-98733428D01*
X39932428Y-98806000D01*
X40004999Y-99676857D01*
X40004999Y-98733428D01*
D11*
X68560647Y-72900419D02*
X68221980Y-73916419D01*
X67883314Y-72900419D01*
X66238361Y-73916419D02*
X66818933Y-73916419D01*
X66528647Y-73916419D02*
X66528647Y-72900419D01*
X66625409Y-73045561D01*
X66722171Y-73142323D01*
X66818933Y-73190704D01*
X65802933Y-73819657D02*
X65754552Y-73868038D01*
X65802933Y-73916419D01*
X65851314Y-73868038D01*
X65802933Y-73819657D01*
X65802933Y-73916419D01*
X65125600Y-72900419D02*
X65028838Y-72900419D01*
X64932076Y-72948800D01*
X64883695Y-72997180D01*
X64835314Y-73093942D01*
X64786933Y-73287466D01*
X64786933Y-73529371D01*
X64835314Y-73722895D01*
X64883695Y-73819657D01*
X64932076Y-73868038D01*
X65028838Y-73916419D01*
X65125600Y-73916419D01*
X65222361Y-73868038D01*
X65270742Y-73819657D01*
X65319123Y-73722895D01*
X65367504Y-73529371D01*
X65367504Y-73287466D01*
X65319123Y-73093942D01*
X65270742Y-72997180D01*
X65222361Y-72948800D01*
X65125600Y-72900419D01*
X63819314Y-73916419D02*
X64399885Y-73916419D01*
X64109600Y-73916419D02*
X64109600Y-72900419D01*
X64206361Y-73045561D01*
X64303123Y-73142323D01*
X64399885Y-73190704D01*
X68248590Y-69801619D02*
X68829161Y-69801619D01*
X68538876Y-69801619D02*
X68538876Y-68785619D01*
X68635638Y-68930761D01*
X68732400Y-69027523D01*
X68829161Y-69075904D01*
X67377733Y-68785619D02*
X67571257Y-68785619D01*
X67668019Y-68834000D01*
X67716400Y-68882380D01*
X67813161Y-69027523D01*
X67861542Y-69221047D01*
X67861542Y-69608095D01*
X67813161Y-69704857D01*
X67764780Y-69753238D01*
X67668019Y-69801619D01*
X67474495Y-69801619D01*
X67377733Y-69753238D01*
X67329352Y-69704857D01*
X67280971Y-69608095D01*
X67280971Y-69366190D01*
X67329352Y-69269428D01*
X67377733Y-69221047D01*
X67474495Y-69172666D01*
X67668019Y-69172666D01*
X67764780Y-69221047D01*
X67813161Y-69269428D01*
X67861542Y-69366190D01*
X65490876Y-69704857D02*
X65539257Y-69753238D01*
X65684400Y-69801619D01*
X65781161Y-69801619D01*
X65926304Y-69753238D01*
X66023066Y-69656476D01*
X66071447Y-69559714D01*
X66119828Y-69366190D01*
X66119828Y-69221047D01*
X66071447Y-69027523D01*
X66023066Y-68930761D01*
X65926304Y-68834000D01*
X65781161Y-68785619D01*
X65684400Y-68785619D01*
X65539257Y-68834000D01*
X65490876Y-68882380D01*
X65055447Y-69801619D02*
X65055447Y-68785619D01*
X65055447Y-69269428D02*
X64474876Y-69269428D01*
X64474876Y-69801619D02*
X64474876Y-68785619D01*
X63216971Y-69801619D02*
X63216971Y-68785619D01*
X62781542Y-69753238D02*
X62684780Y-69801619D01*
X62491257Y-69801619D01*
X62394495Y-69753238D01*
X62346114Y-69656476D01*
X62346114Y-69608095D01*
X62394495Y-69511333D01*
X62491257Y-69462952D01*
X62636400Y-69462952D01*
X62733161Y-69414571D01*
X62781542Y-69317809D01*
X62781542Y-69269428D01*
X62733161Y-69172666D01*
X62636400Y-69124285D01*
X62491257Y-69124285D01*
X62394495Y-69172666D01*
X61765542Y-69801619D02*
X61862304Y-69753238D01*
X61910685Y-69704857D01*
X61959066Y-69608095D01*
X61959066Y-69317809D01*
X61910685Y-69221047D01*
X61862304Y-69172666D01*
X61765542Y-69124285D01*
X61620400Y-69124285D01*
X61523638Y-69172666D01*
X61475257Y-69221047D01*
X61426876Y-69317809D01*
X61426876Y-69608095D01*
X61475257Y-69704857D01*
X61523638Y-69753238D01*
X61620400Y-69801619D01*
X61765542Y-69801619D01*
X60846304Y-69801619D02*
X60943066Y-69753238D01*
X60991447Y-69656476D01*
X60991447Y-68785619D01*
X60023828Y-69801619D02*
X60023828Y-69269428D01*
X60072209Y-69172666D01*
X60168971Y-69124285D01*
X60362495Y-69124285D01*
X60459257Y-69172666D01*
X60023828Y-69753238D02*
X60120590Y-69801619D01*
X60362495Y-69801619D01*
X60459257Y-69753238D01*
X60507638Y-69656476D01*
X60507638Y-69559714D01*
X60459257Y-69462952D01*
X60362495Y-69414571D01*
X60120590Y-69414571D01*
X60023828Y-69366190D01*
X59685161Y-69124285D02*
X59298114Y-69124285D01*
X59540019Y-68785619D02*
X59540019Y-69656476D01*
X59491638Y-69753238D01*
X59394876Y-69801619D01*
X59298114Y-69801619D01*
X58572400Y-69753238D02*
X58669161Y-69801619D01*
X58862685Y-69801619D01*
X58959447Y-69753238D01*
X59007828Y-69656476D01*
X59007828Y-69269428D01*
X58959447Y-69172666D01*
X58862685Y-69124285D01*
X58669161Y-69124285D01*
X58572400Y-69172666D01*
X58524019Y-69269428D01*
X58524019Y-69366190D01*
X59007828Y-69462952D01*
X57653161Y-69801619D02*
X57653161Y-68785619D01*
X57653161Y-69753238D02*
X57749923Y-69801619D01*
X57943447Y-69801619D01*
X58040209Y-69753238D01*
X58088590Y-69704857D01*
X58136971Y-69608095D01*
X58136971Y-69317809D01*
X58088590Y-69221047D01*
X58040209Y-69172666D01*
X57943447Y-69124285D01*
X57749923Y-69124285D01*
X57653161Y-69172666D01*
X56395257Y-69801619D02*
X56395257Y-68785619D01*
X56153352Y-68785619D01*
X56008209Y-68834000D01*
X55911447Y-68930761D01*
X55863066Y-69027523D01*
X55814685Y-69221047D01*
X55814685Y-69366190D01*
X55863066Y-69559714D01*
X55911447Y-69656476D01*
X56008209Y-69753238D01*
X56153352Y-69801619D01*
X56395257Y-69801619D01*
X55379257Y-69801619D02*
X55379257Y-69124285D01*
X55379257Y-68785619D02*
X55427638Y-68834000D01*
X55379257Y-68882380D01*
X55330876Y-68834000D01*
X55379257Y-68785619D01*
X55379257Y-68882380D01*
X54460019Y-69124285D02*
X54460019Y-69946761D01*
X54508400Y-70043523D01*
X54556780Y-70091904D01*
X54653542Y-70140285D01*
X54798685Y-70140285D01*
X54895447Y-70091904D01*
X54460019Y-69753238D02*
X54556780Y-69801619D01*
X54750304Y-69801619D01*
X54847066Y-69753238D01*
X54895447Y-69704857D01*
X54943828Y-69608095D01*
X54943828Y-69317809D01*
X54895447Y-69221047D01*
X54847066Y-69172666D01*
X54750304Y-69124285D01*
X54556780Y-69124285D01*
X54460019Y-69172666D01*
X53976209Y-69801619D02*
X53976209Y-69124285D01*
X53976209Y-68785619D02*
X54024590Y-68834000D01*
X53976209Y-68882380D01*
X53927828Y-68834000D01*
X53976209Y-68785619D01*
X53976209Y-68882380D01*
X53637542Y-69124285D02*
X53250495Y-69124285D01*
X53492400Y-68785619D02*
X53492400Y-69656476D01*
X53444019Y-69753238D01*
X53347257Y-69801619D01*
X53250495Y-69801619D01*
X52476399Y-69801619D02*
X52476399Y-69269428D01*
X52524780Y-69172666D01*
X52621542Y-69124285D01*
X52815066Y-69124285D01*
X52911828Y-69172666D01*
X52476399Y-69753238D02*
X52573161Y-69801619D01*
X52815066Y-69801619D01*
X52911828Y-69753238D01*
X52960209Y-69656476D01*
X52960209Y-69559714D01*
X52911828Y-69462952D01*
X52815066Y-69414571D01*
X52573161Y-69414571D01*
X52476399Y-69366190D01*
X51847447Y-69801619D02*
X51944209Y-69753238D01*
X51992590Y-69656476D01*
X51992590Y-68785619D01*
X50686304Y-69801619D02*
X50686304Y-68785619D01*
X50202495Y-69124285D02*
X50202495Y-69801619D01*
X50202495Y-69221047D02*
X50154114Y-69172666D01*
X50057352Y-69124285D01*
X49912209Y-69124285D01*
X49815447Y-69172666D01*
X49767066Y-69269428D01*
X49767066Y-69801619D01*
X49283257Y-69124285D02*
X49283257Y-70140285D01*
X49283257Y-69172666D02*
X49186495Y-69124285D01*
X48992971Y-69124285D01*
X48896209Y-69172666D01*
X48847828Y-69221047D01*
X48799447Y-69317809D01*
X48799447Y-69608095D01*
X48847828Y-69704857D01*
X48896209Y-69753238D01*
X48992971Y-69801619D01*
X49186495Y-69801619D01*
X49283257Y-69753238D01*
X47928590Y-69124285D02*
X47928590Y-69801619D01*
X48364019Y-69124285D02*
X48364019Y-69656476D01*
X48315638Y-69753238D01*
X48218876Y-69801619D01*
X48073733Y-69801619D01*
X47976971Y-69753238D01*
X47928590Y-69704857D01*
X47589923Y-69124285D02*
X47202876Y-69124285D01*
X47444780Y-68785619D02*
X47444780Y-69656476D01*
X47396399Y-69753238D01*
X47299638Y-69801619D01*
X47202876Y-69801619D01*
X46090114Y-69801619D02*
X46090114Y-68785619D01*
X45751447Y-69511333D01*
X45412780Y-68785619D01*
X45412780Y-69801619D01*
X44783828Y-69801619D02*
X44880590Y-69753238D01*
X44928971Y-69704857D01*
X44977352Y-69608095D01*
X44977352Y-69317809D01*
X44928971Y-69221047D01*
X44880590Y-69172666D01*
X44783828Y-69124285D01*
X44638685Y-69124285D01*
X44541923Y-69172666D01*
X44493542Y-69221047D01*
X44445161Y-69317809D01*
X44445161Y-69608095D01*
X44493542Y-69704857D01*
X44541923Y-69753238D01*
X44638685Y-69801619D01*
X44783828Y-69801619D01*
X43574304Y-69801619D02*
X43574304Y-68785619D01*
X43574304Y-69753238D02*
X43671066Y-69801619D01*
X43864590Y-69801619D01*
X43961352Y-69753238D01*
X44009733Y-69704857D01*
X44058114Y-69608095D01*
X44058114Y-69317809D01*
X44009733Y-69221047D01*
X43961352Y-69172666D01*
X43864590Y-69124285D01*
X43671066Y-69124285D01*
X43574304Y-69172666D01*
X42655066Y-69124285D02*
X42655066Y-69801619D01*
X43090495Y-69124285D02*
X43090495Y-69656476D01*
X43042114Y-69753238D01*
X42945352Y-69801619D01*
X42800209Y-69801619D01*
X42703447Y-69753238D01*
X42655066Y-69704857D01*
X42026114Y-69801619D02*
X42122876Y-69753238D01*
X42171257Y-69656476D01*
X42171257Y-68785619D01*
X41252019Y-69753238D02*
X41348780Y-69801619D01*
X41542304Y-69801619D01*
X41639066Y-69753238D01*
X41687447Y-69656476D01*
X41687447Y-69269428D01*
X41639066Y-69172666D01*
X41542304Y-69124285D01*
X41348780Y-69124285D01*
X41252019Y-69172666D01*
X41203638Y-69269428D01*
X41203638Y-69366190D01*
X41687447Y-69462952D01*
X68086514Y-71833619D02*
X68570323Y-71833619D01*
X68570323Y-70817619D01*
X67747847Y-71833619D02*
X67747847Y-70817619D01*
X67747847Y-71301428D02*
X67167276Y-71301428D01*
X67167276Y-71833619D02*
X67167276Y-70817619D01*
X66731847Y-71543333D02*
X66248038Y-71543333D01*
X66828609Y-71833619D02*
X66489942Y-70817619D01*
X66151276Y-71833619D01*
X65909371Y-70817619D02*
X65232038Y-70817619D01*
X65667466Y-71833619D01*
X64844990Y-71301428D02*
X64506323Y-71301428D01*
X64361180Y-71833619D02*
X64844990Y-71833619D01*
X64844990Y-70817619D01*
X64361180Y-70817619D01*
X63780609Y-71253047D02*
X63877371Y-71204666D01*
X63925752Y-71156285D01*
X63974133Y-71059523D01*
X63974133Y-71011142D01*
X63925752Y-70914380D01*
X63877371Y-70866000D01*
X63780609Y-70817619D01*
X63587085Y-70817619D01*
X63490323Y-70866000D01*
X63441942Y-70914380D01*
X63393561Y-71011142D01*
X63393561Y-71059523D01*
X63441942Y-71156285D01*
X63490323Y-71204666D01*
X63587085Y-71253047D01*
X63780609Y-71253047D01*
X63877371Y-71301428D01*
X63925752Y-71349809D01*
X63974133Y-71446571D01*
X63974133Y-71640095D01*
X63925752Y-71736857D01*
X63877371Y-71785238D01*
X63780609Y-71833619D01*
X63587085Y-71833619D01*
X63490323Y-71785238D01*
X63441942Y-71736857D01*
X63393561Y-71640095D01*
X63393561Y-71446571D01*
X63441942Y-71349809D01*
X63490323Y-71301428D01*
X63587085Y-71253047D01*
X62184038Y-71833619D02*
X62184038Y-70817619D01*
X61845371Y-71543333D01*
X61506704Y-70817619D01*
X61506704Y-71833619D01*
X61022895Y-71833619D02*
X61022895Y-70817619D01*
X60442323Y-71833619D02*
X60877752Y-71253047D01*
X60442323Y-70817619D02*
X61022895Y-71398190D01*
X60006895Y-71736857D02*
X59958514Y-71785238D01*
X60006895Y-71833619D01*
X60055276Y-71785238D01*
X60006895Y-71736857D01*
X60006895Y-71833619D01*
X59571466Y-70914380D02*
X59523085Y-70866000D01*
X59426323Y-70817619D01*
X59184419Y-70817619D01*
X59087657Y-70866000D01*
X59039276Y-70914380D01*
X58990895Y-71011142D01*
X58990895Y-71107904D01*
X59039276Y-71253047D01*
X59619847Y-71833619D01*
X58990895Y-71833619D01*
D12*
X131318000Y-105537000D03*
X129921000Y-36195000D03*
X81407000Y-35941000D03*
X41148000Y-105537000D03*
X87249000Y-93218000D03*
D13*
X76230000Y-88265000D03*
X72730000Y-93265000D03*
X69230000Y-88265000D03*
X65730000Y-93265000D03*
X62230000Y-88265000D03*
X58730000Y-93265000D03*
X55230000Y-88265000D03*
X51730000Y-93265000D03*
X48230000Y-88265000D03*
X44730000Y-93265000D03*
X97435000Y-93265000D03*
X100935000Y-88265000D03*
X104435000Y-93265000D03*
X107935000Y-88265000D03*
X111435000Y-93265000D03*
X114935000Y-88265000D03*
X118435000Y-93265000D03*
X121935000Y-88265000D03*
X125435000Y-93265000D03*
X128935000Y-88265000D03*
D14*
X110490000Y-40005000D03*
X107950000Y-40005000D03*
X105410000Y-40005000D03*
X102870000Y-40005000D03*
X100330000Y-40005000D03*
X97790000Y-40005000D03*
X95250000Y-40005000D03*
X92710000Y-40005000D03*
X90170000Y-40005000D03*
D15*
X87630000Y-40005000D03*
D14*
X64770000Y-40005000D03*
X62230000Y-40005000D03*
X59690000Y-40005000D03*
X57150000Y-40005000D03*
X54610000Y-40005000D03*
X52070000Y-40005000D03*
X49530000Y-40005000D03*
X46990000Y-40005000D03*
X44450000Y-40005000D03*
D15*
X41910000Y-40005000D03*
D16*
X127635000Y-55245000D03*
X130175000Y-62865000D03*
X130175000Y-55245000D03*
D17*
X127635000Y-62865000D03*
D16*
X121920000Y-55245000D03*
X124460000Y-62865000D03*
X124460000Y-55245000D03*
D17*
X121920000Y-62865000D03*
D16*
X116205000Y-55245000D03*
X118745000Y-62865000D03*
X118745000Y-55245000D03*
D17*
X116205000Y-62865000D03*
D16*
X110490000Y-55245000D03*
X113030000Y-62865000D03*
X113030000Y-55245000D03*
D17*
X110490000Y-62865000D03*
D16*
X104775000Y-55245000D03*
X107315000Y-62865000D03*
X107315000Y-55245000D03*
D17*
X104775000Y-62865000D03*
D16*
X99060000Y-55245000D03*
X101600000Y-62865000D03*
X101600000Y-55245000D03*
D17*
X99060000Y-62865000D03*
D16*
X93345000Y-55245000D03*
X95885000Y-62865000D03*
X95885000Y-55245000D03*
D17*
X93345000Y-62865000D03*
D16*
X87630000Y-55245000D03*
X90170000Y-62865000D03*
X90170000Y-55245000D03*
D17*
X87630000Y-62865000D03*
D16*
X81915000Y-55245000D03*
X84455000Y-62865000D03*
X84455000Y-55245000D03*
D17*
X81915000Y-62865000D03*
D16*
X76200000Y-55245000D03*
X78740000Y-62865000D03*
X78740000Y-55245000D03*
D17*
X76200000Y-62865000D03*
D16*
X70485000Y-55245000D03*
X73025000Y-62865000D03*
X73025000Y-55245000D03*
D17*
X70485000Y-62865000D03*
D16*
X64770000Y-55245000D03*
X67310000Y-62865000D03*
X67310000Y-55245000D03*
D17*
X64770000Y-62865000D03*
D16*
X59055000Y-55245000D03*
X61595000Y-62865000D03*
X61595000Y-55245000D03*
D17*
X59055000Y-62865000D03*
D16*
X53340000Y-55245000D03*
X55880000Y-62865000D03*
X55880000Y-55245000D03*
D17*
X53340000Y-62865000D03*
D16*
X47625000Y-55245000D03*
X50165000Y-62865000D03*
X50165000Y-55245000D03*
D17*
X47625000Y-62865000D03*
D16*
X41910000Y-55245000D03*
X44450000Y-62865000D03*
X44450000Y-55245000D03*
D17*
X41910000Y-62865000D03*
D18*
X114554000Y-31115000D03*
X116205000Y-31115000D03*
X118110000Y-31115000D03*
X120015000Y-31115000D03*
X121920000Y-31115000D03*
D19*
X114300000Y-44069000D03*
X68707000Y-44069000D03*
X41910000Y-50800000D03*
X87630000Y-50800000D03*
X44450000Y-80391000D03*
X50165000Y-80391000D03*
X55880000Y-80391000D03*
X61595000Y-80391000D03*
X67310000Y-80391000D03*
X73025000Y-80391000D03*
X78740000Y-80391000D03*
X84455000Y-80391000D03*
X90170000Y-80391000D03*
X95885000Y-80391000D03*
X101600000Y-80391000D03*
X107315000Y-80391000D03*
X113030000Y-80391000D03*
X118618000Y-80391000D03*
X124460000Y-80391000D03*
X130175000Y-80391000D03*
D20*
X84455000Y-57023000D02*
X84455000Y-55245000D01*
X84328000Y-57150000D02*
X84455000Y-57023000D01*
X44450000Y-55245000D02*
X44450000Y-57150000D01*
X50165000Y-56376370D02*
X50165000Y-57150000D01*
X50165000Y-55245000D02*
X50165000Y-56376370D01*
X44450000Y-57150000D02*
X50165000Y-57150000D01*
X55880000Y-56376370D02*
X55880000Y-57150000D01*
X55880000Y-55245000D02*
X55880000Y-56376370D01*
X50165000Y-57150000D02*
X55880000Y-57150000D01*
X61595000Y-56376370D02*
X61595000Y-57150000D01*
X61595000Y-55245000D02*
X61595000Y-56376370D01*
X55880000Y-57150000D02*
X61595000Y-57150000D01*
X67310000Y-56376370D02*
X67310000Y-57150000D01*
X67310000Y-55245000D02*
X67310000Y-56376370D01*
X61595000Y-57150000D02*
X67310000Y-57150000D01*
X73025000Y-57023000D02*
X73152000Y-57150000D01*
X73025000Y-55245000D02*
X73025000Y-57023000D01*
X67310000Y-57150000D02*
X73152000Y-57150000D01*
X78740000Y-56376370D02*
X78740000Y-57150000D01*
X78740000Y-55245000D02*
X78740000Y-56376370D01*
X73152000Y-57150000D02*
X78740000Y-57150000D01*
X83566000Y-57150000D02*
X84328000Y-57150000D01*
X78740000Y-57150000D02*
X83566000Y-57150000D01*
X130175000Y-57023000D02*
X130175000Y-55245000D01*
X130048000Y-57150000D02*
X130175000Y-57023000D01*
X90170000Y-55245000D02*
X90170000Y-57150000D01*
X95885000Y-55245000D02*
X95885000Y-57150000D01*
X90170000Y-57150000D02*
X95885000Y-57150000D01*
X101600000Y-56376370D02*
X101600000Y-57150000D01*
X101600000Y-55245000D02*
X101600000Y-56376370D01*
X95885000Y-57150000D02*
X101600000Y-57150000D01*
X107315000Y-56376370D02*
X107315000Y-57150000D01*
X107315000Y-55245000D02*
X107315000Y-56376370D01*
X101600000Y-57150000D02*
X107315000Y-57150000D01*
X113030000Y-56376370D02*
X113030000Y-57150000D01*
X113030000Y-55245000D02*
X113030000Y-56376370D01*
X107315000Y-57150000D02*
X113030000Y-57150000D01*
X118745000Y-55245000D02*
X118745000Y-57150000D01*
X113030000Y-57150000D02*
X118745000Y-57150000D01*
X124460000Y-55245000D02*
X124460000Y-57150000D01*
X118745000Y-57150000D02*
X124460000Y-57150000D01*
X124460000Y-57150000D02*
X130048000Y-57150000D01*
X64770000Y-40005000D02*
X64770000Y-36322000D01*
X110490000Y-40005000D02*
X111550660Y-40005000D01*
X111550660Y-40005000D02*
X114300000Y-40005000D01*
X114300000Y-40005000D02*
X114300000Y-44069000D01*
X64770000Y-40005000D02*
X65830660Y-40005000D01*
X65830660Y-40005000D02*
X68707000Y-40005000D01*
X68707000Y-40005000D02*
X68707000Y-44069000D01*
X44450000Y-54113630D02*
X41910000Y-51573630D01*
X44450000Y-55245000D02*
X44450000Y-54113630D01*
X41910000Y-51573630D02*
X41910000Y-50800000D01*
X87630000Y-50800000D02*
X87630000Y-51435000D01*
X90170000Y-53975000D02*
X90170000Y-55245000D01*
X87630000Y-51435000D02*
X90170000Y-53975000D01*
X84582000Y-57150000D02*
X84455000Y-57023000D01*
X90170000Y-57150000D02*
X84582000Y-57150000D01*
X130175000Y-45593000D02*
X130175000Y-55245000D01*
X120904000Y-36322000D02*
X130175000Y-45593000D01*
X110490000Y-40005000D02*
X110490000Y-36322000D01*
X110490000Y-36322000D02*
X120904000Y-36322000D01*
X64770000Y-36322000D02*
X75311000Y-36322000D01*
X84455000Y-45466000D02*
X84455000Y-55245000D01*
X75311000Y-36322000D02*
X84455000Y-45466000D01*
D21*
X48230000Y-84171000D02*
X48230000Y-88265000D01*
X44450000Y-80391000D02*
X48230000Y-84171000D01*
X50165000Y-80391000D02*
X50165000Y-82931000D01*
X51730000Y-84496000D02*
X51730000Y-93265000D01*
X50165000Y-82931000D02*
X51730000Y-84496000D01*
X55880000Y-87615000D02*
X55230000Y-88265000D01*
X55880000Y-80391000D02*
X55880000Y-87615000D01*
X58730000Y-91850787D02*
X58730000Y-93265000D01*
X58730000Y-83821685D02*
X58730000Y-91850787D01*
X61595000Y-80956685D02*
X58730000Y-83821685D01*
X61595000Y-80391000D02*
X61595000Y-80956685D01*
X67310000Y-80391000D02*
X67310000Y-82423000D01*
X65730000Y-84003000D02*
X65730000Y-93265000D01*
X67310000Y-82423000D02*
X65730000Y-84003000D01*
X73025000Y-82677000D02*
X73025000Y-80391000D01*
X70739000Y-82677000D02*
X73025000Y-82677000D01*
X69230000Y-88265000D02*
X69230000Y-84186000D01*
X69230000Y-84186000D02*
X70739000Y-82677000D01*
X72730000Y-85512000D02*
X72730000Y-93265000D01*
X73787000Y-84455000D02*
X72730000Y-85512000D01*
X77216000Y-84455000D02*
X73787000Y-84455000D01*
X78740000Y-80391000D02*
X78740000Y-82931000D01*
X78740000Y-82931000D02*
X77216000Y-84455000D01*
X81915000Y-88265000D02*
X76230000Y-88265000D01*
X84455000Y-80391000D02*
X84455000Y-85725000D01*
X84455000Y-85725000D02*
X81915000Y-88265000D01*
X90170000Y-80391000D02*
X90170000Y-85725000D01*
X92710000Y-88265000D02*
X100935000Y-88265000D01*
X90170000Y-85725000D02*
X92710000Y-88265000D01*
X104435000Y-85385000D02*
X104435000Y-93265000D01*
X102870000Y-83820000D02*
X104435000Y-85385000D01*
X102870000Y-83820000D02*
X97917000Y-83820000D01*
X95885000Y-81788000D02*
X95885000Y-80391000D01*
X97917000Y-83820000D02*
X95885000Y-81788000D01*
X101600000Y-80391000D02*
X103759000Y-80391000D01*
X107935000Y-84567000D02*
X107935000Y-88265000D01*
X103759000Y-80391000D02*
X107935000Y-84567000D01*
X111435000Y-84511000D02*
X111435000Y-93265000D01*
X107315000Y-80391000D02*
X111435000Y-84511000D01*
X118435000Y-85796000D02*
X118435000Y-93265000D01*
X113030000Y-80391000D02*
X118435000Y-85796000D01*
X121935000Y-83708000D02*
X121935000Y-88265000D01*
X118618000Y-80391000D02*
X121935000Y-83708000D01*
X125435000Y-83017000D02*
X125435000Y-93265000D01*
X124460000Y-80391000D02*
X124460000Y-82042000D01*
X124460000Y-82042000D02*
X125435000Y-83017000D01*
X130175000Y-87025000D02*
X128935000Y-88265000D01*
X130175000Y-80391000D02*
X130175000Y-87025000D01*
D22*
X62230000Y-40005000D02*
X74168000Y-51943000D01*
X78613000Y-51943000D02*
X81915000Y-55245000D01*
X74168000Y-51943000D02*
X78613000Y-51943000D01*
X59690000Y-40005000D02*
X72644000Y-52959000D01*
X73914000Y-52959000D02*
X76200000Y-55245000D01*
X72644000Y-52959000D02*
X73914000Y-52959000D01*
X70485000Y-53340000D02*
X70485000Y-55245000D01*
X57150000Y-40005000D02*
X70485000Y-53340000D01*
X64770000Y-50165000D02*
X64770000Y-55245000D01*
X54610000Y-40005000D02*
X64770000Y-50165000D01*
X59055000Y-46990000D02*
X59055000Y-55245000D01*
X52070000Y-40005000D02*
X59055000Y-46990000D01*
X53340000Y-43815000D02*
X53340000Y-55245000D01*
X49530000Y-40005000D02*
X53340000Y-43815000D01*
X46990000Y-54610000D02*
X47625000Y-55245000D01*
X46990000Y-40005000D02*
X46990000Y-54610000D01*
X44450000Y-40005000D02*
X40640000Y-43815000D01*
X40640000Y-53975000D02*
X41910000Y-55245000D01*
X40640000Y-43815000D02*
X40640000Y-53975000D01*
X107950000Y-40005000D02*
X119253000Y-51308000D01*
X123698000Y-51308000D02*
X127635000Y-55245000D01*
X119253000Y-51308000D02*
X123698000Y-51308000D01*
X105410000Y-40005000D02*
X117729000Y-52324000D01*
X118999000Y-52324000D02*
X121920000Y-55245000D01*
X117729000Y-52324000D02*
X118999000Y-52324000D01*
X116205000Y-53340000D02*
X116205000Y-55245000D01*
X102870000Y-40005000D02*
X116205000Y-53340000D01*
X110490000Y-50165000D02*
X110490000Y-55245000D01*
X100330000Y-40005000D02*
X110490000Y-50165000D01*
X104775000Y-46990000D02*
X104775000Y-55245000D01*
X97790000Y-40005000D02*
X104775000Y-46990000D01*
X99060000Y-43815000D02*
X99060000Y-55245000D01*
X95250000Y-40005000D02*
X99060000Y-43815000D01*
X92710000Y-54610000D02*
X93345000Y-55245000D01*
X92710000Y-40005000D02*
X92710000Y-54610000D01*
X86830001Y-54445001D02*
X87630000Y-55245000D01*
X85979000Y-53594000D02*
X86830001Y-54445001D01*
X85979000Y-45256660D02*
X85979000Y-53594000D01*
X90170000Y-41065660D02*
X85979000Y-45256660D01*
X90170000Y-40005000D02*
X90170000Y-41065660D01*
D10*
G36*
X132384800Y-27839080D02*
G01*
X123050045Y-27889202D01*
X123025282Y-27891775D01*
X123001497Y-27899130D01*
X122980280Y-27910530D01*
X122372773Y-28315535D01*
X121490993Y-28854400D01*
X114453179Y-28854400D01*
X112961174Y-27859730D01*
X112939205Y-27848017D01*
X112915373Y-27840814D01*
X112890727Y-27838400D01*
X103986000Y-27838400D01*
X103986000Y-24536400D01*
X132384800Y-24536400D01*
X132384800Y-27839080D01*
X132384800Y-27839080D01*
G37*
X132384800Y-27839080D02*
X123050045Y-27889202D01*
X123025282Y-27891775D01*
X123001497Y-27899130D01*
X122980280Y-27910530D01*
X122372773Y-28315535D01*
X121490993Y-28854400D01*
X114453179Y-28854400D01*
X112961174Y-27859730D01*
X112939205Y-27848017D01*
X112915373Y-27840814D01*
X112890727Y-27838400D01*
X103986000Y-27838400D01*
X103986000Y-24536400D01*
X132384800Y-24536400D01*
X132384800Y-27839080D01*
M02*
