G04 #@! TF.GenerationSoftware,KiCad,Pcbnew,(5.1.0)-1*
G04 #@! TF.CreationDate,2019-05-12T18:19:35+08:00*
G04 #@! TF.ProjectId,16 ch isolation input,31362063-6820-4697-936f-6c6174696f6e,1.01*
G04 #@! TF.SameCoordinates,Original*
G04 #@! TF.FileFunction,Legend,Top*
G04 #@! TF.FilePolarity,Positive*
%FSLAX46Y46*%
G04 Gerber Fmt 4.6, Leading zero omitted, Abs format (unit mm)*
G04 Created by KiCad (PCBNEW (5.1.0)-1) date 2019-05-12 18:19:35*
%MOMM*%
%LPD*%
G04 APERTURE LIST*
%ADD10C,0.203200*%
%ADD11C,0.120000*%
%ADD12C,0.150000*%
G04 APERTURE END LIST*
D10*
X123715175Y-41658419D02*
X123134603Y-41658419D01*
X123424889Y-41658419D02*
X123424889Y-40642419D01*
X123328127Y-40787561D01*
X123231365Y-40884323D01*
X123134603Y-40932704D01*
X124586032Y-40642419D02*
X124392508Y-40642419D01*
X124295746Y-40690800D01*
X124247365Y-40739180D01*
X124150603Y-40884323D01*
X124102222Y-41077847D01*
X124102222Y-41464895D01*
X124150603Y-41561657D01*
X124198984Y-41610038D01*
X124295746Y-41658419D01*
X124489270Y-41658419D01*
X124586032Y-41610038D01*
X124634413Y-41561657D01*
X124682794Y-41464895D01*
X124682794Y-41222990D01*
X124634413Y-41126228D01*
X124586032Y-41077847D01*
X124489270Y-41029466D01*
X124295746Y-41029466D01*
X124198984Y-41077847D01*
X124150603Y-41126228D01*
X124102222Y-41222990D01*
X125118222Y-41271371D02*
X125892318Y-41271371D01*
X126956699Y-41561657D02*
X126908318Y-41610038D01*
X126763175Y-41658419D01*
X126666413Y-41658419D01*
X126521270Y-41610038D01*
X126424508Y-41513276D01*
X126376127Y-41416514D01*
X126327746Y-41222990D01*
X126327746Y-41077847D01*
X126376127Y-40884323D01*
X126424508Y-40787561D01*
X126521270Y-40690800D01*
X126666413Y-40642419D01*
X126763175Y-40642419D01*
X126908318Y-40690800D01*
X126956699Y-40739180D01*
X127392127Y-41658419D02*
X127392127Y-40642419D01*
X127392127Y-41126228D02*
X127972699Y-41126228D01*
X127972699Y-41658419D02*
X127972699Y-40642419D01*
X129230603Y-41658419D02*
X129230603Y-40642419D01*
X129666032Y-41610038D02*
X129762794Y-41658419D01*
X129956318Y-41658419D01*
X130053080Y-41610038D01*
X130101460Y-41513276D01*
X130101460Y-41464895D01*
X130053080Y-41368133D01*
X129956318Y-41319752D01*
X129811175Y-41319752D01*
X129714413Y-41271371D01*
X129666032Y-41174609D01*
X129666032Y-41126228D01*
X129714413Y-41029466D01*
X129811175Y-40981085D01*
X129956318Y-40981085D01*
X130053080Y-41029466D01*
X130682032Y-41658419D02*
X130585270Y-41610038D01*
X130536889Y-41561657D01*
X130488508Y-41464895D01*
X130488508Y-41174609D01*
X130536889Y-41077847D01*
X130585270Y-41029466D01*
X130682032Y-40981085D01*
X130827175Y-40981085D01*
X130923937Y-41029466D01*
X130972318Y-41077847D01*
X131020699Y-41174609D01*
X131020699Y-41464895D01*
X130972318Y-41561657D01*
X130923937Y-41610038D01*
X130827175Y-41658419D01*
X130682032Y-41658419D01*
X131601270Y-41658419D02*
X131504508Y-41610038D01*
X131456127Y-41513276D01*
X131456127Y-40642419D01*
X132423746Y-41658419D02*
X132423746Y-41126228D01*
X132375365Y-41029466D01*
X132278603Y-40981085D01*
X132085080Y-40981085D01*
X131988318Y-41029466D01*
X132423746Y-41610038D02*
X132326984Y-41658419D01*
X132085080Y-41658419D01*
X131988318Y-41610038D01*
X131939937Y-41513276D01*
X131939937Y-41416514D01*
X131988318Y-41319752D01*
X132085080Y-41271371D01*
X132326984Y-41271371D01*
X132423746Y-41222990D01*
X132762413Y-40981085D02*
X133149460Y-40981085D01*
X132907556Y-40642419D02*
X132907556Y-41513276D01*
X132955937Y-41610038D01*
X133052699Y-41658419D01*
X133149460Y-41658419D01*
X133875175Y-41610038D02*
X133778413Y-41658419D01*
X133584889Y-41658419D01*
X133488127Y-41610038D01*
X133439746Y-41513276D01*
X133439746Y-41126228D01*
X133488127Y-41029466D01*
X133584889Y-40981085D01*
X133778413Y-40981085D01*
X133875175Y-41029466D01*
X133923556Y-41126228D01*
X133923556Y-41222990D01*
X133439746Y-41319752D01*
X134794413Y-41658419D02*
X134794413Y-40642419D01*
X134794413Y-41610038D02*
X134697651Y-41658419D01*
X134504127Y-41658419D01*
X134407365Y-41610038D01*
X134358984Y-41561657D01*
X134310603Y-41464895D01*
X134310603Y-41174609D01*
X134358984Y-41077847D01*
X134407365Y-41029466D01*
X134504127Y-40981085D01*
X134697651Y-40981085D01*
X134794413Y-41029466D01*
X123182984Y-43385619D02*
X123182984Y-42369619D01*
X123424889Y-42369619D01*
X123570032Y-42418000D01*
X123666794Y-42514761D01*
X123715175Y-42611523D01*
X123763556Y-42805047D01*
X123763556Y-42950190D01*
X123715175Y-43143714D01*
X123666794Y-43240476D01*
X123570032Y-43337238D01*
X123424889Y-43385619D01*
X123182984Y-43385619D01*
X124198984Y-43385619D02*
X124198984Y-42708285D01*
X124198984Y-42369619D02*
X124150603Y-42418000D01*
X124198984Y-42466380D01*
X124247365Y-42418000D01*
X124198984Y-42369619D01*
X124198984Y-42466380D01*
X125118222Y-42708285D02*
X125118222Y-43530761D01*
X125069841Y-43627523D01*
X125021460Y-43675904D01*
X124924699Y-43724285D01*
X124779556Y-43724285D01*
X124682794Y-43675904D01*
X125118222Y-43337238D02*
X125021460Y-43385619D01*
X124827937Y-43385619D01*
X124731175Y-43337238D01*
X124682794Y-43288857D01*
X124634413Y-43192095D01*
X124634413Y-42901809D01*
X124682794Y-42805047D01*
X124731175Y-42756666D01*
X124827937Y-42708285D01*
X125021460Y-42708285D01*
X125118222Y-42756666D01*
X125602032Y-43385619D02*
X125602032Y-42708285D01*
X125602032Y-42369619D02*
X125553651Y-42418000D01*
X125602032Y-42466380D01*
X125650413Y-42418000D01*
X125602032Y-42369619D01*
X125602032Y-42466380D01*
X125940699Y-42708285D02*
X126327746Y-42708285D01*
X126085841Y-42369619D02*
X126085841Y-43240476D01*
X126134222Y-43337238D01*
X126230984Y-43385619D01*
X126327746Y-43385619D01*
X127101841Y-43385619D02*
X127101841Y-42853428D01*
X127053460Y-42756666D01*
X126956699Y-42708285D01*
X126763175Y-42708285D01*
X126666413Y-42756666D01*
X127101841Y-43337238D02*
X127005080Y-43385619D01*
X126763175Y-43385619D01*
X126666413Y-43337238D01*
X126618032Y-43240476D01*
X126618032Y-43143714D01*
X126666413Y-43046952D01*
X126763175Y-42998571D01*
X127005080Y-42998571D01*
X127101841Y-42950190D01*
X127730794Y-43385619D02*
X127634032Y-43337238D01*
X127585651Y-43240476D01*
X127585651Y-42369619D01*
X128891937Y-43385619D02*
X128891937Y-42369619D01*
X129375746Y-42708285D02*
X129375746Y-43385619D01*
X129375746Y-42805047D02*
X129424127Y-42756666D01*
X129520889Y-42708285D01*
X129666032Y-42708285D01*
X129762794Y-42756666D01*
X129811175Y-42853428D01*
X129811175Y-43385619D01*
X130294984Y-42708285D02*
X130294984Y-43724285D01*
X130294984Y-42756666D02*
X130391746Y-42708285D01*
X130585270Y-42708285D01*
X130682032Y-42756666D01*
X130730413Y-42805047D01*
X130778794Y-42901809D01*
X130778794Y-43192095D01*
X130730413Y-43288857D01*
X130682032Y-43337238D01*
X130585270Y-43385619D01*
X130391746Y-43385619D01*
X130294984Y-43337238D01*
X131649651Y-42708285D02*
X131649651Y-43385619D01*
X131214222Y-42708285D02*
X131214222Y-43240476D01*
X131262603Y-43337238D01*
X131359365Y-43385619D01*
X131504508Y-43385619D01*
X131601270Y-43337238D01*
X131649651Y-43288857D01*
X131988318Y-42708285D02*
X132375365Y-42708285D01*
X132133460Y-42369619D02*
X132133460Y-43240476D01*
X132181841Y-43337238D01*
X132278603Y-43385619D01*
X132375365Y-43385619D01*
X123182984Y-45112819D02*
X123182984Y-44096819D01*
X123521651Y-44822533D01*
X123860318Y-44096819D01*
X123860318Y-45112819D01*
X124489270Y-45112819D02*
X124392508Y-45064438D01*
X124344127Y-45016057D01*
X124295746Y-44919295D01*
X124295746Y-44629009D01*
X124344127Y-44532247D01*
X124392508Y-44483866D01*
X124489270Y-44435485D01*
X124634413Y-44435485D01*
X124731175Y-44483866D01*
X124779556Y-44532247D01*
X124827937Y-44629009D01*
X124827937Y-44919295D01*
X124779556Y-45016057D01*
X124731175Y-45064438D01*
X124634413Y-45112819D01*
X124489270Y-45112819D01*
X125698794Y-45112819D02*
X125698794Y-44096819D01*
X125698794Y-45064438D02*
X125602032Y-45112819D01*
X125408508Y-45112819D01*
X125311746Y-45064438D01*
X125263365Y-45016057D01*
X125214984Y-44919295D01*
X125214984Y-44629009D01*
X125263365Y-44532247D01*
X125311746Y-44483866D01*
X125408508Y-44435485D01*
X125602032Y-44435485D01*
X125698794Y-44483866D01*
X126618032Y-44435485D02*
X126618032Y-45112819D01*
X126182603Y-44435485D02*
X126182603Y-44967676D01*
X126230984Y-45064438D01*
X126327746Y-45112819D01*
X126472889Y-45112819D01*
X126569651Y-45064438D01*
X126618032Y-45016057D01*
X127246984Y-45112819D02*
X127150222Y-45064438D01*
X127101841Y-44967676D01*
X127101841Y-44096819D01*
X128021080Y-45064438D02*
X127924318Y-45112819D01*
X127730794Y-45112819D01*
X127634032Y-45064438D01*
X127585651Y-44967676D01*
X127585651Y-44580628D01*
X127634032Y-44483866D01*
X127730794Y-44435485D01*
X127924318Y-44435485D01*
X128021080Y-44483866D01*
X128069460Y-44580628D01*
X128069460Y-44677390D01*
X127585651Y-44774152D01*
X129133841Y-44096819D02*
X129472508Y-45112819D01*
X129811175Y-44096819D01*
X131456127Y-45112819D02*
X130875556Y-45112819D01*
X131165841Y-45112819D02*
X131165841Y-44096819D01*
X131069080Y-44241961D01*
X130972318Y-44338723D01*
X130875556Y-44387104D01*
X131891556Y-45016057D02*
X131939937Y-45064438D01*
X131891556Y-45112819D01*
X131843175Y-45064438D01*
X131891556Y-45016057D01*
X131891556Y-45112819D01*
X132568889Y-44096819D02*
X132665651Y-44096819D01*
X132762413Y-44145200D01*
X132810794Y-44193580D01*
X132859175Y-44290342D01*
X132907556Y-44483866D01*
X132907556Y-44725771D01*
X132859175Y-44919295D01*
X132810794Y-45016057D01*
X132762413Y-45064438D01*
X132665651Y-45112819D01*
X132568889Y-45112819D01*
X132472127Y-45064438D01*
X132423746Y-45016057D01*
X132375365Y-44919295D01*
X132326984Y-44725771D01*
X132326984Y-44483866D01*
X132375365Y-44290342D01*
X132423746Y-44193580D01*
X132472127Y-44145200D01*
X132568889Y-44096819D01*
X133875175Y-45112819D02*
X133294603Y-45112819D01*
X133584889Y-45112819D02*
X133584889Y-44096819D01*
X133488127Y-44241961D01*
X133391365Y-44338723D01*
X133294603Y-44387104D01*
X124139476Y-104345619D02*
X123558904Y-104345619D01*
X123849190Y-104345619D02*
X123849190Y-103329619D01*
X123752428Y-103474761D01*
X123655666Y-103571523D01*
X123558904Y-103619904D01*
X125010333Y-103329619D02*
X124816809Y-103329619D01*
X124720047Y-103378000D01*
X124671666Y-103426380D01*
X124574904Y-103571523D01*
X124526523Y-103765047D01*
X124526523Y-104152095D01*
X124574904Y-104248857D01*
X124623285Y-104297238D01*
X124720047Y-104345619D01*
X124913571Y-104345619D01*
X125010333Y-104297238D01*
X125058714Y-104248857D01*
X125107095Y-104152095D01*
X125107095Y-103910190D01*
X125058714Y-103813428D01*
X125010333Y-103765047D01*
X124913571Y-103716666D01*
X124720047Y-103716666D01*
X124623285Y-103765047D01*
X124574904Y-103813428D01*
X124526523Y-103910190D01*
X119186476Y-104345619D02*
X118605904Y-104345619D01*
X118896190Y-104345619D02*
X118896190Y-103329619D01*
X118799428Y-103474761D01*
X118702666Y-103571523D01*
X118605904Y-103619904D01*
X120105714Y-103329619D02*
X119621904Y-103329619D01*
X119573523Y-103813428D01*
X119621904Y-103765047D01*
X119718666Y-103716666D01*
X119960571Y-103716666D01*
X120057333Y-103765047D01*
X120105714Y-103813428D01*
X120154095Y-103910190D01*
X120154095Y-104152095D01*
X120105714Y-104248857D01*
X120057333Y-104297238D01*
X119960571Y-104345619D01*
X119718666Y-104345619D01*
X119621904Y-104297238D01*
X119573523Y-104248857D01*
X114106476Y-104345619D02*
X113525904Y-104345619D01*
X113816190Y-104345619D02*
X113816190Y-103329619D01*
X113719428Y-103474761D01*
X113622666Y-103571523D01*
X113525904Y-103619904D01*
X114977333Y-103668285D02*
X114977333Y-104345619D01*
X114735428Y-103281238D02*
X114493523Y-104006952D01*
X115122476Y-104006952D01*
X109026476Y-104345619D02*
X108445904Y-104345619D01*
X108736190Y-104345619D02*
X108736190Y-103329619D01*
X108639428Y-103474761D01*
X108542666Y-103571523D01*
X108445904Y-103619904D01*
X109365142Y-103329619D02*
X109994095Y-103329619D01*
X109655428Y-103716666D01*
X109800571Y-103716666D01*
X109897333Y-103765047D01*
X109945714Y-103813428D01*
X109994095Y-103910190D01*
X109994095Y-104152095D01*
X109945714Y-104248857D01*
X109897333Y-104297238D01*
X109800571Y-104345619D01*
X109510285Y-104345619D01*
X109413523Y-104297238D01*
X109365142Y-104248857D01*
X103819476Y-104345619D02*
X103238904Y-104345619D01*
X103529190Y-104345619D02*
X103529190Y-103329619D01*
X103432428Y-103474761D01*
X103335666Y-103571523D01*
X103238904Y-103619904D01*
X104206523Y-103426380D02*
X104254904Y-103378000D01*
X104351666Y-103329619D01*
X104593571Y-103329619D01*
X104690333Y-103378000D01*
X104738714Y-103426380D01*
X104787095Y-103523142D01*
X104787095Y-103619904D01*
X104738714Y-103765047D01*
X104158142Y-104345619D01*
X104787095Y-104345619D01*
X98866476Y-104345619D02*
X98285904Y-104345619D01*
X98576190Y-104345619D02*
X98576190Y-103329619D01*
X98479428Y-103474761D01*
X98382666Y-103571523D01*
X98285904Y-103619904D01*
X99834095Y-104345619D02*
X99253523Y-104345619D01*
X99543809Y-104345619D02*
X99543809Y-103329619D01*
X99447047Y-103474761D01*
X99350285Y-103571523D01*
X99253523Y-103619904D01*
X93913476Y-104345619D02*
X93332904Y-104345619D01*
X93623190Y-104345619D02*
X93623190Y-103329619D01*
X93526428Y-103474761D01*
X93429666Y-103571523D01*
X93332904Y-103619904D01*
X94542428Y-103329619D02*
X94639190Y-103329619D01*
X94735952Y-103378000D01*
X94784333Y-103426380D01*
X94832714Y-103523142D01*
X94881095Y-103716666D01*
X94881095Y-103958571D01*
X94832714Y-104152095D01*
X94784333Y-104248857D01*
X94735952Y-104297238D01*
X94639190Y-104345619D01*
X94542428Y-104345619D01*
X94445666Y-104297238D01*
X94397285Y-104248857D01*
X94348904Y-104152095D01*
X94300523Y-103958571D01*
X94300523Y-103716666D01*
X94348904Y-103523142D01*
X94397285Y-103426380D01*
X94445666Y-103378000D01*
X94542428Y-103329619D01*
X88833476Y-104345619D02*
X89027000Y-104345619D01*
X89123761Y-104297238D01*
X89172142Y-104248857D01*
X89268904Y-104103714D01*
X89317285Y-103910190D01*
X89317285Y-103523142D01*
X89268904Y-103426380D01*
X89220523Y-103378000D01*
X89123761Y-103329619D01*
X88930238Y-103329619D01*
X88833476Y-103378000D01*
X88785095Y-103426380D01*
X88736714Y-103523142D01*
X88736714Y-103765047D01*
X88785095Y-103861809D01*
X88833476Y-103910190D01*
X88930238Y-103958571D01*
X89123761Y-103958571D01*
X89220523Y-103910190D01*
X89268904Y-103861809D01*
X89317285Y-103765047D01*
X83596238Y-103765047D02*
X83499476Y-103716666D01*
X83451095Y-103668285D01*
X83402714Y-103571523D01*
X83402714Y-103523142D01*
X83451095Y-103426380D01*
X83499476Y-103378000D01*
X83596238Y-103329619D01*
X83789761Y-103329619D01*
X83886523Y-103378000D01*
X83934904Y-103426380D01*
X83983285Y-103523142D01*
X83983285Y-103571523D01*
X83934904Y-103668285D01*
X83886523Y-103716666D01*
X83789761Y-103765047D01*
X83596238Y-103765047D01*
X83499476Y-103813428D01*
X83451095Y-103861809D01*
X83402714Y-103958571D01*
X83402714Y-104152095D01*
X83451095Y-104248857D01*
X83499476Y-104297238D01*
X83596238Y-104345619D01*
X83789761Y-104345619D01*
X83886523Y-104297238D01*
X83934904Y-104248857D01*
X83983285Y-104152095D01*
X83983285Y-103958571D01*
X83934904Y-103861809D01*
X83886523Y-103813428D01*
X83789761Y-103765047D01*
X78274333Y-103329619D02*
X78951666Y-103329619D01*
X78516238Y-104345619D01*
X73980523Y-103329619D02*
X73787000Y-103329619D01*
X73690238Y-103378000D01*
X73641857Y-103426380D01*
X73545095Y-103571523D01*
X73496714Y-103765047D01*
X73496714Y-104152095D01*
X73545095Y-104248857D01*
X73593476Y-104297238D01*
X73690238Y-104345619D01*
X73883761Y-104345619D01*
X73980523Y-104297238D01*
X74028904Y-104248857D01*
X74077285Y-104152095D01*
X74077285Y-103910190D01*
X74028904Y-103813428D01*
X73980523Y-103765047D01*
X73883761Y-103716666D01*
X73690238Y-103716666D01*
X73593476Y-103765047D01*
X73545095Y-103813428D01*
X73496714Y-103910190D01*
X68821904Y-103329619D02*
X68338095Y-103329619D01*
X68289714Y-103813428D01*
X68338095Y-103765047D01*
X68434857Y-103716666D01*
X68676761Y-103716666D01*
X68773523Y-103765047D01*
X68821904Y-103813428D01*
X68870285Y-103910190D01*
X68870285Y-104152095D01*
X68821904Y-104248857D01*
X68773523Y-104297238D01*
X68676761Y-104345619D01*
X68434857Y-104345619D01*
X68338095Y-104297238D01*
X68289714Y-104248857D01*
X63693523Y-103668285D02*
X63693523Y-104345619D01*
X63451619Y-103281238D02*
X63209714Y-104006952D01*
X63838666Y-104006952D01*
X58081333Y-103329619D02*
X58710285Y-103329619D01*
X58371619Y-103716666D01*
X58516761Y-103716666D01*
X58613523Y-103765047D01*
X58661904Y-103813428D01*
X58710285Y-103910190D01*
X58710285Y-104152095D01*
X58661904Y-104248857D01*
X58613523Y-104297238D01*
X58516761Y-104345619D01*
X58226476Y-104345619D01*
X58129714Y-104297238D01*
X58081333Y-104248857D01*
X53049714Y-103299380D02*
X53098095Y-103251000D01*
X53194857Y-103202619D01*
X53436761Y-103202619D01*
X53533523Y-103251000D01*
X53581904Y-103299380D01*
X53630285Y-103396142D01*
X53630285Y-103492904D01*
X53581904Y-103638047D01*
X53001333Y-104218619D01*
X53630285Y-104218619D01*
X48550285Y-104218619D02*
X47969714Y-104218619D01*
X48260000Y-104218619D02*
X48260000Y-103202619D01*
X48163238Y-103347761D01*
X48066476Y-103444523D01*
X47969714Y-103492904D01*
X45720000Y-104775000D02*
X127000000Y-104775000D01*
X127000000Y-102870000D02*
X127000000Y-109220000D01*
X121920000Y-102870000D02*
X121920000Y-109220000D01*
X116840000Y-102870000D02*
X116840000Y-109220000D01*
X111760000Y-102870000D02*
X111760000Y-109220000D01*
X106680000Y-102870000D02*
X106680000Y-109220000D01*
X101600000Y-102870000D02*
X101600000Y-109220000D01*
X96520000Y-102870000D02*
X96520000Y-109220000D01*
X91440000Y-102870000D02*
X91440000Y-109220000D01*
X86360000Y-102870000D02*
X86360000Y-109220000D01*
X81280000Y-102870000D02*
X81280000Y-109220000D01*
X76200000Y-102870000D02*
X76200000Y-109220000D01*
X71120000Y-102870000D02*
X71120000Y-109220000D01*
X66040000Y-102870000D02*
X66040000Y-109220000D01*
X60960000Y-102870000D02*
X60960000Y-109220000D01*
X55880000Y-102870000D02*
X55880000Y-109220000D01*
X50800000Y-102870000D02*
X50800000Y-109220000D01*
X127000000Y-102870000D02*
X45720000Y-102870000D01*
X45720000Y-109220000D02*
X127000000Y-109220000D01*
X45720000Y-102870000D02*
X45720000Y-109220000D01*
X113858523Y-46306619D02*
X113858523Y-45290619D01*
X114245571Y-45290619D01*
X114342333Y-45339000D01*
X114390714Y-45387380D01*
X114439095Y-45484142D01*
X114439095Y-45629285D01*
X114390714Y-45726047D01*
X114342333Y-45774428D01*
X114245571Y-45822809D01*
X113858523Y-45822809D01*
X115068047Y-45290619D02*
X115261571Y-45290619D01*
X115358333Y-45339000D01*
X115455095Y-45435761D01*
X115503476Y-45629285D01*
X115503476Y-45967952D01*
X115455095Y-46161476D01*
X115358333Y-46258238D01*
X115261571Y-46306619D01*
X115068047Y-46306619D01*
X114971285Y-46258238D01*
X114874523Y-46161476D01*
X114826142Y-45967952D01*
X114826142Y-45629285D01*
X114874523Y-45435761D01*
X114971285Y-45339000D01*
X115068047Y-45290619D01*
X115842142Y-45290619D02*
X116084047Y-46306619D01*
X116277571Y-45580904D01*
X116471095Y-46306619D01*
X116713000Y-45290619D01*
X117100047Y-45774428D02*
X117438714Y-45774428D01*
X117583857Y-46306619D02*
X117100047Y-46306619D01*
X117100047Y-45290619D01*
X117583857Y-45290619D01*
X118599857Y-46306619D02*
X118261190Y-45822809D01*
X118019285Y-46306619D02*
X118019285Y-45290619D01*
X118406333Y-45290619D01*
X118503095Y-45339000D01*
X118551476Y-45387380D01*
X118599857Y-45484142D01*
X118599857Y-45629285D01*
X118551476Y-45726047D01*
X118503095Y-45774428D01*
X118406333Y-45822809D01*
X118019285Y-45822809D01*
X68011523Y-46433619D02*
X68011523Y-45417619D01*
X68398571Y-45417619D01*
X68495333Y-45466000D01*
X68543714Y-45514380D01*
X68592095Y-45611142D01*
X68592095Y-45756285D01*
X68543714Y-45853047D01*
X68495333Y-45901428D01*
X68398571Y-45949809D01*
X68011523Y-45949809D01*
X69221047Y-45417619D02*
X69414571Y-45417619D01*
X69511333Y-45466000D01*
X69608095Y-45562761D01*
X69656476Y-45756285D01*
X69656476Y-46094952D01*
X69608095Y-46288476D01*
X69511333Y-46385238D01*
X69414571Y-46433619D01*
X69221047Y-46433619D01*
X69124285Y-46385238D01*
X69027523Y-46288476D01*
X68979142Y-46094952D01*
X68979142Y-45756285D01*
X69027523Y-45562761D01*
X69124285Y-45466000D01*
X69221047Y-45417619D01*
X69995142Y-45417619D02*
X70237047Y-46433619D01*
X70430571Y-45707904D01*
X70624095Y-46433619D01*
X70866000Y-45417619D01*
X71253047Y-45901428D02*
X71591714Y-45901428D01*
X71736857Y-46433619D02*
X71253047Y-46433619D01*
X71253047Y-45417619D01*
X71736857Y-45417619D01*
X72752857Y-46433619D02*
X72414190Y-45949809D01*
X72172285Y-46433619D02*
X72172285Y-45417619D01*
X72559333Y-45417619D01*
X72656095Y-45466000D01*
X72704476Y-45514380D01*
X72752857Y-45611142D01*
X72752857Y-45756285D01*
X72704476Y-45853047D01*
X72656095Y-45901428D01*
X72559333Y-45949809D01*
X72172285Y-45949809D01*
X86831714Y-83009619D02*
X86831714Y-81993619D01*
X87315523Y-83009619D02*
X87315523Y-81993619D01*
X87896095Y-83009619D01*
X87896095Y-81993619D01*
X88379904Y-83009619D02*
X88379904Y-81993619D01*
X88766952Y-81993619D01*
X88863714Y-82042000D01*
X88912095Y-82090380D01*
X88960476Y-82187142D01*
X88960476Y-82332285D01*
X88912095Y-82429047D01*
X88863714Y-82477428D01*
X88766952Y-82525809D01*
X88379904Y-82525809D01*
X89395904Y-81993619D02*
X89395904Y-82816095D01*
X89444285Y-82912857D01*
X89492666Y-82961238D01*
X89589428Y-83009619D01*
X89782952Y-83009619D01*
X89879714Y-82961238D01*
X89928095Y-82912857D01*
X89976476Y-82816095D01*
X89976476Y-81993619D01*
X90315142Y-81993619D02*
X90895714Y-81993619D01*
X90605428Y-83009619D02*
X90605428Y-81993619D01*
X91960095Y-82090380D02*
X92008476Y-82042000D01*
X92105238Y-81993619D01*
X92347142Y-81993619D01*
X92443904Y-82042000D01*
X92492285Y-82090380D01*
X92540666Y-82187142D01*
X92540666Y-82283904D01*
X92492285Y-82429047D01*
X91911714Y-83009619D01*
X92540666Y-83009619D01*
X81243714Y-99519619D02*
X81243714Y-98503619D01*
X81727523Y-99519619D02*
X81727523Y-98503619D01*
X82308095Y-99519619D01*
X82308095Y-98503619D01*
X82791904Y-99519619D02*
X82791904Y-98503619D01*
X83178952Y-98503619D01*
X83275714Y-98552000D01*
X83324095Y-98600380D01*
X83372476Y-98697142D01*
X83372476Y-98842285D01*
X83324095Y-98939047D01*
X83275714Y-98987428D01*
X83178952Y-99035809D01*
X82791904Y-99035809D01*
X83807904Y-98503619D02*
X83807904Y-99326095D01*
X83856285Y-99422857D01*
X83904666Y-99471238D01*
X84001428Y-99519619D01*
X84194952Y-99519619D01*
X84291714Y-99471238D01*
X84340095Y-99422857D01*
X84388476Y-99326095D01*
X84388476Y-98503619D01*
X84727142Y-98503619D02*
X85307714Y-98503619D01*
X85017428Y-99519619D02*
X85017428Y-98503619D01*
X86952666Y-99519619D02*
X86372095Y-99519619D01*
X86662380Y-99519619D02*
X86662380Y-98503619D01*
X86565619Y-98648761D01*
X86468857Y-98745523D01*
X86372095Y-98793904D01*
X97015904Y-44528619D02*
X97209428Y-44528619D01*
X97306190Y-44577000D01*
X97402952Y-44673761D01*
X97451333Y-44867285D01*
X97451333Y-45205952D01*
X97402952Y-45399476D01*
X97306190Y-45496238D01*
X97209428Y-45544619D01*
X97015904Y-45544619D01*
X96919142Y-45496238D01*
X96822380Y-45399476D01*
X96774000Y-45205952D01*
X96774000Y-44867285D01*
X96822380Y-44673761D01*
X96919142Y-44577000D01*
X97015904Y-44528619D01*
X97886761Y-44528619D02*
X97886761Y-45351095D01*
X97935142Y-45447857D01*
X97983523Y-45496238D01*
X98080285Y-45544619D01*
X98273809Y-45544619D01*
X98370571Y-45496238D01*
X98418952Y-45447857D01*
X98467333Y-45351095D01*
X98467333Y-44528619D01*
X98806000Y-44528619D02*
X99386571Y-44528619D01*
X99096285Y-45544619D02*
X99096285Y-44528619D01*
X99725238Y-45544619D02*
X99725238Y-44528619D01*
X100112285Y-44528619D01*
X100209047Y-44577000D01*
X100257428Y-44625380D01*
X100305809Y-44722142D01*
X100305809Y-44867285D01*
X100257428Y-44964047D01*
X100209047Y-45012428D01*
X100112285Y-45060809D01*
X99725238Y-45060809D01*
X100741238Y-44528619D02*
X100741238Y-45351095D01*
X100789619Y-45447857D01*
X100838000Y-45496238D01*
X100934761Y-45544619D01*
X101128285Y-45544619D01*
X101225047Y-45496238D01*
X101273428Y-45447857D01*
X101321809Y-45351095D01*
X101321809Y-44528619D01*
X101660476Y-44528619D02*
X102241047Y-44528619D01*
X101950761Y-45544619D02*
X101950761Y-44528619D01*
X103305428Y-44625380D02*
X103353809Y-44577000D01*
X103450571Y-44528619D01*
X103692476Y-44528619D01*
X103789238Y-44577000D01*
X103837619Y-44625380D01*
X103886000Y-44722142D01*
X103886000Y-44818904D01*
X103837619Y-44964047D01*
X103257047Y-45544619D01*
X103886000Y-45544619D01*
X107756476Y-36527619D02*
X107175904Y-36527619D01*
X107466190Y-36527619D02*
X107466190Y-35511619D01*
X107369428Y-35656761D01*
X107272666Y-35753523D01*
X107175904Y-35801904D01*
X108627333Y-35511619D02*
X108433809Y-35511619D01*
X108337047Y-35560000D01*
X108288666Y-35608380D01*
X108191904Y-35753523D01*
X108143523Y-35947047D01*
X108143523Y-36334095D01*
X108191904Y-36430857D01*
X108240285Y-36479238D01*
X108337047Y-36527619D01*
X108530571Y-36527619D01*
X108627333Y-36479238D01*
X108675714Y-36430857D01*
X108724095Y-36334095D01*
X108724095Y-36092190D01*
X108675714Y-35995428D01*
X108627333Y-35947047D01*
X108530571Y-35898666D01*
X108337047Y-35898666D01*
X108240285Y-35947047D01*
X108191904Y-35995428D01*
X108143523Y-36092190D01*
X105216476Y-36527619D02*
X104635904Y-36527619D01*
X104926190Y-36527619D02*
X104926190Y-35511619D01*
X104829428Y-35656761D01*
X104732666Y-35753523D01*
X104635904Y-35801904D01*
X106135714Y-35511619D02*
X105651904Y-35511619D01*
X105603523Y-35995428D01*
X105651904Y-35947047D01*
X105748666Y-35898666D01*
X105990571Y-35898666D01*
X106087333Y-35947047D01*
X106135714Y-35995428D01*
X106184095Y-36092190D01*
X106184095Y-36334095D01*
X106135714Y-36430857D01*
X106087333Y-36479238D01*
X105990571Y-36527619D01*
X105748666Y-36527619D01*
X105651904Y-36479238D01*
X105603523Y-36430857D01*
X102676476Y-36527619D02*
X102095904Y-36527619D01*
X102386190Y-36527619D02*
X102386190Y-35511619D01*
X102289428Y-35656761D01*
X102192666Y-35753523D01*
X102095904Y-35801904D01*
X103547333Y-35850285D02*
X103547333Y-36527619D01*
X103305428Y-35463238D02*
X103063523Y-36188952D01*
X103692476Y-36188952D01*
X100136476Y-36527619D02*
X99555904Y-36527619D01*
X99846190Y-36527619D02*
X99846190Y-35511619D01*
X99749428Y-35656761D01*
X99652666Y-35753523D01*
X99555904Y-35801904D01*
X100475142Y-35511619D02*
X101104095Y-35511619D01*
X100765428Y-35898666D01*
X100910571Y-35898666D01*
X101007333Y-35947047D01*
X101055714Y-35995428D01*
X101104095Y-36092190D01*
X101104095Y-36334095D01*
X101055714Y-36430857D01*
X101007333Y-36479238D01*
X100910571Y-36527619D01*
X100620285Y-36527619D01*
X100523523Y-36479238D01*
X100475142Y-36430857D01*
X97596476Y-36527619D02*
X97015904Y-36527619D01*
X97306190Y-36527619D02*
X97306190Y-35511619D01*
X97209428Y-35656761D01*
X97112666Y-35753523D01*
X97015904Y-35801904D01*
X97983523Y-35608380D02*
X98031904Y-35560000D01*
X98128666Y-35511619D01*
X98370571Y-35511619D01*
X98467333Y-35560000D01*
X98515714Y-35608380D01*
X98564095Y-35705142D01*
X98564095Y-35801904D01*
X98515714Y-35947047D01*
X97935142Y-36527619D01*
X98564095Y-36527619D01*
X95056476Y-36527619D02*
X94475904Y-36527619D01*
X94766190Y-36527619D02*
X94766190Y-35511619D01*
X94669428Y-35656761D01*
X94572666Y-35753523D01*
X94475904Y-35801904D01*
X96024095Y-36527619D02*
X95443523Y-36527619D01*
X95733809Y-36527619D02*
X95733809Y-35511619D01*
X95637047Y-35656761D01*
X95540285Y-35753523D01*
X95443523Y-35801904D01*
X92516476Y-36527619D02*
X91935904Y-36527619D01*
X92226190Y-36527619D02*
X92226190Y-35511619D01*
X92129428Y-35656761D01*
X92032666Y-35753523D01*
X91935904Y-35801904D01*
X93145428Y-35511619D02*
X93242190Y-35511619D01*
X93338952Y-35560000D01*
X93387333Y-35608380D01*
X93435714Y-35705142D01*
X93484095Y-35898666D01*
X93484095Y-36140571D01*
X93435714Y-36334095D01*
X93387333Y-36430857D01*
X93338952Y-36479238D01*
X93242190Y-36527619D01*
X93145428Y-36527619D01*
X93048666Y-36479238D01*
X93000285Y-36430857D01*
X92951904Y-36334095D01*
X92903523Y-36140571D01*
X92903523Y-35898666D01*
X92951904Y-35705142D01*
X93000285Y-35608380D01*
X93048666Y-35560000D01*
X93145428Y-35511619D01*
X89976476Y-36527619D02*
X90170000Y-36527619D01*
X90266761Y-36479238D01*
X90315142Y-36430857D01*
X90411904Y-36285714D01*
X90460285Y-36092190D01*
X90460285Y-35705142D01*
X90411904Y-35608380D01*
X90363523Y-35560000D01*
X90266761Y-35511619D01*
X90073238Y-35511619D01*
X89976476Y-35560000D01*
X89928095Y-35608380D01*
X89879714Y-35705142D01*
X89879714Y-35947047D01*
X89928095Y-36043809D01*
X89976476Y-36092190D01*
X90073238Y-36140571D01*
X90266761Y-36140571D01*
X90363523Y-36092190D01*
X90411904Y-36043809D01*
X90460285Y-35947047D01*
X62133238Y-35947047D02*
X62036476Y-35898666D01*
X61988095Y-35850285D01*
X61939714Y-35753523D01*
X61939714Y-35705142D01*
X61988095Y-35608380D01*
X62036476Y-35560000D01*
X62133238Y-35511619D01*
X62326761Y-35511619D01*
X62423523Y-35560000D01*
X62471904Y-35608380D01*
X62520285Y-35705142D01*
X62520285Y-35753523D01*
X62471904Y-35850285D01*
X62423523Y-35898666D01*
X62326761Y-35947047D01*
X62133238Y-35947047D01*
X62036476Y-35995428D01*
X61988095Y-36043809D01*
X61939714Y-36140571D01*
X61939714Y-36334095D01*
X61988095Y-36430857D01*
X62036476Y-36479238D01*
X62133238Y-36527619D01*
X62326761Y-36527619D01*
X62423523Y-36479238D01*
X62471904Y-36430857D01*
X62520285Y-36334095D01*
X62520285Y-36140571D01*
X62471904Y-36043809D01*
X62423523Y-35995428D01*
X62326761Y-35947047D01*
X59351333Y-35511619D02*
X60028666Y-35511619D01*
X59593238Y-36527619D01*
X57343523Y-35511619D02*
X57150000Y-35511619D01*
X57053238Y-35560000D01*
X57004857Y-35608380D01*
X56908095Y-35753523D01*
X56859714Y-35947047D01*
X56859714Y-36334095D01*
X56908095Y-36430857D01*
X56956476Y-36479238D01*
X57053238Y-36527619D01*
X57246761Y-36527619D01*
X57343523Y-36479238D01*
X57391904Y-36430857D01*
X57440285Y-36334095D01*
X57440285Y-36092190D01*
X57391904Y-35995428D01*
X57343523Y-35947047D01*
X57246761Y-35898666D01*
X57053238Y-35898666D01*
X56956476Y-35947047D01*
X56908095Y-35995428D01*
X56859714Y-36092190D01*
X54851904Y-35511619D02*
X54368095Y-35511619D01*
X54319714Y-35995428D01*
X54368095Y-35947047D01*
X54464857Y-35898666D01*
X54706761Y-35898666D01*
X54803523Y-35947047D01*
X54851904Y-35995428D01*
X54900285Y-36092190D01*
X54900285Y-36334095D01*
X54851904Y-36430857D01*
X54803523Y-36479238D01*
X54706761Y-36527619D01*
X54464857Y-36527619D01*
X54368095Y-36479238D01*
X54319714Y-36430857D01*
X52263523Y-35850285D02*
X52263523Y-36527619D01*
X52021619Y-35463238D02*
X51779714Y-36188952D01*
X52408666Y-36188952D01*
X49191333Y-35511619D02*
X49820285Y-35511619D01*
X49481619Y-35898666D01*
X49626761Y-35898666D01*
X49723523Y-35947047D01*
X49771904Y-35995428D01*
X49820285Y-36092190D01*
X49820285Y-36334095D01*
X49771904Y-36430857D01*
X49723523Y-36479238D01*
X49626761Y-36527619D01*
X49336476Y-36527619D01*
X49239714Y-36479238D01*
X49191333Y-36430857D01*
X46699714Y-35608380D02*
X46748095Y-35560000D01*
X46844857Y-35511619D01*
X47086761Y-35511619D01*
X47183523Y-35560000D01*
X47231904Y-35608380D01*
X47280285Y-35705142D01*
X47280285Y-35801904D01*
X47231904Y-35947047D01*
X46651333Y-36527619D01*
X47280285Y-36527619D01*
X44740285Y-36527619D02*
X44159714Y-36527619D01*
X44450000Y-36527619D02*
X44450000Y-35511619D01*
X44353238Y-35656761D01*
X44256476Y-35753523D01*
X44159714Y-35801904D01*
X51295904Y-44655619D02*
X51489428Y-44655619D01*
X51586190Y-44704000D01*
X51682952Y-44800761D01*
X51731333Y-44994285D01*
X51731333Y-45332952D01*
X51682952Y-45526476D01*
X51586190Y-45623238D01*
X51489428Y-45671619D01*
X51295904Y-45671619D01*
X51199142Y-45623238D01*
X51102380Y-45526476D01*
X51054000Y-45332952D01*
X51054000Y-44994285D01*
X51102380Y-44800761D01*
X51199142Y-44704000D01*
X51295904Y-44655619D01*
X52166761Y-44655619D02*
X52166761Y-45478095D01*
X52215142Y-45574857D01*
X52263523Y-45623238D01*
X52360285Y-45671619D01*
X52553809Y-45671619D01*
X52650571Y-45623238D01*
X52698952Y-45574857D01*
X52747333Y-45478095D01*
X52747333Y-44655619D01*
X53086000Y-44655619D02*
X53666571Y-44655619D01*
X53376285Y-45671619D02*
X53376285Y-44655619D01*
X54005238Y-45671619D02*
X54005238Y-44655619D01*
X54392285Y-44655619D01*
X54489047Y-44704000D01*
X54537428Y-44752380D01*
X54585809Y-44849142D01*
X54585809Y-44994285D01*
X54537428Y-45091047D01*
X54489047Y-45139428D01*
X54392285Y-45187809D01*
X54005238Y-45187809D01*
X55021238Y-44655619D02*
X55021238Y-45478095D01*
X55069619Y-45574857D01*
X55118000Y-45623238D01*
X55214761Y-45671619D01*
X55408285Y-45671619D01*
X55505047Y-45623238D01*
X55553428Y-45574857D01*
X55601809Y-45478095D01*
X55601809Y-44655619D01*
X55940476Y-44655619D02*
X56521047Y-44655619D01*
X56230761Y-45671619D02*
X56230761Y-44655619D01*
X58166000Y-45671619D02*
X57585428Y-45671619D01*
X57875714Y-45671619D02*
X57875714Y-44655619D01*
X57778952Y-44800761D01*
X57682190Y-44897523D01*
X57585428Y-44945904D01*
X104200476Y-101805619D02*
X103619904Y-101805619D01*
X103910190Y-101805619D02*
X103910190Y-100789619D01*
X103813428Y-100934761D01*
X103716666Y-101031523D01*
X103619904Y-101079904D01*
X104829428Y-100789619D02*
X104926190Y-100789619D01*
X105022952Y-100838000D01*
X105071333Y-100886380D01*
X105119714Y-100983142D01*
X105168095Y-101176666D01*
X105168095Y-101418571D01*
X105119714Y-101612095D01*
X105071333Y-101708857D01*
X105022952Y-101757238D01*
X104926190Y-101805619D01*
X104829428Y-101805619D01*
X104732666Y-101757238D01*
X104684285Y-101708857D01*
X104635904Y-101612095D01*
X104587523Y-101418571D01*
X104587523Y-101176666D01*
X104635904Y-100983142D01*
X104684285Y-100886380D01*
X104732666Y-100838000D01*
X104829428Y-100789619D01*
X100898476Y-101805619D02*
X101092000Y-101805619D01*
X101188761Y-101757238D01*
X101237142Y-101708857D01*
X101333904Y-101563714D01*
X101382285Y-101370190D01*
X101382285Y-100983142D01*
X101333904Y-100886380D01*
X101285523Y-100838000D01*
X101188761Y-100789619D01*
X100995238Y-100789619D01*
X100898476Y-100838000D01*
X100850095Y-100886380D01*
X100801714Y-100983142D01*
X100801714Y-101225047D01*
X100850095Y-101321809D01*
X100898476Y-101370190D01*
X100995238Y-101418571D01*
X101188761Y-101418571D01*
X101285523Y-101370190D01*
X101333904Y-101321809D01*
X101382285Y-101225047D01*
X128838476Y-101805619D02*
X128257904Y-101805619D01*
X128548190Y-101805619D02*
X128548190Y-100789619D01*
X128451428Y-100934761D01*
X128354666Y-101031523D01*
X128257904Y-101079904D01*
X129709333Y-100789619D02*
X129515809Y-100789619D01*
X129419047Y-100838000D01*
X129370666Y-100886380D01*
X129273904Y-101031523D01*
X129225523Y-101225047D01*
X129225523Y-101612095D01*
X129273904Y-101708857D01*
X129322285Y-101757238D01*
X129419047Y-101805619D01*
X129612571Y-101805619D01*
X129709333Y-101757238D01*
X129757714Y-101708857D01*
X129806095Y-101612095D01*
X129806095Y-101370190D01*
X129757714Y-101273428D01*
X129709333Y-101225047D01*
X129612571Y-101176666D01*
X129419047Y-101176666D01*
X129322285Y-101225047D01*
X129273904Y-101273428D01*
X129225523Y-101370190D01*
X125282476Y-101805619D02*
X124701904Y-101805619D01*
X124992190Y-101805619D02*
X124992190Y-100789619D01*
X124895428Y-100934761D01*
X124798666Y-101031523D01*
X124701904Y-101079904D01*
X126201714Y-100789619D02*
X125717904Y-100789619D01*
X125669523Y-101273428D01*
X125717904Y-101225047D01*
X125814666Y-101176666D01*
X126056571Y-101176666D01*
X126153333Y-101225047D01*
X126201714Y-101273428D01*
X126250095Y-101370190D01*
X126250095Y-101612095D01*
X126201714Y-101708857D01*
X126153333Y-101757238D01*
X126056571Y-101805619D01*
X125814666Y-101805619D01*
X125717904Y-101757238D01*
X125669523Y-101708857D01*
X121726476Y-101805619D02*
X121145904Y-101805619D01*
X121436190Y-101805619D02*
X121436190Y-100789619D01*
X121339428Y-100934761D01*
X121242666Y-101031523D01*
X121145904Y-101079904D01*
X122597333Y-101128285D02*
X122597333Y-101805619D01*
X122355428Y-100741238D02*
X122113523Y-101466952D01*
X122742476Y-101466952D01*
X118424476Y-101805619D02*
X117843904Y-101805619D01*
X118134190Y-101805619D02*
X118134190Y-100789619D01*
X118037428Y-100934761D01*
X117940666Y-101031523D01*
X117843904Y-101079904D01*
X118763142Y-100789619D02*
X119392095Y-100789619D01*
X119053428Y-101176666D01*
X119198571Y-101176666D01*
X119295333Y-101225047D01*
X119343714Y-101273428D01*
X119392095Y-101370190D01*
X119392095Y-101612095D01*
X119343714Y-101708857D01*
X119295333Y-101757238D01*
X119198571Y-101805619D01*
X118908285Y-101805619D01*
X118811523Y-101757238D01*
X118763142Y-101708857D01*
X111312476Y-101805619D02*
X110731904Y-101805619D01*
X111022190Y-101805619D02*
X111022190Y-100789619D01*
X110925428Y-100934761D01*
X110828666Y-101031523D01*
X110731904Y-101079904D01*
X111699523Y-100886380D02*
X111747904Y-100838000D01*
X111844666Y-100789619D01*
X112086571Y-100789619D01*
X112183333Y-100838000D01*
X112231714Y-100886380D01*
X112280095Y-100983142D01*
X112280095Y-101079904D01*
X112231714Y-101225047D01*
X111651142Y-101805619D01*
X112280095Y-101805619D01*
X108010476Y-101805619D02*
X107429904Y-101805619D01*
X107720190Y-101805619D02*
X107720190Y-100789619D01*
X107623428Y-100934761D01*
X107526666Y-101031523D01*
X107429904Y-101079904D01*
X108978095Y-101805619D02*
X108397523Y-101805619D01*
X108687809Y-101805619D02*
X108687809Y-100789619D01*
X108591047Y-100934761D01*
X108494285Y-101031523D01*
X108397523Y-101079904D01*
X76357238Y-101225047D02*
X76260476Y-101176666D01*
X76212095Y-101128285D01*
X76163714Y-101031523D01*
X76163714Y-100983142D01*
X76212095Y-100886380D01*
X76260476Y-100838000D01*
X76357238Y-100789619D01*
X76550761Y-100789619D01*
X76647523Y-100838000D01*
X76695904Y-100886380D01*
X76744285Y-100983142D01*
X76744285Y-101031523D01*
X76695904Y-101128285D01*
X76647523Y-101176666D01*
X76550761Y-101225047D01*
X76357238Y-101225047D01*
X76260476Y-101273428D01*
X76212095Y-101321809D01*
X76163714Y-101418571D01*
X76163714Y-101612095D01*
X76212095Y-101708857D01*
X76260476Y-101757238D01*
X76357238Y-101805619D01*
X76550761Y-101805619D01*
X76647523Y-101757238D01*
X76695904Y-101708857D01*
X76744285Y-101612095D01*
X76744285Y-101418571D01*
X76695904Y-101321809D01*
X76647523Y-101273428D01*
X76550761Y-101225047D01*
X72559333Y-100789619D02*
X73236666Y-100789619D01*
X72801238Y-101805619D01*
X69789523Y-100789619D02*
X69596000Y-100789619D01*
X69499238Y-100838000D01*
X69450857Y-100886380D01*
X69354095Y-101031523D01*
X69305714Y-101225047D01*
X69305714Y-101612095D01*
X69354095Y-101708857D01*
X69402476Y-101757238D01*
X69499238Y-101805619D01*
X69692761Y-101805619D01*
X69789523Y-101757238D01*
X69837904Y-101708857D01*
X69886285Y-101612095D01*
X69886285Y-101370190D01*
X69837904Y-101273428D01*
X69789523Y-101225047D01*
X69692761Y-101176666D01*
X69499238Y-101176666D01*
X69402476Y-101225047D01*
X69354095Y-101273428D01*
X69305714Y-101370190D01*
X66027904Y-100789619D02*
X65544095Y-100789619D01*
X65495714Y-101273428D01*
X65544095Y-101225047D01*
X65640857Y-101176666D01*
X65882761Y-101176666D01*
X65979523Y-101225047D01*
X66027904Y-101273428D01*
X66076285Y-101370190D01*
X66076285Y-101612095D01*
X66027904Y-101708857D01*
X65979523Y-101757238D01*
X65882761Y-101805619D01*
X65640857Y-101805619D01*
X65544095Y-101757238D01*
X65495714Y-101708857D01*
X114263714Y-101708857D02*
X114215333Y-101757238D01*
X114070190Y-101805619D01*
X113973428Y-101805619D01*
X113828285Y-101757238D01*
X113731523Y-101660476D01*
X113683142Y-101563714D01*
X113634761Y-101370190D01*
X113634761Y-101225047D01*
X113683142Y-101031523D01*
X113731523Y-100934761D01*
X113828285Y-100838000D01*
X113973428Y-100789619D01*
X114070190Y-100789619D01*
X114215333Y-100838000D01*
X114263714Y-100886380D01*
X114892666Y-100789619D02*
X115086190Y-100789619D01*
X115182952Y-100838000D01*
X115279714Y-100934761D01*
X115328095Y-101128285D01*
X115328095Y-101466952D01*
X115279714Y-101660476D01*
X115182952Y-101757238D01*
X115086190Y-101805619D01*
X114892666Y-101805619D01*
X114795904Y-101757238D01*
X114699142Y-101660476D01*
X114650761Y-101466952D01*
X114650761Y-101128285D01*
X114699142Y-100934761D01*
X114795904Y-100838000D01*
X114892666Y-100789619D01*
X115763523Y-101805619D02*
X115763523Y-100789619D01*
X116102190Y-101515333D01*
X116440857Y-100789619D01*
X116440857Y-101805619D01*
X61431714Y-101708857D02*
X61383333Y-101757238D01*
X61238190Y-101805619D01*
X61141428Y-101805619D01*
X60996285Y-101757238D01*
X60899523Y-101660476D01*
X60851142Y-101563714D01*
X60802761Y-101370190D01*
X60802761Y-101225047D01*
X60851142Y-101031523D01*
X60899523Y-100934761D01*
X60996285Y-100838000D01*
X61141428Y-100789619D01*
X61238190Y-100789619D01*
X61383333Y-100838000D01*
X61431714Y-100886380D01*
X62060666Y-100789619D02*
X62254190Y-100789619D01*
X62350952Y-100838000D01*
X62447714Y-100934761D01*
X62496095Y-101128285D01*
X62496095Y-101466952D01*
X62447714Y-101660476D01*
X62350952Y-101757238D01*
X62254190Y-101805619D01*
X62060666Y-101805619D01*
X61963904Y-101757238D01*
X61867142Y-101660476D01*
X61818761Y-101466952D01*
X61818761Y-101128285D01*
X61867142Y-100934761D01*
X61963904Y-100838000D01*
X62060666Y-100789619D01*
X62931523Y-101805619D02*
X62931523Y-100789619D01*
X63270190Y-101515333D01*
X63608857Y-100789619D01*
X63608857Y-101805619D01*
X43905714Y-101708857D02*
X43857333Y-101757238D01*
X43712190Y-101805619D01*
X43615428Y-101805619D01*
X43470285Y-101757238D01*
X43373523Y-101660476D01*
X43325142Y-101563714D01*
X43276761Y-101370190D01*
X43276761Y-101225047D01*
X43325142Y-101031523D01*
X43373523Y-100934761D01*
X43470285Y-100838000D01*
X43615428Y-100789619D01*
X43712190Y-100789619D01*
X43857333Y-100838000D01*
X43905714Y-100886380D01*
X44534666Y-100789619D02*
X44728190Y-100789619D01*
X44824952Y-100838000D01*
X44921714Y-100934761D01*
X44970095Y-101128285D01*
X44970095Y-101466952D01*
X44921714Y-101660476D01*
X44824952Y-101757238D01*
X44728190Y-101805619D01*
X44534666Y-101805619D01*
X44437904Y-101757238D01*
X44341142Y-101660476D01*
X44292761Y-101466952D01*
X44292761Y-101128285D01*
X44341142Y-100934761D01*
X44437904Y-100838000D01*
X44534666Y-100789619D01*
X45405523Y-101805619D02*
X45405523Y-100789619D01*
X45744190Y-101515333D01*
X46082857Y-100789619D01*
X46082857Y-101805619D01*
X96483714Y-101708857D02*
X96435333Y-101757238D01*
X96290190Y-101805619D01*
X96193428Y-101805619D01*
X96048285Y-101757238D01*
X95951523Y-101660476D01*
X95903142Y-101563714D01*
X95854761Y-101370190D01*
X95854761Y-101225047D01*
X95903142Y-101031523D01*
X95951523Y-100934761D01*
X96048285Y-100838000D01*
X96193428Y-100789619D01*
X96290190Y-100789619D01*
X96435333Y-100838000D01*
X96483714Y-100886380D01*
X97112666Y-100789619D02*
X97306190Y-100789619D01*
X97402952Y-100838000D01*
X97499714Y-100934761D01*
X97548095Y-101128285D01*
X97548095Y-101466952D01*
X97499714Y-101660476D01*
X97402952Y-101757238D01*
X97306190Y-101805619D01*
X97112666Y-101805619D01*
X97015904Y-101757238D01*
X96919142Y-101660476D01*
X96870761Y-101466952D01*
X96870761Y-101128285D01*
X96919142Y-100934761D01*
X97015904Y-100838000D01*
X97112666Y-100789619D01*
X97983523Y-101805619D02*
X97983523Y-100789619D01*
X98322190Y-101515333D01*
X98660857Y-100789619D01*
X98660857Y-101805619D01*
X58867523Y-101128285D02*
X58867523Y-101805619D01*
X58625619Y-100741238D02*
X58383714Y-101466952D01*
X59012666Y-101466952D01*
X54779333Y-100789619D02*
X55408285Y-100789619D01*
X55069619Y-101176666D01*
X55214761Y-101176666D01*
X55311523Y-101225047D01*
X55359904Y-101273428D01*
X55408285Y-101370190D01*
X55408285Y-101612095D01*
X55359904Y-101708857D01*
X55311523Y-101757238D01*
X55214761Y-101805619D01*
X54924476Y-101805619D01*
X54827714Y-101757238D01*
X54779333Y-101708857D01*
X51271714Y-100886380D02*
X51320095Y-100838000D01*
X51416857Y-100789619D01*
X51658761Y-100789619D01*
X51755523Y-100838000D01*
X51803904Y-100886380D01*
X51852285Y-100983142D01*
X51852285Y-101079904D01*
X51803904Y-101225047D01*
X51223333Y-101805619D01*
X51852285Y-101805619D01*
X48550285Y-101805619D02*
X47969714Y-101805619D01*
X48260000Y-101805619D02*
X48260000Y-100789619D01*
X48163238Y-100934761D01*
X48066476Y-101031523D01*
X47969714Y-101079904D01*
X110350904Y-35560000D02*
X110254142Y-35511619D01*
X110109000Y-35511619D01*
X109963857Y-35560000D01*
X109867095Y-35656761D01*
X109818714Y-35753523D01*
X109770333Y-35947047D01*
X109770333Y-36092190D01*
X109818714Y-36285714D01*
X109867095Y-36382476D01*
X109963857Y-36479238D01*
X110109000Y-36527619D01*
X110205761Y-36527619D01*
X110350904Y-36479238D01*
X110399285Y-36430857D01*
X110399285Y-36092190D01*
X110205761Y-36092190D01*
X110834714Y-36527619D02*
X110834714Y-35511619D01*
X111415285Y-36527619D01*
X111415285Y-35511619D01*
X111899095Y-36527619D02*
X111899095Y-35511619D01*
X112141000Y-35511619D01*
X112286142Y-35560000D01*
X112382904Y-35656761D01*
X112431285Y-35753523D01*
X112479666Y-35947047D01*
X112479666Y-36092190D01*
X112431285Y-36285714D01*
X112382904Y-36382476D01*
X112286142Y-36479238D01*
X112141000Y-36527619D01*
X111899095Y-36527619D01*
X87436476Y-35511619D02*
X86952666Y-35511619D01*
X86904285Y-35995428D01*
X86952666Y-35947047D01*
X87049428Y-35898666D01*
X87291333Y-35898666D01*
X87388095Y-35947047D01*
X87436476Y-35995428D01*
X87484857Y-36092190D01*
X87484857Y-36334095D01*
X87436476Y-36430857D01*
X87388095Y-36479238D01*
X87291333Y-36527619D01*
X87049428Y-36527619D01*
X86952666Y-36479238D01*
X86904285Y-36430857D01*
X87775142Y-35511619D02*
X88113809Y-36527619D01*
X88452476Y-35511619D01*
X64249904Y-35560000D02*
X64153142Y-35511619D01*
X64008000Y-35511619D01*
X63862857Y-35560000D01*
X63766095Y-35656761D01*
X63717714Y-35753523D01*
X63669333Y-35947047D01*
X63669333Y-36092190D01*
X63717714Y-36285714D01*
X63766095Y-36382476D01*
X63862857Y-36479238D01*
X64008000Y-36527619D01*
X64104761Y-36527619D01*
X64249904Y-36479238D01*
X64298285Y-36430857D01*
X64298285Y-36092190D01*
X64104761Y-36092190D01*
X64733714Y-36527619D02*
X64733714Y-35511619D01*
X65314285Y-36527619D01*
X65314285Y-35511619D01*
X65798095Y-36527619D02*
X65798095Y-35511619D01*
X66040000Y-35511619D01*
X66185142Y-35560000D01*
X66281904Y-35656761D01*
X66330285Y-35753523D01*
X66378666Y-35947047D01*
X66378666Y-36092190D01*
X66330285Y-36285714D01*
X66281904Y-36382476D01*
X66185142Y-36479238D01*
X66040000Y-36527619D01*
X65798095Y-36527619D01*
X41716476Y-35638619D02*
X41232666Y-35638619D01*
X41184285Y-36122428D01*
X41232666Y-36074047D01*
X41329428Y-36025666D01*
X41571333Y-36025666D01*
X41668095Y-36074047D01*
X41716476Y-36122428D01*
X41764857Y-36219190D01*
X41764857Y-36461095D01*
X41716476Y-36557857D01*
X41668095Y-36606238D01*
X41571333Y-36654619D01*
X41329428Y-36654619D01*
X41232666Y-36606238D01*
X41184285Y-36557857D01*
X42055142Y-35638619D02*
X42393809Y-36654619D01*
X42732476Y-35638619D01*
X113036047Y-25504019D02*
X113036047Y-26229733D01*
X112987666Y-26374876D01*
X112890904Y-26471638D01*
X112745761Y-26520019D01*
X112649000Y-26520019D01*
X114003666Y-26520019D02*
X113519857Y-26520019D01*
X113519857Y-25504019D01*
X114922904Y-26423257D02*
X114874523Y-26471638D01*
X114729380Y-26520019D01*
X114632619Y-26520019D01*
X114487476Y-26471638D01*
X114390714Y-26374876D01*
X114342333Y-26278114D01*
X114293952Y-26084590D01*
X114293952Y-25939447D01*
X114342333Y-25745923D01*
X114390714Y-25649161D01*
X114487476Y-25552400D01*
X114632619Y-25504019D01*
X114729380Y-25504019D01*
X114874523Y-25552400D01*
X114922904Y-25600780D01*
X115648619Y-25504019D02*
X115648619Y-26229733D01*
X115600238Y-26374876D01*
X115503476Y-26471638D01*
X115358333Y-26520019D01*
X115261571Y-26520019D01*
X116616238Y-26520019D02*
X116132428Y-26520019D01*
X116132428Y-25504019D01*
X117535476Y-26423257D02*
X117487095Y-26471638D01*
X117341952Y-26520019D01*
X117245190Y-26520019D01*
X117100047Y-26471638D01*
X117003285Y-26374876D01*
X116954904Y-26278114D01*
X116906523Y-26084590D01*
X116906523Y-25939447D01*
X116954904Y-25745923D01*
X117003285Y-25649161D01*
X117100047Y-25552400D01*
X117245190Y-25504019D01*
X117341952Y-25504019D01*
X117487095Y-25552400D01*
X117535476Y-25600780D01*
X118261190Y-25504019D02*
X118261190Y-26229733D01*
X118212809Y-26374876D01*
X118116047Y-26471638D01*
X117970904Y-26520019D01*
X117874142Y-26520019D01*
X119228809Y-26520019D02*
X118745000Y-26520019D01*
X118745000Y-25504019D01*
X120148047Y-26423257D02*
X120099666Y-26471638D01*
X119954523Y-26520019D01*
X119857761Y-26520019D01*
X119712619Y-26471638D01*
X119615857Y-26374876D01*
X119567476Y-26278114D01*
X119519095Y-26084590D01*
X119519095Y-25939447D01*
X119567476Y-25745923D01*
X119615857Y-25649161D01*
X119712619Y-25552400D01*
X119857761Y-25504019D01*
X119954523Y-25504019D01*
X120099666Y-25552400D01*
X120148047Y-25600780D01*
X120873761Y-25504019D02*
X120873761Y-26229733D01*
X120825380Y-26374876D01*
X120728619Y-26471638D01*
X120583476Y-26520019D01*
X120486714Y-26520019D01*
X121841380Y-26520019D02*
X121357571Y-26520019D01*
X121357571Y-25504019D01*
X122760619Y-26423257D02*
X122712238Y-26471638D01*
X122567095Y-26520019D01*
X122470333Y-26520019D01*
X122325190Y-26471638D01*
X122228428Y-26374876D01*
X122180047Y-26278114D01*
X122131666Y-26084590D01*
X122131666Y-25939447D01*
X122180047Y-25745923D01*
X122228428Y-25649161D01*
X122325190Y-25552400D01*
X122470333Y-25504019D01*
X122567095Y-25504019D01*
X122712238Y-25552400D01*
X122760619Y-25600780D01*
D11*
X80430000Y-100265000D02*
X41530000Y-100265000D01*
X80430000Y-81265000D02*
X80430000Y-100265000D01*
X40530000Y-81265000D02*
X80430000Y-81265000D01*
X40530000Y-99265000D02*
X40530000Y-81265000D01*
X41530000Y-100265000D02*
X40530000Y-99265000D01*
X95805200Y-47480600D02*
X95805200Y-48480600D01*
X99165200Y-47480600D02*
X99165200Y-48480600D01*
X118665200Y-47480600D02*
X118665200Y-48480600D01*
X122025200Y-47480600D02*
X122025200Y-48480600D01*
X72945200Y-47480600D02*
X72945200Y-48480600D01*
X76305200Y-47480600D02*
X76305200Y-48480600D01*
X94235000Y-100265000D02*
X93235000Y-99265000D01*
X93235000Y-99265000D02*
X93235000Y-81265000D01*
X93235000Y-81265000D02*
X133135000Y-81265000D01*
X133135000Y-81265000D02*
X133135000Y-100265000D01*
X133135000Y-100265000D02*
X94235000Y-100265000D01*
X62730000Y-79625000D02*
X62730000Y-75740000D01*
X60460000Y-79625000D02*
X62730000Y-79625000D01*
X60460000Y-75740000D02*
X60460000Y-79625000D01*
X113240000Y-37305000D02*
X113240000Y-43745000D01*
X84860000Y-37305000D02*
X84880000Y-42755000D01*
X113240000Y-43755000D02*
X85880000Y-43755000D01*
X84880000Y-37305000D02*
X113240000Y-37305000D01*
X85880000Y-43755000D02*
X84880000Y-42755000D01*
X67520000Y-37305000D02*
X67520000Y-43745000D01*
X39140000Y-37305000D02*
X39160000Y-42755000D01*
X67520000Y-43755000D02*
X40160000Y-43755000D01*
X39160000Y-37305000D02*
X67520000Y-37305000D01*
X40160000Y-43755000D02*
X39160000Y-42755000D01*
X117312221Y-39245000D02*
X117637779Y-39245000D01*
X117312221Y-38225000D02*
X117637779Y-38225000D01*
X118610000Y-44960000D02*
X118610000Y-41075000D01*
X116340000Y-44960000D02*
X118610000Y-44960000D01*
X116340000Y-41075000D02*
X116340000Y-44960000D01*
X50072500Y-47480600D02*
X50072500Y-48480600D01*
X53432500Y-47480600D02*
X53432500Y-48480600D01*
X88140000Y-48227779D02*
X88140000Y-47902221D01*
X87120000Y-48227779D02*
X87120000Y-47902221D01*
X126305000Y-56405000D02*
X126305000Y-58055000D01*
X131505000Y-56405000D02*
X126305000Y-56405000D01*
X131505000Y-61705000D02*
X131505000Y-56405000D01*
X126305000Y-61705000D02*
X131505000Y-61705000D01*
X126305000Y-60055000D02*
X126305000Y-61705000D01*
X126305000Y-58055000D02*
G75*
G02X126305000Y-60055000I0J-1000000D01*
G01*
X120590000Y-56405000D02*
X120590000Y-58055000D01*
X125790000Y-56405000D02*
X120590000Y-56405000D01*
X125790000Y-61705000D02*
X125790000Y-56405000D01*
X120590000Y-61705000D02*
X125790000Y-61705000D01*
X120590000Y-60055000D02*
X120590000Y-61705000D01*
X120590000Y-58055000D02*
G75*
G02X120590000Y-60055000I0J-1000000D01*
G01*
X114875000Y-56405000D02*
X114875000Y-58055000D01*
X120075000Y-56405000D02*
X114875000Y-56405000D01*
X120075000Y-61705000D02*
X120075000Y-56405000D01*
X114875000Y-61705000D02*
X120075000Y-61705000D01*
X114875000Y-60055000D02*
X114875000Y-61705000D01*
X114875000Y-58055000D02*
G75*
G02X114875000Y-60055000I0J-1000000D01*
G01*
X109160000Y-56405000D02*
X109160000Y-58055000D01*
X114360000Y-56405000D02*
X109160000Y-56405000D01*
X114360000Y-61705000D02*
X114360000Y-56405000D01*
X109160000Y-61705000D02*
X114360000Y-61705000D01*
X109160000Y-60055000D02*
X109160000Y-61705000D01*
X109160000Y-58055000D02*
G75*
G02X109160000Y-60055000I0J-1000000D01*
G01*
X103445000Y-56405000D02*
X103445000Y-58055000D01*
X108645000Y-56405000D02*
X103445000Y-56405000D01*
X108645000Y-61705000D02*
X108645000Y-56405000D01*
X103445000Y-61705000D02*
X108645000Y-61705000D01*
X103445000Y-60055000D02*
X103445000Y-61705000D01*
X103445000Y-58055000D02*
G75*
G02X103445000Y-60055000I0J-1000000D01*
G01*
X97730000Y-56405000D02*
X97730000Y-58055000D01*
X102930000Y-56405000D02*
X97730000Y-56405000D01*
X102930000Y-61705000D02*
X102930000Y-56405000D01*
X97730000Y-61705000D02*
X102930000Y-61705000D01*
X97730000Y-60055000D02*
X97730000Y-61705000D01*
X97730000Y-58055000D02*
G75*
G02X97730000Y-60055000I0J-1000000D01*
G01*
X92015000Y-56405000D02*
X92015000Y-58055000D01*
X97215000Y-56405000D02*
X92015000Y-56405000D01*
X97215000Y-61705000D02*
X97215000Y-56405000D01*
X92015000Y-61705000D02*
X97215000Y-61705000D01*
X92015000Y-60055000D02*
X92015000Y-61705000D01*
X92015000Y-58055000D02*
G75*
G02X92015000Y-60055000I0J-1000000D01*
G01*
X86300000Y-56405000D02*
X86300000Y-58055000D01*
X91500000Y-56405000D02*
X86300000Y-56405000D01*
X91500000Y-61705000D02*
X91500000Y-56405000D01*
X86300000Y-61705000D02*
X91500000Y-61705000D01*
X86300000Y-60055000D02*
X86300000Y-61705000D01*
X86300000Y-58055000D02*
G75*
G02X86300000Y-60055000I0J-1000000D01*
G01*
X80585000Y-56405000D02*
X80585000Y-58055000D01*
X85785000Y-56405000D02*
X80585000Y-56405000D01*
X85785000Y-61705000D02*
X85785000Y-56405000D01*
X80585000Y-61705000D02*
X85785000Y-61705000D01*
X80585000Y-60055000D02*
X80585000Y-61705000D01*
X80585000Y-58055000D02*
G75*
G02X80585000Y-60055000I0J-1000000D01*
G01*
X74870000Y-56405000D02*
X74870000Y-58055000D01*
X80070000Y-56405000D02*
X74870000Y-56405000D01*
X80070000Y-61705000D02*
X80070000Y-56405000D01*
X74870000Y-61705000D02*
X80070000Y-61705000D01*
X74870000Y-60055000D02*
X74870000Y-61705000D01*
X74870000Y-58055000D02*
G75*
G02X74870000Y-60055000I0J-1000000D01*
G01*
X69155000Y-56405000D02*
X69155000Y-58055000D01*
X74355000Y-56405000D02*
X69155000Y-56405000D01*
X74355000Y-61705000D02*
X74355000Y-56405000D01*
X69155000Y-61705000D02*
X74355000Y-61705000D01*
X69155000Y-60055000D02*
X69155000Y-61705000D01*
X69155000Y-58055000D02*
G75*
G02X69155000Y-60055000I0J-1000000D01*
G01*
X63440000Y-56405000D02*
X63440000Y-58055000D01*
X68640000Y-56405000D02*
X63440000Y-56405000D01*
X68640000Y-61705000D02*
X68640000Y-56405000D01*
X63440000Y-61705000D02*
X68640000Y-61705000D01*
X63440000Y-60055000D02*
X63440000Y-61705000D01*
X63440000Y-58055000D02*
G75*
G02X63440000Y-60055000I0J-1000000D01*
G01*
X57725000Y-56405000D02*
X57725000Y-58055000D01*
X62925000Y-56405000D02*
X57725000Y-56405000D01*
X62925000Y-61705000D02*
X62925000Y-56405000D01*
X57725000Y-61705000D02*
X62925000Y-61705000D01*
X57725000Y-60055000D02*
X57725000Y-61705000D01*
X57725000Y-58055000D02*
G75*
G02X57725000Y-60055000I0J-1000000D01*
G01*
X52010000Y-56405000D02*
X52010000Y-58055000D01*
X57210000Y-56405000D02*
X52010000Y-56405000D01*
X57210000Y-61705000D02*
X57210000Y-56405000D01*
X52010000Y-61705000D02*
X57210000Y-61705000D01*
X52010000Y-60055000D02*
X52010000Y-61705000D01*
X52010000Y-58055000D02*
G75*
G02X52010000Y-60055000I0J-1000000D01*
G01*
X46295000Y-56405000D02*
X46295000Y-58055000D01*
X51495000Y-56405000D02*
X46295000Y-56405000D01*
X51495000Y-61705000D02*
X51495000Y-56405000D01*
X46295000Y-61705000D02*
X51495000Y-61705000D01*
X46295000Y-60055000D02*
X46295000Y-61705000D01*
X46295000Y-58055000D02*
G75*
G02X46295000Y-60055000I0J-1000000D01*
G01*
X40580000Y-56405000D02*
X40580000Y-58055000D01*
X45780000Y-56405000D02*
X40580000Y-56405000D01*
X45780000Y-61705000D02*
X45780000Y-56405000D01*
X40580000Y-61705000D02*
X45780000Y-61705000D01*
X40580000Y-60055000D02*
X40580000Y-61705000D01*
X40580000Y-58055000D02*
G75*
G02X40580000Y-60055000I0J-1000000D01*
G01*
X129224721Y-72900000D02*
X129550279Y-72900000D01*
X129224721Y-71880000D02*
X129550279Y-71880000D01*
X129550279Y-68705000D02*
X129224721Y-68705000D01*
X129550279Y-69725000D02*
X129224721Y-69725000D01*
X123509721Y-72900000D02*
X123835279Y-72900000D01*
X123509721Y-71880000D02*
X123835279Y-71880000D01*
X123835279Y-68705000D02*
X123509721Y-68705000D01*
X123835279Y-69725000D02*
X123509721Y-69725000D01*
X117794721Y-72900000D02*
X118120279Y-72900000D01*
X117794721Y-71880000D02*
X118120279Y-71880000D01*
X118120279Y-68705000D02*
X117794721Y-68705000D01*
X118120279Y-69725000D02*
X117794721Y-69725000D01*
X112079721Y-72900000D02*
X112405279Y-72900000D01*
X112079721Y-71880000D02*
X112405279Y-71880000D01*
X112405279Y-68705000D02*
X112079721Y-68705000D01*
X112405279Y-69725000D02*
X112079721Y-69725000D01*
X106364721Y-72900000D02*
X106690279Y-72900000D01*
X106364721Y-71880000D02*
X106690279Y-71880000D01*
X106690279Y-68705000D02*
X106364721Y-68705000D01*
X106690279Y-69725000D02*
X106364721Y-69725000D01*
X100649721Y-72900000D02*
X100975279Y-72900000D01*
X100649721Y-71880000D02*
X100975279Y-71880000D01*
X100975279Y-68705000D02*
X100649721Y-68705000D01*
X100975279Y-69725000D02*
X100649721Y-69725000D01*
X94934721Y-72900000D02*
X95260279Y-72900000D01*
X94934721Y-71880000D02*
X95260279Y-71880000D01*
X95260279Y-68705000D02*
X94934721Y-68705000D01*
X95260279Y-69725000D02*
X94934721Y-69725000D01*
X89219721Y-72900000D02*
X89545279Y-72900000D01*
X89219721Y-71880000D02*
X89545279Y-71880000D01*
X89545279Y-68705000D02*
X89219721Y-68705000D01*
X89545279Y-69725000D02*
X89219721Y-69725000D01*
X83504721Y-72900000D02*
X83830279Y-72900000D01*
X83504721Y-71880000D02*
X83830279Y-71880000D01*
X83830279Y-68705000D02*
X83504721Y-68705000D01*
X83830279Y-69725000D02*
X83504721Y-69725000D01*
X77789721Y-72900000D02*
X78115279Y-72900000D01*
X77789721Y-71880000D02*
X78115279Y-71880000D01*
X78115279Y-68705000D02*
X77789721Y-68705000D01*
X78115279Y-69725000D02*
X77789721Y-69725000D01*
X72074721Y-72900000D02*
X72400279Y-72900000D01*
X72074721Y-71880000D02*
X72400279Y-71880000D01*
X72400279Y-68705000D02*
X72074721Y-68705000D01*
X72400279Y-69725000D02*
X72074721Y-69725000D01*
X66359721Y-72900000D02*
X66685279Y-72900000D01*
X66359721Y-71880000D02*
X66685279Y-71880000D01*
X66685279Y-68705000D02*
X66359721Y-68705000D01*
X66685279Y-69725000D02*
X66359721Y-69725000D01*
X60644721Y-72900000D02*
X60970279Y-72900000D01*
X60644721Y-71880000D02*
X60970279Y-71880000D01*
X60970279Y-68705000D02*
X60644721Y-68705000D01*
X60970279Y-69725000D02*
X60644721Y-69725000D01*
X54929721Y-72900000D02*
X55255279Y-72900000D01*
X54929721Y-71880000D02*
X55255279Y-71880000D01*
X55255279Y-68705000D02*
X54929721Y-68705000D01*
X55255279Y-69725000D02*
X54929721Y-69725000D01*
X49214721Y-72900000D02*
X49540279Y-72900000D01*
X49214721Y-71880000D02*
X49540279Y-71880000D01*
X49540279Y-68705000D02*
X49214721Y-68705000D01*
X49540279Y-69725000D02*
X49214721Y-69725000D01*
X43652221Y-72900000D02*
X43977779Y-72900000D01*
X43652221Y-71880000D02*
X43977779Y-71880000D01*
X43977779Y-68705000D02*
X43652221Y-68705000D01*
X43977779Y-69725000D02*
X43652221Y-69725000D01*
X71592221Y-39245000D02*
X71917779Y-39245000D01*
X71592221Y-38225000D02*
X71917779Y-38225000D01*
X131310000Y-79625000D02*
X131310000Y-75740000D01*
X129040000Y-79625000D02*
X131310000Y-79625000D01*
X129040000Y-75740000D02*
X129040000Y-79625000D01*
X125595000Y-79625000D02*
X125595000Y-75740000D01*
X123325000Y-79625000D02*
X125595000Y-79625000D01*
X123325000Y-75740000D02*
X123325000Y-79625000D01*
X119753000Y-79625000D02*
X119753000Y-75740000D01*
X117483000Y-79625000D02*
X119753000Y-79625000D01*
X117483000Y-75740000D02*
X117483000Y-79625000D01*
X114165000Y-79625000D02*
X114165000Y-75740000D01*
X111895000Y-79625000D02*
X114165000Y-79625000D01*
X111895000Y-75740000D02*
X111895000Y-79625000D01*
X108450000Y-79625000D02*
X108450000Y-75740000D01*
X106180000Y-79625000D02*
X108450000Y-79625000D01*
X106180000Y-75740000D02*
X106180000Y-79625000D01*
X102735000Y-79625000D02*
X102735000Y-75740000D01*
X100465000Y-79625000D02*
X102735000Y-79625000D01*
X100465000Y-75740000D02*
X100465000Y-79625000D01*
X97020000Y-79625000D02*
X97020000Y-75740000D01*
X94750000Y-79625000D02*
X97020000Y-79625000D01*
X94750000Y-75740000D02*
X94750000Y-79625000D01*
X91305000Y-79625000D02*
X91305000Y-75740000D01*
X89035000Y-79625000D02*
X91305000Y-79625000D01*
X89035000Y-75740000D02*
X89035000Y-79625000D01*
X85590000Y-79625000D02*
X85590000Y-75740000D01*
X83320000Y-79625000D02*
X85590000Y-79625000D01*
X83320000Y-75740000D02*
X83320000Y-79625000D01*
X79875000Y-79625000D02*
X79875000Y-75740000D01*
X77605000Y-79625000D02*
X79875000Y-79625000D01*
X77605000Y-75740000D02*
X77605000Y-79625000D01*
X74160000Y-79625000D02*
X74160000Y-75740000D01*
X71890000Y-79625000D02*
X74160000Y-79625000D01*
X71890000Y-75740000D02*
X71890000Y-79625000D01*
X68445000Y-79625000D02*
X68445000Y-75740000D01*
X66175000Y-79625000D02*
X68445000Y-79625000D01*
X66175000Y-75740000D02*
X66175000Y-79625000D01*
X57015000Y-79625000D02*
X57015000Y-75740000D01*
X54745000Y-79625000D02*
X57015000Y-79625000D01*
X54745000Y-75740000D02*
X54745000Y-79625000D01*
X51300000Y-79625000D02*
X51300000Y-75740000D01*
X49030000Y-79625000D02*
X51300000Y-79625000D01*
X49030000Y-75740000D02*
X49030000Y-79625000D01*
X45585000Y-79625000D02*
X45585000Y-75740000D01*
X43315000Y-79625000D02*
X45585000Y-79625000D01*
X43315000Y-75740000D02*
X43315000Y-79625000D01*
X72890000Y-44960000D02*
X72890000Y-41075000D01*
X70620000Y-44960000D02*
X72890000Y-44960000D01*
X70620000Y-41075000D02*
X70620000Y-44960000D01*
X129550279Y-65530000D02*
X129224721Y-65530000D01*
X129550279Y-66550000D02*
X129224721Y-66550000D01*
X123835279Y-65530000D02*
X123509721Y-65530000D01*
X123835279Y-66550000D02*
X123509721Y-66550000D01*
X118145779Y-65530000D02*
X117820221Y-65530000D01*
X118145779Y-66550000D02*
X117820221Y-66550000D01*
X112405279Y-65530000D02*
X112079721Y-65530000D01*
X112405279Y-66550000D02*
X112079721Y-66550000D01*
X106690279Y-65530000D02*
X106364721Y-65530000D01*
X106690279Y-66550000D02*
X106364721Y-66550000D01*
X100975279Y-65530000D02*
X100649721Y-65530000D01*
X100975279Y-66550000D02*
X100649721Y-66550000D01*
X95260279Y-65530000D02*
X94934721Y-65530000D01*
X95260279Y-66550000D02*
X94934721Y-66550000D01*
X89545279Y-65530000D02*
X89219721Y-65530000D01*
X89545279Y-66550000D02*
X89219721Y-66550000D01*
X83830279Y-65530000D02*
X83504721Y-65530000D01*
X83830279Y-66550000D02*
X83504721Y-66550000D01*
X78115279Y-65530000D02*
X77789721Y-65530000D01*
X78115279Y-66550000D02*
X77789721Y-66550000D01*
X72400279Y-65530000D02*
X72074721Y-65530000D01*
X72400279Y-66550000D02*
X72074721Y-66550000D01*
X66685279Y-65530000D02*
X66359721Y-65530000D01*
X66685279Y-66550000D02*
X66359721Y-66550000D01*
X60970279Y-65530000D02*
X60644721Y-65530000D01*
X60970279Y-66550000D02*
X60644721Y-66550000D01*
X55255279Y-65530000D02*
X54929721Y-65530000D01*
X55255279Y-66550000D02*
X54929721Y-66550000D01*
X49540279Y-65530000D02*
X49214721Y-65530000D01*
X49540279Y-66550000D02*
X49214721Y-66550000D01*
X43977779Y-65530000D02*
X43652221Y-65530000D01*
X43977779Y-66550000D02*
X43652221Y-66550000D01*
X42420000Y-48227779D02*
X42420000Y-47902221D01*
X41400000Y-48227779D02*
X41400000Y-47902221D01*
D12*
X42981714Y-98401142D02*
X42934095Y-98448761D01*
X42791238Y-98496380D01*
X42696000Y-98496380D01*
X42553142Y-98448761D01*
X42457904Y-98353523D01*
X42410285Y-98258285D01*
X42362666Y-98067809D01*
X42362666Y-97924952D01*
X42410285Y-97734476D01*
X42457904Y-97639238D01*
X42553142Y-97544000D01*
X42696000Y-97496380D01*
X42791238Y-97496380D01*
X42934095Y-97544000D01*
X42981714Y-97591619D01*
X43600761Y-97496380D02*
X43791238Y-97496380D01*
X43886476Y-97544000D01*
X43981714Y-97639238D01*
X44029333Y-97829714D01*
X44029333Y-98163047D01*
X43981714Y-98353523D01*
X43886476Y-98448761D01*
X43791238Y-98496380D01*
X43600761Y-98496380D01*
X43505523Y-98448761D01*
X43410285Y-98353523D01*
X43362666Y-98163047D01*
X43362666Y-97829714D01*
X43410285Y-97639238D01*
X43505523Y-97544000D01*
X43600761Y-97496380D01*
X44457904Y-98496380D02*
X44457904Y-97496380D01*
X45029333Y-98496380D01*
X45029333Y-97496380D01*
X45410285Y-97496380D02*
X46029333Y-97496380D01*
X45696000Y-97877333D01*
X45838857Y-97877333D01*
X45934095Y-97924952D01*
X45981714Y-97972571D01*
X46029333Y-98067809D01*
X46029333Y-98305904D01*
X45981714Y-98401142D01*
X45934095Y-98448761D01*
X45838857Y-98496380D01*
X45553142Y-98496380D01*
X45457904Y-98448761D01*
X45410285Y-98401142D01*
X96845523Y-50871380D02*
X96512190Y-50395190D01*
X96274095Y-50871380D02*
X96274095Y-49871380D01*
X96655047Y-49871380D01*
X96750285Y-49919000D01*
X96797904Y-49966619D01*
X96845523Y-50061857D01*
X96845523Y-50204714D01*
X96797904Y-50299952D01*
X96750285Y-50347571D01*
X96655047Y-50395190D01*
X96274095Y-50395190D01*
X97274095Y-50871380D02*
X97274095Y-49871380D01*
X97845523Y-50871380D01*
X97845523Y-49871380D01*
X98750285Y-50204714D02*
X98750285Y-50871380D01*
X98512190Y-49823761D02*
X98274095Y-50538047D01*
X98893142Y-50538047D01*
X119705523Y-50998380D02*
X119372190Y-50522190D01*
X119134095Y-50998380D02*
X119134095Y-49998380D01*
X119515047Y-49998380D01*
X119610285Y-50046000D01*
X119657904Y-50093619D01*
X119705523Y-50188857D01*
X119705523Y-50331714D01*
X119657904Y-50426952D01*
X119610285Y-50474571D01*
X119515047Y-50522190D01*
X119134095Y-50522190D01*
X120134095Y-50998380D02*
X120134095Y-49998380D01*
X120705523Y-50998380D01*
X120705523Y-49998380D01*
X121086476Y-49998380D02*
X121705523Y-49998380D01*
X121372190Y-50379333D01*
X121515047Y-50379333D01*
X121610285Y-50426952D01*
X121657904Y-50474571D01*
X121705523Y-50569809D01*
X121705523Y-50807904D01*
X121657904Y-50903142D01*
X121610285Y-50950761D01*
X121515047Y-50998380D01*
X121229333Y-50998380D01*
X121134095Y-50950761D01*
X121086476Y-50903142D01*
X73985523Y-50871380D02*
X73652190Y-50395190D01*
X73414095Y-50871380D02*
X73414095Y-49871380D01*
X73795047Y-49871380D01*
X73890285Y-49919000D01*
X73937904Y-49966619D01*
X73985523Y-50061857D01*
X73985523Y-50204714D01*
X73937904Y-50299952D01*
X73890285Y-50347571D01*
X73795047Y-50395190D01*
X73414095Y-50395190D01*
X74414095Y-50871380D02*
X74414095Y-49871380D01*
X74985523Y-50871380D01*
X74985523Y-49871380D01*
X75985523Y-50871380D02*
X75414095Y-50871380D01*
X75699809Y-50871380D02*
X75699809Y-49871380D01*
X75604571Y-50014238D01*
X75509333Y-50109476D01*
X75414095Y-50157095D01*
X95305714Y-98401142D02*
X95258095Y-98448761D01*
X95115238Y-98496380D01*
X95020000Y-98496380D01*
X94877142Y-98448761D01*
X94781904Y-98353523D01*
X94734285Y-98258285D01*
X94686666Y-98067809D01*
X94686666Y-97924952D01*
X94734285Y-97734476D01*
X94781904Y-97639238D01*
X94877142Y-97544000D01*
X95020000Y-97496380D01*
X95115238Y-97496380D01*
X95258095Y-97544000D01*
X95305714Y-97591619D01*
X95924761Y-97496380D02*
X96115238Y-97496380D01*
X96210476Y-97544000D01*
X96305714Y-97639238D01*
X96353333Y-97829714D01*
X96353333Y-98163047D01*
X96305714Y-98353523D01*
X96210476Y-98448761D01*
X96115238Y-98496380D01*
X95924761Y-98496380D01*
X95829523Y-98448761D01*
X95734285Y-98353523D01*
X95686666Y-98163047D01*
X95686666Y-97829714D01*
X95734285Y-97639238D01*
X95829523Y-97544000D01*
X95924761Y-97496380D01*
X96781904Y-98496380D02*
X96781904Y-97496380D01*
X97353333Y-98496380D01*
X97353333Y-97496380D01*
X98258095Y-97829714D02*
X98258095Y-98496380D01*
X98020000Y-97448761D02*
X97781904Y-98163047D01*
X98400952Y-98163047D01*
X60227380Y-78078095D02*
X59227380Y-78078095D01*
X59227380Y-77840000D01*
X59275000Y-77697142D01*
X59370238Y-77601904D01*
X59465476Y-77554285D01*
X59655952Y-77506666D01*
X59798809Y-77506666D01*
X59989285Y-77554285D01*
X60084523Y-77601904D01*
X60179761Y-77697142D01*
X60227380Y-77840000D01*
X60227380Y-78078095D01*
X59227380Y-76649523D02*
X59227380Y-76840000D01*
X59275000Y-76935238D01*
X59322619Y-76982857D01*
X59465476Y-77078095D01*
X59655952Y-77125714D01*
X60036904Y-77125714D01*
X60132142Y-77078095D01*
X60179761Y-77030476D01*
X60227380Y-76935238D01*
X60227380Y-76744761D01*
X60179761Y-76649523D01*
X60132142Y-76601904D01*
X60036904Y-76554285D01*
X59798809Y-76554285D01*
X59703571Y-76601904D01*
X59655952Y-76649523D01*
X59608333Y-76744761D01*
X59608333Y-76935238D01*
X59655952Y-77030476D01*
X59703571Y-77078095D01*
X59798809Y-77125714D01*
X82351714Y-45061142D02*
X82304095Y-45108761D01*
X82161238Y-45156380D01*
X82066000Y-45156380D01*
X81923142Y-45108761D01*
X81827904Y-45013523D01*
X81780285Y-44918285D01*
X81732666Y-44727809D01*
X81732666Y-44584952D01*
X81780285Y-44394476D01*
X81827904Y-44299238D01*
X81923142Y-44204000D01*
X82066000Y-44156380D01*
X82161238Y-44156380D01*
X82304095Y-44204000D01*
X82351714Y-44251619D01*
X82970761Y-44156380D02*
X83161238Y-44156380D01*
X83256476Y-44204000D01*
X83351714Y-44299238D01*
X83399333Y-44489714D01*
X83399333Y-44823047D01*
X83351714Y-45013523D01*
X83256476Y-45108761D01*
X83161238Y-45156380D01*
X82970761Y-45156380D01*
X82875523Y-45108761D01*
X82780285Y-45013523D01*
X82732666Y-44823047D01*
X82732666Y-44489714D01*
X82780285Y-44299238D01*
X82875523Y-44204000D01*
X82970761Y-44156380D01*
X83827904Y-45156380D02*
X83827904Y-44156380D01*
X84399333Y-45156380D01*
X84399333Y-44156380D01*
X84827904Y-44251619D02*
X84875523Y-44204000D01*
X84970761Y-44156380D01*
X85208857Y-44156380D01*
X85304095Y-44204000D01*
X85351714Y-44251619D01*
X85399333Y-44346857D01*
X85399333Y-44442095D01*
X85351714Y-44584952D01*
X84780285Y-45156380D01*
X85399333Y-45156380D01*
X38155714Y-45315142D02*
X38108095Y-45362761D01*
X37965238Y-45410380D01*
X37870000Y-45410380D01*
X37727142Y-45362761D01*
X37631904Y-45267523D01*
X37584285Y-45172285D01*
X37536666Y-44981809D01*
X37536666Y-44838952D01*
X37584285Y-44648476D01*
X37631904Y-44553238D01*
X37727142Y-44458000D01*
X37870000Y-44410380D01*
X37965238Y-44410380D01*
X38108095Y-44458000D01*
X38155714Y-44505619D01*
X38774761Y-44410380D02*
X38965238Y-44410380D01*
X39060476Y-44458000D01*
X39155714Y-44553238D01*
X39203333Y-44743714D01*
X39203333Y-45077047D01*
X39155714Y-45267523D01*
X39060476Y-45362761D01*
X38965238Y-45410380D01*
X38774761Y-45410380D01*
X38679523Y-45362761D01*
X38584285Y-45267523D01*
X38536666Y-45077047D01*
X38536666Y-44743714D01*
X38584285Y-44553238D01*
X38679523Y-44458000D01*
X38774761Y-44410380D01*
X39631904Y-45410380D02*
X39631904Y-44410380D01*
X40203333Y-45410380D01*
X40203333Y-44410380D01*
X41203333Y-45410380D02*
X40631904Y-45410380D01*
X40917619Y-45410380D02*
X40917619Y-44410380D01*
X40822380Y-44553238D01*
X40727142Y-44648476D01*
X40631904Y-44696095D01*
X117308333Y-37757380D02*
X116975000Y-37281190D01*
X116736904Y-37757380D02*
X116736904Y-36757380D01*
X117117857Y-36757380D01*
X117213095Y-36805000D01*
X117260714Y-36852619D01*
X117308333Y-36947857D01*
X117308333Y-37090714D01*
X117260714Y-37185952D01*
X117213095Y-37233571D01*
X117117857Y-37281190D01*
X116736904Y-37281190D01*
X117689285Y-36852619D02*
X117736904Y-36805000D01*
X117832142Y-36757380D01*
X118070238Y-36757380D01*
X118165476Y-36805000D01*
X118213095Y-36852619D01*
X118260714Y-36947857D01*
X118260714Y-37043095D01*
X118213095Y-37185952D01*
X117641666Y-37757380D01*
X118260714Y-37757380D01*
X116107380Y-43413095D02*
X115107380Y-43413095D01*
X115107380Y-43175000D01*
X115155000Y-43032142D01*
X115250238Y-42936904D01*
X115345476Y-42889285D01*
X115535952Y-42841666D01*
X115678809Y-42841666D01*
X115869285Y-42889285D01*
X115964523Y-42936904D01*
X116059761Y-43032142D01*
X116107380Y-43175000D01*
X116107380Y-43413095D01*
X115202619Y-42460714D02*
X115155000Y-42413095D01*
X115107380Y-42317857D01*
X115107380Y-42079761D01*
X115155000Y-41984523D01*
X115202619Y-41936904D01*
X115297857Y-41889285D01*
X115393095Y-41889285D01*
X115535952Y-41936904D01*
X116107380Y-42508333D01*
X116107380Y-41889285D01*
X50998523Y-50871380D02*
X50665190Y-50395190D01*
X50427095Y-50871380D02*
X50427095Y-49871380D01*
X50808047Y-49871380D01*
X50903285Y-49919000D01*
X50950904Y-49966619D01*
X50998523Y-50061857D01*
X50998523Y-50204714D01*
X50950904Y-50299952D01*
X50903285Y-50347571D01*
X50808047Y-50395190D01*
X50427095Y-50395190D01*
X51427095Y-50871380D02*
X51427095Y-49871380D01*
X51998523Y-50871380D01*
X51998523Y-49871380D01*
X52427095Y-49966619D02*
X52474714Y-49919000D01*
X52569952Y-49871380D01*
X52808047Y-49871380D01*
X52903285Y-49919000D01*
X52950904Y-49966619D01*
X52998523Y-50061857D01*
X52998523Y-50157095D01*
X52950904Y-50299952D01*
X52379476Y-50871380D01*
X52998523Y-50871380D01*
X86557142Y-48707857D02*
X86604761Y-48755476D01*
X86652380Y-48898333D01*
X86652380Y-48993571D01*
X86604761Y-49136428D01*
X86509523Y-49231666D01*
X86414285Y-49279285D01*
X86223809Y-49326904D01*
X86080952Y-49326904D01*
X85890476Y-49279285D01*
X85795238Y-49231666D01*
X85700000Y-49136428D01*
X85652380Y-48993571D01*
X85652380Y-48898333D01*
X85700000Y-48755476D01*
X85747619Y-48707857D01*
X86652380Y-47755476D02*
X86652380Y-48326904D01*
X86652380Y-48041190D02*
X85652380Y-48041190D01*
X85795238Y-48136428D01*
X85890476Y-48231666D01*
X85938095Y-48326904D01*
X85652380Y-47136428D02*
X85652380Y-47041190D01*
X85700000Y-46945952D01*
X85747619Y-46898333D01*
X85842857Y-46850714D01*
X86033333Y-46803095D01*
X86271428Y-46803095D01*
X86461904Y-46850714D01*
X86557142Y-46898333D01*
X86604761Y-46945952D01*
X86652380Y-47041190D01*
X86652380Y-47136428D01*
X86604761Y-47231666D01*
X86557142Y-47279285D01*
X86461904Y-47326904D01*
X86271428Y-47374523D01*
X86033333Y-47374523D01*
X85842857Y-47326904D01*
X85747619Y-47279285D01*
X85700000Y-47231666D01*
X85652380Y-47136428D01*
X127386904Y-52622380D02*
X127386904Y-53431904D01*
X127434523Y-53527142D01*
X127482142Y-53574761D01*
X127577380Y-53622380D01*
X127767857Y-53622380D01*
X127863095Y-53574761D01*
X127910714Y-53527142D01*
X127958333Y-53431904D01*
X127958333Y-52622380D01*
X128958333Y-53622380D02*
X128386904Y-53622380D01*
X128672619Y-53622380D02*
X128672619Y-52622380D01*
X128577380Y-52765238D01*
X128482142Y-52860476D01*
X128386904Y-52908095D01*
X129815476Y-52622380D02*
X129625000Y-52622380D01*
X129529761Y-52670000D01*
X129482142Y-52717619D01*
X129386904Y-52860476D01*
X129339285Y-53050952D01*
X129339285Y-53431904D01*
X129386904Y-53527142D01*
X129434523Y-53574761D01*
X129529761Y-53622380D01*
X129720238Y-53622380D01*
X129815476Y-53574761D01*
X129863095Y-53527142D01*
X129910714Y-53431904D01*
X129910714Y-53193809D01*
X129863095Y-53098571D01*
X129815476Y-53050952D01*
X129720238Y-53003333D01*
X129529761Y-53003333D01*
X129434523Y-53050952D01*
X129386904Y-53098571D01*
X129339285Y-53193809D01*
X121629580Y-52622380D02*
X121629580Y-53431904D01*
X121677199Y-53527142D01*
X121724818Y-53574761D01*
X121820056Y-53622380D01*
X122010533Y-53622380D01*
X122105771Y-53574761D01*
X122153390Y-53527142D01*
X122201009Y-53431904D01*
X122201009Y-52622380D01*
X123201009Y-53622380D02*
X122629580Y-53622380D01*
X122915295Y-53622380D02*
X122915295Y-52622380D01*
X122820056Y-52765238D01*
X122724818Y-52860476D01*
X122629580Y-52908095D01*
X124105771Y-52622380D02*
X123629580Y-52622380D01*
X123581961Y-53098571D01*
X123629580Y-53050952D01*
X123724818Y-53003333D01*
X123962914Y-53003333D01*
X124058152Y-53050952D01*
X124105771Y-53098571D01*
X124153390Y-53193809D01*
X124153390Y-53431904D01*
X124105771Y-53527142D01*
X124058152Y-53574761D01*
X123962914Y-53622380D01*
X123724818Y-53622380D01*
X123629580Y-53574761D01*
X123581961Y-53527142D01*
X115872246Y-52622380D02*
X115872246Y-53431904D01*
X115919865Y-53527142D01*
X115967484Y-53574761D01*
X116062722Y-53622380D01*
X116253199Y-53622380D01*
X116348437Y-53574761D01*
X116396056Y-53527142D01*
X116443675Y-53431904D01*
X116443675Y-52622380D01*
X117443675Y-53622380D02*
X116872246Y-53622380D01*
X117157961Y-53622380D02*
X117157961Y-52622380D01*
X117062722Y-52765238D01*
X116967484Y-52860476D01*
X116872246Y-52908095D01*
X118300818Y-52955714D02*
X118300818Y-53622380D01*
X118062722Y-52574761D02*
X117824627Y-53289047D01*
X118443675Y-53289047D01*
X110749912Y-52622380D02*
X110749912Y-53431904D01*
X110797531Y-53527142D01*
X110845150Y-53574761D01*
X110940388Y-53622380D01*
X111130865Y-53622380D01*
X111226103Y-53574761D01*
X111273722Y-53527142D01*
X111321341Y-53431904D01*
X111321341Y-52622380D01*
X112321341Y-53622380D02*
X111749912Y-53622380D01*
X112035627Y-53622380D02*
X112035627Y-52622380D01*
X111940388Y-52765238D01*
X111845150Y-52860476D01*
X111749912Y-52908095D01*
X112654674Y-52622380D02*
X113273722Y-52622380D01*
X112940388Y-53003333D01*
X113083246Y-53003333D01*
X113178484Y-53050952D01*
X113226103Y-53098571D01*
X113273722Y-53193809D01*
X113273722Y-53431904D01*
X113226103Y-53527142D01*
X113178484Y-53574761D01*
X113083246Y-53622380D01*
X112797531Y-53622380D01*
X112702293Y-53574761D01*
X112654674Y-53527142D01*
X104992578Y-52622380D02*
X104992578Y-53431904D01*
X105040197Y-53527142D01*
X105087816Y-53574761D01*
X105183054Y-53622380D01*
X105373531Y-53622380D01*
X105468769Y-53574761D01*
X105516388Y-53527142D01*
X105564007Y-53431904D01*
X105564007Y-52622380D01*
X106564007Y-53622380D02*
X105992578Y-53622380D01*
X106278293Y-53622380D02*
X106278293Y-52622380D01*
X106183054Y-52765238D01*
X106087816Y-52860476D01*
X105992578Y-52908095D01*
X106944959Y-52717619D02*
X106992578Y-52670000D01*
X107087816Y-52622380D01*
X107325912Y-52622380D01*
X107421150Y-52670000D01*
X107468769Y-52717619D01*
X107516388Y-52812857D01*
X107516388Y-52908095D01*
X107468769Y-53050952D01*
X106897340Y-53622380D01*
X107516388Y-53622380D01*
X99235244Y-52622380D02*
X99235244Y-53431904D01*
X99282863Y-53527142D01*
X99330482Y-53574761D01*
X99425720Y-53622380D01*
X99616197Y-53622380D01*
X99711435Y-53574761D01*
X99759054Y-53527142D01*
X99806673Y-53431904D01*
X99806673Y-52622380D01*
X100806673Y-53622380D02*
X100235244Y-53622380D01*
X100520959Y-53622380D02*
X100520959Y-52622380D01*
X100425720Y-52765238D01*
X100330482Y-52860476D01*
X100235244Y-52908095D01*
X101759054Y-53622380D02*
X101187625Y-53622380D01*
X101473340Y-53622380D02*
X101473340Y-52622380D01*
X101378101Y-52765238D01*
X101282863Y-52860476D01*
X101187625Y-52908095D01*
X93477910Y-52622380D02*
X93477910Y-53431904D01*
X93525529Y-53527142D01*
X93573148Y-53574761D01*
X93668386Y-53622380D01*
X93858863Y-53622380D01*
X93954101Y-53574761D01*
X94001720Y-53527142D01*
X94049339Y-53431904D01*
X94049339Y-52622380D01*
X95049339Y-53622380D02*
X94477910Y-53622380D01*
X94763625Y-53622380D02*
X94763625Y-52622380D01*
X94668386Y-52765238D01*
X94573148Y-52860476D01*
X94477910Y-52908095D01*
X95668386Y-52622380D02*
X95763625Y-52622380D01*
X95858863Y-52670000D01*
X95906482Y-52717619D01*
X95954101Y-52812857D01*
X96001720Y-53003333D01*
X96001720Y-53241428D01*
X95954101Y-53431904D01*
X95906482Y-53527142D01*
X95858863Y-53574761D01*
X95763625Y-53622380D01*
X95668386Y-53622380D01*
X95573148Y-53574761D01*
X95525529Y-53527142D01*
X95477910Y-53431904D01*
X95430291Y-53241428D01*
X95430291Y-53003333D01*
X95477910Y-52812857D01*
X95525529Y-52717619D01*
X95573148Y-52670000D01*
X95668386Y-52622380D01*
X88196767Y-52622380D02*
X88196767Y-53431904D01*
X88244386Y-53527142D01*
X88292005Y-53574761D01*
X88387243Y-53622380D01*
X88577719Y-53622380D01*
X88672957Y-53574761D01*
X88720576Y-53527142D01*
X88768195Y-53431904D01*
X88768195Y-52622380D01*
X89292005Y-53622380D02*
X89482481Y-53622380D01*
X89577719Y-53574761D01*
X89625338Y-53527142D01*
X89720576Y-53384285D01*
X89768195Y-53193809D01*
X89768195Y-52812857D01*
X89720576Y-52717619D01*
X89672957Y-52670000D01*
X89577719Y-52622380D01*
X89387243Y-52622380D01*
X89292005Y-52670000D01*
X89244386Y-52717619D01*
X89196767Y-52812857D01*
X89196767Y-53050952D01*
X89244386Y-53146190D01*
X89292005Y-53193809D01*
X89387243Y-53241428D01*
X89577719Y-53241428D01*
X89672957Y-53193809D01*
X89720576Y-53146190D01*
X89768195Y-53050952D01*
X82439433Y-52622380D02*
X82439433Y-53431904D01*
X82487052Y-53527142D01*
X82534671Y-53574761D01*
X82629909Y-53622380D01*
X82820385Y-53622380D01*
X82915623Y-53574761D01*
X82963242Y-53527142D01*
X83010861Y-53431904D01*
X83010861Y-52622380D01*
X83629909Y-53050952D02*
X83534671Y-53003333D01*
X83487052Y-52955714D01*
X83439433Y-52860476D01*
X83439433Y-52812857D01*
X83487052Y-52717619D01*
X83534671Y-52670000D01*
X83629909Y-52622380D01*
X83820385Y-52622380D01*
X83915623Y-52670000D01*
X83963242Y-52717619D01*
X84010861Y-52812857D01*
X84010861Y-52860476D01*
X83963242Y-52955714D01*
X83915623Y-53003333D01*
X83820385Y-53050952D01*
X83629909Y-53050952D01*
X83534671Y-53098571D01*
X83487052Y-53146190D01*
X83439433Y-53241428D01*
X83439433Y-53431904D01*
X83487052Y-53527142D01*
X83534671Y-53574761D01*
X83629909Y-53622380D01*
X83820385Y-53622380D01*
X83915623Y-53574761D01*
X83963242Y-53527142D01*
X84010861Y-53431904D01*
X84010861Y-53241428D01*
X83963242Y-53146190D01*
X83915623Y-53098571D01*
X83820385Y-53050952D01*
X76682099Y-52622380D02*
X76682099Y-53431904D01*
X76729718Y-53527142D01*
X76777337Y-53574761D01*
X76872575Y-53622380D01*
X77063051Y-53622380D01*
X77158289Y-53574761D01*
X77205908Y-53527142D01*
X77253527Y-53431904D01*
X77253527Y-52622380D01*
X77634480Y-52622380D02*
X78301146Y-52622380D01*
X77872575Y-53622380D01*
X70924765Y-52622380D02*
X70924765Y-53431904D01*
X70972384Y-53527142D01*
X71020003Y-53574761D01*
X71115241Y-53622380D01*
X71305717Y-53622380D01*
X71400955Y-53574761D01*
X71448574Y-53527142D01*
X71496193Y-53431904D01*
X71496193Y-52622380D01*
X72400955Y-52622380D02*
X72210479Y-52622380D01*
X72115241Y-52670000D01*
X72067622Y-52717619D01*
X71972384Y-52860476D01*
X71924765Y-53050952D01*
X71924765Y-53431904D01*
X71972384Y-53527142D01*
X72020003Y-53574761D01*
X72115241Y-53622380D01*
X72305717Y-53622380D01*
X72400955Y-53574761D01*
X72448574Y-53527142D01*
X72496193Y-53431904D01*
X72496193Y-53193809D01*
X72448574Y-53098571D01*
X72400955Y-53050952D01*
X72305717Y-53003333D01*
X72115241Y-53003333D01*
X72020003Y-53050952D01*
X71972384Y-53098571D01*
X71924765Y-53193809D01*
X65167431Y-52622380D02*
X65167431Y-53431904D01*
X65215050Y-53527142D01*
X65262669Y-53574761D01*
X65357907Y-53622380D01*
X65548383Y-53622380D01*
X65643621Y-53574761D01*
X65691240Y-53527142D01*
X65738859Y-53431904D01*
X65738859Y-52622380D01*
X66691240Y-52622380D02*
X66215050Y-52622380D01*
X66167431Y-53098571D01*
X66215050Y-53050952D01*
X66310288Y-53003333D01*
X66548383Y-53003333D01*
X66643621Y-53050952D01*
X66691240Y-53098571D01*
X66738859Y-53193809D01*
X66738859Y-53431904D01*
X66691240Y-53527142D01*
X66643621Y-53574761D01*
X66548383Y-53622380D01*
X66310288Y-53622380D01*
X66215050Y-53574761D01*
X66167431Y-53527142D01*
X59410097Y-52622380D02*
X59410097Y-53431904D01*
X59457716Y-53527142D01*
X59505335Y-53574761D01*
X59600573Y-53622380D01*
X59791049Y-53622380D01*
X59886287Y-53574761D01*
X59933906Y-53527142D01*
X59981525Y-53431904D01*
X59981525Y-52622380D01*
X60886287Y-52955714D02*
X60886287Y-53622380D01*
X60648192Y-52574761D02*
X60410097Y-53289047D01*
X61029144Y-53289047D01*
X53652763Y-52622380D02*
X53652763Y-53431904D01*
X53700382Y-53527142D01*
X53748001Y-53574761D01*
X53843239Y-53622380D01*
X54033715Y-53622380D01*
X54128953Y-53574761D01*
X54176572Y-53527142D01*
X54224191Y-53431904D01*
X54224191Y-52622380D01*
X54605144Y-52622380D02*
X55224191Y-52622380D01*
X54890858Y-53003333D01*
X55033715Y-53003333D01*
X55128953Y-53050952D01*
X55176572Y-53098571D01*
X55224191Y-53193809D01*
X55224191Y-53431904D01*
X55176572Y-53527142D01*
X55128953Y-53574761D01*
X55033715Y-53622380D01*
X54748001Y-53622380D01*
X54652763Y-53574761D01*
X54605144Y-53527142D01*
X48530429Y-52622380D02*
X48530429Y-53431904D01*
X48578048Y-53527142D01*
X48625667Y-53574761D01*
X48720905Y-53622380D01*
X48911381Y-53622380D01*
X49006619Y-53574761D01*
X49054238Y-53527142D01*
X49101857Y-53431904D01*
X49101857Y-52622380D01*
X49530429Y-52717619D02*
X49578048Y-52670000D01*
X49673286Y-52622380D01*
X49911381Y-52622380D01*
X50006619Y-52670000D01*
X50054238Y-52717619D01*
X50101857Y-52812857D01*
X50101857Y-52908095D01*
X50054238Y-53050952D01*
X49482810Y-53622380D01*
X50101857Y-53622380D01*
X42138095Y-52622380D02*
X42138095Y-53431904D01*
X42185714Y-53527142D01*
X42233333Y-53574761D01*
X42328571Y-53622380D01*
X42519047Y-53622380D01*
X42614285Y-53574761D01*
X42661904Y-53527142D01*
X42709523Y-53431904D01*
X42709523Y-52622380D01*
X43709523Y-53622380D02*
X43138095Y-53622380D01*
X43423809Y-53622380D02*
X43423809Y-52622380D01*
X43328571Y-52765238D01*
X43233333Y-52860476D01*
X43138095Y-52908095D01*
X128744642Y-74747380D02*
X128411309Y-74271190D01*
X128173214Y-74747380D02*
X128173214Y-73747380D01*
X128554166Y-73747380D01*
X128649404Y-73795000D01*
X128697023Y-73842619D01*
X128744642Y-73937857D01*
X128744642Y-74080714D01*
X128697023Y-74175952D01*
X128649404Y-74223571D01*
X128554166Y-74271190D01*
X128173214Y-74271190D01*
X129077976Y-73747380D02*
X129697023Y-73747380D01*
X129363690Y-74128333D01*
X129506547Y-74128333D01*
X129601785Y-74175952D01*
X129649404Y-74223571D01*
X129697023Y-74318809D01*
X129697023Y-74556904D01*
X129649404Y-74652142D01*
X129601785Y-74699761D01*
X129506547Y-74747380D01*
X129220833Y-74747380D01*
X129125595Y-74699761D01*
X129077976Y-74652142D01*
X130554166Y-74080714D02*
X130554166Y-74747380D01*
X130316071Y-73699761D02*
X130077976Y-74414047D01*
X130697023Y-74414047D01*
X128744642Y-71097380D02*
X128411309Y-70621190D01*
X128173214Y-71097380D02*
X128173214Y-70097380D01*
X128554166Y-70097380D01*
X128649404Y-70145000D01*
X128697023Y-70192619D01*
X128744642Y-70287857D01*
X128744642Y-70430714D01*
X128697023Y-70525952D01*
X128649404Y-70573571D01*
X128554166Y-70621190D01*
X128173214Y-70621190D01*
X129077976Y-70097380D02*
X129697023Y-70097380D01*
X129363690Y-70478333D01*
X129506547Y-70478333D01*
X129601785Y-70525952D01*
X129649404Y-70573571D01*
X129697023Y-70668809D01*
X129697023Y-70906904D01*
X129649404Y-71002142D01*
X129601785Y-71049761D01*
X129506547Y-71097380D01*
X129220833Y-71097380D01*
X129125595Y-71049761D01*
X129077976Y-71002142D01*
X130030357Y-70097380D02*
X130649404Y-70097380D01*
X130316071Y-70478333D01*
X130458928Y-70478333D01*
X130554166Y-70525952D01*
X130601785Y-70573571D01*
X130649404Y-70668809D01*
X130649404Y-70906904D01*
X130601785Y-71002142D01*
X130554166Y-71049761D01*
X130458928Y-71097380D01*
X130173214Y-71097380D01*
X130077976Y-71049761D01*
X130030357Y-71002142D01*
X123029642Y-74747380D02*
X122696309Y-74271190D01*
X122458214Y-74747380D02*
X122458214Y-73747380D01*
X122839166Y-73747380D01*
X122934404Y-73795000D01*
X122982023Y-73842619D01*
X123029642Y-73937857D01*
X123029642Y-74080714D01*
X122982023Y-74175952D01*
X122934404Y-74223571D01*
X122839166Y-74271190D01*
X122458214Y-74271190D01*
X123362976Y-73747380D02*
X123982023Y-73747380D01*
X123648690Y-74128333D01*
X123791547Y-74128333D01*
X123886785Y-74175952D01*
X123934404Y-74223571D01*
X123982023Y-74318809D01*
X123982023Y-74556904D01*
X123934404Y-74652142D01*
X123886785Y-74699761D01*
X123791547Y-74747380D01*
X123505833Y-74747380D01*
X123410595Y-74699761D01*
X123362976Y-74652142D01*
X124362976Y-73842619D02*
X124410595Y-73795000D01*
X124505833Y-73747380D01*
X124743928Y-73747380D01*
X124839166Y-73795000D01*
X124886785Y-73842619D01*
X124934404Y-73937857D01*
X124934404Y-74033095D01*
X124886785Y-74175952D01*
X124315357Y-74747380D01*
X124934404Y-74747380D01*
X123029642Y-71097380D02*
X122696309Y-70621190D01*
X122458214Y-71097380D02*
X122458214Y-70097380D01*
X122839166Y-70097380D01*
X122934404Y-70145000D01*
X122982023Y-70192619D01*
X123029642Y-70287857D01*
X123029642Y-70430714D01*
X122982023Y-70525952D01*
X122934404Y-70573571D01*
X122839166Y-70621190D01*
X122458214Y-70621190D01*
X123362976Y-70097380D02*
X123982023Y-70097380D01*
X123648690Y-70478333D01*
X123791547Y-70478333D01*
X123886785Y-70525952D01*
X123934404Y-70573571D01*
X123982023Y-70668809D01*
X123982023Y-70906904D01*
X123934404Y-71002142D01*
X123886785Y-71049761D01*
X123791547Y-71097380D01*
X123505833Y-71097380D01*
X123410595Y-71049761D01*
X123362976Y-71002142D01*
X124934404Y-71097380D02*
X124362976Y-71097380D01*
X124648690Y-71097380D02*
X124648690Y-70097380D01*
X124553452Y-70240238D01*
X124458214Y-70335476D01*
X124362976Y-70383095D01*
X117314642Y-74747380D02*
X116981309Y-74271190D01*
X116743214Y-74747380D02*
X116743214Y-73747380D01*
X117124166Y-73747380D01*
X117219404Y-73795000D01*
X117267023Y-73842619D01*
X117314642Y-73937857D01*
X117314642Y-74080714D01*
X117267023Y-74175952D01*
X117219404Y-74223571D01*
X117124166Y-74271190D01*
X116743214Y-74271190D01*
X117647976Y-73747380D02*
X118267023Y-73747380D01*
X117933690Y-74128333D01*
X118076547Y-74128333D01*
X118171785Y-74175952D01*
X118219404Y-74223571D01*
X118267023Y-74318809D01*
X118267023Y-74556904D01*
X118219404Y-74652142D01*
X118171785Y-74699761D01*
X118076547Y-74747380D01*
X117790833Y-74747380D01*
X117695595Y-74699761D01*
X117647976Y-74652142D01*
X118886071Y-73747380D02*
X118981309Y-73747380D01*
X119076547Y-73795000D01*
X119124166Y-73842619D01*
X119171785Y-73937857D01*
X119219404Y-74128333D01*
X119219404Y-74366428D01*
X119171785Y-74556904D01*
X119124166Y-74652142D01*
X119076547Y-74699761D01*
X118981309Y-74747380D01*
X118886071Y-74747380D01*
X118790833Y-74699761D01*
X118743214Y-74652142D01*
X118695595Y-74556904D01*
X118647976Y-74366428D01*
X118647976Y-74128333D01*
X118695595Y-73937857D01*
X118743214Y-73842619D01*
X118790833Y-73795000D01*
X118886071Y-73747380D01*
X117314642Y-71097380D02*
X116981309Y-70621190D01*
X116743214Y-71097380D02*
X116743214Y-70097380D01*
X117124166Y-70097380D01*
X117219404Y-70145000D01*
X117267023Y-70192619D01*
X117314642Y-70287857D01*
X117314642Y-70430714D01*
X117267023Y-70525952D01*
X117219404Y-70573571D01*
X117124166Y-70621190D01*
X116743214Y-70621190D01*
X117695595Y-70192619D02*
X117743214Y-70145000D01*
X117838452Y-70097380D01*
X118076547Y-70097380D01*
X118171785Y-70145000D01*
X118219404Y-70192619D01*
X118267023Y-70287857D01*
X118267023Y-70383095D01*
X118219404Y-70525952D01*
X117647976Y-71097380D01*
X118267023Y-71097380D01*
X118743214Y-71097380D02*
X118933690Y-71097380D01*
X119028928Y-71049761D01*
X119076547Y-71002142D01*
X119171785Y-70859285D01*
X119219404Y-70668809D01*
X119219404Y-70287857D01*
X119171785Y-70192619D01*
X119124166Y-70145000D01*
X119028928Y-70097380D01*
X118838452Y-70097380D01*
X118743214Y-70145000D01*
X118695595Y-70192619D01*
X118647976Y-70287857D01*
X118647976Y-70525952D01*
X118695595Y-70621190D01*
X118743214Y-70668809D01*
X118838452Y-70716428D01*
X119028928Y-70716428D01*
X119124166Y-70668809D01*
X119171785Y-70621190D01*
X119219404Y-70525952D01*
X111599642Y-74747380D02*
X111266309Y-74271190D01*
X111028214Y-74747380D02*
X111028214Y-73747380D01*
X111409166Y-73747380D01*
X111504404Y-73795000D01*
X111552023Y-73842619D01*
X111599642Y-73937857D01*
X111599642Y-74080714D01*
X111552023Y-74175952D01*
X111504404Y-74223571D01*
X111409166Y-74271190D01*
X111028214Y-74271190D01*
X111980595Y-73842619D02*
X112028214Y-73795000D01*
X112123452Y-73747380D01*
X112361547Y-73747380D01*
X112456785Y-73795000D01*
X112504404Y-73842619D01*
X112552023Y-73937857D01*
X112552023Y-74033095D01*
X112504404Y-74175952D01*
X111932976Y-74747380D01*
X112552023Y-74747380D01*
X113123452Y-74175952D02*
X113028214Y-74128333D01*
X112980595Y-74080714D01*
X112932976Y-73985476D01*
X112932976Y-73937857D01*
X112980595Y-73842619D01*
X113028214Y-73795000D01*
X113123452Y-73747380D01*
X113313928Y-73747380D01*
X113409166Y-73795000D01*
X113456785Y-73842619D01*
X113504404Y-73937857D01*
X113504404Y-73985476D01*
X113456785Y-74080714D01*
X113409166Y-74128333D01*
X113313928Y-74175952D01*
X113123452Y-74175952D01*
X113028214Y-74223571D01*
X112980595Y-74271190D01*
X112932976Y-74366428D01*
X112932976Y-74556904D01*
X112980595Y-74652142D01*
X113028214Y-74699761D01*
X113123452Y-74747380D01*
X113313928Y-74747380D01*
X113409166Y-74699761D01*
X113456785Y-74652142D01*
X113504404Y-74556904D01*
X113504404Y-74366428D01*
X113456785Y-74271190D01*
X113409166Y-74223571D01*
X113313928Y-74175952D01*
X111599642Y-71097380D02*
X111266309Y-70621190D01*
X111028214Y-71097380D02*
X111028214Y-70097380D01*
X111409166Y-70097380D01*
X111504404Y-70145000D01*
X111552023Y-70192619D01*
X111599642Y-70287857D01*
X111599642Y-70430714D01*
X111552023Y-70525952D01*
X111504404Y-70573571D01*
X111409166Y-70621190D01*
X111028214Y-70621190D01*
X111980595Y-70192619D02*
X112028214Y-70145000D01*
X112123452Y-70097380D01*
X112361547Y-70097380D01*
X112456785Y-70145000D01*
X112504404Y-70192619D01*
X112552023Y-70287857D01*
X112552023Y-70383095D01*
X112504404Y-70525952D01*
X111932976Y-71097380D01*
X112552023Y-71097380D01*
X112885357Y-70097380D02*
X113552023Y-70097380D01*
X113123452Y-71097380D01*
X105884642Y-74747380D02*
X105551309Y-74271190D01*
X105313214Y-74747380D02*
X105313214Y-73747380D01*
X105694166Y-73747380D01*
X105789404Y-73795000D01*
X105837023Y-73842619D01*
X105884642Y-73937857D01*
X105884642Y-74080714D01*
X105837023Y-74175952D01*
X105789404Y-74223571D01*
X105694166Y-74271190D01*
X105313214Y-74271190D01*
X106265595Y-73842619D02*
X106313214Y-73795000D01*
X106408452Y-73747380D01*
X106646547Y-73747380D01*
X106741785Y-73795000D01*
X106789404Y-73842619D01*
X106837023Y-73937857D01*
X106837023Y-74033095D01*
X106789404Y-74175952D01*
X106217976Y-74747380D01*
X106837023Y-74747380D01*
X107694166Y-73747380D02*
X107503690Y-73747380D01*
X107408452Y-73795000D01*
X107360833Y-73842619D01*
X107265595Y-73985476D01*
X107217976Y-74175952D01*
X107217976Y-74556904D01*
X107265595Y-74652142D01*
X107313214Y-74699761D01*
X107408452Y-74747380D01*
X107598928Y-74747380D01*
X107694166Y-74699761D01*
X107741785Y-74652142D01*
X107789404Y-74556904D01*
X107789404Y-74318809D01*
X107741785Y-74223571D01*
X107694166Y-74175952D01*
X107598928Y-74128333D01*
X107408452Y-74128333D01*
X107313214Y-74175952D01*
X107265595Y-74223571D01*
X107217976Y-74318809D01*
X105884642Y-71097380D02*
X105551309Y-70621190D01*
X105313214Y-71097380D02*
X105313214Y-70097380D01*
X105694166Y-70097380D01*
X105789404Y-70145000D01*
X105837023Y-70192619D01*
X105884642Y-70287857D01*
X105884642Y-70430714D01*
X105837023Y-70525952D01*
X105789404Y-70573571D01*
X105694166Y-70621190D01*
X105313214Y-70621190D01*
X106265595Y-70192619D02*
X106313214Y-70145000D01*
X106408452Y-70097380D01*
X106646547Y-70097380D01*
X106741785Y-70145000D01*
X106789404Y-70192619D01*
X106837023Y-70287857D01*
X106837023Y-70383095D01*
X106789404Y-70525952D01*
X106217976Y-71097380D01*
X106837023Y-71097380D01*
X107741785Y-70097380D02*
X107265595Y-70097380D01*
X107217976Y-70573571D01*
X107265595Y-70525952D01*
X107360833Y-70478333D01*
X107598928Y-70478333D01*
X107694166Y-70525952D01*
X107741785Y-70573571D01*
X107789404Y-70668809D01*
X107789404Y-70906904D01*
X107741785Y-71002142D01*
X107694166Y-71049761D01*
X107598928Y-71097380D01*
X107360833Y-71097380D01*
X107265595Y-71049761D01*
X107217976Y-71002142D01*
X100169642Y-74747380D02*
X99836309Y-74271190D01*
X99598214Y-74747380D02*
X99598214Y-73747380D01*
X99979166Y-73747380D01*
X100074404Y-73795000D01*
X100122023Y-73842619D01*
X100169642Y-73937857D01*
X100169642Y-74080714D01*
X100122023Y-74175952D01*
X100074404Y-74223571D01*
X99979166Y-74271190D01*
X99598214Y-74271190D01*
X100550595Y-73842619D02*
X100598214Y-73795000D01*
X100693452Y-73747380D01*
X100931547Y-73747380D01*
X101026785Y-73795000D01*
X101074404Y-73842619D01*
X101122023Y-73937857D01*
X101122023Y-74033095D01*
X101074404Y-74175952D01*
X100502976Y-74747380D01*
X101122023Y-74747380D01*
X101979166Y-74080714D02*
X101979166Y-74747380D01*
X101741071Y-73699761D02*
X101502976Y-74414047D01*
X102122023Y-74414047D01*
X100169642Y-71097380D02*
X99836309Y-70621190D01*
X99598214Y-71097380D02*
X99598214Y-70097380D01*
X99979166Y-70097380D01*
X100074404Y-70145000D01*
X100122023Y-70192619D01*
X100169642Y-70287857D01*
X100169642Y-70430714D01*
X100122023Y-70525952D01*
X100074404Y-70573571D01*
X99979166Y-70621190D01*
X99598214Y-70621190D01*
X100550595Y-70192619D02*
X100598214Y-70145000D01*
X100693452Y-70097380D01*
X100931547Y-70097380D01*
X101026785Y-70145000D01*
X101074404Y-70192619D01*
X101122023Y-70287857D01*
X101122023Y-70383095D01*
X101074404Y-70525952D01*
X100502976Y-71097380D01*
X101122023Y-71097380D01*
X101455357Y-70097380D02*
X102074404Y-70097380D01*
X101741071Y-70478333D01*
X101883928Y-70478333D01*
X101979166Y-70525952D01*
X102026785Y-70573571D01*
X102074404Y-70668809D01*
X102074404Y-70906904D01*
X102026785Y-71002142D01*
X101979166Y-71049761D01*
X101883928Y-71097380D01*
X101598214Y-71097380D01*
X101502976Y-71049761D01*
X101455357Y-71002142D01*
X94454642Y-74747380D02*
X94121309Y-74271190D01*
X93883214Y-74747380D02*
X93883214Y-73747380D01*
X94264166Y-73747380D01*
X94359404Y-73795000D01*
X94407023Y-73842619D01*
X94454642Y-73937857D01*
X94454642Y-74080714D01*
X94407023Y-74175952D01*
X94359404Y-74223571D01*
X94264166Y-74271190D01*
X93883214Y-74271190D01*
X94835595Y-73842619D02*
X94883214Y-73795000D01*
X94978452Y-73747380D01*
X95216547Y-73747380D01*
X95311785Y-73795000D01*
X95359404Y-73842619D01*
X95407023Y-73937857D01*
X95407023Y-74033095D01*
X95359404Y-74175952D01*
X94787976Y-74747380D01*
X95407023Y-74747380D01*
X95787976Y-73842619D02*
X95835595Y-73795000D01*
X95930833Y-73747380D01*
X96168928Y-73747380D01*
X96264166Y-73795000D01*
X96311785Y-73842619D01*
X96359404Y-73937857D01*
X96359404Y-74033095D01*
X96311785Y-74175952D01*
X95740357Y-74747380D01*
X96359404Y-74747380D01*
X94454642Y-71097380D02*
X94121309Y-70621190D01*
X93883214Y-71097380D02*
X93883214Y-70097380D01*
X94264166Y-70097380D01*
X94359404Y-70145000D01*
X94407023Y-70192619D01*
X94454642Y-70287857D01*
X94454642Y-70430714D01*
X94407023Y-70525952D01*
X94359404Y-70573571D01*
X94264166Y-70621190D01*
X93883214Y-70621190D01*
X94835595Y-70192619D02*
X94883214Y-70145000D01*
X94978452Y-70097380D01*
X95216547Y-70097380D01*
X95311785Y-70145000D01*
X95359404Y-70192619D01*
X95407023Y-70287857D01*
X95407023Y-70383095D01*
X95359404Y-70525952D01*
X94787976Y-71097380D01*
X95407023Y-71097380D01*
X96359404Y-71097380D02*
X95787976Y-71097380D01*
X96073690Y-71097380D02*
X96073690Y-70097380D01*
X95978452Y-70240238D01*
X95883214Y-70335476D01*
X95787976Y-70383095D01*
X88892142Y-74747380D02*
X88558809Y-74271190D01*
X88320714Y-74747380D02*
X88320714Y-73747380D01*
X88701666Y-73747380D01*
X88796904Y-73795000D01*
X88844523Y-73842619D01*
X88892142Y-73937857D01*
X88892142Y-74080714D01*
X88844523Y-74175952D01*
X88796904Y-74223571D01*
X88701666Y-74271190D01*
X88320714Y-74271190D01*
X89273095Y-73842619D02*
X89320714Y-73795000D01*
X89415952Y-73747380D01*
X89654047Y-73747380D01*
X89749285Y-73795000D01*
X89796904Y-73842619D01*
X89844523Y-73937857D01*
X89844523Y-74033095D01*
X89796904Y-74175952D01*
X89225476Y-74747380D01*
X89844523Y-74747380D01*
X90463571Y-73747380D02*
X90558809Y-73747380D01*
X90654047Y-73795000D01*
X90701666Y-73842619D01*
X90749285Y-73937857D01*
X90796904Y-74128333D01*
X90796904Y-74366428D01*
X90749285Y-74556904D01*
X90701666Y-74652142D01*
X90654047Y-74699761D01*
X90558809Y-74747380D01*
X90463571Y-74747380D01*
X90368333Y-74699761D01*
X90320714Y-74652142D01*
X90273095Y-74556904D01*
X90225476Y-74366428D01*
X90225476Y-74128333D01*
X90273095Y-73937857D01*
X90320714Y-73842619D01*
X90368333Y-73795000D01*
X90463571Y-73747380D01*
X88739642Y-71097380D02*
X88406309Y-70621190D01*
X88168214Y-71097380D02*
X88168214Y-70097380D01*
X88549166Y-70097380D01*
X88644404Y-70145000D01*
X88692023Y-70192619D01*
X88739642Y-70287857D01*
X88739642Y-70430714D01*
X88692023Y-70525952D01*
X88644404Y-70573571D01*
X88549166Y-70621190D01*
X88168214Y-70621190D01*
X89692023Y-71097380D02*
X89120595Y-71097380D01*
X89406309Y-71097380D02*
X89406309Y-70097380D01*
X89311071Y-70240238D01*
X89215833Y-70335476D01*
X89120595Y-70383095D01*
X90168214Y-71097380D02*
X90358690Y-71097380D01*
X90453928Y-71049761D01*
X90501547Y-71002142D01*
X90596785Y-70859285D01*
X90644404Y-70668809D01*
X90644404Y-70287857D01*
X90596785Y-70192619D01*
X90549166Y-70145000D01*
X90453928Y-70097380D01*
X90263452Y-70097380D01*
X90168214Y-70145000D01*
X90120595Y-70192619D01*
X90072976Y-70287857D01*
X90072976Y-70525952D01*
X90120595Y-70621190D01*
X90168214Y-70668809D01*
X90263452Y-70716428D01*
X90453928Y-70716428D01*
X90549166Y-70668809D01*
X90596785Y-70621190D01*
X90644404Y-70525952D01*
X83177142Y-74747380D02*
X82843809Y-74271190D01*
X82605714Y-74747380D02*
X82605714Y-73747380D01*
X82986666Y-73747380D01*
X83081904Y-73795000D01*
X83129523Y-73842619D01*
X83177142Y-73937857D01*
X83177142Y-74080714D01*
X83129523Y-74175952D01*
X83081904Y-74223571D01*
X82986666Y-74271190D01*
X82605714Y-74271190D01*
X84129523Y-74747380D02*
X83558095Y-74747380D01*
X83843809Y-74747380D02*
X83843809Y-73747380D01*
X83748571Y-73890238D01*
X83653333Y-73985476D01*
X83558095Y-74033095D01*
X84700952Y-74175952D02*
X84605714Y-74128333D01*
X84558095Y-74080714D01*
X84510476Y-73985476D01*
X84510476Y-73937857D01*
X84558095Y-73842619D01*
X84605714Y-73795000D01*
X84700952Y-73747380D01*
X84891428Y-73747380D01*
X84986666Y-73795000D01*
X85034285Y-73842619D01*
X85081904Y-73937857D01*
X85081904Y-73985476D01*
X85034285Y-74080714D01*
X84986666Y-74128333D01*
X84891428Y-74175952D01*
X84700952Y-74175952D01*
X84605714Y-74223571D01*
X84558095Y-74271190D01*
X84510476Y-74366428D01*
X84510476Y-74556904D01*
X84558095Y-74652142D01*
X84605714Y-74699761D01*
X84700952Y-74747380D01*
X84891428Y-74747380D01*
X84986666Y-74699761D01*
X85034285Y-74652142D01*
X85081904Y-74556904D01*
X85081904Y-74366428D01*
X85034285Y-74271190D01*
X84986666Y-74223571D01*
X84891428Y-74175952D01*
X83024642Y-71097380D02*
X82691309Y-70621190D01*
X82453214Y-71097380D02*
X82453214Y-70097380D01*
X82834166Y-70097380D01*
X82929404Y-70145000D01*
X82977023Y-70192619D01*
X83024642Y-70287857D01*
X83024642Y-70430714D01*
X82977023Y-70525952D01*
X82929404Y-70573571D01*
X82834166Y-70621190D01*
X82453214Y-70621190D01*
X83977023Y-71097380D02*
X83405595Y-71097380D01*
X83691309Y-71097380D02*
X83691309Y-70097380D01*
X83596071Y-70240238D01*
X83500833Y-70335476D01*
X83405595Y-70383095D01*
X84310357Y-70097380D02*
X84977023Y-70097380D01*
X84548452Y-71097380D01*
X77309642Y-74747380D02*
X76976309Y-74271190D01*
X76738214Y-74747380D02*
X76738214Y-73747380D01*
X77119166Y-73747380D01*
X77214404Y-73795000D01*
X77262023Y-73842619D01*
X77309642Y-73937857D01*
X77309642Y-74080714D01*
X77262023Y-74175952D01*
X77214404Y-74223571D01*
X77119166Y-74271190D01*
X76738214Y-74271190D01*
X78262023Y-74747380D02*
X77690595Y-74747380D01*
X77976309Y-74747380D02*
X77976309Y-73747380D01*
X77881071Y-73890238D01*
X77785833Y-73985476D01*
X77690595Y-74033095D01*
X79119166Y-73747380D02*
X78928690Y-73747380D01*
X78833452Y-73795000D01*
X78785833Y-73842619D01*
X78690595Y-73985476D01*
X78642976Y-74175952D01*
X78642976Y-74556904D01*
X78690595Y-74652142D01*
X78738214Y-74699761D01*
X78833452Y-74747380D01*
X79023928Y-74747380D01*
X79119166Y-74699761D01*
X79166785Y-74652142D01*
X79214404Y-74556904D01*
X79214404Y-74318809D01*
X79166785Y-74223571D01*
X79119166Y-74175952D01*
X79023928Y-74128333D01*
X78833452Y-74128333D01*
X78738214Y-74175952D01*
X78690595Y-74223571D01*
X78642976Y-74318809D01*
X77309642Y-71097380D02*
X76976309Y-70621190D01*
X76738214Y-71097380D02*
X76738214Y-70097380D01*
X77119166Y-70097380D01*
X77214404Y-70145000D01*
X77262023Y-70192619D01*
X77309642Y-70287857D01*
X77309642Y-70430714D01*
X77262023Y-70525952D01*
X77214404Y-70573571D01*
X77119166Y-70621190D01*
X76738214Y-70621190D01*
X78262023Y-71097380D02*
X77690595Y-71097380D01*
X77976309Y-71097380D02*
X77976309Y-70097380D01*
X77881071Y-70240238D01*
X77785833Y-70335476D01*
X77690595Y-70383095D01*
X79166785Y-70097380D02*
X78690595Y-70097380D01*
X78642976Y-70573571D01*
X78690595Y-70525952D01*
X78785833Y-70478333D01*
X79023928Y-70478333D01*
X79119166Y-70525952D01*
X79166785Y-70573571D01*
X79214404Y-70668809D01*
X79214404Y-70906904D01*
X79166785Y-71002142D01*
X79119166Y-71049761D01*
X79023928Y-71097380D01*
X78785833Y-71097380D01*
X78690595Y-71049761D01*
X78642976Y-71002142D01*
X71594642Y-74747380D02*
X71261309Y-74271190D01*
X71023214Y-74747380D02*
X71023214Y-73747380D01*
X71404166Y-73747380D01*
X71499404Y-73795000D01*
X71547023Y-73842619D01*
X71594642Y-73937857D01*
X71594642Y-74080714D01*
X71547023Y-74175952D01*
X71499404Y-74223571D01*
X71404166Y-74271190D01*
X71023214Y-74271190D01*
X72547023Y-74747380D02*
X71975595Y-74747380D01*
X72261309Y-74747380D02*
X72261309Y-73747380D01*
X72166071Y-73890238D01*
X72070833Y-73985476D01*
X71975595Y-74033095D01*
X73404166Y-74080714D02*
X73404166Y-74747380D01*
X73166071Y-73699761D02*
X72927976Y-74414047D01*
X73547023Y-74414047D01*
X71594642Y-71097380D02*
X71261309Y-70621190D01*
X71023214Y-71097380D02*
X71023214Y-70097380D01*
X71404166Y-70097380D01*
X71499404Y-70145000D01*
X71547023Y-70192619D01*
X71594642Y-70287857D01*
X71594642Y-70430714D01*
X71547023Y-70525952D01*
X71499404Y-70573571D01*
X71404166Y-70621190D01*
X71023214Y-70621190D01*
X72547023Y-71097380D02*
X71975595Y-71097380D01*
X72261309Y-71097380D02*
X72261309Y-70097380D01*
X72166071Y-70240238D01*
X72070833Y-70335476D01*
X71975595Y-70383095D01*
X72880357Y-70097380D02*
X73499404Y-70097380D01*
X73166071Y-70478333D01*
X73308928Y-70478333D01*
X73404166Y-70525952D01*
X73451785Y-70573571D01*
X73499404Y-70668809D01*
X73499404Y-70906904D01*
X73451785Y-71002142D01*
X73404166Y-71049761D01*
X73308928Y-71097380D01*
X73023214Y-71097380D01*
X72927976Y-71049761D01*
X72880357Y-71002142D01*
X65879642Y-74747380D02*
X65546309Y-74271190D01*
X65308214Y-74747380D02*
X65308214Y-73747380D01*
X65689166Y-73747380D01*
X65784404Y-73795000D01*
X65832023Y-73842619D01*
X65879642Y-73937857D01*
X65879642Y-74080714D01*
X65832023Y-74175952D01*
X65784404Y-74223571D01*
X65689166Y-74271190D01*
X65308214Y-74271190D01*
X66832023Y-74747380D02*
X66260595Y-74747380D01*
X66546309Y-74747380D02*
X66546309Y-73747380D01*
X66451071Y-73890238D01*
X66355833Y-73985476D01*
X66260595Y-74033095D01*
X67212976Y-73842619D02*
X67260595Y-73795000D01*
X67355833Y-73747380D01*
X67593928Y-73747380D01*
X67689166Y-73795000D01*
X67736785Y-73842619D01*
X67784404Y-73937857D01*
X67784404Y-74033095D01*
X67736785Y-74175952D01*
X67165357Y-74747380D01*
X67784404Y-74747380D01*
X65879642Y-71097380D02*
X65546309Y-70621190D01*
X65308214Y-71097380D02*
X65308214Y-70097380D01*
X65689166Y-70097380D01*
X65784404Y-70145000D01*
X65832023Y-70192619D01*
X65879642Y-70287857D01*
X65879642Y-70430714D01*
X65832023Y-70525952D01*
X65784404Y-70573571D01*
X65689166Y-70621190D01*
X65308214Y-70621190D01*
X66832023Y-71097380D02*
X66260595Y-71097380D01*
X66546309Y-71097380D02*
X66546309Y-70097380D01*
X66451071Y-70240238D01*
X66355833Y-70335476D01*
X66260595Y-70383095D01*
X67784404Y-71097380D02*
X67212976Y-71097380D01*
X67498690Y-71097380D02*
X67498690Y-70097380D01*
X67403452Y-70240238D01*
X67308214Y-70335476D01*
X67212976Y-70383095D01*
X60164642Y-74747380D02*
X59831309Y-74271190D01*
X59593214Y-74747380D02*
X59593214Y-73747380D01*
X59974166Y-73747380D01*
X60069404Y-73795000D01*
X60117023Y-73842619D01*
X60164642Y-73937857D01*
X60164642Y-74080714D01*
X60117023Y-74175952D01*
X60069404Y-74223571D01*
X59974166Y-74271190D01*
X59593214Y-74271190D01*
X61117023Y-74747380D02*
X60545595Y-74747380D01*
X60831309Y-74747380D02*
X60831309Y-73747380D01*
X60736071Y-73890238D01*
X60640833Y-73985476D01*
X60545595Y-74033095D01*
X61736071Y-73747380D02*
X61831309Y-73747380D01*
X61926547Y-73795000D01*
X61974166Y-73842619D01*
X62021785Y-73937857D01*
X62069404Y-74128333D01*
X62069404Y-74366428D01*
X62021785Y-74556904D01*
X61974166Y-74652142D01*
X61926547Y-74699761D01*
X61831309Y-74747380D01*
X61736071Y-74747380D01*
X61640833Y-74699761D01*
X61593214Y-74652142D01*
X61545595Y-74556904D01*
X61497976Y-74366428D01*
X61497976Y-74128333D01*
X61545595Y-73937857D01*
X61593214Y-73842619D01*
X61640833Y-73795000D01*
X61736071Y-73747380D01*
X60640833Y-71097380D02*
X60307500Y-70621190D01*
X60069404Y-71097380D02*
X60069404Y-70097380D01*
X60450357Y-70097380D01*
X60545595Y-70145000D01*
X60593214Y-70192619D01*
X60640833Y-70287857D01*
X60640833Y-70430714D01*
X60593214Y-70525952D01*
X60545595Y-70573571D01*
X60450357Y-70621190D01*
X60069404Y-70621190D01*
X61117023Y-71097380D02*
X61307500Y-71097380D01*
X61402738Y-71049761D01*
X61450357Y-71002142D01*
X61545595Y-70859285D01*
X61593214Y-70668809D01*
X61593214Y-70287857D01*
X61545595Y-70192619D01*
X61497976Y-70145000D01*
X61402738Y-70097380D01*
X61212261Y-70097380D01*
X61117023Y-70145000D01*
X61069404Y-70192619D01*
X61021785Y-70287857D01*
X61021785Y-70525952D01*
X61069404Y-70621190D01*
X61117023Y-70668809D01*
X61212261Y-70716428D01*
X61402738Y-70716428D01*
X61497976Y-70668809D01*
X61545595Y-70621190D01*
X61593214Y-70525952D01*
X55078333Y-74747380D02*
X54745000Y-74271190D01*
X54506904Y-74747380D02*
X54506904Y-73747380D01*
X54887857Y-73747380D01*
X54983095Y-73795000D01*
X55030714Y-73842619D01*
X55078333Y-73937857D01*
X55078333Y-74080714D01*
X55030714Y-74175952D01*
X54983095Y-74223571D01*
X54887857Y-74271190D01*
X54506904Y-74271190D01*
X55649761Y-74175952D02*
X55554523Y-74128333D01*
X55506904Y-74080714D01*
X55459285Y-73985476D01*
X55459285Y-73937857D01*
X55506904Y-73842619D01*
X55554523Y-73795000D01*
X55649761Y-73747380D01*
X55840238Y-73747380D01*
X55935476Y-73795000D01*
X55983095Y-73842619D01*
X56030714Y-73937857D01*
X56030714Y-73985476D01*
X55983095Y-74080714D01*
X55935476Y-74128333D01*
X55840238Y-74175952D01*
X55649761Y-74175952D01*
X55554523Y-74223571D01*
X55506904Y-74271190D01*
X55459285Y-74366428D01*
X55459285Y-74556904D01*
X55506904Y-74652142D01*
X55554523Y-74699761D01*
X55649761Y-74747380D01*
X55840238Y-74747380D01*
X55935476Y-74699761D01*
X55983095Y-74652142D01*
X56030714Y-74556904D01*
X56030714Y-74366428D01*
X55983095Y-74271190D01*
X55935476Y-74223571D01*
X55840238Y-74175952D01*
X54925833Y-71097380D02*
X54592500Y-70621190D01*
X54354404Y-71097380D02*
X54354404Y-70097380D01*
X54735357Y-70097380D01*
X54830595Y-70145000D01*
X54878214Y-70192619D01*
X54925833Y-70287857D01*
X54925833Y-70430714D01*
X54878214Y-70525952D01*
X54830595Y-70573571D01*
X54735357Y-70621190D01*
X54354404Y-70621190D01*
X55259166Y-70097380D02*
X55925833Y-70097380D01*
X55497261Y-71097380D01*
X49210833Y-74747380D02*
X48877500Y-74271190D01*
X48639404Y-74747380D02*
X48639404Y-73747380D01*
X49020357Y-73747380D01*
X49115595Y-73795000D01*
X49163214Y-73842619D01*
X49210833Y-73937857D01*
X49210833Y-74080714D01*
X49163214Y-74175952D01*
X49115595Y-74223571D01*
X49020357Y-74271190D01*
X48639404Y-74271190D01*
X50067976Y-73747380D02*
X49877500Y-73747380D01*
X49782261Y-73795000D01*
X49734642Y-73842619D01*
X49639404Y-73985476D01*
X49591785Y-74175952D01*
X49591785Y-74556904D01*
X49639404Y-74652142D01*
X49687023Y-74699761D01*
X49782261Y-74747380D01*
X49972738Y-74747380D01*
X50067976Y-74699761D01*
X50115595Y-74652142D01*
X50163214Y-74556904D01*
X50163214Y-74318809D01*
X50115595Y-74223571D01*
X50067976Y-74175952D01*
X49972738Y-74128333D01*
X49782261Y-74128333D01*
X49687023Y-74175952D01*
X49639404Y-74223571D01*
X49591785Y-74318809D01*
X49210833Y-71097380D02*
X48877500Y-70621190D01*
X48639404Y-71097380D02*
X48639404Y-70097380D01*
X49020357Y-70097380D01*
X49115595Y-70145000D01*
X49163214Y-70192619D01*
X49210833Y-70287857D01*
X49210833Y-70430714D01*
X49163214Y-70525952D01*
X49115595Y-70573571D01*
X49020357Y-70621190D01*
X48639404Y-70621190D01*
X50115595Y-70097380D02*
X49639404Y-70097380D01*
X49591785Y-70573571D01*
X49639404Y-70525952D01*
X49734642Y-70478333D01*
X49972738Y-70478333D01*
X50067976Y-70525952D01*
X50115595Y-70573571D01*
X50163214Y-70668809D01*
X50163214Y-70906904D01*
X50115595Y-71002142D01*
X50067976Y-71049761D01*
X49972738Y-71097380D01*
X49734642Y-71097380D01*
X49639404Y-71049761D01*
X49591785Y-71002142D01*
X43648333Y-74747380D02*
X43315000Y-74271190D01*
X43076904Y-74747380D02*
X43076904Y-73747380D01*
X43457857Y-73747380D01*
X43553095Y-73795000D01*
X43600714Y-73842619D01*
X43648333Y-73937857D01*
X43648333Y-74080714D01*
X43600714Y-74175952D01*
X43553095Y-74223571D01*
X43457857Y-74271190D01*
X43076904Y-74271190D01*
X44505476Y-74080714D02*
X44505476Y-74747380D01*
X44267380Y-73699761D02*
X44029285Y-74414047D01*
X44648333Y-74414047D01*
X43648333Y-71097380D02*
X43315000Y-70621190D01*
X43076904Y-71097380D02*
X43076904Y-70097380D01*
X43457857Y-70097380D01*
X43553095Y-70145000D01*
X43600714Y-70192619D01*
X43648333Y-70287857D01*
X43648333Y-70430714D01*
X43600714Y-70525952D01*
X43553095Y-70573571D01*
X43457857Y-70621190D01*
X43076904Y-70621190D01*
X43981666Y-70097380D02*
X44600714Y-70097380D01*
X44267380Y-70478333D01*
X44410238Y-70478333D01*
X44505476Y-70525952D01*
X44553095Y-70573571D01*
X44600714Y-70668809D01*
X44600714Y-70906904D01*
X44553095Y-71002142D01*
X44505476Y-71049761D01*
X44410238Y-71097380D01*
X44124523Y-71097380D01*
X44029285Y-71049761D01*
X43981666Y-71002142D01*
X71588333Y-37757380D02*
X71255000Y-37281190D01*
X71016904Y-37757380D02*
X71016904Y-36757380D01*
X71397857Y-36757380D01*
X71493095Y-36805000D01*
X71540714Y-36852619D01*
X71588333Y-36947857D01*
X71588333Y-37090714D01*
X71540714Y-37185952D01*
X71493095Y-37233571D01*
X71397857Y-37281190D01*
X71016904Y-37281190D01*
X72540714Y-37757380D02*
X71969285Y-37757380D01*
X72255000Y-37757380D02*
X72255000Y-36757380D01*
X72159761Y-36900238D01*
X72064523Y-36995476D01*
X71969285Y-37043095D01*
X128807380Y-78554285D02*
X127807380Y-78554285D01*
X127807380Y-78316190D01*
X127855000Y-78173333D01*
X127950238Y-78078095D01*
X128045476Y-78030476D01*
X128235952Y-77982857D01*
X128378809Y-77982857D01*
X128569285Y-78030476D01*
X128664523Y-78078095D01*
X128759761Y-78173333D01*
X128807380Y-78316190D01*
X128807380Y-78554285D01*
X128807380Y-77030476D02*
X128807380Y-77601904D01*
X128807380Y-77316190D02*
X127807380Y-77316190D01*
X127950238Y-77411428D01*
X128045476Y-77506666D01*
X128093095Y-77601904D01*
X128235952Y-76459047D02*
X128188333Y-76554285D01*
X128140714Y-76601904D01*
X128045476Y-76649523D01*
X127997857Y-76649523D01*
X127902619Y-76601904D01*
X127855000Y-76554285D01*
X127807380Y-76459047D01*
X127807380Y-76268571D01*
X127855000Y-76173333D01*
X127902619Y-76125714D01*
X127997857Y-76078095D01*
X128045476Y-76078095D01*
X128140714Y-76125714D01*
X128188333Y-76173333D01*
X128235952Y-76268571D01*
X128235952Y-76459047D01*
X128283571Y-76554285D01*
X128331190Y-76601904D01*
X128426428Y-76649523D01*
X128616904Y-76649523D01*
X128712142Y-76601904D01*
X128759761Y-76554285D01*
X128807380Y-76459047D01*
X128807380Y-76268571D01*
X128759761Y-76173333D01*
X128712142Y-76125714D01*
X128616904Y-76078095D01*
X128426428Y-76078095D01*
X128331190Y-76125714D01*
X128283571Y-76173333D01*
X128235952Y-76268571D01*
X123092380Y-78554285D02*
X122092380Y-78554285D01*
X122092380Y-78316190D01*
X122140000Y-78173333D01*
X122235238Y-78078095D01*
X122330476Y-78030476D01*
X122520952Y-77982857D01*
X122663809Y-77982857D01*
X122854285Y-78030476D01*
X122949523Y-78078095D01*
X123044761Y-78173333D01*
X123092380Y-78316190D01*
X123092380Y-78554285D01*
X123092380Y-77030476D02*
X123092380Y-77601904D01*
X123092380Y-77316190D02*
X122092380Y-77316190D01*
X122235238Y-77411428D01*
X122330476Y-77506666D01*
X122378095Y-77601904D01*
X122092380Y-76697142D02*
X122092380Y-76030476D01*
X123092380Y-76459047D01*
X117250380Y-78554285D02*
X116250380Y-78554285D01*
X116250380Y-78316190D01*
X116298000Y-78173333D01*
X116393238Y-78078095D01*
X116488476Y-78030476D01*
X116678952Y-77982857D01*
X116821809Y-77982857D01*
X117012285Y-78030476D01*
X117107523Y-78078095D01*
X117202761Y-78173333D01*
X117250380Y-78316190D01*
X117250380Y-78554285D01*
X117250380Y-77030476D02*
X117250380Y-77601904D01*
X117250380Y-77316190D02*
X116250380Y-77316190D01*
X116393238Y-77411428D01*
X116488476Y-77506666D01*
X116536095Y-77601904D01*
X116250380Y-76173333D02*
X116250380Y-76363809D01*
X116298000Y-76459047D01*
X116345619Y-76506666D01*
X116488476Y-76601904D01*
X116678952Y-76649523D01*
X117059904Y-76649523D01*
X117155142Y-76601904D01*
X117202761Y-76554285D01*
X117250380Y-76459047D01*
X117250380Y-76268571D01*
X117202761Y-76173333D01*
X117155142Y-76125714D01*
X117059904Y-76078095D01*
X116821809Y-76078095D01*
X116726571Y-76125714D01*
X116678952Y-76173333D01*
X116631333Y-76268571D01*
X116631333Y-76459047D01*
X116678952Y-76554285D01*
X116726571Y-76601904D01*
X116821809Y-76649523D01*
X111662380Y-78554285D02*
X110662380Y-78554285D01*
X110662380Y-78316190D01*
X110710000Y-78173333D01*
X110805238Y-78078095D01*
X110900476Y-78030476D01*
X111090952Y-77982857D01*
X111233809Y-77982857D01*
X111424285Y-78030476D01*
X111519523Y-78078095D01*
X111614761Y-78173333D01*
X111662380Y-78316190D01*
X111662380Y-78554285D01*
X111662380Y-77030476D02*
X111662380Y-77601904D01*
X111662380Y-77316190D02*
X110662380Y-77316190D01*
X110805238Y-77411428D01*
X110900476Y-77506666D01*
X110948095Y-77601904D01*
X110662380Y-76125714D02*
X110662380Y-76601904D01*
X111138571Y-76649523D01*
X111090952Y-76601904D01*
X111043333Y-76506666D01*
X111043333Y-76268571D01*
X111090952Y-76173333D01*
X111138571Y-76125714D01*
X111233809Y-76078095D01*
X111471904Y-76078095D01*
X111567142Y-76125714D01*
X111614761Y-76173333D01*
X111662380Y-76268571D01*
X111662380Y-76506666D01*
X111614761Y-76601904D01*
X111567142Y-76649523D01*
X105947380Y-78554285D02*
X104947380Y-78554285D01*
X104947380Y-78316190D01*
X104995000Y-78173333D01*
X105090238Y-78078095D01*
X105185476Y-78030476D01*
X105375952Y-77982857D01*
X105518809Y-77982857D01*
X105709285Y-78030476D01*
X105804523Y-78078095D01*
X105899761Y-78173333D01*
X105947380Y-78316190D01*
X105947380Y-78554285D01*
X105947380Y-77030476D02*
X105947380Y-77601904D01*
X105947380Y-77316190D02*
X104947380Y-77316190D01*
X105090238Y-77411428D01*
X105185476Y-77506666D01*
X105233095Y-77601904D01*
X105280714Y-76173333D02*
X105947380Y-76173333D01*
X104899761Y-76411428D02*
X105614047Y-76649523D01*
X105614047Y-76030476D01*
X100232380Y-78554285D02*
X99232380Y-78554285D01*
X99232380Y-78316190D01*
X99280000Y-78173333D01*
X99375238Y-78078095D01*
X99470476Y-78030476D01*
X99660952Y-77982857D01*
X99803809Y-77982857D01*
X99994285Y-78030476D01*
X100089523Y-78078095D01*
X100184761Y-78173333D01*
X100232380Y-78316190D01*
X100232380Y-78554285D01*
X100232380Y-77030476D02*
X100232380Y-77601904D01*
X100232380Y-77316190D02*
X99232380Y-77316190D01*
X99375238Y-77411428D01*
X99470476Y-77506666D01*
X99518095Y-77601904D01*
X99232380Y-76697142D02*
X99232380Y-76078095D01*
X99613333Y-76411428D01*
X99613333Y-76268571D01*
X99660952Y-76173333D01*
X99708571Y-76125714D01*
X99803809Y-76078095D01*
X100041904Y-76078095D01*
X100137142Y-76125714D01*
X100184761Y-76173333D01*
X100232380Y-76268571D01*
X100232380Y-76554285D01*
X100184761Y-76649523D01*
X100137142Y-76697142D01*
X94517380Y-78554285D02*
X93517380Y-78554285D01*
X93517380Y-78316190D01*
X93565000Y-78173333D01*
X93660238Y-78078095D01*
X93755476Y-78030476D01*
X93945952Y-77982857D01*
X94088809Y-77982857D01*
X94279285Y-78030476D01*
X94374523Y-78078095D01*
X94469761Y-78173333D01*
X94517380Y-78316190D01*
X94517380Y-78554285D01*
X94517380Y-77030476D02*
X94517380Y-77601904D01*
X94517380Y-77316190D02*
X93517380Y-77316190D01*
X93660238Y-77411428D01*
X93755476Y-77506666D01*
X93803095Y-77601904D01*
X93612619Y-76649523D02*
X93565000Y-76601904D01*
X93517380Y-76506666D01*
X93517380Y-76268571D01*
X93565000Y-76173333D01*
X93612619Y-76125714D01*
X93707857Y-76078095D01*
X93803095Y-76078095D01*
X93945952Y-76125714D01*
X94517380Y-76697142D01*
X94517380Y-76078095D01*
X88802380Y-78554285D02*
X87802380Y-78554285D01*
X87802380Y-78316190D01*
X87850000Y-78173333D01*
X87945238Y-78078095D01*
X88040476Y-78030476D01*
X88230952Y-77982857D01*
X88373809Y-77982857D01*
X88564285Y-78030476D01*
X88659523Y-78078095D01*
X88754761Y-78173333D01*
X88802380Y-78316190D01*
X88802380Y-78554285D01*
X88802380Y-77030476D02*
X88802380Y-77601904D01*
X88802380Y-77316190D02*
X87802380Y-77316190D01*
X87945238Y-77411428D01*
X88040476Y-77506666D01*
X88088095Y-77601904D01*
X88802380Y-76078095D02*
X88802380Y-76649523D01*
X88802380Y-76363809D02*
X87802380Y-76363809D01*
X87945238Y-76459047D01*
X88040476Y-76554285D01*
X88088095Y-76649523D01*
X83087380Y-78554285D02*
X82087380Y-78554285D01*
X82087380Y-78316190D01*
X82135000Y-78173333D01*
X82230238Y-78078095D01*
X82325476Y-78030476D01*
X82515952Y-77982857D01*
X82658809Y-77982857D01*
X82849285Y-78030476D01*
X82944523Y-78078095D01*
X83039761Y-78173333D01*
X83087380Y-78316190D01*
X83087380Y-78554285D01*
X83087380Y-77030476D02*
X83087380Y-77601904D01*
X83087380Y-77316190D02*
X82087380Y-77316190D01*
X82230238Y-77411428D01*
X82325476Y-77506666D01*
X82373095Y-77601904D01*
X82087380Y-76411428D02*
X82087380Y-76316190D01*
X82135000Y-76220952D01*
X82182619Y-76173333D01*
X82277857Y-76125714D01*
X82468333Y-76078095D01*
X82706428Y-76078095D01*
X82896904Y-76125714D01*
X82992142Y-76173333D01*
X83039761Y-76220952D01*
X83087380Y-76316190D01*
X83087380Y-76411428D01*
X83039761Y-76506666D01*
X82992142Y-76554285D01*
X82896904Y-76601904D01*
X82706428Y-76649523D01*
X82468333Y-76649523D01*
X82277857Y-76601904D01*
X82182619Y-76554285D01*
X82135000Y-76506666D01*
X82087380Y-76411428D01*
X77372380Y-78078095D02*
X76372380Y-78078095D01*
X76372380Y-77840000D01*
X76420000Y-77697142D01*
X76515238Y-77601904D01*
X76610476Y-77554285D01*
X76800952Y-77506666D01*
X76943809Y-77506666D01*
X77134285Y-77554285D01*
X77229523Y-77601904D01*
X77324761Y-77697142D01*
X77372380Y-77840000D01*
X77372380Y-78078095D01*
X77372380Y-77030476D02*
X77372380Y-76840000D01*
X77324761Y-76744761D01*
X77277142Y-76697142D01*
X77134285Y-76601904D01*
X76943809Y-76554285D01*
X76562857Y-76554285D01*
X76467619Y-76601904D01*
X76420000Y-76649523D01*
X76372380Y-76744761D01*
X76372380Y-76935238D01*
X76420000Y-77030476D01*
X76467619Y-77078095D01*
X76562857Y-77125714D01*
X76800952Y-77125714D01*
X76896190Y-77078095D01*
X76943809Y-77030476D01*
X76991428Y-76935238D01*
X76991428Y-76744761D01*
X76943809Y-76649523D01*
X76896190Y-76601904D01*
X76800952Y-76554285D01*
X71657380Y-78078095D02*
X70657380Y-78078095D01*
X70657380Y-77840000D01*
X70705000Y-77697142D01*
X70800238Y-77601904D01*
X70895476Y-77554285D01*
X71085952Y-77506666D01*
X71228809Y-77506666D01*
X71419285Y-77554285D01*
X71514523Y-77601904D01*
X71609761Y-77697142D01*
X71657380Y-77840000D01*
X71657380Y-78078095D01*
X71085952Y-76935238D02*
X71038333Y-77030476D01*
X70990714Y-77078095D01*
X70895476Y-77125714D01*
X70847857Y-77125714D01*
X70752619Y-77078095D01*
X70705000Y-77030476D01*
X70657380Y-76935238D01*
X70657380Y-76744761D01*
X70705000Y-76649523D01*
X70752619Y-76601904D01*
X70847857Y-76554285D01*
X70895476Y-76554285D01*
X70990714Y-76601904D01*
X71038333Y-76649523D01*
X71085952Y-76744761D01*
X71085952Y-76935238D01*
X71133571Y-77030476D01*
X71181190Y-77078095D01*
X71276428Y-77125714D01*
X71466904Y-77125714D01*
X71562142Y-77078095D01*
X71609761Y-77030476D01*
X71657380Y-76935238D01*
X71657380Y-76744761D01*
X71609761Y-76649523D01*
X71562142Y-76601904D01*
X71466904Y-76554285D01*
X71276428Y-76554285D01*
X71181190Y-76601904D01*
X71133571Y-76649523D01*
X71085952Y-76744761D01*
X65942380Y-78078095D02*
X64942380Y-78078095D01*
X64942380Y-77840000D01*
X64990000Y-77697142D01*
X65085238Y-77601904D01*
X65180476Y-77554285D01*
X65370952Y-77506666D01*
X65513809Y-77506666D01*
X65704285Y-77554285D01*
X65799523Y-77601904D01*
X65894761Y-77697142D01*
X65942380Y-77840000D01*
X65942380Y-78078095D01*
X64942380Y-77173333D02*
X64942380Y-76506666D01*
X65942380Y-76935238D01*
X54512380Y-78078095D02*
X53512380Y-78078095D01*
X53512380Y-77840000D01*
X53560000Y-77697142D01*
X53655238Y-77601904D01*
X53750476Y-77554285D01*
X53940952Y-77506666D01*
X54083809Y-77506666D01*
X54274285Y-77554285D01*
X54369523Y-77601904D01*
X54464761Y-77697142D01*
X54512380Y-77840000D01*
X54512380Y-78078095D01*
X53512380Y-76601904D02*
X53512380Y-77078095D01*
X53988571Y-77125714D01*
X53940952Y-77078095D01*
X53893333Y-76982857D01*
X53893333Y-76744761D01*
X53940952Y-76649523D01*
X53988571Y-76601904D01*
X54083809Y-76554285D01*
X54321904Y-76554285D01*
X54417142Y-76601904D01*
X54464761Y-76649523D01*
X54512380Y-76744761D01*
X54512380Y-76982857D01*
X54464761Y-77078095D01*
X54417142Y-77125714D01*
X48797380Y-78078095D02*
X47797380Y-78078095D01*
X47797380Y-77840000D01*
X47845000Y-77697142D01*
X47940238Y-77601904D01*
X48035476Y-77554285D01*
X48225952Y-77506666D01*
X48368809Y-77506666D01*
X48559285Y-77554285D01*
X48654523Y-77601904D01*
X48749761Y-77697142D01*
X48797380Y-77840000D01*
X48797380Y-78078095D01*
X48130714Y-76649523D02*
X48797380Y-76649523D01*
X47749761Y-76887619D02*
X48464047Y-77125714D01*
X48464047Y-76506666D01*
X43082380Y-78078095D02*
X42082380Y-78078095D01*
X42082380Y-77840000D01*
X42130000Y-77697142D01*
X42225238Y-77601904D01*
X42320476Y-77554285D01*
X42510952Y-77506666D01*
X42653809Y-77506666D01*
X42844285Y-77554285D01*
X42939523Y-77601904D01*
X43034761Y-77697142D01*
X43082380Y-77840000D01*
X43082380Y-78078095D01*
X42082380Y-77173333D02*
X42082380Y-76554285D01*
X42463333Y-76887619D01*
X42463333Y-76744761D01*
X42510952Y-76649523D01*
X42558571Y-76601904D01*
X42653809Y-76554285D01*
X42891904Y-76554285D01*
X42987142Y-76601904D01*
X43034761Y-76649523D01*
X43082380Y-76744761D01*
X43082380Y-77030476D01*
X43034761Y-77125714D01*
X42987142Y-77173333D01*
X70387380Y-43413095D02*
X69387380Y-43413095D01*
X69387380Y-43175000D01*
X69435000Y-43032142D01*
X69530238Y-42936904D01*
X69625476Y-42889285D01*
X69815952Y-42841666D01*
X69958809Y-42841666D01*
X70149285Y-42889285D01*
X70244523Y-42936904D01*
X70339761Y-43032142D01*
X70387380Y-43175000D01*
X70387380Y-43413095D01*
X70387380Y-41889285D02*
X70387380Y-42460714D01*
X70387380Y-42175000D02*
X69387380Y-42175000D01*
X69530238Y-42270238D01*
X69625476Y-42365476D01*
X69673095Y-42460714D01*
X128744642Y-67827142D02*
X128697023Y-67874761D01*
X128554166Y-67922380D01*
X128458928Y-67922380D01*
X128316071Y-67874761D01*
X128220833Y-67779523D01*
X128173214Y-67684285D01*
X128125595Y-67493809D01*
X128125595Y-67350952D01*
X128173214Y-67160476D01*
X128220833Y-67065238D01*
X128316071Y-66970000D01*
X128458928Y-66922380D01*
X128554166Y-66922380D01*
X128697023Y-66970000D01*
X128744642Y-67017619D01*
X129697023Y-67922380D02*
X129125595Y-67922380D01*
X129411309Y-67922380D02*
X129411309Y-66922380D01*
X129316071Y-67065238D01*
X129220833Y-67160476D01*
X129125595Y-67208095D01*
X130268452Y-67350952D02*
X130173214Y-67303333D01*
X130125595Y-67255714D01*
X130077976Y-67160476D01*
X130077976Y-67112857D01*
X130125595Y-67017619D01*
X130173214Y-66970000D01*
X130268452Y-66922380D01*
X130458928Y-66922380D01*
X130554166Y-66970000D01*
X130601785Y-67017619D01*
X130649404Y-67112857D01*
X130649404Y-67160476D01*
X130601785Y-67255714D01*
X130554166Y-67303333D01*
X130458928Y-67350952D01*
X130268452Y-67350952D01*
X130173214Y-67398571D01*
X130125595Y-67446190D01*
X130077976Y-67541428D01*
X130077976Y-67731904D01*
X130125595Y-67827142D01*
X130173214Y-67874761D01*
X130268452Y-67922380D01*
X130458928Y-67922380D01*
X130554166Y-67874761D01*
X130601785Y-67827142D01*
X130649404Y-67731904D01*
X130649404Y-67541428D01*
X130601785Y-67446190D01*
X130554166Y-67398571D01*
X130458928Y-67350952D01*
X123029642Y-67827142D02*
X122982023Y-67874761D01*
X122839166Y-67922380D01*
X122743928Y-67922380D01*
X122601071Y-67874761D01*
X122505833Y-67779523D01*
X122458214Y-67684285D01*
X122410595Y-67493809D01*
X122410595Y-67350952D01*
X122458214Y-67160476D01*
X122505833Y-67065238D01*
X122601071Y-66970000D01*
X122743928Y-66922380D01*
X122839166Y-66922380D01*
X122982023Y-66970000D01*
X123029642Y-67017619D01*
X123982023Y-67922380D02*
X123410595Y-67922380D01*
X123696309Y-67922380D02*
X123696309Y-66922380D01*
X123601071Y-67065238D01*
X123505833Y-67160476D01*
X123410595Y-67208095D01*
X124315357Y-66922380D02*
X124982023Y-66922380D01*
X124553452Y-67922380D01*
X117340142Y-67827142D02*
X117292523Y-67874761D01*
X117149666Y-67922380D01*
X117054428Y-67922380D01*
X116911571Y-67874761D01*
X116816333Y-67779523D01*
X116768714Y-67684285D01*
X116721095Y-67493809D01*
X116721095Y-67350952D01*
X116768714Y-67160476D01*
X116816333Y-67065238D01*
X116911571Y-66970000D01*
X117054428Y-66922380D01*
X117149666Y-66922380D01*
X117292523Y-66970000D01*
X117340142Y-67017619D01*
X118292523Y-67922380D02*
X117721095Y-67922380D01*
X118006809Y-67922380D02*
X118006809Y-66922380D01*
X117911571Y-67065238D01*
X117816333Y-67160476D01*
X117721095Y-67208095D01*
X119149666Y-66922380D02*
X118959190Y-66922380D01*
X118863952Y-66970000D01*
X118816333Y-67017619D01*
X118721095Y-67160476D01*
X118673476Y-67350952D01*
X118673476Y-67731904D01*
X118721095Y-67827142D01*
X118768714Y-67874761D01*
X118863952Y-67922380D01*
X119054428Y-67922380D01*
X119149666Y-67874761D01*
X119197285Y-67827142D01*
X119244904Y-67731904D01*
X119244904Y-67493809D01*
X119197285Y-67398571D01*
X119149666Y-67350952D01*
X119054428Y-67303333D01*
X118863952Y-67303333D01*
X118768714Y-67350952D01*
X118721095Y-67398571D01*
X118673476Y-67493809D01*
X111599642Y-67827142D02*
X111552023Y-67874761D01*
X111409166Y-67922380D01*
X111313928Y-67922380D01*
X111171071Y-67874761D01*
X111075833Y-67779523D01*
X111028214Y-67684285D01*
X110980595Y-67493809D01*
X110980595Y-67350952D01*
X111028214Y-67160476D01*
X111075833Y-67065238D01*
X111171071Y-66970000D01*
X111313928Y-66922380D01*
X111409166Y-66922380D01*
X111552023Y-66970000D01*
X111599642Y-67017619D01*
X112552023Y-67922380D02*
X111980595Y-67922380D01*
X112266309Y-67922380D02*
X112266309Y-66922380D01*
X112171071Y-67065238D01*
X112075833Y-67160476D01*
X111980595Y-67208095D01*
X113456785Y-66922380D02*
X112980595Y-66922380D01*
X112932976Y-67398571D01*
X112980595Y-67350952D01*
X113075833Y-67303333D01*
X113313928Y-67303333D01*
X113409166Y-67350952D01*
X113456785Y-67398571D01*
X113504404Y-67493809D01*
X113504404Y-67731904D01*
X113456785Y-67827142D01*
X113409166Y-67874761D01*
X113313928Y-67922380D01*
X113075833Y-67922380D01*
X112980595Y-67874761D01*
X112932976Y-67827142D01*
X105884642Y-67827142D02*
X105837023Y-67874761D01*
X105694166Y-67922380D01*
X105598928Y-67922380D01*
X105456071Y-67874761D01*
X105360833Y-67779523D01*
X105313214Y-67684285D01*
X105265595Y-67493809D01*
X105265595Y-67350952D01*
X105313214Y-67160476D01*
X105360833Y-67065238D01*
X105456071Y-66970000D01*
X105598928Y-66922380D01*
X105694166Y-66922380D01*
X105837023Y-66970000D01*
X105884642Y-67017619D01*
X106837023Y-67922380D02*
X106265595Y-67922380D01*
X106551309Y-67922380D02*
X106551309Y-66922380D01*
X106456071Y-67065238D01*
X106360833Y-67160476D01*
X106265595Y-67208095D01*
X107694166Y-67255714D02*
X107694166Y-67922380D01*
X107456071Y-66874761D02*
X107217976Y-67589047D01*
X107837023Y-67589047D01*
X100169642Y-67827142D02*
X100122023Y-67874761D01*
X99979166Y-67922380D01*
X99883928Y-67922380D01*
X99741071Y-67874761D01*
X99645833Y-67779523D01*
X99598214Y-67684285D01*
X99550595Y-67493809D01*
X99550595Y-67350952D01*
X99598214Y-67160476D01*
X99645833Y-67065238D01*
X99741071Y-66970000D01*
X99883928Y-66922380D01*
X99979166Y-66922380D01*
X100122023Y-66970000D01*
X100169642Y-67017619D01*
X101122023Y-67922380D02*
X100550595Y-67922380D01*
X100836309Y-67922380D02*
X100836309Y-66922380D01*
X100741071Y-67065238D01*
X100645833Y-67160476D01*
X100550595Y-67208095D01*
X101455357Y-66922380D02*
X102074404Y-66922380D01*
X101741071Y-67303333D01*
X101883928Y-67303333D01*
X101979166Y-67350952D01*
X102026785Y-67398571D01*
X102074404Y-67493809D01*
X102074404Y-67731904D01*
X102026785Y-67827142D01*
X101979166Y-67874761D01*
X101883928Y-67922380D01*
X101598214Y-67922380D01*
X101502976Y-67874761D01*
X101455357Y-67827142D01*
X94454642Y-67827142D02*
X94407023Y-67874761D01*
X94264166Y-67922380D01*
X94168928Y-67922380D01*
X94026071Y-67874761D01*
X93930833Y-67779523D01*
X93883214Y-67684285D01*
X93835595Y-67493809D01*
X93835595Y-67350952D01*
X93883214Y-67160476D01*
X93930833Y-67065238D01*
X94026071Y-66970000D01*
X94168928Y-66922380D01*
X94264166Y-66922380D01*
X94407023Y-66970000D01*
X94454642Y-67017619D01*
X95407023Y-67922380D02*
X94835595Y-67922380D01*
X95121309Y-67922380D02*
X95121309Y-66922380D01*
X95026071Y-67065238D01*
X94930833Y-67160476D01*
X94835595Y-67208095D01*
X95787976Y-67017619D02*
X95835595Y-66970000D01*
X95930833Y-66922380D01*
X96168928Y-66922380D01*
X96264166Y-66970000D01*
X96311785Y-67017619D01*
X96359404Y-67112857D01*
X96359404Y-67208095D01*
X96311785Y-67350952D01*
X95740357Y-67922380D01*
X96359404Y-67922380D01*
X88739642Y-67827142D02*
X88692023Y-67874761D01*
X88549166Y-67922380D01*
X88453928Y-67922380D01*
X88311071Y-67874761D01*
X88215833Y-67779523D01*
X88168214Y-67684285D01*
X88120595Y-67493809D01*
X88120595Y-67350952D01*
X88168214Y-67160476D01*
X88215833Y-67065238D01*
X88311071Y-66970000D01*
X88453928Y-66922380D01*
X88549166Y-66922380D01*
X88692023Y-66970000D01*
X88739642Y-67017619D01*
X89692023Y-67922380D02*
X89120595Y-67922380D01*
X89406309Y-67922380D02*
X89406309Y-66922380D01*
X89311071Y-67065238D01*
X89215833Y-67160476D01*
X89120595Y-67208095D01*
X90644404Y-67922380D02*
X90072976Y-67922380D01*
X90358690Y-67922380D02*
X90358690Y-66922380D01*
X90263452Y-67065238D01*
X90168214Y-67160476D01*
X90072976Y-67208095D01*
X83500833Y-67827142D02*
X83453214Y-67874761D01*
X83310357Y-67922380D01*
X83215119Y-67922380D01*
X83072261Y-67874761D01*
X82977023Y-67779523D01*
X82929404Y-67684285D01*
X82881785Y-67493809D01*
X82881785Y-67350952D01*
X82929404Y-67160476D01*
X82977023Y-67065238D01*
X83072261Y-66970000D01*
X83215119Y-66922380D01*
X83310357Y-66922380D01*
X83453214Y-66970000D01*
X83500833Y-67017619D01*
X83977023Y-67922380D02*
X84167500Y-67922380D01*
X84262738Y-67874761D01*
X84310357Y-67827142D01*
X84405595Y-67684285D01*
X84453214Y-67493809D01*
X84453214Y-67112857D01*
X84405595Y-67017619D01*
X84357976Y-66970000D01*
X84262738Y-66922380D01*
X84072261Y-66922380D01*
X83977023Y-66970000D01*
X83929404Y-67017619D01*
X83881785Y-67112857D01*
X83881785Y-67350952D01*
X83929404Y-67446190D01*
X83977023Y-67493809D01*
X84072261Y-67541428D01*
X84262738Y-67541428D01*
X84357976Y-67493809D01*
X84405595Y-67446190D01*
X84453214Y-67350952D01*
X77785833Y-67827142D02*
X77738214Y-67874761D01*
X77595357Y-67922380D01*
X77500119Y-67922380D01*
X77357261Y-67874761D01*
X77262023Y-67779523D01*
X77214404Y-67684285D01*
X77166785Y-67493809D01*
X77166785Y-67350952D01*
X77214404Y-67160476D01*
X77262023Y-67065238D01*
X77357261Y-66970000D01*
X77500119Y-66922380D01*
X77595357Y-66922380D01*
X77738214Y-66970000D01*
X77785833Y-67017619D01*
X78357261Y-67350952D02*
X78262023Y-67303333D01*
X78214404Y-67255714D01*
X78166785Y-67160476D01*
X78166785Y-67112857D01*
X78214404Y-67017619D01*
X78262023Y-66970000D01*
X78357261Y-66922380D01*
X78547738Y-66922380D01*
X78642976Y-66970000D01*
X78690595Y-67017619D01*
X78738214Y-67112857D01*
X78738214Y-67160476D01*
X78690595Y-67255714D01*
X78642976Y-67303333D01*
X78547738Y-67350952D01*
X78357261Y-67350952D01*
X78262023Y-67398571D01*
X78214404Y-67446190D01*
X78166785Y-67541428D01*
X78166785Y-67731904D01*
X78214404Y-67827142D01*
X78262023Y-67874761D01*
X78357261Y-67922380D01*
X78547738Y-67922380D01*
X78642976Y-67874761D01*
X78690595Y-67827142D01*
X78738214Y-67731904D01*
X78738214Y-67541428D01*
X78690595Y-67446190D01*
X78642976Y-67398571D01*
X78547738Y-67350952D01*
X72070833Y-67827142D02*
X72023214Y-67874761D01*
X71880357Y-67922380D01*
X71785119Y-67922380D01*
X71642261Y-67874761D01*
X71547023Y-67779523D01*
X71499404Y-67684285D01*
X71451785Y-67493809D01*
X71451785Y-67350952D01*
X71499404Y-67160476D01*
X71547023Y-67065238D01*
X71642261Y-66970000D01*
X71785119Y-66922380D01*
X71880357Y-66922380D01*
X72023214Y-66970000D01*
X72070833Y-67017619D01*
X72404166Y-66922380D02*
X73070833Y-66922380D01*
X72642261Y-67922380D01*
X66355833Y-67827142D02*
X66308214Y-67874761D01*
X66165357Y-67922380D01*
X66070119Y-67922380D01*
X65927261Y-67874761D01*
X65832023Y-67779523D01*
X65784404Y-67684285D01*
X65736785Y-67493809D01*
X65736785Y-67350952D01*
X65784404Y-67160476D01*
X65832023Y-67065238D01*
X65927261Y-66970000D01*
X66070119Y-66922380D01*
X66165357Y-66922380D01*
X66308214Y-66970000D01*
X66355833Y-67017619D01*
X67212976Y-66922380D02*
X67022500Y-66922380D01*
X66927261Y-66970000D01*
X66879642Y-67017619D01*
X66784404Y-67160476D01*
X66736785Y-67350952D01*
X66736785Y-67731904D01*
X66784404Y-67827142D01*
X66832023Y-67874761D01*
X66927261Y-67922380D01*
X67117738Y-67922380D01*
X67212976Y-67874761D01*
X67260595Y-67827142D01*
X67308214Y-67731904D01*
X67308214Y-67493809D01*
X67260595Y-67398571D01*
X67212976Y-67350952D01*
X67117738Y-67303333D01*
X66927261Y-67303333D01*
X66832023Y-67350952D01*
X66784404Y-67398571D01*
X66736785Y-67493809D01*
X60640833Y-67827142D02*
X60593214Y-67874761D01*
X60450357Y-67922380D01*
X60355119Y-67922380D01*
X60212261Y-67874761D01*
X60117023Y-67779523D01*
X60069404Y-67684285D01*
X60021785Y-67493809D01*
X60021785Y-67350952D01*
X60069404Y-67160476D01*
X60117023Y-67065238D01*
X60212261Y-66970000D01*
X60355119Y-66922380D01*
X60450357Y-66922380D01*
X60593214Y-66970000D01*
X60640833Y-67017619D01*
X61545595Y-66922380D02*
X61069404Y-66922380D01*
X61021785Y-67398571D01*
X61069404Y-67350952D01*
X61164642Y-67303333D01*
X61402738Y-67303333D01*
X61497976Y-67350952D01*
X61545595Y-67398571D01*
X61593214Y-67493809D01*
X61593214Y-67731904D01*
X61545595Y-67827142D01*
X61497976Y-67874761D01*
X61402738Y-67922380D01*
X61164642Y-67922380D01*
X61069404Y-67874761D01*
X61021785Y-67827142D01*
X54925833Y-67827142D02*
X54878214Y-67874761D01*
X54735357Y-67922380D01*
X54640119Y-67922380D01*
X54497261Y-67874761D01*
X54402023Y-67779523D01*
X54354404Y-67684285D01*
X54306785Y-67493809D01*
X54306785Y-67350952D01*
X54354404Y-67160476D01*
X54402023Y-67065238D01*
X54497261Y-66970000D01*
X54640119Y-66922380D01*
X54735357Y-66922380D01*
X54878214Y-66970000D01*
X54925833Y-67017619D01*
X55782976Y-67255714D02*
X55782976Y-67922380D01*
X55544880Y-66874761D02*
X55306785Y-67589047D01*
X55925833Y-67589047D01*
X49210833Y-67827142D02*
X49163214Y-67874761D01*
X49020357Y-67922380D01*
X48925119Y-67922380D01*
X48782261Y-67874761D01*
X48687023Y-67779523D01*
X48639404Y-67684285D01*
X48591785Y-67493809D01*
X48591785Y-67350952D01*
X48639404Y-67160476D01*
X48687023Y-67065238D01*
X48782261Y-66970000D01*
X48925119Y-66922380D01*
X49020357Y-66922380D01*
X49163214Y-66970000D01*
X49210833Y-67017619D01*
X49544166Y-66922380D02*
X50163214Y-66922380D01*
X49829880Y-67303333D01*
X49972738Y-67303333D01*
X50067976Y-67350952D01*
X50115595Y-67398571D01*
X50163214Y-67493809D01*
X50163214Y-67731904D01*
X50115595Y-67827142D01*
X50067976Y-67874761D01*
X49972738Y-67922380D01*
X49687023Y-67922380D01*
X49591785Y-67874761D01*
X49544166Y-67827142D01*
X43648333Y-67827142D02*
X43600714Y-67874761D01*
X43457857Y-67922380D01*
X43362619Y-67922380D01*
X43219761Y-67874761D01*
X43124523Y-67779523D01*
X43076904Y-67684285D01*
X43029285Y-67493809D01*
X43029285Y-67350952D01*
X43076904Y-67160476D01*
X43124523Y-67065238D01*
X43219761Y-66970000D01*
X43362619Y-66922380D01*
X43457857Y-66922380D01*
X43600714Y-66970000D01*
X43648333Y-67017619D01*
X44029285Y-67017619D02*
X44076904Y-66970000D01*
X44172142Y-66922380D01*
X44410238Y-66922380D01*
X44505476Y-66970000D01*
X44553095Y-67017619D01*
X44600714Y-67112857D01*
X44600714Y-67208095D01*
X44553095Y-67350952D01*
X43981666Y-67922380D01*
X44600714Y-67922380D01*
X40837142Y-48231666D02*
X40884761Y-48279285D01*
X40932380Y-48422142D01*
X40932380Y-48517380D01*
X40884761Y-48660238D01*
X40789523Y-48755476D01*
X40694285Y-48803095D01*
X40503809Y-48850714D01*
X40360952Y-48850714D01*
X40170476Y-48803095D01*
X40075238Y-48755476D01*
X39980000Y-48660238D01*
X39932380Y-48517380D01*
X39932380Y-48422142D01*
X39980000Y-48279285D01*
X40027619Y-48231666D01*
X40932380Y-47279285D02*
X40932380Y-47850714D01*
X40932380Y-47565000D02*
X39932380Y-47565000D01*
X40075238Y-47660238D01*
X40170476Y-47755476D01*
X40218095Y-47850714D01*
M02*
