G04 #@! TF.GenerationSoftware,KiCad,Pcbnew,(5.1.0)-1*
G04 #@! TF.CreationDate,2019-05-12T18:19:35+08:00*
G04 #@! TF.ProjectId,16 ch isolation input,31362063-6820-4697-936f-6c6174696f6e,1.01*
G04 #@! TF.SameCoordinates,Original*
G04 #@! TF.FileFunction,Soldermask,Bot*
G04 #@! TF.FilePolarity,Negative*
%FSLAX46Y46*%
G04 Gerber Fmt 4.6, Leading zero omitted, Abs format (unit mm)*
G04 Created by KiCad (PCBNEW (5.1.0)-1) date 2019-05-12 18:19:35*
%MOMM*%
%LPD*%
G04 APERTURE LIST*
%ADD10C,0.254000*%
%ADD11C,0.203200*%
%ADD12C,0.100000*%
G04 APERTURE END LIST*
D10*
X131952999Y-100257428D02*
X131952999Y-98733428D01*
X131590142Y-98733428D01*
X131372428Y-98806000D01*
X131227285Y-98951142D01*
X131154714Y-99096285D01*
X131082142Y-99386571D01*
X131082142Y-99604285D01*
X131154714Y-99894571D01*
X131227285Y-100039714D01*
X131372428Y-100184857D01*
X131590142Y-100257428D01*
X131952999Y-100257428D01*
X129848428Y-100184857D02*
X129993571Y-100257428D01*
X130283857Y-100257428D01*
X130428999Y-100184857D01*
X130501571Y-100039714D01*
X130501571Y-99459142D01*
X130428999Y-99314000D01*
X130283857Y-99241428D01*
X129993571Y-99241428D01*
X129848428Y-99314000D01*
X129775857Y-99459142D01*
X129775857Y-99604285D01*
X130501571Y-99749428D01*
X129195285Y-100184857D02*
X129050142Y-100257428D01*
X128759857Y-100257428D01*
X128614714Y-100184857D01*
X128542142Y-100039714D01*
X128542142Y-99967142D01*
X128614714Y-99822000D01*
X128759857Y-99749428D01*
X128977571Y-99749428D01*
X129122714Y-99676857D01*
X129195285Y-99531714D01*
X129195285Y-99459142D01*
X129122714Y-99314000D01*
X128977571Y-99241428D01*
X128759857Y-99241428D01*
X128614714Y-99314000D01*
X127888999Y-100257428D02*
X127888999Y-99241428D01*
X127888999Y-98733428D02*
X127961571Y-98806000D01*
X127888999Y-98878571D01*
X127816428Y-98806000D01*
X127888999Y-98733428D01*
X127888999Y-98878571D01*
X126510142Y-99241428D02*
X126510142Y-100475142D01*
X126582714Y-100620285D01*
X126655285Y-100692857D01*
X126800428Y-100765428D01*
X127018142Y-100765428D01*
X127163285Y-100692857D01*
X126510142Y-100184857D02*
X126655285Y-100257428D01*
X126945571Y-100257428D01*
X127090714Y-100184857D01*
X127163285Y-100112285D01*
X127235857Y-99967142D01*
X127235857Y-99531714D01*
X127163285Y-99386571D01*
X127090714Y-99314000D01*
X126945571Y-99241428D01*
X126655285Y-99241428D01*
X126510142Y-99314000D01*
X125784428Y-99241428D02*
X125784428Y-100257428D01*
X125784428Y-99386571D02*
X125711857Y-99314000D01*
X125566714Y-99241428D01*
X125348999Y-99241428D01*
X125203857Y-99314000D01*
X125131285Y-99459142D01*
X125131285Y-100257428D01*
X123462142Y-99241428D02*
X122881571Y-99241428D01*
X123244428Y-100257428D02*
X123244428Y-98951142D01*
X123171857Y-98806000D01*
X123026714Y-98733428D01*
X122881571Y-98733428D01*
X122155857Y-100257428D02*
X122300999Y-100184857D01*
X122373571Y-100112285D01*
X122446142Y-99967142D01*
X122446142Y-99531714D01*
X122373571Y-99386571D01*
X122300999Y-99314000D01*
X122155857Y-99241428D01*
X121938142Y-99241428D01*
X121792999Y-99314000D01*
X121720428Y-99386571D01*
X121647857Y-99531714D01*
X121647857Y-99967142D01*
X121720428Y-100112285D01*
X121792999Y-100184857D01*
X121938142Y-100257428D01*
X122155857Y-100257428D01*
X120994714Y-100257428D02*
X120994714Y-99241428D01*
X120994714Y-99531714D02*
X120922142Y-99386571D01*
X120849571Y-99314000D01*
X120704428Y-99241428D01*
X120559285Y-99241428D01*
X118091857Y-100257428D02*
X118962714Y-100257428D01*
X118527285Y-100257428D02*
X118527285Y-98733428D01*
X118672428Y-98951142D01*
X118817571Y-99096285D01*
X118962714Y-99168857D01*
X117511285Y-98878571D02*
X117438714Y-98806000D01*
X117293571Y-98733428D01*
X116930714Y-98733428D01*
X116785571Y-98806000D01*
X116712999Y-98878571D01*
X116640428Y-99023714D01*
X116640428Y-99168857D01*
X116712999Y-99386571D01*
X117583857Y-100257428D01*
X116640428Y-100257428D01*
X116204999Y-98733428D02*
X115696999Y-100257428D01*
X115188999Y-98733428D01*
X113519857Y-100257428D02*
X113519857Y-99241428D01*
X113519857Y-98733428D02*
X113592428Y-98806000D01*
X113519857Y-98878571D01*
X113447285Y-98806000D01*
X113519857Y-98733428D01*
X113519857Y-98878571D01*
X112794142Y-99241428D02*
X112794142Y-100257428D01*
X112794142Y-99386571D02*
X112721571Y-99314000D01*
X112576428Y-99241428D01*
X112358714Y-99241428D01*
X112213571Y-99314000D01*
X112140999Y-99459142D01*
X112140999Y-100257428D01*
X111415285Y-99241428D02*
X111415285Y-100765428D01*
X111415285Y-99314000D02*
X111270142Y-99241428D01*
X110979857Y-99241428D01*
X110834714Y-99314000D01*
X110762142Y-99386571D01*
X110689571Y-99531714D01*
X110689571Y-99967142D01*
X110762142Y-100112285D01*
X110834714Y-100184857D01*
X110979857Y-100257428D01*
X111270142Y-100257428D01*
X111415285Y-100184857D01*
X109383285Y-99241428D02*
X109383285Y-100257428D01*
X110036428Y-99241428D02*
X110036428Y-100039714D01*
X109963857Y-100184857D01*
X109818714Y-100257428D01*
X109600999Y-100257428D01*
X109455857Y-100184857D01*
X109383285Y-100112285D01*
X108875285Y-99241428D02*
X108294714Y-99241428D01*
X108657571Y-98733428D02*
X108657571Y-100039714D01*
X108584999Y-100184857D01*
X108439857Y-100257428D01*
X108294714Y-100257428D01*
X107859285Y-100184857D02*
X107714142Y-100257428D01*
X107423857Y-100257428D01*
X107278714Y-100184857D01*
X107206142Y-100039714D01*
X107206142Y-99967142D01*
X107278714Y-99822000D01*
X107423857Y-99749428D01*
X107641571Y-99749428D01*
X107786714Y-99676857D01*
X107859285Y-99531714D01*
X107859285Y-99459142D01*
X107786714Y-99314000D01*
X107641571Y-99241428D01*
X107423857Y-99241428D01*
X107278714Y-99314000D01*
X105391857Y-100112285D02*
X105319285Y-100184857D01*
X105391857Y-100257428D01*
X105464428Y-100184857D01*
X105391857Y-100112285D01*
X105391857Y-100257428D01*
X105391857Y-99676857D02*
X105464428Y-98806000D01*
X105391857Y-98733428D01*
X105319285Y-98806000D01*
X105391857Y-99676857D01*
X105391857Y-98733428D01*
X104666142Y-100112285D02*
X104593571Y-100184857D01*
X104666142Y-100257428D01*
X104738714Y-100184857D01*
X104666142Y-100112285D01*
X104666142Y-100257428D01*
X104666142Y-99676857D02*
X104738714Y-98806000D01*
X104666142Y-98733428D01*
X104593571Y-98806000D01*
X104666142Y-99676857D01*
X104666142Y-98733428D01*
X103940428Y-100112285D02*
X103867857Y-100184857D01*
X103940428Y-100257428D01*
X104012999Y-100184857D01*
X103940428Y-100112285D01*
X103940428Y-100257428D01*
X103940428Y-99676857D02*
X104012999Y-98806000D01*
X103940428Y-98733428D01*
X103867857Y-98806000D01*
X103940428Y-99676857D01*
X103940428Y-98733428D01*
X101182714Y-100112285D02*
X101255285Y-100184857D01*
X101472999Y-100257428D01*
X101618142Y-100257428D01*
X101835857Y-100184857D01*
X101980999Y-100039714D01*
X102053571Y-99894571D01*
X102126142Y-99604285D01*
X102126142Y-99386571D01*
X102053571Y-99096285D01*
X101980999Y-98951142D01*
X101835857Y-98806000D01*
X101618142Y-98733428D01*
X101472999Y-98733428D01*
X101255285Y-98806000D01*
X101182714Y-98878571D01*
X100529571Y-100257428D02*
X100529571Y-98733428D01*
X99876428Y-100257428D02*
X99876428Y-99459142D01*
X99948999Y-99314000D01*
X100094142Y-99241428D01*
X100311857Y-99241428D01*
X100456999Y-99314000D01*
X100529571Y-99386571D01*
X98497571Y-100257428D02*
X98497571Y-99459142D01*
X98570142Y-99314000D01*
X98715285Y-99241428D01*
X99005571Y-99241428D01*
X99150714Y-99314000D01*
X98497571Y-100184857D02*
X98642714Y-100257428D01*
X99005571Y-100257428D01*
X99150714Y-100184857D01*
X99223285Y-100039714D01*
X99223285Y-99894571D01*
X99150714Y-99749428D01*
X99005571Y-99676857D01*
X98642714Y-99676857D01*
X98497571Y-99604285D01*
X97771857Y-99241428D02*
X97771857Y-100257428D01*
X97771857Y-99386571D02*
X97699285Y-99314000D01*
X97554142Y-99241428D01*
X97336428Y-99241428D01*
X97191285Y-99314000D01*
X97118714Y-99459142D01*
X97118714Y-100257428D01*
X95739857Y-99241428D02*
X95739857Y-100475142D01*
X95812428Y-100620285D01*
X95884999Y-100692857D01*
X96030142Y-100765428D01*
X96247857Y-100765428D01*
X96392999Y-100692857D01*
X95739857Y-100184857D02*
X95884999Y-100257428D01*
X96175285Y-100257428D01*
X96320428Y-100184857D01*
X96392999Y-100112285D01*
X96465571Y-99967142D01*
X96465571Y-99531714D01*
X96392999Y-99386571D01*
X96320428Y-99314000D01*
X96175285Y-99241428D01*
X95884999Y-99241428D01*
X95739857Y-99314000D01*
X94433571Y-100184857D02*
X94578714Y-100257428D01*
X94868999Y-100257428D01*
X95014142Y-100184857D01*
X95086714Y-100039714D01*
X95086714Y-99459142D01*
X95014142Y-99314000D01*
X94868999Y-99241428D01*
X94578714Y-99241428D01*
X94433571Y-99314000D01*
X94360999Y-99459142D01*
X94360999Y-99604285D01*
X95086714Y-99749428D01*
X92546714Y-100257428D02*
X92546714Y-99241428D01*
X92546714Y-98733428D02*
X92619285Y-98806000D01*
X92546714Y-98878571D01*
X92474142Y-98806000D01*
X92546714Y-98733428D01*
X92546714Y-98878571D01*
X91820999Y-99241428D02*
X91820999Y-100257428D01*
X91820999Y-99386571D02*
X91748428Y-99314000D01*
X91603285Y-99241428D01*
X91385571Y-99241428D01*
X91240428Y-99314000D01*
X91167857Y-99459142D01*
X91167857Y-100257428D01*
X90442142Y-99241428D02*
X90442142Y-100765428D01*
X90442142Y-99314000D02*
X90296999Y-99241428D01*
X90006714Y-99241428D01*
X89861571Y-99314000D01*
X89788999Y-99386571D01*
X89716428Y-99531714D01*
X89716428Y-99967142D01*
X89788999Y-100112285D01*
X89861571Y-100184857D01*
X90006714Y-100257428D01*
X90296999Y-100257428D01*
X90442142Y-100184857D01*
X88410142Y-99241428D02*
X88410142Y-100257428D01*
X89063285Y-99241428D02*
X89063285Y-100039714D01*
X88990714Y-100184857D01*
X88845571Y-100257428D01*
X88627857Y-100257428D01*
X88482714Y-100184857D01*
X88410142Y-100112285D01*
X87902142Y-99241428D02*
X87321571Y-99241428D01*
X87684428Y-98733428D02*
X87684428Y-100039714D01*
X87611857Y-100184857D01*
X87466714Y-100257428D01*
X87321571Y-100257428D01*
X85652428Y-100257428D02*
X85652428Y-99241428D01*
X85652428Y-99531714D02*
X85579857Y-99386571D01*
X85507285Y-99314000D01*
X85362142Y-99241428D01*
X85216999Y-99241428D01*
X84128428Y-100184857D02*
X84273571Y-100257428D01*
X84563857Y-100257428D01*
X84708999Y-100184857D01*
X84781571Y-100039714D01*
X84781571Y-99459142D01*
X84708999Y-99314000D01*
X84563857Y-99241428D01*
X84273571Y-99241428D01*
X84128428Y-99314000D01*
X84055857Y-99459142D01*
X84055857Y-99604285D01*
X84781571Y-99749428D01*
X83475285Y-100184857D02*
X83330142Y-100257428D01*
X83039857Y-100257428D01*
X82894714Y-100184857D01*
X82822142Y-100039714D01*
X82822142Y-99967142D01*
X82894714Y-99822000D01*
X83039857Y-99749428D01*
X83257571Y-99749428D01*
X83402714Y-99676857D01*
X83475285Y-99531714D01*
X83475285Y-99459142D01*
X83402714Y-99314000D01*
X83257571Y-99241428D01*
X83039857Y-99241428D01*
X82894714Y-99314000D01*
X82168999Y-100257428D02*
X82168999Y-99241428D01*
X82168999Y-98733428D02*
X82241571Y-98806000D01*
X82168999Y-98878571D01*
X82096428Y-98806000D01*
X82168999Y-98733428D01*
X82168999Y-98878571D01*
X81515857Y-100184857D02*
X81370714Y-100257428D01*
X81080428Y-100257428D01*
X80935285Y-100184857D01*
X80862714Y-100039714D01*
X80862714Y-99967142D01*
X80935285Y-99822000D01*
X81080428Y-99749428D01*
X81298142Y-99749428D01*
X81443285Y-99676857D01*
X81515857Y-99531714D01*
X81515857Y-99459142D01*
X81443285Y-99314000D01*
X81298142Y-99241428D01*
X81080428Y-99241428D01*
X80935285Y-99314000D01*
X80427285Y-99241428D02*
X79846714Y-99241428D01*
X80209571Y-98733428D02*
X80209571Y-100039714D01*
X80136999Y-100184857D01*
X79991857Y-100257428D01*
X79846714Y-100257428D01*
X79120999Y-100257428D02*
X79266142Y-100184857D01*
X79338714Y-100112285D01*
X79411285Y-99967142D01*
X79411285Y-99531714D01*
X79338714Y-99386571D01*
X79266142Y-99314000D01*
X79120999Y-99241428D01*
X78903285Y-99241428D01*
X78758142Y-99314000D01*
X78685571Y-99386571D01*
X78612999Y-99531714D01*
X78612999Y-99967142D01*
X78685571Y-100112285D01*
X78758142Y-100184857D01*
X78903285Y-100257428D01*
X79120999Y-100257428D01*
X77959857Y-100257428D02*
X77959857Y-99241428D01*
X77959857Y-99531714D02*
X77887285Y-99386571D01*
X77814714Y-99314000D01*
X77669571Y-99241428D01*
X77524428Y-99241428D01*
X77088999Y-100184857D02*
X76943857Y-100257428D01*
X76653571Y-100257428D01*
X76508428Y-100184857D01*
X76435857Y-100039714D01*
X76435857Y-99967142D01*
X76508428Y-99822000D01*
X76653571Y-99749428D01*
X76871285Y-99749428D01*
X77016428Y-99676857D01*
X77088999Y-99531714D01*
X77088999Y-99459142D01*
X77016428Y-99314000D01*
X76871285Y-99241428D01*
X76653571Y-99241428D01*
X76508428Y-99314000D01*
X74621571Y-100257428D02*
X74621571Y-98733428D01*
X74621571Y-99314000D02*
X74476428Y-99241428D01*
X74186142Y-99241428D01*
X74040999Y-99314000D01*
X73968428Y-99386571D01*
X73895857Y-99531714D01*
X73895857Y-99967142D01*
X73968428Y-100112285D01*
X74040999Y-100184857D01*
X74186142Y-100257428D01*
X74476428Y-100257428D01*
X74621571Y-100184857D01*
X72662142Y-100184857D02*
X72807285Y-100257428D01*
X73097571Y-100257428D01*
X73242714Y-100184857D01*
X73315285Y-100039714D01*
X73315285Y-99459142D01*
X73242714Y-99314000D01*
X73097571Y-99241428D01*
X72807285Y-99241428D01*
X72662142Y-99314000D01*
X72589571Y-99459142D01*
X72589571Y-99604285D01*
X73315285Y-99749428D01*
X72154142Y-99241428D02*
X71573571Y-99241428D01*
X71936428Y-100257428D02*
X71936428Y-98951142D01*
X71863857Y-98806000D01*
X71718714Y-98733428D01*
X71573571Y-98733428D01*
X70847857Y-100257428D02*
X70992999Y-100184857D01*
X71065571Y-100112285D01*
X71138142Y-99967142D01*
X71138142Y-99531714D01*
X71065571Y-99386571D01*
X70992999Y-99314000D01*
X70847857Y-99241428D01*
X70630142Y-99241428D01*
X70484999Y-99314000D01*
X70412428Y-99386571D01*
X70339857Y-99531714D01*
X70339857Y-99967142D01*
X70412428Y-100112285D01*
X70484999Y-100184857D01*
X70630142Y-100257428D01*
X70847857Y-100257428D01*
X69686714Y-100257428D02*
X69686714Y-99241428D01*
X69686714Y-99531714D02*
X69614142Y-99386571D01*
X69541571Y-99314000D01*
X69396428Y-99241428D01*
X69251285Y-99241428D01*
X68162714Y-100184857D02*
X68307857Y-100257428D01*
X68598142Y-100257428D01*
X68743285Y-100184857D01*
X68815857Y-100039714D01*
X68815857Y-99459142D01*
X68743285Y-99314000D01*
X68598142Y-99241428D01*
X68307857Y-99241428D01*
X68162714Y-99314000D01*
X68090142Y-99459142D01*
X68090142Y-99604285D01*
X68815857Y-99749428D01*
X65622714Y-99241428D02*
X65622714Y-100257428D01*
X66275857Y-99241428D02*
X66275857Y-100039714D01*
X66203285Y-100184857D01*
X66058142Y-100257428D01*
X65840428Y-100257428D01*
X65695285Y-100184857D01*
X65622714Y-100112285D01*
X64969571Y-100184857D02*
X64824428Y-100257428D01*
X64534142Y-100257428D01*
X64388999Y-100184857D01*
X64316428Y-100039714D01*
X64316428Y-99967142D01*
X64388999Y-99822000D01*
X64534142Y-99749428D01*
X64751857Y-99749428D01*
X64896999Y-99676857D01*
X64969571Y-99531714D01*
X64969571Y-99459142D01*
X64896999Y-99314000D01*
X64751857Y-99241428D01*
X64534142Y-99241428D01*
X64388999Y-99314000D01*
X63082714Y-100184857D02*
X63227857Y-100257428D01*
X63518142Y-100257428D01*
X63663285Y-100184857D01*
X63735857Y-100039714D01*
X63735857Y-99459142D01*
X63663285Y-99314000D01*
X63518142Y-99241428D01*
X63227857Y-99241428D01*
X63082714Y-99314000D01*
X63010142Y-99459142D01*
X63010142Y-99604285D01*
X63735857Y-99749428D01*
X61195857Y-100257428D02*
X61195857Y-99241428D01*
X61195857Y-98733428D02*
X61268428Y-98806000D01*
X61195857Y-98878571D01*
X61123285Y-98806000D01*
X61195857Y-98733428D01*
X61195857Y-98878571D01*
X60470142Y-99241428D02*
X60470142Y-100257428D01*
X60470142Y-99386571D02*
X60397571Y-99314000D01*
X60252428Y-99241428D01*
X60034714Y-99241428D01*
X59889571Y-99314000D01*
X59816999Y-99459142D01*
X59816999Y-100257428D01*
X57712428Y-100257428D02*
X57857571Y-100184857D01*
X57930142Y-100112285D01*
X58002714Y-99967142D01*
X58002714Y-99531714D01*
X57930142Y-99386571D01*
X57857571Y-99314000D01*
X57712428Y-99241428D01*
X57494714Y-99241428D01*
X57349571Y-99314000D01*
X57276999Y-99386571D01*
X57204428Y-99531714D01*
X57204428Y-99967142D01*
X57276999Y-100112285D01*
X57349571Y-100184857D01*
X57494714Y-100257428D01*
X57712428Y-100257428D01*
X56768999Y-99241428D02*
X56188428Y-99241428D01*
X56551285Y-98733428D02*
X56551285Y-100039714D01*
X56478714Y-100184857D01*
X56333571Y-100257428D01*
X56188428Y-100257428D01*
X55680428Y-100257428D02*
X55680428Y-98733428D01*
X55027285Y-100257428D02*
X55027285Y-99459142D01*
X55099857Y-99314000D01*
X55244999Y-99241428D01*
X55462714Y-99241428D01*
X55607857Y-99314000D01*
X55680428Y-99386571D01*
X53720999Y-100184857D02*
X53866142Y-100257428D01*
X54156428Y-100257428D01*
X54301571Y-100184857D01*
X54374142Y-100039714D01*
X54374142Y-99459142D01*
X54301571Y-99314000D01*
X54156428Y-99241428D01*
X53866142Y-99241428D01*
X53720999Y-99314000D01*
X53648428Y-99459142D01*
X53648428Y-99604285D01*
X54374142Y-99749428D01*
X52995285Y-100257428D02*
X52995285Y-99241428D01*
X52995285Y-99531714D02*
X52922714Y-99386571D01*
X52850142Y-99314000D01*
X52704999Y-99241428D01*
X52559857Y-99241428D01*
X51035857Y-99241428D02*
X50672999Y-100257428D01*
X50310142Y-99241428D01*
X49511857Y-100257428D02*
X49656999Y-100184857D01*
X49729571Y-100112285D01*
X49802142Y-99967142D01*
X49802142Y-99531714D01*
X49729571Y-99386571D01*
X49656999Y-99314000D01*
X49511857Y-99241428D01*
X49294142Y-99241428D01*
X49148999Y-99314000D01*
X49076428Y-99386571D01*
X49003857Y-99531714D01*
X49003857Y-99967142D01*
X49076428Y-100112285D01*
X49148999Y-100184857D01*
X49294142Y-100257428D01*
X49511857Y-100257428D01*
X48132999Y-100257428D02*
X48278142Y-100184857D01*
X48350714Y-100039714D01*
X48350714Y-98733428D01*
X47770142Y-99241428D02*
X47189571Y-99241428D01*
X47552428Y-98733428D02*
X47552428Y-100039714D01*
X47479857Y-100184857D01*
X47334714Y-100257428D01*
X47189571Y-100257428D01*
X46028428Y-100257428D02*
X46028428Y-99459142D01*
X46100999Y-99314000D01*
X46246142Y-99241428D01*
X46536428Y-99241428D01*
X46681571Y-99314000D01*
X46028428Y-100184857D02*
X46173571Y-100257428D01*
X46536428Y-100257428D01*
X46681571Y-100184857D01*
X46754142Y-100039714D01*
X46754142Y-99894571D01*
X46681571Y-99749428D01*
X46536428Y-99676857D01*
X46173571Y-99676857D01*
X46028428Y-99604285D01*
X44649571Y-99241428D02*
X44649571Y-100475142D01*
X44722142Y-100620285D01*
X44794714Y-100692857D01*
X44939857Y-100765428D01*
X45157571Y-100765428D01*
X45302714Y-100692857D01*
X44649571Y-100184857D02*
X44794714Y-100257428D01*
X45084999Y-100257428D01*
X45230142Y-100184857D01*
X45302714Y-100112285D01*
X45375285Y-99967142D01*
X45375285Y-99531714D01*
X45302714Y-99386571D01*
X45230142Y-99314000D01*
X45084999Y-99241428D01*
X44794714Y-99241428D01*
X44649571Y-99314000D01*
X43343285Y-100184857D02*
X43488428Y-100257428D01*
X43778714Y-100257428D01*
X43923857Y-100184857D01*
X43996428Y-100039714D01*
X43996428Y-99459142D01*
X43923857Y-99314000D01*
X43778714Y-99241428D01*
X43488428Y-99241428D01*
X43343285Y-99314000D01*
X43270714Y-99459142D01*
X43270714Y-99604285D01*
X43996428Y-99749428D01*
X41456428Y-100112285D02*
X41383857Y-100184857D01*
X41456428Y-100257428D01*
X41528999Y-100184857D01*
X41456428Y-100112285D01*
X41456428Y-100257428D01*
X41456428Y-99676857D02*
X41528999Y-98806000D01*
X41456428Y-98733428D01*
X41383857Y-98806000D01*
X41456428Y-99676857D01*
X41456428Y-98733428D01*
X40730714Y-100112285D02*
X40658142Y-100184857D01*
X40730714Y-100257428D01*
X40803285Y-100184857D01*
X40730714Y-100112285D01*
X40730714Y-100257428D01*
X40730714Y-99676857D02*
X40803285Y-98806000D01*
X40730714Y-98733428D01*
X40658142Y-98806000D01*
X40730714Y-99676857D01*
X40730714Y-98733428D01*
X40004999Y-100112285D02*
X39932428Y-100184857D01*
X40004999Y-100257428D01*
X40077571Y-100184857D01*
X40004999Y-100112285D01*
X40004999Y-100257428D01*
X40004999Y-99676857D02*
X40077571Y-98806000D01*
X40004999Y-98733428D01*
X39932428Y-98806000D01*
X40004999Y-99676857D01*
X40004999Y-98733428D01*
D11*
X68560647Y-72900419D02*
X68221980Y-73916419D01*
X67883314Y-72900419D01*
X66238361Y-73916419D02*
X66818933Y-73916419D01*
X66528647Y-73916419D02*
X66528647Y-72900419D01*
X66625409Y-73045561D01*
X66722171Y-73142323D01*
X66818933Y-73190704D01*
X65802933Y-73819657D02*
X65754552Y-73868038D01*
X65802933Y-73916419D01*
X65851314Y-73868038D01*
X65802933Y-73819657D01*
X65802933Y-73916419D01*
X65125600Y-72900419D02*
X65028838Y-72900419D01*
X64932076Y-72948800D01*
X64883695Y-72997180D01*
X64835314Y-73093942D01*
X64786933Y-73287466D01*
X64786933Y-73529371D01*
X64835314Y-73722895D01*
X64883695Y-73819657D01*
X64932076Y-73868038D01*
X65028838Y-73916419D01*
X65125600Y-73916419D01*
X65222361Y-73868038D01*
X65270742Y-73819657D01*
X65319123Y-73722895D01*
X65367504Y-73529371D01*
X65367504Y-73287466D01*
X65319123Y-73093942D01*
X65270742Y-72997180D01*
X65222361Y-72948800D01*
X65125600Y-72900419D01*
X63819314Y-73916419D02*
X64399885Y-73916419D01*
X64109600Y-73916419D02*
X64109600Y-72900419D01*
X64206361Y-73045561D01*
X64303123Y-73142323D01*
X64399885Y-73190704D01*
X68086514Y-71833619D02*
X68570323Y-71833619D01*
X68570323Y-70817619D01*
X67747847Y-71833619D02*
X67747847Y-70817619D01*
X67747847Y-71301428D02*
X67167276Y-71301428D01*
X67167276Y-71833619D02*
X67167276Y-70817619D01*
X66731847Y-71543333D02*
X66248038Y-71543333D01*
X66828609Y-71833619D02*
X66489942Y-70817619D01*
X66151276Y-71833619D01*
X65909371Y-70817619D02*
X65232038Y-70817619D01*
X65667466Y-71833619D01*
X64844990Y-71301428D02*
X64506323Y-71301428D01*
X64361180Y-71833619D02*
X64844990Y-71833619D01*
X64844990Y-70817619D01*
X64361180Y-70817619D01*
X63780609Y-71253047D02*
X63877371Y-71204666D01*
X63925752Y-71156285D01*
X63974133Y-71059523D01*
X63974133Y-71011142D01*
X63925752Y-70914380D01*
X63877371Y-70866000D01*
X63780609Y-70817619D01*
X63587085Y-70817619D01*
X63490323Y-70866000D01*
X63441942Y-70914380D01*
X63393561Y-71011142D01*
X63393561Y-71059523D01*
X63441942Y-71156285D01*
X63490323Y-71204666D01*
X63587085Y-71253047D01*
X63780609Y-71253047D01*
X63877371Y-71301428D01*
X63925752Y-71349809D01*
X63974133Y-71446571D01*
X63974133Y-71640095D01*
X63925752Y-71736857D01*
X63877371Y-71785238D01*
X63780609Y-71833619D01*
X63587085Y-71833619D01*
X63490323Y-71785238D01*
X63441942Y-71736857D01*
X63393561Y-71640095D01*
X63393561Y-71446571D01*
X63441942Y-71349809D01*
X63490323Y-71301428D01*
X63587085Y-71253047D01*
X62184038Y-71833619D02*
X62184038Y-70817619D01*
X61845371Y-71543333D01*
X61506704Y-70817619D01*
X61506704Y-71833619D01*
X61022895Y-71833619D02*
X61022895Y-70817619D01*
X60442323Y-71833619D02*
X60877752Y-71253047D01*
X60442323Y-70817619D02*
X61022895Y-71398190D01*
X60006895Y-71736857D02*
X59958514Y-71785238D01*
X60006895Y-71833619D01*
X60055276Y-71785238D01*
X60006895Y-71736857D01*
X60006895Y-71833619D01*
X59571466Y-70914380D02*
X59523085Y-70866000D01*
X59426323Y-70817619D01*
X59184419Y-70817619D01*
X59087657Y-70866000D01*
X59039276Y-70914380D01*
X58990895Y-71011142D01*
X58990895Y-71107904D01*
X59039276Y-71253047D01*
X59619847Y-71833619D01*
X58990895Y-71833619D01*
X68248590Y-69801619D02*
X68829161Y-69801619D01*
X68538876Y-69801619D02*
X68538876Y-68785619D01*
X68635638Y-68930761D01*
X68732400Y-69027523D01*
X68829161Y-69075904D01*
X67377733Y-68785619D02*
X67571257Y-68785619D01*
X67668019Y-68834000D01*
X67716400Y-68882380D01*
X67813161Y-69027523D01*
X67861542Y-69221047D01*
X67861542Y-69608095D01*
X67813161Y-69704857D01*
X67764780Y-69753238D01*
X67668019Y-69801619D01*
X67474495Y-69801619D01*
X67377733Y-69753238D01*
X67329352Y-69704857D01*
X67280971Y-69608095D01*
X67280971Y-69366190D01*
X67329352Y-69269428D01*
X67377733Y-69221047D01*
X67474495Y-69172666D01*
X67668019Y-69172666D01*
X67764780Y-69221047D01*
X67813161Y-69269428D01*
X67861542Y-69366190D01*
X65490876Y-69704857D02*
X65539257Y-69753238D01*
X65684400Y-69801619D01*
X65781161Y-69801619D01*
X65926304Y-69753238D01*
X66023066Y-69656476D01*
X66071447Y-69559714D01*
X66119828Y-69366190D01*
X66119828Y-69221047D01*
X66071447Y-69027523D01*
X66023066Y-68930761D01*
X65926304Y-68834000D01*
X65781161Y-68785619D01*
X65684400Y-68785619D01*
X65539257Y-68834000D01*
X65490876Y-68882380D01*
X65055447Y-69801619D02*
X65055447Y-68785619D01*
X65055447Y-69269428D02*
X64474876Y-69269428D01*
X64474876Y-69801619D02*
X64474876Y-68785619D01*
X63216971Y-69801619D02*
X63216971Y-68785619D01*
X62781542Y-69753238D02*
X62684780Y-69801619D01*
X62491257Y-69801619D01*
X62394495Y-69753238D01*
X62346114Y-69656476D01*
X62346114Y-69608095D01*
X62394495Y-69511333D01*
X62491257Y-69462952D01*
X62636400Y-69462952D01*
X62733161Y-69414571D01*
X62781542Y-69317809D01*
X62781542Y-69269428D01*
X62733161Y-69172666D01*
X62636400Y-69124285D01*
X62491257Y-69124285D01*
X62394495Y-69172666D01*
X61765542Y-69801619D02*
X61862304Y-69753238D01*
X61910685Y-69704857D01*
X61959066Y-69608095D01*
X61959066Y-69317809D01*
X61910685Y-69221047D01*
X61862304Y-69172666D01*
X61765542Y-69124285D01*
X61620400Y-69124285D01*
X61523638Y-69172666D01*
X61475257Y-69221047D01*
X61426876Y-69317809D01*
X61426876Y-69608095D01*
X61475257Y-69704857D01*
X61523638Y-69753238D01*
X61620400Y-69801619D01*
X61765542Y-69801619D01*
X60846304Y-69801619D02*
X60943066Y-69753238D01*
X60991447Y-69656476D01*
X60991447Y-68785619D01*
X60023828Y-69801619D02*
X60023828Y-69269428D01*
X60072209Y-69172666D01*
X60168971Y-69124285D01*
X60362495Y-69124285D01*
X60459257Y-69172666D01*
X60023828Y-69753238D02*
X60120590Y-69801619D01*
X60362495Y-69801619D01*
X60459257Y-69753238D01*
X60507638Y-69656476D01*
X60507638Y-69559714D01*
X60459257Y-69462952D01*
X60362495Y-69414571D01*
X60120590Y-69414571D01*
X60023828Y-69366190D01*
X59685161Y-69124285D02*
X59298114Y-69124285D01*
X59540019Y-68785619D02*
X59540019Y-69656476D01*
X59491638Y-69753238D01*
X59394876Y-69801619D01*
X59298114Y-69801619D01*
X58572400Y-69753238D02*
X58669161Y-69801619D01*
X58862685Y-69801619D01*
X58959447Y-69753238D01*
X59007828Y-69656476D01*
X59007828Y-69269428D01*
X58959447Y-69172666D01*
X58862685Y-69124285D01*
X58669161Y-69124285D01*
X58572400Y-69172666D01*
X58524019Y-69269428D01*
X58524019Y-69366190D01*
X59007828Y-69462952D01*
X57653161Y-69801619D02*
X57653161Y-68785619D01*
X57653161Y-69753238D02*
X57749923Y-69801619D01*
X57943447Y-69801619D01*
X58040209Y-69753238D01*
X58088590Y-69704857D01*
X58136971Y-69608095D01*
X58136971Y-69317809D01*
X58088590Y-69221047D01*
X58040209Y-69172666D01*
X57943447Y-69124285D01*
X57749923Y-69124285D01*
X57653161Y-69172666D01*
X56395257Y-69801619D02*
X56395257Y-68785619D01*
X56153352Y-68785619D01*
X56008209Y-68834000D01*
X55911447Y-68930761D01*
X55863066Y-69027523D01*
X55814685Y-69221047D01*
X55814685Y-69366190D01*
X55863066Y-69559714D01*
X55911447Y-69656476D01*
X56008209Y-69753238D01*
X56153352Y-69801619D01*
X56395257Y-69801619D01*
X55379257Y-69801619D02*
X55379257Y-69124285D01*
X55379257Y-68785619D02*
X55427638Y-68834000D01*
X55379257Y-68882380D01*
X55330876Y-68834000D01*
X55379257Y-68785619D01*
X55379257Y-68882380D01*
X54460019Y-69124285D02*
X54460019Y-69946761D01*
X54508400Y-70043523D01*
X54556780Y-70091904D01*
X54653542Y-70140285D01*
X54798685Y-70140285D01*
X54895447Y-70091904D01*
X54460019Y-69753238D02*
X54556780Y-69801619D01*
X54750304Y-69801619D01*
X54847066Y-69753238D01*
X54895447Y-69704857D01*
X54943828Y-69608095D01*
X54943828Y-69317809D01*
X54895447Y-69221047D01*
X54847066Y-69172666D01*
X54750304Y-69124285D01*
X54556780Y-69124285D01*
X54460019Y-69172666D01*
X53976209Y-69801619D02*
X53976209Y-69124285D01*
X53976209Y-68785619D02*
X54024590Y-68834000D01*
X53976209Y-68882380D01*
X53927828Y-68834000D01*
X53976209Y-68785619D01*
X53976209Y-68882380D01*
X53637542Y-69124285D02*
X53250495Y-69124285D01*
X53492400Y-68785619D02*
X53492400Y-69656476D01*
X53444019Y-69753238D01*
X53347257Y-69801619D01*
X53250495Y-69801619D01*
X52476399Y-69801619D02*
X52476399Y-69269428D01*
X52524780Y-69172666D01*
X52621542Y-69124285D01*
X52815066Y-69124285D01*
X52911828Y-69172666D01*
X52476399Y-69753238D02*
X52573161Y-69801619D01*
X52815066Y-69801619D01*
X52911828Y-69753238D01*
X52960209Y-69656476D01*
X52960209Y-69559714D01*
X52911828Y-69462952D01*
X52815066Y-69414571D01*
X52573161Y-69414571D01*
X52476399Y-69366190D01*
X51847447Y-69801619D02*
X51944209Y-69753238D01*
X51992590Y-69656476D01*
X51992590Y-68785619D01*
X50686304Y-69801619D02*
X50686304Y-68785619D01*
X50202495Y-69124285D02*
X50202495Y-69801619D01*
X50202495Y-69221047D02*
X50154114Y-69172666D01*
X50057352Y-69124285D01*
X49912209Y-69124285D01*
X49815447Y-69172666D01*
X49767066Y-69269428D01*
X49767066Y-69801619D01*
X49283257Y-69124285D02*
X49283257Y-70140285D01*
X49283257Y-69172666D02*
X49186495Y-69124285D01*
X48992971Y-69124285D01*
X48896209Y-69172666D01*
X48847828Y-69221047D01*
X48799447Y-69317809D01*
X48799447Y-69608095D01*
X48847828Y-69704857D01*
X48896209Y-69753238D01*
X48992971Y-69801619D01*
X49186495Y-69801619D01*
X49283257Y-69753238D01*
X47928590Y-69124285D02*
X47928590Y-69801619D01*
X48364019Y-69124285D02*
X48364019Y-69656476D01*
X48315638Y-69753238D01*
X48218876Y-69801619D01*
X48073733Y-69801619D01*
X47976971Y-69753238D01*
X47928590Y-69704857D01*
X47589923Y-69124285D02*
X47202876Y-69124285D01*
X47444780Y-68785619D02*
X47444780Y-69656476D01*
X47396399Y-69753238D01*
X47299638Y-69801619D01*
X47202876Y-69801619D01*
X46090114Y-69801619D02*
X46090114Y-68785619D01*
X45751447Y-69511333D01*
X45412780Y-68785619D01*
X45412780Y-69801619D01*
X44783828Y-69801619D02*
X44880590Y-69753238D01*
X44928971Y-69704857D01*
X44977352Y-69608095D01*
X44977352Y-69317809D01*
X44928971Y-69221047D01*
X44880590Y-69172666D01*
X44783828Y-69124285D01*
X44638685Y-69124285D01*
X44541923Y-69172666D01*
X44493542Y-69221047D01*
X44445161Y-69317809D01*
X44445161Y-69608095D01*
X44493542Y-69704857D01*
X44541923Y-69753238D01*
X44638685Y-69801619D01*
X44783828Y-69801619D01*
X43574304Y-69801619D02*
X43574304Y-68785619D01*
X43574304Y-69753238D02*
X43671066Y-69801619D01*
X43864590Y-69801619D01*
X43961352Y-69753238D01*
X44009733Y-69704857D01*
X44058114Y-69608095D01*
X44058114Y-69317809D01*
X44009733Y-69221047D01*
X43961352Y-69172666D01*
X43864590Y-69124285D01*
X43671066Y-69124285D01*
X43574304Y-69172666D01*
X42655066Y-69124285D02*
X42655066Y-69801619D01*
X43090495Y-69124285D02*
X43090495Y-69656476D01*
X43042114Y-69753238D01*
X42945352Y-69801619D01*
X42800209Y-69801619D01*
X42703447Y-69753238D01*
X42655066Y-69704857D01*
X42026114Y-69801619D02*
X42122876Y-69753238D01*
X42171257Y-69656476D01*
X42171257Y-68785619D01*
X41252019Y-69753238D02*
X41348780Y-69801619D01*
X41542304Y-69801619D01*
X41639066Y-69753238D01*
X41687447Y-69656476D01*
X41687447Y-69269428D01*
X41639066Y-69172666D01*
X41542304Y-69124285D01*
X41348780Y-69124285D01*
X41252019Y-69172666D01*
X41203638Y-69269428D01*
X41203638Y-69366190D01*
X41687447Y-69462952D01*
D12*
G36*
X132157190Y-102770561D02*
G01*
X132157192Y-102770562D01*
X132157193Y-102770562D01*
X132680772Y-102987435D01*
X133151976Y-103302284D01*
X133151978Y-103302286D01*
X133151981Y-103302288D01*
X133552712Y-103703019D01*
X133552714Y-103703022D01*
X133552716Y-103703024D01*
X133867565Y-104174228D01*
X134084438Y-104697807D01*
X134195000Y-105253641D01*
X134195000Y-105820359D01*
X134084438Y-106376193D01*
X133867565Y-106899772D01*
X133552716Y-107370976D01*
X133552714Y-107370978D01*
X133552712Y-107370981D01*
X133151981Y-107771712D01*
X133151978Y-107771714D01*
X133151976Y-107771716D01*
X132680772Y-108086565D01*
X132157193Y-108303438D01*
X132157192Y-108303438D01*
X132157190Y-108303439D01*
X131601360Y-108414000D01*
X131034640Y-108414000D01*
X130478810Y-108303439D01*
X130478808Y-108303438D01*
X130478807Y-108303438D01*
X129955228Y-108086565D01*
X129484024Y-107771716D01*
X129484022Y-107771714D01*
X129484019Y-107771712D01*
X129083288Y-107370981D01*
X129083286Y-107370978D01*
X129083284Y-107370976D01*
X128768435Y-106899772D01*
X128551562Y-106376193D01*
X128441000Y-105820359D01*
X128441000Y-105253641D01*
X128551562Y-104697807D01*
X128768435Y-104174228D01*
X129083284Y-103703024D01*
X129083286Y-103703022D01*
X129083288Y-103703019D01*
X129484019Y-103302288D01*
X129484022Y-103302286D01*
X129484024Y-103302284D01*
X129955228Y-102987435D01*
X130478807Y-102770562D01*
X130478808Y-102770562D01*
X130478810Y-102770561D01*
X131034640Y-102660000D01*
X131601360Y-102660000D01*
X132157190Y-102770561D01*
X132157190Y-102770561D01*
G37*
G36*
X41987190Y-102770561D02*
G01*
X41987192Y-102770562D01*
X41987193Y-102770562D01*
X42510772Y-102987435D01*
X42981976Y-103302284D01*
X42981978Y-103302286D01*
X42981981Y-103302288D01*
X43382712Y-103703019D01*
X43382714Y-103703022D01*
X43382716Y-103703024D01*
X43697565Y-104174228D01*
X43914438Y-104697807D01*
X44025000Y-105253641D01*
X44025000Y-105820359D01*
X43914438Y-106376193D01*
X43697565Y-106899772D01*
X43382716Y-107370976D01*
X43382714Y-107370978D01*
X43382712Y-107370981D01*
X42981981Y-107771712D01*
X42981978Y-107771714D01*
X42981976Y-107771716D01*
X42510772Y-108086565D01*
X41987193Y-108303438D01*
X41987192Y-108303438D01*
X41987190Y-108303439D01*
X41431360Y-108414000D01*
X40864640Y-108414000D01*
X40308810Y-108303439D01*
X40308808Y-108303438D01*
X40308807Y-108303438D01*
X39785228Y-108086565D01*
X39314024Y-107771716D01*
X39314022Y-107771714D01*
X39314019Y-107771712D01*
X38913288Y-107370981D01*
X38913286Y-107370978D01*
X38913284Y-107370976D01*
X38598435Y-106899772D01*
X38381562Y-106376193D01*
X38271000Y-105820359D01*
X38271000Y-105253641D01*
X38381562Y-104697807D01*
X38598435Y-104174228D01*
X38913284Y-103703024D01*
X38913286Y-103703022D01*
X38913288Y-103703019D01*
X39314019Y-103302288D01*
X39314022Y-103302286D01*
X39314024Y-103302284D01*
X39785228Y-102987435D01*
X40308807Y-102770562D01*
X40308808Y-102770562D01*
X40308810Y-102770561D01*
X40864640Y-102660000D01*
X41431360Y-102660000D01*
X41987190Y-102770561D01*
X41987190Y-102770561D01*
G37*
G36*
X88088190Y-90451561D02*
G01*
X88088192Y-90451562D01*
X88088193Y-90451562D01*
X88611772Y-90668435D01*
X89082976Y-90983284D01*
X89082978Y-90983286D01*
X89082981Y-90983288D01*
X89483712Y-91384019D01*
X89483714Y-91384022D01*
X89483716Y-91384024D01*
X89798565Y-91855228D01*
X89992488Y-92323401D01*
X90015439Y-92378810D01*
X90126000Y-92934640D01*
X90126000Y-93501360D01*
X90047868Y-93894159D01*
X90015438Y-94057193D01*
X89798565Y-94580772D01*
X89483716Y-95051976D01*
X89483714Y-95051978D01*
X89483712Y-95051981D01*
X89082981Y-95452712D01*
X89082978Y-95452714D01*
X89082976Y-95452716D01*
X88611772Y-95767565D01*
X88088193Y-95984438D01*
X88088192Y-95984438D01*
X88088190Y-95984439D01*
X87532360Y-96095000D01*
X86965640Y-96095000D01*
X86409810Y-95984439D01*
X86409808Y-95984438D01*
X86409807Y-95984438D01*
X85886228Y-95767565D01*
X85415024Y-95452716D01*
X85415022Y-95452714D01*
X85415019Y-95452712D01*
X85014288Y-95051981D01*
X85014286Y-95051978D01*
X85014284Y-95051976D01*
X84699435Y-94580772D01*
X84482562Y-94057193D01*
X84450133Y-93894159D01*
X84372000Y-93501360D01*
X84372000Y-92934640D01*
X84482561Y-92378810D01*
X84505512Y-92323401D01*
X84699435Y-91855228D01*
X85014284Y-91384024D01*
X85014286Y-91384022D01*
X85014288Y-91384019D01*
X85415019Y-90983288D01*
X85415022Y-90983286D01*
X85415024Y-90983284D01*
X85886228Y-90668435D01*
X86409807Y-90451562D01*
X86409808Y-90451562D01*
X86409810Y-90451561D01*
X86965640Y-90341000D01*
X87532360Y-90341000D01*
X88088190Y-90451561D01*
X88088190Y-90451561D01*
G37*
G36*
X97655931Y-92154307D02*
G01*
X97868371Y-92218750D01*
X97868374Y-92218751D01*
X98064159Y-92323401D01*
X98235766Y-92464234D01*
X98376599Y-92635841D01*
X98481249Y-92831626D01*
X98481250Y-92831629D01*
X98545693Y-93044069D01*
X98567453Y-93265000D01*
X98545693Y-93485931D01*
X98481250Y-93698371D01*
X98481249Y-93698374D01*
X98376599Y-93894159D01*
X98235766Y-94065766D01*
X98064159Y-94206599D01*
X97868374Y-94311249D01*
X97868371Y-94311250D01*
X97655931Y-94375693D01*
X97490365Y-94392000D01*
X97379635Y-94392000D01*
X97214069Y-94375693D01*
X97001629Y-94311250D01*
X97001626Y-94311249D01*
X96805841Y-94206599D01*
X96634234Y-94065766D01*
X96493401Y-93894159D01*
X96388751Y-93698374D01*
X96388750Y-93698371D01*
X96324307Y-93485931D01*
X96302547Y-93265000D01*
X96324307Y-93044069D01*
X96388750Y-92831629D01*
X96388751Y-92831626D01*
X96493401Y-92635841D01*
X96634234Y-92464234D01*
X96805841Y-92323401D01*
X97001626Y-92218751D01*
X97001629Y-92218750D01*
X97214069Y-92154307D01*
X97379635Y-92138000D01*
X97490365Y-92138000D01*
X97655931Y-92154307D01*
X97655931Y-92154307D01*
G37*
G36*
X125655931Y-92154307D02*
G01*
X125868371Y-92218750D01*
X125868374Y-92218751D01*
X126064159Y-92323401D01*
X126235766Y-92464234D01*
X126376599Y-92635841D01*
X126481249Y-92831626D01*
X126481250Y-92831629D01*
X126545693Y-93044069D01*
X126567453Y-93265000D01*
X126545693Y-93485931D01*
X126481250Y-93698371D01*
X126481249Y-93698374D01*
X126376599Y-93894159D01*
X126235766Y-94065766D01*
X126064159Y-94206599D01*
X125868374Y-94311249D01*
X125868371Y-94311250D01*
X125655931Y-94375693D01*
X125490365Y-94392000D01*
X125379635Y-94392000D01*
X125214069Y-94375693D01*
X125001629Y-94311250D01*
X125001626Y-94311249D01*
X124805841Y-94206599D01*
X124634234Y-94065766D01*
X124493401Y-93894159D01*
X124388751Y-93698374D01*
X124388750Y-93698371D01*
X124324307Y-93485931D01*
X124302547Y-93265000D01*
X124324307Y-93044069D01*
X124388750Y-92831629D01*
X124388751Y-92831626D01*
X124493401Y-92635841D01*
X124634234Y-92464234D01*
X124805841Y-92323401D01*
X125001626Y-92218751D01*
X125001629Y-92218750D01*
X125214069Y-92154307D01*
X125379635Y-92138000D01*
X125490365Y-92138000D01*
X125655931Y-92154307D01*
X125655931Y-92154307D01*
G37*
G36*
X111655931Y-92154307D02*
G01*
X111868371Y-92218750D01*
X111868374Y-92218751D01*
X112064159Y-92323401D01*
X112235766Y-92464234D01*
X112376599Y-92635841D01*
X112481249Y-92831626D01*
X112481250Y-92831629D01*
X112545693Y-93044069D01*
X112567453Y-93265000D01*
X112545693Y-93485931D01*
X112481250Y-93698371D01*
X112481249Y-93698374D01*
X112376599Y-93894159D01*
X112235766Y-94065766D01*
X112064159Y-94206599D01*
X111868374Y-94311249D01*
X111868371Y-94311250D01*
X111655931Y-94375693D01*
X111490365Y-94392000D01*
X111379635Y-94392000D01*
X111214069Y-94375693D01*
X111001629Y-94311250D01*
X111001626Y-94311249D01*
X110805841Y-94206599D01*
X110634234Y-94065766D01*
X110493401Y-93894159D01*
X110388751Y-93698374D01*
X110388750Y-93698371D01*
X110324307Y-93485931D01*
X110302547Y-93265000D01*
X110324307Y-93044069D01*
X110388750Y-92831629D01*
X110388751Y-92831626D01*
X110493401Y-92635841D01*
X110634234Y-92464234D01*
X110805841Y-92323401D01*
X111001626Y-92218751D01*
X111001629Y-92218750D01*
X111214069Y-92154307D01*
X111379635Y-92138000D01*
X111490365Y-92138000D01*
X111655931Y-92154307D01*
X111655931Y-92154307D01*
G37*
G36*
X104655931Y-92154307D02*
G01*
X104868371Y-92218750D01*
X104868374Y-92218751D01*
X105064159Y-92323401D01*
X105235766Y-92464234D01*
X105376599Y-92635841D01*
X105481249Y-92831626D01*
X105481250Y-92831629D01*
X105545693Y-93044069D01*
X105567453Y-93265000D01*
X105545693Y-93485931D01*
X105481250Y-93698371D01*
X105481249Y-93698374D01*
X105376599Y-93894159D01*
X105235766Y-94065766D01*
X105064159Y-94206599D01*
X104868374Y-94311249D01*
X104868371Y-94311250D01*
X104655931Y-94375693D01*
X104490365Y-94392000D01*
X104379635Y-94392000D01*
X104214069Y-94375693D01*
X104001629Y-94311250D01*
X104001626Y-94311249D01*
X103805841Y-94206599D01*
X103634234Y-94065766D01*
X103493401Y-93894159D01*
X103388751Y-93698374D01*
X103388750Y-93698371D01*
X103324307Y-93485931D01*
X103302547Y-93265000D01*
X103324307Y-93044069D01*
X103388750Y-92831629D01*
X103388751Y-92831626D01*
X103493401Y-92635841D01*
X103634234Y-92464234D01*
X103805841Y-92323401D01*
X104001626Y-92218751D01*
X104001629Y-92218750D01*
X104214069Y-92154307D01*
X104379635Y-92138000D01*
X104490365Y-92138000D01*
X104655931Y-92154307D01*
X104655931Y-92154307D01*
G37*
G36*
X44950931Y-92154307D02*
G01*
X45163371Y-92218750D01*
X45163374Y-92218751D01*
X45359159Y-92323401D01*
X45530766Y-92464234D01*
X45671599Y-92635841D01*
X45776249Y-92831626D01*
X45776250Y-92831629D01*
X45840693Y-93044069D01*
X45862453Y-93265000D01*
X45840693Y-93485931D01*
X45776250Y-93698371D01*
X45776249Y-93698374D01*
X45671599Y-93894159D01*
X45530766Y-94065766D01*
X45359159Y-94206599D01*
X45163374Y-94311249D01*
X45163371Y-94311250D01*
X44950931Y-94375693D01*
X44785365Y-94392000D01*
X44674635Y-94392000D01*
X44509069Y-94375693D01*
X44296629Y-94311250D01*
X44296626Y-94311249D01*
X44100841Y-94206599D01*
X43929234Y-94065766D01*
X43788401Y-93894159D01*
X43683751Y-93698374D01*
X43683750Y-93698371D01*
X43619307Y-93485931D01*
X43597547Y-93265000D01*
X43619307Y-93044069D01*
X43683750Y-92831629D01*
X43683751Y-92831626D01*
X43788401Y-92635841D01*
X43929234Y-92464234D01*
X44100841Y-92323401D01*
X44296626Y-92218751D01*
X44296629Y-92218750D01*
X44509069Y-92154307D01*
X44674635Y-92138000D01*
X44785365Y-92138000D01*
X44950931Y-92154307D01*
X44950931Y-92154307D01*
G37*
G36*
X51950931Y-92154307D02*
G01*
X52163371Y-92218750D01*
X52163374Y-92218751D01*
X52359159Y-92323401D01*
X52530766Y-92464234D01*
X52671599Y-92635841D01*
X52776249Y-92831626D01*
X52776250Y-92831629D01*
X52840693Y-93044069D01*
X52862453Y-93265000D01*
X52840693Y-93485931D01*
X52776250Y-93698371D01*
X52776249Y-93698374D01*
X52671599Y-93894159D01*
X52530766Y-94065766D01*
X52359159Y-94206599D01*
X52163374Y-94311249D01*
X52163371Y-94311250D01*
X51950931Y-94375693D01*
X51785365Y-94392000D01*
X51674635Y-94392000D01*
X51509069Y-94375693D01*
X51296629Y-94311250D01*
X51296626Y-94311249D01*
X51100841Y-94206599D01*
X50929234Y-94065766D01*
X50788401Y-93894159D01*
X50683751Y-93698374D01*
X50683750Y-93698371D01*
X50619307Y-93485931D01*
X50597547Y-93265000D01*
X50619307Y-93044069D01*
X50683750Y-92831629D01*
X50683751Y-92831626D01*
X50788401Y-92635841D01*
X50929234Y-92464234D01*
X51100841Y-92323401D01*
X51296626Y-92218751D01*
X51296629Y-92218750D01*
X51509069Y-92154307D01*
X51674635Y-92138000D01*
X51785365Y-92138000D01*
X51950931Y-92154307D01*
X51950931Y-92154307D01*
G37*
G36*
X58950931Y-92154307D02*
G01*
X59163371Y-92218750D01*
X59163374Y-92218751D01*
X59359159Y-92323401D01*
X59530766Y-92464234D01*
X59671599Y-92635841D01*
X59776249Y-92831626D01*
X59776250Y-92831629D01*
X59840693Y-93044069D01*
X59862453Y-93265000D01*
X59840693Y-93485931D01*
X59776250Y-93698371D01*
X59776249Y-93698374D01*
X59671599Y-93894159D01*
X59530766Y-94065766D01*
X59359159Y-94206599D01*
X59163374Y-94311249D01*
X59163371Y-94311250D01*
X58950931Y-94375693D01*
X58785365Y-94392000D01*
X58674635Y-94392000D01*
X58509069Y-94375693D01*
X58296629Y-94311250D01*
X58296626Y-94311249D01*
X58100841Y-94206599D01*
X57929234Y-94065766D01*
X57788401Y-93894159D01*
X57683751Y-93698374D01*
X57683750Y-93698371D01*
X57619307Y-93485931D01*
X57597547Y-93265000D01*
X57619307Y-93044069D01*
X57683750Y-92831629D01*
X57683751Y-92831626D01*
X57788401Y-92635841D01*
X57929234Y-92464234D01*
X58100841Y-92323401D01*
X58296626Y-92218751D01*
X58296629Y-92218750D01*
X58509069Y-92154307D01*
X58674635Y-92138000D01*
X58785365Y-92138000D01*
X58950931Y-92154307D01*
X58950931Y-92154307D01*
G37*
G36*
X65950931Y-92154307D02*
G01*
X66163371Y-92218750D01*
X66163374Y-92218751D01*
X66359159Y-92323401D01*
X66530766Y-92464234D01*
X66671599Y-92635841D01*
X66776249Y-92831626D01*
X66776250Y-92831629D01*
X66840693Y-93044069D01*
X66862453Y-93265000D01*
X66840693Y-93485931D01*
X66776250Y-93698371D01*
X66776249Y-93698374D01*
X66671599Y-93894159D01*
X66530766Y-94065766D01*
X66359159Y-94206599D01*
X66163374Y-94311249D01*
X66163371Y-94311250D01*
X65950931Y-94375693D01*
X65785365Y-94392000D01*
X65674635Y-94392000D01*
X65509069Y-94375693D01*
X65296629Y-94311250D01*
X65296626Y-94311249D01*
X65100841Y-94206599D01*
X64929234Y-94065766D01*
X64788401Y-93894159D01*
X64683751Y-93698374D01*
X64683750Y-93698371D01*
X64619307Y-93485931D01*
X64597547Y-93265000D01*
X64619307Y-93044069D01*
X64683750Y-92831629D01*
X64683751Y-92831626D01*
X64788401Y-92635841D01*
X64929234Y-92464234D01*
X65100841Y-92323401D01*
X65296626Y-92218751D01*
X65296629Y-92218750D01*
X65509069Y-92154307D01*
X65674635Y-92138000D01*
X65785365Y-92138000D01*
X65950931Y-92154307D01*
X65950931Y-92154307D01*
G37*
G36*
X72950931Y-92154307D02*
G01*
X73163371Y-92218750D01*
X73163374Y-92218751D01*
X73359159Y-92323401D01*
X73530766Y-92464234D01*
X73671599Y-92635841D01*
X73776249Y-92831626D01*
X73776250Y-92831629D01*
X73840693Y-93044069D01*
X73862453Y-93265000D01*
X73840693Y-93485931D01*
X73776250Y-93698371D01*
X73776249Y-93698374D01*
X73671599Y-93894159D01*
X73530766Y-94065766D01*
X73359159Y-94206599D01*
X73163374Y-94311249D01*
X73163371Y-94311250D01*
X72950931Y-94375693D01*
X72785365Y-94392000D01*
X72674635Y-94392000D01*
X72509069Y-94375693D01*
X72296629Y-94311250D01*
X72296626Y-94311249D01*
X72100841Y-94206599D01*
X71929234Y-94065766D01*
X71788401Y-93894159D01*
X71683751Y-93698374D01*
X71683750Y-93698371D01*
X71619307Y-93485931D01*
X71597547Y-93265000D01*
X71619307Y-93044069D01*
X71683750Y-92831629D01*
X71683751Y-92831626D01*
X71788401Y-92635841D01*
X71929234Y-92464234D01*
X72100841Y-92323401D01*
X72296626Y-92218751D01*
X72296629Y-92218750D01*
X72509069Y-92154307D01*
X72674635Y-92138000D01*
X72785365Y-92138000D01*
X72950931Y-92154307D01*
X72950931Y-92154307D01*
G37*
G36*
X118655931Y-92154307D02*
G01*
X118868371Y-92218750D01*
X118868374Y-92218751D01*
X119064159Y-92323401D01*
X119235766Y-92464234D01*
X119376599Y-92635841D01*
X119481249Y-92831626D01*
X119481250Y-92831629D01*
X119545693Y-93044069D01*
X119567453Y-93265000D01*
X119545693Y-93485931D01*
X119481250Y-93698371D01*
X119481249Y-93698374D01*
X119376599Y-93894159D01*
X119235766Y-94065766D01*
X119064159Y-94206599D01*
X118868374Y-94311249D01*
X118868371Y-94311250D01*
X118655931Y-94375693D01*
X118490365Y-94392000D01*
X118379635Y-94392000D01*
X118214069Y-94375693D01*
X118001629Y-94311250D01*
X118001626Y-94311249D01*
X117805841Y-94206599D01*
X117634234Y-94065766D01*
X117493401Y-93894159D01*
X117388751Y-93698374D01*
X117388750Y-93698371D01*
X117324307Y-93485931D01*
X117302547Y-93265000D01*
X117324307Y-93044069D01*
X117388750Y-92831629D01*
X117388751Y-92831626D01*
X117493401Y-92635841D01*
X117634234Y-92464234D01*
X117805841Y-92323401D01*
X118001626Y-92218751D01*
X118001629Y-92218750D01*
X118214069Y-92154307D01*
X118379635Y-92138000D01*
X118490365Y-92138000D01*
X118655931Y-92154307D01*
X118655931Y-92154307D01*
G37*
G36*
X48450931Y-87154307D02*
G01*
X48663371Y-87218750D01*
X48663374Y-87218751D01*
X48859159Y-87323401D01*
X49030766Y-87464234D01*
X49171599Y-87635841D01*
X49276249Y-87831626D01*
X49276250Y-87831629D01*
X49340693Y-88044069D01*
X49362453Y-88265000D01*
X49340693Y-88485931D01*
X49276250Y-88698371D01*
X49276249Y-88698374D01*
X49171599Y-88894159D01*
X49030766Y-89065766D01*
X48859159Y-89206599D01*
X48663374Y-89311249D01*
X48663371Y-89311250D01*
X48450931Y-89375693D01*
X48285365Y-89392000D01*
X48174635Y-89392000D01*
X48009069Y-89375693D01*
X47796629Y-89311250D01*
X47796626Y-89311249D01*
X47600841Y-89206599D01*
X47429234Y-89065766D01*
X47288401Y-88894159D01*
X47183751Y-88698374D01*
X47183750Y-88698371D01*
X47119307Y-88485931D01*
X47097547Y-88265000D01*
X47119307Y-88044069D01*
X47183750Y-87831629D01*
X47183751Y-87831626D01*
X47288401Y-87635841D01*
X47429234Y-87464234D01*
X47600841Y-87323401D01*
X47796626Y-87218751D01*
X47796629Y-87218750D01*
X48009069Y-87154307D01*
X48174635Y-87138000D01*
X48285365Y-87138000D01*
X48450931Y-87154307D01*
X48450931Y-87154307D01*
G37*
G36*
X76450931Y-87154307D02*
G01*
X76663371Y-87218750D01*
X76663374Y-87218751D01*
X76859159Y-87323401D01*
X77030766Y-87464234D01*
X77171599Y-87635841D01*
X77276249Y-87831626D01*
X77276250Y-87831629D01*
X77340693Y-88044069D01*
X77362453Y-88265000D01*
X77340693Y-88485931D01*
X77276250Y-88698371D01*
X77276249Y-88698374D01*
X77171599Y-88894159D01*
X77030766Y-89065766D01*
X76859159Y-89206599D01*
X76663374Y-89311249D01*
X76663371Y-89311250D01*
X76450931Y-89375693D01*
X76285365Y-89392000D01*
X76174635Y-89392000D01*
X76009069Y-89375693D01*
X75796629Y-89311250D01*
X75796626Y-89311249D01*
X75600841Y-89206599D01*
X75429234Y-89065766D01*
X75288401Y-88894159D01*
X75183751Y-88698374D01*
X75183750Y-88698371D01*
X75119307Y-88485931D01*
X75097547Y-88265000D01*
X75119307Y-88044069D01*
X75183750Y-87831629D01*
X75183751Y-87831626D01*
X75288401Y-87635841D01*
X75429234Y-87464234D01*
X75600841Y-87323401D01*
X75796626Y-87218751D01*
X75796629Y-87218750D01*
X76009069Y-87154307D01*
X76174635Y-87138000D01*
X76285365Y-87138000D01*
X76450931Y-87154307D01*
X76450931Y-87154307D01*
G37*
G36*
X62450931Y-87154307D02*
G01*
X62663371Y-87218750D01*
X62663374Y-87218751D01*
X62859159Y-87323401D01*
X63030766Y-87464234D01*
X63171599Y-87635841D01*
X63276249Y-87831626D01*
X63276250Y-87831629D01*
X63340693Y-88044069D01*
X63362453Y-88265000D01*
X63340693Y-88485931D01*
X63276250Y-88698371D01*
X63276249Y-88698374D01*
X63171599Y-88894159D01*
X63030766Y-89065766D01*
X62859159Y-89206599D01*
X62663374Y-89311249D01*
X62663371Y-89311250D01*
X62450931Y-89375693D01*
X62285365Y-89392000D01*
X62174635Y-89392000D01*
X62009069Y-89375693D01*
X61796629Y-89311250D01*
X61796626Y-89311249D01*
X61600841Y-89206599D01*
X61429234Y-89065766D01*
X61288401Y-88894159D01*
X61183751Y-88698374D01*
X61183750Y-88698371D01*
X61119307Y-88485931D01*
X61097547Y-88265000D01*
X61119307Y-88044069D01*
X61183750Y-87831629D01*
X61183751Y-87831626D01*
X61288401Y-87635841D01*
X61429234Y-87464234D01*
X61600841Y-87323401D01*
X61796626Y-87218751D01*
X61796629Y-87218750D01*
X62009069Y-87154307D01*
X62174635Y-87138000D01*
X62285365Y-87138000D01*
X62450931Y-87154307D01*
X62450931Y-87154307D01*
G37*
G36*
X55450931Y-87154307D02*
G01*
X55663371Y-87218750D01*
X55663374Y-87218751D01*
X55859159Y-87323401D01*
X56030766Y-87464234D01*
X56171599Y-87635841D01*
X56276249Y-87831626D01*
X56276250Y-87831629D01*
X56340693Y-88044069D01*
X56362453Y-88265000D01*
X56340693Y-88485931D01*
X56276250Y-88698371D01*
X56276249Y-88698374D01*
X56171599Y-88894159D01*
X56030766Y-89065766D01*
X55859159Y-89206599D01*
X55663374Y-89311249D01*
X55663371Y-89311250D01*
X55450931Y-89375693D01*
X55285365Y-89392000D01*
X55174635Y-89392000D01*
X55009069Y-89375693D01*
X54796629Y-89311250D01*
X54796626Y-89311249D01*
X54600841Y-89206599D01*
X54429234Y-89065766D01*
X54288401Y-88894159D01*
X54183751Y-88698374D01*
X54183750Y-88698371D01*
X54119307Y-88485931D01*
X54097547Y-88265000D01*
X54119307Y-88044069D01*
X54183750Y-87831629D01*
X54183751Y-87831626D01*
X54288401Y-87635841D01*
X54429234Y-87464234D01*
X54600841Y-87323401D01*
X54796626Y-87218751D01*
X54796629Y-87218750D01*
X55009069Y-87154307D01*
X55174635Y-87138000D01*
X55285365Y-87138000D01*
X55450931Y-87154307D01*
X55450931Y-87154307D01*
G37*
G36*
X115155931Y-87154307D02*
G01*
X115368371Y-87218750D01*
X115368374Y-87218751D01*
X115564159Y-87323401D01*
X115735766Y-87464234D01*
X115876599Y-87635841D01*
X115981249Y-87831626D01*
X115981250Y-87831629D01*
X116045693Y-88044069D01*
X116067453Y-88265000D01*
X116045693Y-88485931D01*
X115981250Y-88698371D01*
X115981249Y-88698374D01*
X115876599Y-88894159D01*
X115735766Y-89065766D01*
X115564159Y-89206599D01*
X115368374Y-89311249D01*
X115368371Y-89311250D01*
X115155931Y-89375693D01*
X114990365Y-89392000D01*
X114879635Y-89392000D01*
X114714069Y-89375693D01*
X114501629Y-89311250D01*
X114501626Y-89311249D01*
X114305841Y-89206599D01*
X114134234Y-89065766D01*
X113993401Y-88894159D01*
X113888751Y-88698374D01*
X113888750Y-88698371D01*
X113824307Y-88485931D01*
X113802547Y-88265000D01*
X113824307Y-88044069D01*
X113888750Y-87831629D01*
X113888751Y-87831626D01*
X113993401Y-87635841D01*
X114134234Y-87464234D01*
X114305841Y-87323401D01*
X114501626Y-87218751D01*
X114501629Y-87218750D01*
X114714069Y-87154307D01*
X114879635Y-87138000D01*
X114990365Y-87138000D01*
X115155931Y-87154307D01*
X115155931Y-87154307D01*
G37*
G36*
X69450931Y-87154307D02*
G01*
X69663371Y-87218750D01*
X69663374Y-87218751D01*
X69859159Y-87323401D01*
X70030766Y-87464234D01*
X70171599Y-87635841D01*
X70276249Y-87831626D01*
X70276250Y-87831629D01*
X70340693Y-88044069D01*
X70362453Y-88265000D01*
X70340693Y-88485931D01*
X70276250Y-88698371D01*
X70276249Y-88698374D01*
X70171599Y-88894159D01*
X70030766Y-89065766D01*
X69859159Y-89206599D01*
X69663374Y-89311249D01*
X69663371Y-89311250D01*
X69450931Y-89375693D01*
X69285365Y-89392000D01*
X69174635Y-89392000D01*
X69009069Y-89375693D01*
X68796629Y-89311250D01*
X68796626Y-89311249D01*
X68600841Y-89206599D01*
X68429234Y-89065766D01*
X68288401Y-88894159D01*
X68183751Y-88698374D01*
X68183750Y-88698371D01*
X68119307Y-88485931D01*
X68097547Y-88265000D01*
X68119307Y-88044069D01*
X68183750Y-87831629D01*
X68183751Y-87831626D01*
X68288401Y-87635841D01*
X68429234Y-87464234D01*
X68600841Y-87323401D01*
X68796626Y-87218751D01*
X68796629Y-87218750D01*
X69009069Y-87154307D01*
X69174635Y-87138000D01*
X69285365Y-87138000D01*
X69450931Y-87154307D01*
X69450931Y-87154307D01*
G37*
G36*
X129155931Y-87154307D02*
G01*
X129368371Y-87218750D01*
X129368374Y-87218751D01*
X129564159Y-87323401D01*
X129735766Y-87464234D01*
X129876599Y-87635841D01*
X129981249Y-87831626D01*
X129981250Y-87831629D01*
X130045693Y-88044069D01*
X130067453Y-88265000D01*
X130045693Y-88485931D01*
X129981250Y-88698371D01*
X129981249Y-88698374D01*
X129876599Y-88894159D01*
X129735766Y-89065766D01*
X129564159Y-89206599D01*
X129368374Y-89311249D01*
X129368371Y-89311250D01*
X129155931Y-89375693D01*
X128990365Y-89392000D01*
X128879635Y-89392000D01*
X128714069Y-89375693D01*
X128501629Y-89311250D01*
X128501626Y-89311249D01*
X128305841Y-89206599D01*
X128134234Y-89065766D01*
X127993401Y-88894159D01*
X127888751Y-88698374D01*
X127888750Y-88698371D01*
X127824307Y-88485931D01*
X127802547Y-88265000D01*
X127824307Y-88044069D01*
X127888750Y-87831629D01*
X127888751Y-87831626D01*
X127993401Y-87635841D01*
X128134234Y-87464234D01*
X128305841Y-87323401D01*
X128501626Y-87218751D01*
X128501629Y-87218750D01*
X128714069Y-87154307D01*
X128879635Y-87138000D01*
X128990365Y-87138000D01*
X129155931Y-87154307D01*
X129155931Y-87154307D01*
G37*
G36*
X101155931Y-87154307D02*
G01*
X101368371Y-87218750D01*
X101368374Y-87218751D01*
X101564159Y-87323401D01*
X101735766Y-87464234D01*
X101876599Y-87635841D01*
X101981249Y-87831626D01*
X101981250Y-87831629D01*
X102045693Y-88044069D01*
X102067453Y-88265000D01*
X102045693Y-88485931D01*
X101981250Y-88698371D01*
X101981249Y-88698374D01*
X101876599Y-88894159D01*
X101735766Y-89065766D01*
X101564159Y-89206599D01*
X101368374Y-89311249D01*
X101368371Y-89311250D01*
X101155931Y-89375693D01*
X100990365Y-89392000D01*
X100879635Y-89392000D01*
X100714069Y-89375693D01*
X100501629Y-89311250D01*
X100501626Y-89311249D01*
X100305841Y-89206599D01*
X100134234Y-89065766D01*
X99993401Y-88894159D01*
X99888751Y-88698374D01*
X99888750Y-88698371D01*
X99824307Y-88485931D01*
X99802547Y-88265000D01*
X99824307Y-88044069D01*
X99888750Y-87831629D01*
X99888751Y-87831626D01*
X99993401Y-87635841D01*
X100134234Y-87464234D01*
X100305841Y-87323401D01*
X100501626Y-87218751D01*
X100501629Y-87218750D01*
X100714069Y-87154307D01*
X100879635Y-87138000D01*
X100990365Y-87138000D01*
X101155931Y-87154307D01*
X101155931Y-87154307D01*
G37*
G36*
X108155931Y-87154307D02*
G01*
X108368371Y-87218750D01*
X108368374Y-87218751D01*
X108564159Y-87323401D01*
X108735766Y-87464234D01*
X108876599Y-87635841D01*
X108981249Y-87831626D01*
X108981250Y-87831629D01*
X109045693Y-88044069D01*
X109067453Y-88265000D01*
X109045693Y-88485931D01*
X108981250Y-88698371D01*
X108981249Y-88698374D01*
X108876599Y-88894159D01*
X108735766Y-89065766D01*
X108564159Y-89206599D01*
X108368374Y-89311249D01*
X108368371Y-89311250D01*
X108155931Y-89375693D01*
X107990365Y-89392000D01*
X107879635Y-89392000D01*
X107714069Y-89375693D01*
X107501629Y-89311250D01*
X107501626Y-89311249D01*
X107305841Y-89206599D01*
X107134234Y-89065766D01*
X106993401Y-88894159D01*
X106888751Y-88698374D01*
X106888750Y-88698371D01*
X106824307Y-88485931D01*
X106802547Y-88265000D01*
X106824307Y-88044069D01*
X106888750Y-87831629D01*
X106888751Y-87831626D01*
X106993401Y-87635841D01*
X107134234Y-87464234D01*
X107305841Y-87323401D01*
X107501626Y-87218751D01*
X107501629Y-87218750D01*
X107714069Y-87154307D01*
X107879635Y-87138000D01*
X107990365Y-87138000D01*
X108155931Y-87154307D01*
X108155931Y-87154307D01*
G37*
G36*
X122155931Y-87154307D02*
G01*
X122368371Y-87218750D01*
X122368374Y-87218751D01*
X122564159Y-87323401D01*
X122735766Y-87464234D01*
X122876599Y-87635841D01*
X122981249Y-87831626D01*
X122981250Y-87831629D01*
X123045693Y-88044069D01*
X123067453Y-88265000D01*
X123045693Y-88485931D01*
X122981250Y-88698371D01*
X122981249Y-88698374D01*
X122876599Y-88894159D01*
X122735766Y-89065766D01*
X122564159Y-89206599D01*
X122368374Y-89311249D01*
X122368371Y-89311250D01*
X122155931Y-89375693D01*
X121990365Y-89392000D01*
X121879635Y-89392000D01*
X121714069Y-89375693D01*
X121501629Y-89311250D01*
X121501626Y-89311249D01*
X121305841Y-89206599D01*
X121134234Y-89065766D01*
X120993401Y-88894159D01*
X120888751Y-88698374D01*
X120888750Y-88698371D01*
X120824307Y-88485931D01*
X120802547Y-88265000D01*
X120824307Y-88044069D01*
X120888750Y-87831629D01*
X120888751Y-87831626D01*
X120993401Y-87635841D01*
X121134234Y-87464234D01*
X121305841Y-87323401D01*
X121501626Y-87218751D01*
X121501629Y-87218750D01*
X121714069Y-87154307D01*
X121879635Y-87138000D01*
X121990365Y-87138000D01*
X122155931Y-87154307D01*
X122155931Y-87154307D01*
G37*
G36*
X101781724Y-61951413D02*
G01*
X101956464Y-62004420D01*
X101956466Y-62004421D01*
X102117507Y-62090500D01*
X102258660Y-62206340D01*
X102374500Y-62347493D01*
X102374501Y-62347495D01*
X102460580Y-62508536D01*
X102513587Y-62683276D01*
X102531485Y-62865000D01*
X102513587Y-63046724D01*
X102460580Y-63221464D01*
X102460579Y-63221466D01*
X102374500Y-63382507D01*
X102258660Y-63523660D01*
X102117507Y-63639500D01*
X102117505Y-63639501D01*
X101956464Y-63725580D01*
X101781724Y-63778587D01*
X101645538Y-63792000D01*
X101554462Y-63792000D01*
X101418276Y-63778587D01*
X101243536Y-63725580D01*
X101082495Y-63639501D01*
X101082493Y-63639500D01*
X100941340Y-63523660D01*
X100825500Y-63382507D01*
X100739421Y-63221466D01*
X100739420Y-63221464D01*
X100686413Y-63046724D01*
X100668515Y-62865000D01*
X100686413Y-62683276D01*
X100739420Y-62508536D01*
X100825499Y-62347495D01*
X100825500Y-62347493D01*
X100941340Y-62206340D01*
X101082493Y-62090500D01*
X101243534Y-62004421D01*
X101243536Y-62004420D01*
X101418276Y-61951413D01*
X101554462Y-61938000D01*
X101645538Y-61938000D01*
X101781724Y-61951413D01*
X101781724Y-61951413D01*
G37*
G36*
X73206724Y-61951413D02*
G01*
X73381464Y-62004420D01*
X73381466Y-62004421D01*
X73542507Y-62090500D01*
X73683660Y-62206340D01*
X73799500Y-62347493D01*
X73799501Y-62347495D01*
X73885580Y-62508536D01*
X73938587Y-62683276D01*
X73956485Y-62865000D01*
X73938587Y-63046724D01*
X73885580Y-63221464D01*
X73885579Y-63221466D01*
X73799500Y-63382507D01*
X73683660Y-63523660D01*
X73542507Y-63639500D01*
X73542505Y-63639501D01*
X73381464Y-63725580D01*
X73206724Y-63778587D01*
X73070538Y-63792000D01*
X72979462Y-63792000D01*
X72843276Y-63778587D01*
X72668536Y-63725580D01*
X72507495Y-63639501D01*
X72507493Y-63639500D01*
X72366340Y-63523660D01*
X72250500Y-63382507D01*
X72164421Y-63221466D01*
X72164420Y-63221464D01*
X72111413Y-63046724D01*
X72093515Y-62865000D01*
X72111413Y-62683276D01*
X72164420Y-62508536D01*
X72250499Y-62347495D01*
X72250500Y-62347493D01*
X72366340Y-62206340D01*
X72507493Y-62090500D01*
X72668534Y-62004421D01*
X72668536Y-62004420D01*
X72843276Y-61951413D01*
X72979462Y-61938000D01*
X73070538Y-61938000D01*
X73206724Y-61951413D01*
X73206724Y-61951413D01*
G37*
G36*
X77127000Y-63792000D02*
G01*
X75273000Y-63792000D01*
X75273000Y-61938000D01*
X77127000Y-61938000D01*
X77127000Y-63792000D01*
X77127000Y-63792000D01*
G37*
G36*
X78921724Y-61951413D02*
G01*
X79096464Y-62004420D01*
X79096466Y-62004421D01*
X79257507Y-62090500D01*
X79398660Y-62206340D01*
X79514500Y-62347493D01*
X79514501Y-62347495D01*
X79600580Y-62508536D01*
X79653587Y-62683276D01*
X79671485Y-62865000D01*
X79653587Y-63046724D01*
X79600580Y-63221464D01*
X79600579Y-63221466D01*
X79514500Y-63382507D01*
X79398660Y-63523660D01*
X79257507Y-63639500D01*
X79257505Y-63639501D01*
X79096464Y-63725580D01*
X78921724Y-63778587D01*
X78785538Y-63792000D01*
X78694462Y-63792000D01*
X78558276Y-63778587D01*
X78383536Y-63725580D01*
X78222495Y-63639501D01*
X78222493Y-63639500D01*
X78081340Y-63523660D01*
X77965500Y-63382507D01*
X77879421Y-63221466D01*
X77879420Y-63221464D01*
X77826413Y-63046724D01*
X77808515Y-62865000D01*
X77826413Y-62683276D01*
X77879420Y-62508536D01*
X77965499Y-62347495D01*
X77965500Y-62347493D01*
X78081340Y-62206340D01*
X78222493Y-62090500D01*
X78383534Y-62004421D01*
X78383536Y-62004420D01*
X78558276Y-61951413D01*
X78694462Y-61938000D01*
X78785538Y-61938000D01*
X78921724Y-61951413D01*
X78921724Y-61951413D01*
G37*
G36*
X118926724Y-61951413D02*
G01*
X119101464Y-62004420D01*
X119101466Y-62004421D01*
X119262507Y-62090500D01*
X119403660Y-62206340D01*
X119519500Y-62347493D01*
X119519501Y-62347495D01*
X119605580Y-62508536D01*
X119658587Y-62683276D01*
X119676485Y-62865000D01*
X119658587Y-63046724D01*
X119605580Y-63221464D01*
X119605579Y-63221466D01*
X119519500Y-63382507D01*
X119403660Y-63523660D01*
X119262507Y-63639500D01*
X119262505Y-63639501D01*
X119101464Y-63725580D01*
X118926724Y-63778587D01*
X118790538Y-63792000D01*
X118699462Y-63792000D01*
X118563276Y-63778587D01*
X118388536Y-63725580D01*
X118227495Y-63639501D01*
X118227493Y-63639500D01*
X118086340Y-63523660D01*
X117970500Y-63382507D01*
X117884421Y-63221466D01*
X117884420Y-63221464D01*
X117831413Y-63046724D01*
X117813515Y-62865000D01*
X117831413Y-62683276D01*
X117884420Y-62508536D01*
X117970499Y-62347495D01*
X117970500Y-62347493D01*
X118086340Y-62206340D01*
X118227493Y-62090500D01*
X118388534Y-62004421D01*
X118388536Y-62004420D01*
X118563276Y-61951413D01*
X118699462Y-61938000D01*
X118790538Y-61938000D01*
X118926724Y-61951413D01*
X118926724Y-61951413D01*
G37*
G36*
X84636724Y-61951413D02*
G01*
X84811464Y-62004420D01*
X84811466Y-62004421D01*
X84972507Y-62090500D01*
X85113660Y-62206340D01*
X85229500Y-62347493D01*
X85229501Y-62347495D01*
X85315580Y-62508536D01*
X85368587Y-62683276D01*
X85386485Y-62865000D01*
X85368587Y-63046724D01*
X85315580Y-63221464D01*
X85315579Y-63221466D01*
X85229500Y-63382507D01*
X85113660Y-63523660D01*
X84972507Y-63639500D01*
X84972505Y-63639501D01*
X84811464Y-63725580D01*
X84636724Y-63778587D01*
X84500538Y-63792000D01*
X84409462Y-63792000D01*
X84273276Y-63778587D01*
X84098536Y-63725580D01*
X83937495Y-63639501D01*
X83937493Y-63639500D01*
X83796340Y-63523660D01*
X83680500Y-63382507D01*
X83594421Y-63221466D01*
X83594420Y-63221464D01*
X83541413Y-63046724D01*
X83523515Y-62865000D01*
X83541413Y-62683276D01*
X83594420Y-62508536D01*
X83680499Y-62347495D01*
X83680500Y-62347493D01*
X83796340Y-62206340D01*
X83937493Y-62090500D01*
X84098534Y-62004421D01*
X84098536Y-62004420D01*
X84273276Y-61951413D01*
X84409462Y-61938000D01*
X84500538Y-61938000D01*
X84636724Y-61951413D01*
X84636724Y-61951413D01*
G37*
G36*
X88557000Y-63792000D02*
G01*
X86703000Y-63792000D01*
X86703000Y-61938000D01*
X88557000Y-61938000D01*
X88557000Y-63792000D01*
X88557000Y-63792000D01*
G37*
G36*
X90351724Y-61951413D02*
G01*
X90526464Y-62004420D01*
X90526466Y-62004421D01*
X90687507Y-62090500D01*
X90828660Y-62206340D01*
X90944500Y-62347493D01*
X90944501Y-62347495D01*
X91030580Y-62508536D01*
X91083587Y-62683276D01*
X91101485Y-62865000D01*
X91083587Y-63046724D01*
X91030580Y-63221464D01*
X91030579Y-63221466D01*
X90944500Y-63382507D01*
X90828660Y-63523660D01*
X90687507Y-63639500D01*
X90687505Y-63639501D01*
X90526464Y-63725580D01*
X90351724Y-63778587D01*
X90215538Y-63792000D01*
X90124462Y-63792000D01*
X89988276Y-63778587D01*
X89813536Y-63725580D01*
X89652495Y-63639501D01*
X89652493Y-63639500D01*
X89511340Y-63523660D01*
X89395500Y-63382507D01*
X89309421Y-63221466D01*
X89309420Y-63221464D01*
X89256413Y-63046724D01*
X89238515Y-62865000D01*
X89256413Y-62683276D01*
X89309420Y-62508536D01*
X89395499Y-62347495D01*
X89395500Y-62347493D01*
X89511340Y-62206340D01*
X89652493Y-62090500D01*
X89813534Y-62004421D01*
X89813536Y-62004420D01*
X89988276Y-61951413D01*
X90124462Y-61938000D01*
X90215538Y-61938000D01*
X90351724Y-61951413D01*
X90351724Y-61951413D01*
G37*
G36*
X94272000Y-63792000D02*
G01*
X92418000Y-63792000D01*
X92418000Y-61938000D01*
X94272000Y-61938000D01*
X94272000Y-63792000D01*
X94272000Y-63792000D01*
G37*
G36*
X96066724Y-61951413D02*
G01*
X96241464Y-62004420D01*
X96241466Y-62004421D01*
X96402507Y-62090500D01*
X96543660Y-62206340D01*
X96659500Y-62347493D01*
X96659501Y-62347495D01*
X96745580Y-62508536D01*
X96798587Y-62683276D01*
X96816485Y-62865000D01*
X96798587Y-63046724D01*
X96745580Y-63221464D01*
X96745579Y-63221466D01*
X96659500Y-63382507D01*
X96543660Y-63523660D01*
X96402507Y-63639500D01*
X96402505Y-63639501D01*
X96241464Y-63725580D01*
X96066724Y-63778587D01*
X95930538Y-63792000D01*
X95839462Y-63792000D01*
X95703276Y-63778587D01*
X95528536Y-63725580D01*
X95367495Y-63639501D01*
X95367493Y-63639500D01*
X95226340Y-63523660D01*
X95110500Y-63382507D01*
X95024421Y-63221466D01*
X95024420Y-63221464D01*
X94971413Y-63046724D01*
X94953515Y-62865000D01*
X94971413Y-62683276D01*
X95024420Y-62508536D01*
X95110499Y-62347495D01*
X95110500Y-62347493D01*
X95226340Y-62206340D01*
X95367493Y-62090500D01*
X95528534Y-62004421D01*
X95528536Y-62004420D01*
X95703276Y-61951413D01*
X95839462Y-61938000D01*
X95930538Y-61938000D01*
X96066724Y-61951413D01*
X96066724Y-61951413D01*
G37*
G36*
X99987000Y-63792000D02*
G01*
X98133000Y-63792000D01*
X98133000Y-61938000D01*
X99987000Y-61938000D01*
X99987000Y-63792000D01*
X99987000Y-63792000D01*
G37*
G36*
X105702000Y-63792000D02*
G01*
X103848000Y-63792000D01*
X103848000Y-61938000D01*
X105702000Y-61938000D01*
X105702000Y-63792000D01*
X105702000Y-63792000D01*
G37*
G36*
X107496724Y-61951413D02*
G01*
X107671464Y-62004420D01*
X107671466Y-62004421D01*
X107832507Y-62090500D01*
X107973660Y-62206340D01*
X108089500Y-62347493D01*
X108089501Y-62347495D01*
X108175580Y-62508536D01*
X108228587Y-62683276D01*
X108246485Y-62865000D01*
X108228587Y-63046724D01*
X108175580Y-63221464D01*
X108175579Y-63221466D01*
X108089500Y-63382507D01*
X107973660Y-63523660D01*
X107832507Y-63639500D01*
X107832505Y-63639501D01*
X107671464Y-63725580D01*
X107496724Y-63778587D01*
X107360538Y-63792000D01*
X107269462Y-63792000D01*
X107133276Y-63778587D01*
X106958536Y-63725580D01*
X106797495Y-63639501D01*
X106797493Y-63639500D01*
X106656340Y-63523660D01*
X106540500Y-63382507D01*
X106454421Y-63221466D01*
X106454420Y-63221464D01*
X106401413Y-63046724D01*
X106383515Y-62865000D01*
X106401413Y-62683276D01*
X106454420Y-62508536D01*
X106540499Y-62347495D01*
X106540500Y-62347493D01*
X106656340Y-62206340D01*
X106797493Y-62090500D01*
X106958534Y-62004421D01*
X106958536Y-62004420D01*
X107133276Y-61951413D01*
X107269462Y-61938000D01*
X107360538Y-61938000D01*
X107496724Y-61951413D01*
X107496724Y-61951413D01*
G37*
G36*
X111417000Y-63792000D02*
G01*
X109563000Y-63792000D01*
X109563000Y-61938000D01*
X111417000Y-61938000D01*
X111417000Y-63792000D01*
X111417000Y-63792000D01*
G37*
G36*
X113211724Y-61951413D02*
G01*
X113386464Y-62004420D01*
X113386466Y-62004421D01*
X113547507Y-62090500D01*
X113688660Y-62206340D01*
X113804500Y-62347493D01*
X113804501Y-62347495D01*
X113890580Y-62508536D01*
X113943587Y-62683276D01*
X113961485Y-62865000D01*
X113943587Y-63046724D01*
X113890580Y-63221464D01*
X113890579Y-63221466D01*
X113804500Y-63382507D01*
X113688660Y-63523660D01*
X113547507Y-63639500D01*
X113547505Y-63639501D01*
X113386464Y-63725580D01*
X113211724Y-63778587D01*
X113075538Y-63792000D01*
X112984462Y-63792000D01*
X112848276Y-63778587D01*
X112673536Y-63725580D01*
X112512495Y-63639501D01*
X112512493Y-63639500D01*
X112371340Y-63523660D01*
X112255500Y-63382507D01*
X112169421Y-63221466D01*
X112169420Y-63221464D01*
X112116413Y-63046724D01*
X112098515Y-62865000D01*
X112116413Y-62683276D01*
X112169420Y-62508536D01*
X112255499Y-62347495D01*
X112255500Y-62347493D01*
X112371340Y-62206340D01*
X112512493Y-62090500D01*
X112673534Y-62004421D01*
X112673536Y-62004420D01*
X112848276Y-61951413D01*
X112984462Y-61938000D01*
X113075538Y-61938000D01*
X113211724Y-61951413D01*
X113211724Y-61951413D01*
G37*
G36*
X117132000Y-63792000D02*
G01*
X115278000Y-63792000D01*
X115278000Y-61938000D01*
X117132000Y-61938000D01*
X117132000Y-63792000D01*
X117132000Y-63792000D01*
G37*
G36*
X67491724Y-61951413D02*
G01*
X67666464Y-62004420D01*
X67666466Y-62004421D01*
X67827507Y-62090500D01*
X67968660Y-62206340D01*
X68084500Y-62347493D01*
X68084501Y-62347495D01*
X68170580Y-62508536D01*
X68223587Y-62683276D01*
X68241485Y-62865000D01*
X68223587Y-63046724D01*
X68170580Y-63221464D01*
X68170579Y-63221466D01*
X68084500Y-63382507D01*
X67968660Y-63523660D01*
X67827507Y-63639500D01*
X67827505Y-63639501D01*
X67666464Y-63725580D01*
X67491724Y-63778587D01*
X67355538Y-63792000D01*
X67264462Y-63792000D01*
X67128276Y-63778587D01*
X66953536Y-63725580D01*
X66792495Y-63639501D01*
X66792493Y-63639500D01*
X66651340Y-63523660D01*
X66535500Y-63382507D01*
X66449421Y-63221466D01*
X66449420Y-63221464D01*
X66396413Y-63046724D01*
X66378515Y-62865000D01*
X66396413Y-62683276D01*
X66449420Y-62508536D01*
X66535499Y-62347495D01*
X66535500Y-62347493D01*
X66651340Y-62206340D01*
X66792493Y-62090500D01*
X66953534Y-62004421D01*
X66953536Y-62004420D01*
X67128276Y-61951413D01*
X67264462Y-61938000D01*
X67355538Y-61938000D01*
X67491724Y-61951413D01*
X67491724Y-61951413D01*
G37*
G36*
X71412000Y-63792000D02*
G01*
X69558000Y-63792000D01*
X69558000Y-61938000D01*
X71412000Y-61938000D01*
X71412000Y-63792000D01*
X71412000Y-63792000D01*
G37*
G36*
X42837000Y-63792000D02*
G01*
X40983000Y-63792000D01*
X40983000Y-61938000D01*
X42837000Y-61938000D01*
X42837000Y-63792000D01*
X42837000Y-63792000D01*
G37*
G36*
X130356724Y-61951413D02*
G01*
X130531464Y-62004420D01*
X130531466Y-62004421D01*
X130692507Y-62090500D01*
X130833660Y-62206340D01*
X130949500Y-62347493D01*
X130949501Y-62347495D01*
X131035580Y-62508536D01*
X131088587Y-62683276D01*
X131106485Y-62865000D01*
X131088587Y-63046724D01*
X131035580Y-63221464D01*
X131035579Y-63221466D01*
X130949500Y-63382507D01*
X130833660Y-63523660D01*
X130692507Y-63639500D01*
X130692505Y-63639501D01*
X130531464Y-63725580D01*
X130356724Y-63778587D01*
X130220538Y-63792000D01*
X130129462Y-63792000D01*
X129993276Y-63778587D01*
X129818536Y-63725580D01*
X129657495Y-63639501D01*
X129657493Y-63639500D01*
X129516340Y-63523660D01*
X129400500Y-63382507D01*
X129314421Y-63221466D01*
X129314420Y-63221464D01*
X129261413Y-63046724D01*
X129243515Y-62865000D01*
X129261413Y-62683276D01*
X129314420Y-62508536D01*
X129400499Y-62347495D01*
X129400500Y-62347493D01*
X129516340Y-62206340D01*
X129657493Y-62090500D01*
X129818534Y-62004421D01*
X129818536Y-62004420D01*
X129993276Y-61951413D01*
X130129462Y-61938000D01*
X130220538Y-61938000D01*
X130356724Y-61951413D01*
X130356724Y-61951413D01*
G37*
G36*
X128562000Y-63792000D02*
G01*
X126708000Y-63792000D01*
X126708000Y-61938000D01*
X128562000Y-61938000D01*
X128562000Y-63792000D01*
X128562000Y-63792000D01*
G37*
G36*
X124641724Y-61951413D02*
G01*
X124816464Y-62004420D01*
X124816466Y-62004421D01*
X124977507Y-62090500D01*
X125118660Y-62206340D01*
X125234500Y-62347493D01*
X125234501Y-62347495D01*
X125320580Y-62508536D01*
X125373587Y-62683276D01*
X125391485Y-62865000D01*
X125373587Y-63046724D01*
X125320580Y-63221464D01*
X125320579Y-63221466D01*
X125234500Y-63382507D01*
X125118660Y-63523660D01*
X124977507Y-63639500D01*
X124977505Y-63639501D01*
X124816464Y-63725580D01*
X124641724Y-63778587D01*
X124505538Y-63792000D01*
X124414462Y-63792000D01*
X124278276Y-63778587D01*
X124103536Y-63725580D01*
X123942495Y-63639501D01*
X123942493Y-63639500D01*
X123801340Y-63523660D01*
X123685500Y-63382507D01*
X123599421Y-63221466D01*
X123599420Y-63221464D01*
X123546413Y-63046724D01*
X123528515Y-62865000D01*
X123546413Y-62683276D01*
X123599420Y-62508536D01*
X123685499Y-62347495D01*
X123685500Y-62347493D01*
X123801340Y-62206340D01*
X123942493Y-62090500D01*
X124103534Y-62004421D01*
X124103536Y-62004420D01*
X124278276Y-61951413D01*
X124414462Y-61938000D01*
X124505538Y-61938000D01*
X124641724Y-61951413D01*
X124641724Y-61951413D01*
G37*
G36*
X122847000Y-63792000D02*
G01*
X120993000Y-63792000D01*
X120993000Y-61938000D01*
X122847000Y-61938000D01*
X122847000Y-63792000D01*
X122847000Y-63792000D01*
G37*
G36*
X82842000Y-63792000D02*
G01*
X80988000Y-63792000D01*
X80988000Y-61938000D01*
X82842000Y-61938000D01*
X82842000Y-63792000D01*
X82842000Y-63792000D01*
G37*
G36*
X44631724Y-61951413D02*
G01*
X44806464Y-62004420D01*
X44806466Y-62004421D01*
X44967507Y-62090500D01*
X45108660Y-62206340D01*
X45224500Y-62347493D01*
X45224501Y-62347495D01*
X45310580Y-62508536D01*
X45363587Y-62683276D01*
X45381485Y-62865000D01*
X45363587Y-63046724D01*
X45310580Y-63221464D01*
X45310579Y-63221466D01*
X45224500Y-63382507D01*
X45108660Y-63523660D01*
X44967507Y-63639500D01*
X44967505Y-63639501D01*
X44806464Y-63725580D01*
X44631724Y-63778587D01*
X44495538Y-63792000D01*
X44404462Y-63792000D01*
X44268276Y-63778587D01*
X44093536Y-63725580D01*
X43932495Y-63639501D01*
X43932493Y-63639500D01*
X43791340Y-63523660D01*
X43675500Y-63382507D01*
X43589421Y-63221466D01*
X43589420Y-63221464D01*
X43536413Y-63046724D01*
X43518515Y-62865000D01*
X43536413Y-62683276D01*
X43589420Y-62508536D01*
X43675499Y-62347495D01*
X43675500Y-62347493D01*
X43791340Y-62206340D01*
X43932493Y-62090500D01*
X44093534Y-62004421D01*
X44093536Y-62004420D01*
X44268276Y-61951413D01*
X44404462Y-61938000D01*
X44495538Y-61938000D01*
X44631724Y-61951413D01*
X44631724Y-61951413D01*
G37*
G36*
X48552000Y-63792000D02*
G01*
X46698000Y-63792000D01*
X46698000Y-61938000D01*
X48552000Y-61938000D01*
X48552000Y-63792000D01*
X48552000Y-63792000D01*
G37*
G36*
X50346724Y-61951413D02*
G01*
X50521464Y-62004420D01*
X50521466Y-62004421D01*
X50682507Y-62090500D01*
X50823660Y-62206340D01*
X50939500Y-62347493D01*
X50939501Y-62347495D01*
X51025580Y-62508536D01*
X51078587Y-62683276D01*
X51096485Y-62865000D01*
X51078587Y-63046724D01*
X51025580Y-63221464D01*
X51025579Y-63221466D01*
X50939500Y-63382507D01*
X50823660Y-63523660D01*
X50682507Y-63639500D01*
X50682505Y-63639501D01*
X50521464Y-63725580D01*
X50346724Y-63778587D01*
X50210538Y-63792000D01*
X50119462Y-63792000D01*
X49983276Y-63778587D01*
X49808536Y-63725580D01*
X49647495Y-63639501D01*
X49647493Y-63639500D01*
X49506340Y-63523660D01*
X49390500Y-63382507D01*
X49304421Y-63221466D01*
X49304420Y-63221464D01*
X49251413Y-63046724D01*
X49233515Y-62865000D01*
X49251413Y-62683276D01*
X49304420Y-62508536D01*
X49390499Y-62347495D01*
X49390500Y-62347493D01*
X49506340Y-62206340D01*
X49647493Y-62090500D01*
X49808534Y-62004421D01*
X49808536Y-62004420D01*
X49983276Y-61951413D01*
X50119462Y-61938000D01*
X50210538Y-61938000D01*
X50346724Y-61951413D01*
X50346724Y-61951413D01*
G37*
G36*
X54267000Y-63792000D02*
G01*
X52413000Y-63792000D01*
X52413000Y-61938000D01*
X54267000Y-61938000D01*
X54267000Y-63792000D01*
X54267000Y-63792000D01*
G37*
G36*
X56061724Y-61951413D02*
G01*
X56236464Y-62004420D01*
X56236466Y-62004421D01*
X56397507Y-62090500D01*
X56538660Y-62206340D01*
X56654500Y-62347493D01*
X56654501Y-62347495D01*
X56740580Y-62508536D01*
X56793587Y-62683276D01*
X56811485Y-62865000D01*
X56793587Y-63046724D01*
X56740580Y-63221464D01*
X56740579Y-63221466D01*
X56654500Y-63382507D01*
X56538660Y-63523660D01*
X56397507Y-63639500D01*
X56397505Y-63639501D01*
X56236464Y-63725580D01*
X56061724Y-63778587D01*
X55925538Y-63792000D01*
X55834462Y-63792000D01*
X55698276Y-63778587D01*
X55523536Y-63725580D01*
X55362495Y-63639501D01*
X55362493Y-63639500D01*
X55221340Y-63523660D01*
X55105500Y-63382507D01*
X55019421Y-63221466D01*
X55019420Y-63221464D01*
X54966413Y-63046724D01*
X54948515Y-62865000D01*
X54966413Y-62683276D01*
X55019420Y-62508536D01*
X55105499Y-62347495D01*
X55105500Y-62347493D01*
X55221340Y-62206340D01*
X55362493Y-62090500D01*
X55523534Y-62004421D01*
X55523536Y-62004420D01*
X55698276Y-61951413D01*
X55834462Y-61938000D01*
X55925538Y-61938000D01*
X56061724Y-61951413D01*
X56061724Y-61951413D01*
G37*
G36*
X59982000Y-63792000D02*
G01*
X58128000Y-63792000D01*
X58128000Y-61938000D01*
X59982000Y-61938000D01*
X59982000Y-63792000D01*
X59982000Y-63792000D01*
G37*
G36*
X61776724Y-61951413D02*
G01*
X61951464Y-62004420D01*
X61951466Y-62004421D01*
X62112507Y-62090500D01*
X62253660Y-62206340D01*
X62369500Y-62347493D01*
X62369501Y-62347495D01*
X62455580Y-62508536D01*
X62508587Y-62683276D01*
X62526485Y-62865000D01*
X62508587Y-63046724D01*
X62455580Y-63221464D01*
X62455579Y-63221466D01*
X62369500Y-63382507D01*
X62253660Y-63523660D01*
X62112507Y-63639500D01*
X62112505Y-63639501D01*
X61951464Y-63725580D01*
X61776724Y-63778587D01*
X61640538Y-63792000D01*
X61549462Y-63792000D01*
X61413276Y-63778587D01*
X61238536Y-63725580D01*
X61077495Y-63639501D01*
X61077493Y-63639500D01*
X60936340Y-63523660D01*
X60820500Y-63382507D01*
X60734421Y-63221466D01*
X60734420Y-63221464D01*
X60681413Y-63046724D01*
X60663515Y-62865000D01*
X60681413Y-62683276D01*
X60734420Y-62508536D01*
X60820499Y-62347495D01*
X60820500Y-62347493D01*
X60936340Y-62206340D01*
X61077493Y-62090500D01*
X61238534Y-62004421D01*
X61238536Y-62004420D01*
X61413276Y-61951413D01*
X61549462Y-61938000D01*
X61640538Y-61938000D01*
X61776724Y-61951413D01*
X61776724Y-61951413D01*
G37*
G36*
X65697000Y-63792000D02*
G01*
X63843000Y-63792000D01*
X63843000Y-61938000D01*
X65697000Y-61938000D01*
X65697000Y-63792000D01*
X65697000Y-63792000D01*
G37*
G36*
X59236724Y-54331413D02*
G01*
X59411464Y-54384420D01*
X59411466Y-54384421D01*
X59572507Y-54470500D01*
X59713660Y-54586340D01*
X59829500Y-54727493D01*
X59829501Y-54727495D01*
X59915580Y-54888536D01*
X59968587Y-55063276D01*
X59986485Y-55245000D01*
X59968587Y-55426724D01*
X59915580Y-55601464D01*
X59915579Y-55601466D01*
X59829500Y-55762507D01*
X59713660Y-55903660D01*
X59572507Y-56019500D01*
X59572505Y-56019501D01*
X59411464Y-56105580D01*
X59236724Y-56158587D01*
X59100538Y-56172000D01*
X59009462Y-56172000D01*
X58873276Y-56158587D01*
X58698536Y-56105580D01*
X58537495Y-56019501D01*
X58537493Y-56019500D01*
X58396340Y-55903660D01*
X58280500Y-55762507D01*
X58194421Y-55601466D01*
X58194420Y-55601464D01*
X58141413Y-55426724D01*
X58123515Y-55245000D01*
X58141413Y-55063276D01*
X58194420Y-54888536D01*
X58280499Y-54727495D01*
X58280500Y-54727493D01*
X58396340Y-54586340D01*
X58537493Y-54470500D01*
X58698534Y-54384421D01*
X58698536Y-54384420D01*
X58873276Y-54331413D01*
X59009462Y-54318000D01*
X59100538Y-54318000D01*
X59236724Y-54331413D01*
X59236724Y-54331413D01*
G37*
G36*
X56061724Y-54331413D02*
G01*
X56236464Y-54384420D01*
X56236466Y-54384421D01*
X56397507Y-54470500D01*
X56538660Y-54586340D01*
X56654500Y-54727493D01*
X56654501Y-54727495D01*
X56740580Y-54888536D01*
X56793587Y-55063276D01*
X56811485Y-55245000D01*
X56793587Y-55426724D01*
X56740580Y-55601464D01*
X56740579Y-55601466D01*
X56654500Y-55762507D01*
X56538660Y-55903660D01*
X56397507Y-56019500D01*
X56397505Y-56019501D01*
X56236464Y-56105580D01*
X56061724Y-56158587D01*
X55925538Y-56172000D01*
X55834462Y-56172000D01*
X55698276Y-56158587D01*
X55523536Y-56105580D01*
X55362495Y-56019501D01*
X55362493Y-56019500D01*
X55221340Y-55903660D01*
X55105500Y-55762507D01*
X55019421Y-55601466D01*
X55019420Y-55601464D01*
X54966413Y-55426724D01*
X54948515Y-55245000D01*
X54966413Y-55063276D01*
X55019420Y-54888536D01*
X55105499Y-54727495D01*
X55105500Y-54727493D01*
X55221340Y-54586340D01*
X55362493Y-54470500D01*
X55523534Y-54384421D01*
X55523536Y-54384420D01*
X55698276Y-54331413D01*
X55834462Y-54318000D01*
X55925538Y-54318000D01*
X56061724Y-54331413D01*
X56061724Y-54331413D01*
G37*
G36*
X53521724Y-54331413D02*
G01*
X53696464Y-54384420D01*
X53696466Y-54384421D01*
X53857507Y-54470500D01*
X53998660Y-54586340D01*
X54114500Y-54727493D01*
X54114501Y-54727495D01*
X54200580Y-54888536D01*
X54253587Y-55063276D01*
X54271485Y-55245000D01*
X54253587Y-55426724D01*
X54200580Y-55601464D01*
X54200579Y-55601466D01*
X54114500Y-55762507D01*
X53998660Y-55903660D01*
X53857507Y-56019500D01*
X53857505Y-56019501D01*
X53696464Y-56105580D01*
X53521724Y-56158587D01*
X53385538Y-56172000D01*
X53294462Y-56172000D01*
X53158276Y-56158587D01*
X52983536Y-56105580D01*
X52822495Y-56019501D01*
X52822493Y-56019500D01*
X52681340Y-55903660D01*
X52565500Y-55762507D01*
X52479421Y-55601466D01*
X52479420Y-55601464D01*
X52426413Y-55426724D01*
X52408515Y-55245000D01*
X52426413Y-55063276D01*
X52479420Y-54888536D01*
X52565499Y-54727495D01*
X52565500Y-54727493D01*
X52681340Y-54586340D01*
X52822493Y-54470500D01*
X52983534Y-54384421D01*
X52983536Y-54384420D01*
X53158276Y-54331413D01*
X53294462Y-54318000D01*
X53385538Y-54318000D01*
X53521724Y-54331413D01*
X53521724Y-54331413D01*
G37*
G36*
X47806724Y-54331413D02*
G01*
X47981464Y-54384420D01*
X47981466Y-54384421D01*
X48142507Y-54470500D01*
X48283660Y-54586340D01*
X48399500Y-54727493D01*
X48399501Y-54727495D01*
X48485580Y-54888536D01*
X48538587Y-55063276D01*
X48556485Y-55245000D01*
X48538587Y-55426724D01*
X48485580Y-55601464D01*
X48485579Y-55601466D01*
X48399500Y-55762507D01*
X48283660Y-55903660D01*
X48142507Y-56019500D01*
X48142505Y-56019501D01*
X47981464Y-56105580D01*
X47806724Y-56158587D01*
X47670538Y-56172000D01*
X47579462Y-56172000D01*
X47443276Y-56158587D01*
X47268536Y-56105580D01*
X47107495Y-56019501D01*
X47107493Y-56019500D01*
X46966340Y-55903660D01*
X46850500Y-55762507D01*
X46764421Y-55601466D01*
X46764420Y-55601464D01*
X46711413Y-55426724D01*
X46693515Y-55245000D01*
X46711413Y-55063276D01*
X46764420Y-54888536D01*
X46850499Y-54727495D01*
X46850500Y-54727493D01*
X46966340Y-54586340D01*
X47107493Y-54470500D01*
X47268534Y-54384421D01*
X47268536Y-54384420D01*
X47443276Y-54331413D01*
X47579462Y-54318000D01*
X47670538Y-54318000D01*
X47806724Y-54331413D01*
X47806724Y-54331413D01*
G37*
G36*
X67491724Y-54331413D02*
G01*
X67666464Y-54384420D01*
X67666466Y-54384421D01*
X67827507Y-54470500D01*
X67968660Y-54586340D01*
X68084500Y-54727493D01*
X68084501Y-54727495D01*
X68170580Y-54888536D01*
X68223587Y-55063276D01*
X68241485Y-55245000D01*
X68223587Y-55426724D01*
X68170580Y-55601464D01*
X68170579Y-55601466D01*
X68084500Y-55762507D01*
X67968660Y-55903660D01*
X67827507Y-56019500D01*
X67827505Y-56019501D01*
X67666464Y-56105580D01*
X67491724Y-56158587D01*
X67355538Y-56172000D01*
X67264462Y-56172000D01*
X67128276Y-56158587D01*
X66953536Y-56105580D01*
X66792495Y-56019501D01*
X66792493Y-56019500D01*
X66651340Y-55903660D01*
X66535500Y-55762507D01*
X66449421Y-55601466D01*
X66449420Y-55601464D01*
X66396413Y-55426724D01*
X66378515Y-55245000D01*
X66396413Y-55063276D01*
X66449420Y-54888536D01*
X66535499Y-54727495D01*
X66535500Y-54727493D01*
X66651340Y-54586340D01*
X66792493Y-54470500D01*
X66953534Y-54384421D01*
X66953536Y-54384420D01*
X67128276Y-54331413D01*
X67264462Y-54318000D01*
X67355538Y-54318000D01*
X67491724Y-54331413D01*
X67491724Y-54331413D01*
G37*
G36*
X64951724Y-54331413D02*
G01*
X65126464Y-54384420D01*
X65126466Y-54384421D01*
X65287507Y-54470500D01*
X65428660Y-54586340D01*
X65544500Y-54727493D01*
X65544501Y-54727495D01*
X65630580Y-54888536D01*
X65683587Y-55063276D01*
X65701485Y-55245000D01*
X65683587Y-55426724D01*
X65630580Y-55601464D01*
X65630579Y-55601466D01*
X65544500Y-55762507D01*
X65428660Y-55903660D01*
X65287507Y-56019500D01*
X65287505Y-56019501D01*
X65126464Y-56105580D01*
X64951724Y-56158587D01*
X64815538Y-56172000D01*
X64724462Y-56172000D01*
X64588276Y-56158587D01*
X64413536Y-56105580D01*
X64252495Y-56019501D01*
X64252493Y-56019500D01*
X64111340Y-55903660D01*
X63995500Y-55762507D01*
X63909421Y-55601466D01*
X63909420Y-55601464D01*
X63856413Y-55426724D01*
X63838515Y-55245000D01*
X63856413Y-55063276D01*
X63909420Y-54888536D01*
X63995499Y-54727495D01*
X63995500Y-54727493D01*
X64111340Y-54586340D01*
X64252493Y-54470500D01*
X64413534Y-54384421D01*
X64413536Y-54384420D01*
X64588276Y-54331413D01*
X64724462Y-54318000D01*
X64815538Y-54318000D01*
X64951724Y-54331413D01*
X64951724Y-54331413D01*
G37*
G36*
X101781724Y-54331413D02*
G01*
X101956464Y-54384420D01*
X101956466Y-54384421D01*
X102117507Y-54470500D01*
X102258660Y-54586340D01*
X102374500Y-54727493D01*
X102374501Y-54727495D01*
X102460580Y-54888536D01*
X102513587Y-55063276D01*
X102531485Y-55245000D01*
X102513587Y-55426724D01*
X102460580Y-55601464D01*
X102460579Y-55601466D01*
X102374500Y-55762507D01*
X102258660Y-55903660D01*
X102117507Y-56019500D01*
X102117505Y-56019501D01*
X101956464Y-56105580D01*
X101781724Y-56158587D01*
X101645538Y-56172000D01*
X101554462Y-56172000D01*
X101418276Y-56158587D01*
X101243536Y-56105580D01*
X101082495Y-56019501D01*
X101082493Y-56019500D01*
X100941340Y-55903660D01*
X100825500Y-55762507D01*
X100739421Y-55601466D01*
X100739420Y-55601464D01*
X100686413Y-55426724D01*
X100668515Y-55245000D01*
X100686413Y-55063276D01*
X100739420Y-54888536D01*
X100825499Y-54727495D01*
X100825500Y-54727493D01*
X100941340Y-54586340D01*
X101082493Y-54470500D01*
X101243534Y-54384421D01*
X101243536Y-54384420D01*
X101418276Y-54331413D01*
X101554462Y-54318000D01*
X101645538Y-54318000D01*
X101781724Y-54331413D01*
X101781724Y-54331413D01*
G37*
G36*
X70666724Y-54331413D02*
G01*
X70841464Y-54384420D01*
X70841466Y-54384421D01*
X71002507Y-54470500D01*
X71143660Y-54586340D01*
X71259500Y-54727493D01*
X71259501Y-54727495D01*
X71345580Y-54888536D01*
X71398587Y-55063276D01*
X71416485Y-55245000D01*
X71398587Y-55426724D01*
X71345580Y-55601464D01*
X71345579Y-55601466D01*
X71259500Y-55762507D01*
X71143660Y-55903660D01*
X71002507Y-56019500D01*
X71002505Y-56019501D01*
X70841464Y-56105580D01*
X70666724Y-56158587D01*
X70530538Y-56172000D01*
X70439462Y-56172000D01*
X70303276Y-56158587D01*
X70128536Y-56105580D01*
X69967495Y-56019501D01*
X69967493Y-56019500D01*
X69826340Y-55903660D01*
X69710500Y-55762507D01*
X69624421Y-55601466D01*
X69624420Y-55601464D01*
X69571413Y-55426724D01*
X69553515Y-55245000D01*
X69571413Y-55063276D01*
X69624420Y-54888536D01*
X69710499Y-54727495D01*
X69710500Y-54727493D01*
X69826340Y-54586340D01*
X69967493Y-54470500D01*
X70128534Y-54384421D01*
X70128536Y-54384420D01*
X70303276Y-54331413D01*
X70439462Y-54318000D01*
X70530538Y-54318000D01*
X70666724Y-54331413D01*
X70666724Y-54331413D01*
G37*
G36*
X78921724Y-54331413D02*
G01*
X79096464Y-54384420D01*
X79096466Y-54384421D01*
X79257507Y-54470500D01*
X79398660Y-54586340D01*
X79514500Y-54727493D01*
X79514501Y-54727495D01*
X79600580Y-54888536D01*
X79653587Y-55063276D01*
X79671485Y-55245000D01*
X79653587Y-55426724D01*
X79600580Y-55601464D01*
X79600579Y-55601466D01*
X79514500Y-55762507D01*
X79398660Y-55903660D01*
X79257507Y-56019500D01*
X79257505Y-56019501D01*
X79096464Y-56105580D01*
X78921724Y-56158587D01*
X78785538Y-56172000D01*
X78694462Y-56172000D01*
X78558276Y-56158587D01*
X78383536Y-56105580D01*
X78222495Y-56019501D01*
X78222493Y-56019500D01*
X78081340Y-55903660D01*
X77965500Y-55762507D01*
X77879421Y-55601466D01*
X77879420Y-55601464D01*
X77826413Y-55426724D01*
X77808515Y-55245000D01*
X77826413Y-55063276D01*
X77879420Y-54888536D01*
X77965499Y-54727495D01*
X77965500Y-54727493D01*
X78081340Y-54586340D01*
X78222493Y-54470500D01*
X78383534Y-54384421D01*
X78383536Y-54384420D01*
X78558276Y-54331413D01*
X78694462Y-54318000D01*
X78785538Y-54318000D01*
X78921724Y-54331413D01*
X78921724Y-54331413D01*
G37*
G36*
X76381724Y-54331413D02*
G01*
X76556464Y-54384420D01*
X76556466Y-54384421D01*
X76717507Y-54470500D01*
X76858660Y-54586340D01*
X76974500Y-54727493D01*
X76974501Y-54727495D01*
X77060580Y-54888536D01*
X77113587Y-55063276D01*
X77131485Y-55245000D01*
X77113587Y-55426724D01*
X77060580Y-55601464D01*
X77060579Y-55601466D01*
X76974500Y-55762507D01*
X76858660Y-55903660D01*
X76717507Y-56019500D01*
X76717505Y-56019501D01*
X76556464Y-56105580D01*
X76381724Y-56158587D01*
X76245538Y-56172000D01*
X76154462Y-56172000D01*
X76018276Y-56158587D01*
X75843536Y-56105580D01*
X75682495Y-56019501D01*
X75682493Y-56019500D01*
X75541340Y-55903660D01*
X75425500Y-55762507D01*
X75339421Y-55601466D01*
X75339420Y-55601464D01*
X75286413Y-55426724D01*
X75268515Y-55245000D01*
X75286413Y-55063276D01*
X75339420Y-54888536D01*
X75425499Y-54727495D01*
X75425500Y-54727493D01*
X75541340Y-54586340D01*
X75682493Y-54470500D01*
X75843534Y-54384421D01*
X75843536Y-54384420D01*
X76018276Y-54331413D01*
X76154462Y-54318000D01*
X76245538Y-54318000D01*
X76381724Y-54331413D01*
X76381724Y-54331413D01*
G37*
G36*
X84636724Y-54331413D02*
G01*
X84811464Y-54384420D01*
X84811466Y-54384421D01*
X84972507Y-54470500D01*
X85113660Y-54586340D01*
X85229500Y-54727493D01*
X85229501Y-54727495D01*
X85315580Y-54888536D01*
X85368587Y-55063276D01*
X85386485Y-55245000D01*
X85368587Y-55426724D01*
X85315580Y-55601464D01*
X85315579Y-55601466D01*
X85229500Y-55762507D01*
X85113660Y-55903660D01*
X84972507Y-56019500D01*
X84972505Y-56019501D01*
X84811464Y-56105580D01*
X84636724Y-56158587D01*
X84500538Y-56172000D01*
X84409462Y-56172000D01*
X84273276Y-56158587D01*
X84098536Y-56105580D01*
X83937495Y-56019501D01*
X83937493Y-56019500D01*
X83796340Y-55903660D01*
X83680500Y-55762507D01*
X83594421Y-55601466D01*
X83594420Y-55601464D01*
X83541413Y-55426724D01*
X83523515Y-55245000D01*
X83541413Y-55063276D01*
X83594420Y-54888536D01*
X83680499Y-54727495D01*
X83680500Y-54727493D01*
X83796340Y-54586340D01*
X83937493Y-54470500D01*
X84098534Y-54384421D01*
X84098536Y-54384420D01*
X84273276Y-54331413D01*
X84409462Y-54318000D01*
X84500538Y-54318000D01*
X84636724Y-54331413D01*
X84636724Y-54331413D01*
G37*
G36*
X82096724Y-54331413D02*
G01*
X82271464Y-54384420D01*
X82271466Y-54384421D01*
X82432507Y-54470500D01*
X82573660Y-54586340D01*
X82689500Y-54727493D01*
X82689501Y-54727495D01*
X82775580Y-54888536D01*
X82828587Y-55063276D01*
X82846485Y-55245000D01*
X82828587Y-55426724D01*
X82775580Y-55601464D01*
X82775579Y-55601466D01*
X82689500Y-55762507D01*
X82573660Y-55903660D01*
X82432507Y-56019500D01*
X82432505Y-56019501D01*
X82271464Y-56105580D01*
X82096724Y-56158587D01*
X81960538Y-56172000D01*
X81869462Y-56172000D01*
X81733276Y-56158587D01*
X81558536Y-56105580D01*
X81397495Y-56019501D01*
X81397493Y-56019500D01*
X81256340Y-55903660D01*
X81140500Y-55762507D01*
X81054421Y-55601466D01*
X81054420Y-55601464D01*
X81001413Y-55426724D01*
X80983515Y-55245000D01*
X81001413Y-55063276D01*
X81054420Y-54888536D01*
X81140499Y-54727495D01*
X81140500Y-54727493D01*
X81256340Y-54586340D01*
X81397493Y-54470500D01*
X81558534Y-54384421D01*
X81558536Y-54384420D01*
X81733276Y-54331413D01*
X81869462Y-54318000D01*
X81960538Y-54318000D01*
X82096724Y-54331413D01*
X82096724Y-54331413D01*
G37*
G36*
X90351724Y-54331413D02*
G01*
X90526464Y-54384420D01*
X90526466Y-54384421D01*
X90687507Y-54470500D01*
X90828660Y-54586340D01*
X90944500Y-54727493D01*
X90944501Y-54727495D01*
X91030580Y-54888536D01*
X91083587Y-55063276D01*
X91101485Y-55245000D01*
X91083587Y-55426724D01*
X91030580Y-55601464D01*
X91030579Y-55601466D01*
X90944500Y-55762507D01*
X90828660Y-55903660D01*
X90687507Y-56019500D01*
X90687505Y-56019501D01*
X90526464Y-56105580D01*
X90351724Y-56158587D01*
X90215538Y-56172000D01*
X90124462Y-56172000D01*
X89988276Y-56158587D01*
X89813536Y-56105580D01*
X89652495Y-56019501D01*
X89652493Y-56019500D01*
X89511340Y-55903660D01*
X89395500Y-55762507D01*
X89309421Y-55601466D01*
X89309420Y-55601464D01*
X89256413Y-55426724D01*
X89238515Y-55245000D01*
X89256413Y-55063276D01*
X89309420Y-54888536D01*
X89395499Y-54727495D01*
X89395500Y-54727493D01*
X89511340Y-54586340D01*
X89652493Y-54470500D01*
X89813534Y-54384421D01*
X89813536Y-54384420D01*
X89988276Y-54331413D01*
X90124462Y-54318000D01*
X90215538Y-54318000D01*
X90351724Y-54331413D01*
X90351724Y-54331413D01*
G37*
G36*
X87811724Y-54331413D02*
G01*
X87986464Y-54384420D01*
X87986466Y-54384421D01*
X88147507Y-54470500D01*
X88288660Y-54586340D01*
X88404500Y-54727493D01*
X88404501Y-54727495D01*
X88490580Y-54888536D01*
X88543587Y-55063276D01*
X88561485Y-55245000D01*
X88543587Y-55426724D01*
X88490580Y-55601464D01*
X88490579Y-55601466D01*
X88404500Y-55762507D01*
X88288660Y-55903660D01*
X88147507Y-56019500D01*
X88147505Y-56019501D01*
X87986464Y-56105580D01*
X87811724Y-56158587D01*
X87675538Y-56172000D01*
X87584462Y-56172000D01*
X87448276Y-56158587D01*
X87273536Y-56105580D01*
X87112495Y-56019501D01*
X87112493Y-56019500D01*
X86971340Y-55903660D01*
X86855500Y-55762507D01*
X86769421Y-55601466D01*
X86769420Y-55601464D01*
X86716413Y-55426724D01*
X86698515Y-55245000D01*
X86716413Y-55063276D01*
X86769420Y-54888536D01*
X86855499Y-54727495D01*
X86855500Y-54727493D01*
X86971340Y-54586340D01*
X87112493Y-54470500D01*
X87273534Y-54384421D01*
X87273536Y-54384420D01*
X87448276Y-54331413D01*
X87584462Y-54318000D01*
X87675538Y-54318000D01*
X87811724Y-54331413D01*
X87811724Y-54331413D01*
G37*
G36*
X96066724Y-54331413D02*
G01*
X96241464Y-54384420D01*
X96241466Y-54384421D01*
X96402507Y-54470500D01*
X96543660Y-54586340D01*
X96659500Y-54727493D01*
X96659501Y-54727495D01*
X96745580Y-54888536D01*
X96798587Y-55063276D01*
X96816485Y-55245000D01*
X96798587Y-55426724D01*
X96745580Y-55601464D01*
X96745579Y-55601466D01*
X96659500Y-55762507D01*
X96543660Y-55903660D01*
X96402507Y-56019500D01*
X96402505Y-56019501D01*
X96241464Y-56105580D01*
X96066724Y-56158587D01*
X95930538Y-56172000D01*
X95839462Y-56172000D01*
X95703276Y-56158587D01*
X95528536Y-56105580D01*
X95367495Y-56019501D01*
X95367493Y-56019500D01*
X95226340Y-55903660D01*
X95110500Y-55762507D01*
X95024421Y-55601466D01*
X95024420Y-55601464D01*
X94971413Y-55426724D01*
X94953515Y-55245000D01*
X94971413Y-55063276D01*
X95024420Y-54888536D01*
X95110499Y-54727495D01*
X95110500Y-54727493D01*
X95226340Y-54586340D01*
X95367493Y-54470500D01*
X95528534Y-54384421D01*
X95528536Y-54384420D01*
X95703276Y-54331413D01*
X95839462Y-54318000D01*
X95930538Y-54318000D01*
X96066724Y-54331413D01*
X96066724Y-54331413D01*
G37*
G36*
X93526724Y-54331413D02*
G01*
X93701464Y-54384420D01*
X93701466Y-54384421D01*
X93862507Y-54470500D01*
X94003660Y-54586340D01*
X94119500Y-54727493D01*
X94119501Y-54727495D01*
X94205580Y-54888536D01*
X94258587Y-55063276D01*
X94276485Y-55245000D01*
X94258587Y-55426724D01*
X94205580Y-55601464D01*
X94205579Y-55601466D01*
X94119500Y-55762507D01*
X94003660Y-55903660D01*
X93862507Y-56019500D01*
X93862505Y-56019501D01*
X93701464Y-56105580D01*
X93526724Y-56158587D01*
X93390538Y-56172000D01*
X93299462Y-56172000D01*
X93163276Y-56158587D01*
X92988536Y-56105580D01*
X92827495Y-56019501D01*
X92827493Y-56019500D01*
X92686340Y-55903660D01*
X92570500Y-55762507D01*
X92484421Y-55601466D01*
X92484420Y-55601464D01*
X92431413Y-55426724D01*
X92413515Y-55245000D01*
X92431413Y-55063276D01*
X92484420Y-54888536D01*
X92570499Y-54727495D01*
X92570500Y-54727493D01*
X92686340Y-54586340D01*
X92827493Y-54470500D01*
X92988534Y-54384421D01*
X92988536Y-54384420D01*
X93163276Y-54331413D01*
X93299462Y-54318000D01*
X93390538Y-54318000D01*
X93526724Y-54331413D01*
X93526724Y-54331413D01*
G37*
G36*
X42091724Y-54331413D02*
G01*
X42266464Y-54384420D01*
X42266466Y-54384421D01*
X42427507Y-54470500D01*
X42568660Y-54586340D01*
X42684500Y-54727493D01*
X42684501Y-54727495D01*
X42770580Y-54888536D01*
X42823587Y-55063276D01*
X42841485Y-55245000D01*
X42823587Y-55426724D01*
X42770580Y-55601464D01*
X42770579Y-55601466D01*
X42684500Y-55762507D01*
X42568660Y-55903660D01*
X42427507Y-56019500D01*
X42427505Y-56019501D01*
X42266464Y-56105580D01*
X42091724Y-56158587D01*
X41955538Y-56172000D01*
X41864462Y-56172000D01*
X41728276Y-56158587D01*
X41553536Y-56105580D01*
X41392495Y-56019501D01*
X41392493Y-56019500D01*
X41251340Y-55903660D01*
X41135500Y-55762507D01*
X41049421Y-55601466D01*
X41049420Y-55601464D01*
X40996413Y-55426724D01*
X40978515Y-55245000D01*
X40996413Y-55063276D01*
X41049420Y-54888536D01*
X41135499Y-54727495D01*
X41135500Y-54727493D01*
X41251340Y-54586340D01*
X41392493Y-54470500D01*
X41553534Y-54384421D01*
X41553536Y-54384420D01*
X41728276Y-54331413D01*
X41864462Y-54318000D01*
X41955538Y-54318000D01*
X42091724Y-54331413D01*
X42091724Y-54331413D01*
G37*
G36*
X50346724Y-54331413D02*
G01*
X50521464Y-54384420D01*
X50521466Y-54384421D01*
X50682507Y-54470500D01*
X50823660Y-54586340D01*
X50939500Y-54727493D01*
X50939501Y-54727495D01*
X51025580Y-54888536D01*
X51078587Y-55063276D01*
X51096485Y-55245000D01*
X51078587Y-55426724D01*
X51025580Y-55601464D01*
X51025579Y-55601466D01*
X50939500Y-55762507D01*
X50823660Y-55903660D01*
X50682507Y-56019500D01*
X50682505Y-56019501D01*
X50521464Y-56105580D01*
X50346724Y-56158587D01*
X50210538Y-56172000D01*
X50119462Y-56172000D01*
X49983276Y-56158587D01*
X49808536Y-56105580D01*
X49647495Y-56019501D01*
X49647493Y-56019500D01*
X49506340Y-55903660D01*
X49390500Y-55762507D01*
X49304421Y-55601466D01*
X49304420Y-55601464D01*
X49251413Y-55426724D01*
X49233515Y-55245000D01*
X49251413Y-55063276D01*
X49304420Y-54888536D01*
X49390499Y-54727495D01*
X49390500Y-54727493D01*
X49506340Y-54586340D01*
X49647493Y-54470500D01*
X49808534Y-54384421D01*
X49808536Y-54384420D01*
X49983276Y-54331413D01*
X50119462Y-54318000D01*
X50210538Y-54318000D01*
X50346724Y-54331413D01*
X50346724Y-54331413D01*
G37*
G36*
X122101724Y-54331413D02*
G01*
X122276464Y-54384420D01*
X122276466Y-54384421D01*
X122437507Y-54470500D01*
X122578660Y-54586340D01*
X122694500Y-54727493D01*
X122694501Y-54727495D01*
X122780580Y-54888536D01*
X122833587Y-55063276D01*
X122851485Y-55245000D01*
X122833587Y-55426724D01*
X122780580Y-55601464D01*
X122780579Y-55601466D01*
X122694500Y-55762507D01*
X122578660Y-55903660D01*
X122437507Y-56019500D01*
X122437505Y-56019501D01*
X122276464Y-56105580D01*
X122101724Y-56158587D01*
X121965538Y-56172000D01*
X121874462Y-56172000D01*
X121738276Y-56158587D01*
X121563536Y-56105580D01*
X121402495Y-56019501D01*
X121402493Y-56019500D01*
X121261340Y-55903660D01*
X121145500Y-55762507D01*
X121059421Y-55601466D01*
X121059420Y-55601464D01*
X121006413Y-55426724D01*
X120988515Y-55245000D01*
X121006413Y-55063276D01*
X121059420Y-54888536D01*
X121145499Y-54727495D01*
X121145500Y-54727493D01*
X121261340Y-54586340D01*
X121402493Y-54470500D01*
X121563534Y-54384421D01*
X121563536Y-54384420D01*
X121738276Y-54331413D01*
X121874462Y-54318000D01*
X121965538Y-54318000D01*
X122101724Y-54331413D01*
X122101724Y-54331413D01*
G37*
G36*
X61776724Y-54331413D02*
G01*
X61951464Y-54384420D01*
X61951466Y-54384421D01*
X62112507Y-54470500D01*
X62253660Y-54586340D01*
X62369500Y-54727493D01*
X62369501Y-54727495D01*
X62455580Y-54888536D01*
X62508587Y-55063276D01*
X62526485Y-55245000D01*
X62508587Y-55426724D01*
X62455580Y-55601464D01*
X62455579Y-55601466D01*
X62369500Y-55762507D01*
X62253660Y-55903660D01*
X62112507Y-56019500D01*
X62112505Y-56019501D01*
X61951464Y-56105580D01*
X61776724Y-56158587D01*
X61640538Y-56172000D01*
X61549462Y-56172000D01*
X61413276Y-56158587D01*
X61238536Y-56105580D01*
X61077495Y-56019501D01*
X61077493Y-56019500D01*
X60936340Y-55903660D01*
X60820500Y-55762507D01*
X60734421Y-55601466D01*
X60734420Y-55601464D01*
X60681413Y-55426724D01*
X60663515Y-55245000D01*
X60681413Y-55063276D01*
X60734420Y-54888536D01*
X60820499Y-54727495D01*
X60820500Y-54727493D01*
X60936340Y-54586340D01*
X61077493Y-54470500D01*
X61238534Y-54384421D01*
X61238536Y-54384420D01*
X61413276Y-54331413D01*
X61549462Y-54318000D01*
X61640538Y-54318000D01*
X61776724Y-54331413D01*
X61776724Y-54331413D01*
G37*
G36*
X99241724Y-54331413D02*
G01*
X99416464Y-54384420D01*
X99416466Y-54384421D01*
X99577507Y-54470500D01*
X99718660Y-54586340D01*
X99834500Y-54727493D01*
X99834501Y-54727495D01*
X99920580Y-54888536D01*
X99973587Y-55063276D01*
X99991485Y-55245000D01*
X99973587Y-55426724D01*
X99920580Y-55601464D01*
X99920579Y-55601466D01*
X99834500Y-55762507D01*
X99718660Y-55903660D01*
X99577507Y-56019500D01*
X99577505Y-56019501D01*
X99416464Y-56105580D01*
X99241724Y-56158587D01*
X99105538Y-56172000D01*
X99014462Y-56172000D01*
X98878276Y-56158587D01*
X98703536Y-56105580D01*
X98542495Y-56019501D01*
X98542493Y-56019500D01*
X98401340Y-55903660D01*
X98285500Y-55762507D01*
X98199421Y-55601466D01*
X98199420Y-55601464D01*
X98146413Y-55426724D01*
X98128515Y-55245000D01*
X98146413Y-55063276D01*
X98199420Y-54888536D01*
X98285499Y-54727495D01*
X98285500Y-54727493D01*
X98401340Y-54586340D01*
X98542493Y-54470500D01*
X98703534Y-54384421D01*
X98703536Y-54384420D01*
X98878276Y-54331413D01*
X99014462Y-54318000D01*
X99105538Y-54318000D01*
X99241724Y-54331413D01*
X99241724Y-54331413D01*
G37*
G36*
X107496724Y-54331413D02*
G01*
X107671464Y-54384420D01*
X107671466Y-54384421D01*
X107832507Y-54470500D01*
X107973660Y-54586340D01*
X108089500Y-54727493D01*
X108089501Y-54727495D01*
X108175580Y-54888536D01*
X108228587Y-55063276D01*
X108246485Y-55245000D01*
X108228587Y-55426724D01*
X108175580Y-55601464D01*
X108175579Y-55601466D01*
X108089500Y-55762507D01*
X107973660Y-55903660D01*
X107832507Y-56019500D01*
X107832505Y-56019501D01*
X107671464Y-56105580D01*
X107496724Y-56158587D01*
X107360538Y-56172000D01*
X107269462Y-56172000D01*
X107133276Y-56158587D01*
X106958536Y-56105580D01*
X106797495Y-56019501D01*
X106797493Y-56019500D01*
X106656340Y-55903660D01*
X106540500Y-55762507D01*
X106454421Y-55601466D01*
X106454420Y-55601464D01*
X106401413Y-55426724D01*
X106383515Y-55245000D01*
X106401413Y-55063276D01*
X106454420Y-54888536D01*
X106540499Y-54727495D01*
X106540500Y-54727493D01*
X106656340Y-54586340D01*
X106797493Y-54470500D01*
X106958534Y-54384421D01*
X106958536Y-54384420D01*
X107133276Y-54331413D01*
X107269462Y-54318000D01*
X107360538Y-54318000D01*
X107496724Y-54331413D01*
X107496724Y-54331413D01*
G37*
G36*
X127816724Y-54331413D02*
G01*
X127991464Y-54384420D01*
X127991466Y-54384421D01*
X128152507Y-54470500D01*
X128293660Y-54586340D01*
X128409500Y-54727493D01*
X128409501Y-54727495D01*
X128495580Y-54888536D01*
X128548587Y-55063276D01*
X128566485Y-55245000D01*
X128548587Y-55426724D01*
X128495580Y-55601464D01*
X128495579Y-55601466D01*
X128409500Y-55762507D01*
X128293660Y-55903660D01*
X128152507Y-56019500D01*
X128152505Y-56019501D01*
X127991464Y-56105580D01*
X127816724Y-56158587D01*
X127680538Y-56172000D01*
X127589462Y-56172000D01*
X127453276Y-56158587D01*
X127278536Y-56105580D01*
X127117495Y-56019501D01*
X127117493Y-56019500D01*
X126976340Y-55903660D01*
X126860500Y-55762507D01*
X126774421Y-55601466D01*
X126774420Y-55601464D01*
X126721413Y-55426724D01*
X126703515Y-55245000D01*
X126721413Y-55063276D01*
X126774420Y-54888536D01*
X126860499Y-54727495D01*
X126860500Y-54727493D01*
X126976340Y-54586340D01*
X127117493Y-54470500D01*
X127278534Y-54384421D01*
X127278536Y-54384420D01*
X127453276Y-54331413D01*
X127589462Y-54318000D01*
X127680538Y-54318000D01*
X127816724Y-54331413D01*
X127816724Y-54331413D01*
G37*
G36*
X130356724Y-54331413D02*
G01*
X130531464Y-54384420D01*
X130531466Y-54384421D01*
X130692507Y-54470500D01*
X130833660Y-54586340D01*
X130949500Y-54727493D01*
X130949501Y-54727495D01*
X131035580Y-54888536D01*
X131088587Y-55063276D01*
X131106485Y-55245000D01*
X131088587Y-55426724D01*
X131035580Y-55601464D01*
X131035579Y-55601466D01*
X130949500Y-55762507D01*
X130833660Y-55903660D01*
X130692507Y-56019500D01*
X130692505Y-56019501D01*
X130531464Y-56105580D01*
X130356724Y-56158587D01*
X130220538Y-56172000D01*
X130129462Y-56172000D01*
X129993276Y-56158587D01*
X129818536Y-56105580D01*
X129657495Y-56019501D01*
X129657493Y-56019500D01*
X129516340Y-55903660D01*
X129400500Y-55762507D01*
X129314421Y-55601466D01*
X129314420Y-55601464D01*
X129261413Y-55426724D01*
X129243515Y-55245000D01*
X129261413Y-55063276D01*
X129314420Y-54888536D01*
X129400499Y-54727495D01*
X129400500Y-54727493D01*
X129516340Y-54586340D01*
X129657493Y-54470500D01*
X129818534Y-54384421D01*
X129818536Y-54384420D01*
X129993276Y-54331413D01*
X130129462Y-54318000D01*
X130220538Y-54318000D01*
X130356724Y-54331413D01*
X130356724Y-54331413D01*
G37*
G36*
X104956724Y-54331413D02*
G01*
X105131464Y-54384420D01*
X105131466Y-54384421D01*
X105292507Y-54470500D01*
X105433660Y-54586340D01*
X105549500Y-54727493D01*
X105549501Y-54727495D01*
X105635580Y-54888536D01*
X105688587Y-55063276D01*
X105706485Y-55245000D01*
X105688587Y-55426724D01*
X105635580Y-55601464D01*
X105635579Y-55601466D01*
X105549500Y-55762507D01*
X105433660Y-55903660D01*
X105292507Y-56019500D01*
X105292505Y-56019501D01*
X105131464Y-56105580D01*
X104956724Y-56158587D01*
X104820538Y-56172000D01*
X104729462Y-56172000D01*
X104593276Y-56158587D01*
X104418536Y-56105580D01*
X104257495Y-56019501D01*
X104257493Y-56019500D01*
X104116340Y-55903660D01*
X104000500Y-55762507D01*
X103914421Y-55601466D01*
X103914420Y-55601464D01*
X103861413Y-55426724D01*
X103843515Y-55245000D01*
X103861413Y-55063276D01*
X103914420Y-54888536D01*
X104000499Y-54727495D01*
X104000500Y-54727493D01*
X104116340Y-54586340D01*
X104257493Y-54470500D01*
X104418534Y-54384421D01*
X104418536Y-54384420D01*
X104593276Y-54331413D01*
X104729462Y-54318000D01*
X104820538Y-54318000D01*
X104956724Y-54331413D01*
X104956724Y-54331413D01*
G37*
G36*
X110671724Y-54331413D02*
G01*
X110846464Y-54384420D01*
X110846466Y-54384421D01*
X111007507Y-54470500D01*
X111148660Y-54586340D01*
X111264500Y-54727493D01*
X111264501Y-54727495D01*
X111350580Y-54888536D01*
X111403587Y-55063276D01*
X111421485Y-55245000D01*
X111403587Y-55426724D01*
X111350580Y-55601464D01*
X111350579Y-55601466D01*
X111264500Y-55762507D01*
X111148660Y-55903660D01*
X111007507Y-56019500D01*
X111007505Y-56019501D01*
X110846464Y-56105580D01*
X110671724Y-56158587D01*
X110535538Y-56172000D01*
X110444462Y-56172000D01*
X110308276Y-56158587D01*
X110133536Y-56105580D01*
X109972495Y-56019501D01*
X109972493Y-56019500D01*
X109831340Y-55903660D01*
X109715500Y-55762507D01*
X109629421Y-55601466D01*
X109629420Y-55601464D01*
X109576413Y-55426724D01*
X109558515Y-55245000D01*
X109576413Y-55063276D01*
X109629420Y-54888536D01*
X109715499Y-54727495D01*
X109715500Y-54727493D01*
X109831340Y-54586340D01*
X109972493Y-54470500D01*
X110133534Y-54384421D01*
X110133536Y-54384420D01*
X110308276Y-54331413D01*
X110444462Y-54318000D01*
X110535538Y-54318000D01*
X110671724Y-54331413D01*
X110671724Y-54331413D01*
G37*
G36*
X124641724Y-54331413D02*
G01*
X124816464Y-54384420D01*
X124816466Y-54384421D01*
X124977507Y-54470500D01*
X125118660Y-54586340D01*
X125234500Y-54727493D01*
X125234501Y-54727495D01*
X125320580Y-54888536D01*
X125373587Y-55063276D01*
X125391485Y-55245000D01*
X125373587Y-55426724D01*
X125320580Y-55601464D01*
X125320579Y-55601466D01*
X125234500Y-55762507D01*
X125118660Y-55903660D01*
X124977507Y-56019500D01*
X124977505Y-56019501D01*
X124816464Y-56105580D01*
X124641724Y-56158587D01*
X124505538Y-56172000D01*
X124414462Y-56172000D01*
X124278276Y-56158587D01*
X124103536Y-56105580D01*
X123942495Y-56019501D01*
X123942493Y-56019500D01*
X123801340Y-55903660D01*
X123685500Y-55762507D01*
X123599421Y-55601466D01*
X123599420Y-55601464D01*
X123546413Y-55426724D01*
X123528515Y-55245000D01*
X123546413Y-55063276D01*
X123599420Y-54888536D01*
X123685499Y-54727495D01*
X123685500Y-54727493D01*
X123801340Y-54586340D01*
X123942493Y-54470500D01*
X124103534Y-54384421D01*
X124103536Y-54384420D01*
X124278276Y-54331413D01*
X124414462Y-54318000D01*
X124505538Y-54318000D01*
X124641724Y-54331413D01*
X124641724Y-54331413D01*
G37*
G36*
X118926724Y-54331413D02*
G01*
X119101464Y-54384420D01*
X119101466Y-54384421D01*
X119262507Y-54470500D01*
X119403660Y-54586340D01*
X119519500Y-54727493D01*
X119519501Y-54727495D01*
X119605580Y-54888536D01*
X119658587Y-55063276D01*
X119676485Y-55245000D01*
X119658587Y-55426724D01*
X119605580Y-55601464D01*
X119605579Y-55601466D01*
X119519500Y-55762507D01*
X119403660Y-55903660D01*
X119262507Y-56019500D01*
X119262505Y-56019501D01*
X119101464Y-56105580D01*
X118926724Y-56158587D01*
X118790538Y-56172000D01*
X118699462Y-56172000D01*
X118563276Y-56158587D01*
X118388536Y-56105580D01*
X118227495Y-56019501D01*
X118227493Y-56019500D01*
X118086340Y-55903660D01*
X117970500Y-55762507D01*
X117884421Y-55601466D01*
X117884420Y-55601464D01*
X117831413Y-55426724D01*
X117813515Y-55245000D01*
X117831413Y-55063276D01*
X117884420Y-54888536D01*
X117970499Y-54727495D01*
X117970500Y-54727493D01*
X118086340Y-54586340D01*
X118227493Y-54470500D01*
X118388534Y-54384421D01*
X118388536Y-54384420D01*
X118563276Y-54331413D01*
X118699462Y-54318000D01*
X118790538Y-54318000D01*
X118926724Y-54331413D01*
X118926724Y-54331413D01*
G37*
G36*
X116386724Y-54331413D02*
G01*
X116561464Y-54384420D01*
X116561466Y-54384421D01*
X116722507Y-54470500D01*
X116863660Y-54586340D01*
X116979500Y-54727493D01*
X116979501Y-54727495D01*
X117065580Y-54888536D01*
X117118587Y-55063276D01*
X117136485Y-55245000D01*
X117118587Y-55426724D01*
X117065580Y-55601464D01*
X117065579Y-55601466D01*
X116979500Y-55762507D01*
X116863660Y-55903660D01*
X116722507Y-56019500D01*
X116722505Y-56019501D01*
X116561464Y-56105580D01*
X116386724Y-56158587D01*
X116250538Y-56172000D01*
X116159462Y-56172000D01*
X116023276Y-56158587D01*
X115848536Y-56105580D01*
X115687495Y-56019501D01*
X115687493Y-56019500D01*
X115546340Y-55903660D01*
X115430500Y-55762507D01*
X115344421Y-55601466D01*
X115344420Y-55601464D01*
X115291413Y-55426724D01*
X115273515Y-55245000D01*
X115291413Y-55063276D01*
X115344420Y-54888536D01*
X115430499Y-54727495D01*
X115430500Y-54727493D01*
X115546340Y-54586340D01*
X115687493Y-54470500D01*
X115848534Y-54384421D01*
X115848536Y-54384420D01*
X116023276Y-54331413D01*
X116159462Y-54318000D01*
X116250538Y-54318000D01*
X116386724Y-54331413D01*
X116386724Y-54331413D01*
G37*
G36*
X73206724Y-54331413D02*
G01*
X73381464Y-54384420D01*
X73381466Y-54384421D01*
X73542507Y-54470500D01*
X73683660Y-54586340D01*
X73799500Y-54727493D01*
X73799501Y-54727495D01*
X73885580Y-54888536D01*
X73938587Y-55063276D01*
X73956485Y-55245000D01*
X73938587Y-55426724D01*
X73885580Y-55601464D01*
X73885579Y-55601466D01*
X73799500Y-55762507D01*
X73683660Y-55903660D01*
X73542507Y-56019500D01*
X73542505Y-56019501D01*
X73381464Y-56105580D01*
X73206724Y-56158587D01*
X73070538Y-56172000D01*
X72979462Y-56172000D01*
X72843276Y-56158587D01*
X72668536Y-56105580D01*
X72507495Y-56019501D01*
X72507493Y-56019500D01*
X72366340Y-55903660D01*
X72250500Y-55762507D01*
X72164421Y-55601466D01*
X72164420Y-55601464D01*
X72111413Y-55426724D01*
X72093515Y-55245000D01*
X72111413Y-55063276D01*
X72164420Y-54888536D01*
X72250499Y-54727495D01*
X72250500Y-54727493D01*
X72366340Y-54586340D01*
X72507493Y-54470500D01*
X72668534Y-54384421D01*
X72668536Y-54384420D01*
X72843276Y-54331413D01*
X72979462Y-54318000D01*
X73070538Y-54318000D01*
X73206724Y-54331413D01*
X73206724Y-54331413D01*
G37*
G36*
X44631724Y-54331413D02*
G01*
X44806464Y-54384420D01*
X44806466Y-54384421D01*
X44967507Y-54470500D01*
X45108660Y-54586340D01*
X45224500Y-54727493D01*
X45224501Y-54727495D01*
X45310580Y-54888536D01*
X45363587Y-55063276D01*
X45381485Y-55245000D01*
X45363587Y-55426724D01*
X45310580Y-55601464D01*
X45310579Y-55601466D01*
X45224500Y-55762507D01*
X45108660Y-55903660D01*
X44967507Y-56019500D01*
X44967505Y-56019501D01*
X44806464Y-56105580D01*
X44631724Y-56158587D01*
X44495538Y-56172000D01*
X44404462Y-56172000D01*
X44268276Y-56158587D01*
X44093536Y-56105580D01*
X43932495Y-56019501D01*
X43932493Y-56019500D01*
X43791340Y-55903660D01*
X43675500Y-55762507D01*
X43589421Y-55601466D01*
X43589420Y-55601464D01*
X43536413Y-55426724D01*
X43518515Y-55245000D01*
X43536413Y-55063276D01*
X43589420Y-54888536D01*
X43675499Y-54727495D01*
X43675500Y-54727493D01*
X43791340Y-54586340D01*
X43932493Y-54470500D01*
X44093534Y-54384421D01*
X44093536Y-54384420D01*
X44268276Y-54331413D01*
X44404462Y-54318000D01*
X44495538Y-54318000D01*
X44631724Y-54331413D01*
X44631724Y-54331413D01*
G37*
G36*
X113211724Y-54331413D02*
G01*
X113386464Y-54384420D01*
X113386466Y-54384421D01*
X113547507Y-54470500D01*
X113688660Y-54586340D01*
X113804500Y-54727493D01*
X113804501Y-54727495D01*
X113890580Y-54888536D01*
X113943587Y-55063276D01*
X113961485Y-55245000D01*
X113943587Y-55426724D01*
X113890580Y-55601464D01*
X113890579Y-55601466D01*
X113804500Y-55762507D01*
X113688660Y-55903660D01*
X113547507Y-56019500D01*
X113547505Y-56019501D01*
X113386464Y-56105580D01*
X113211724Y-56158587D01*
X113075538Y-56172000D01*
X112984462Y-56172000D01*
X112848276Y-56158587D01*
X112673536Y-56105580D01*
X112512495Y-56019501D01*
X112512493Y-56019500D01*
X112371340Y-55903660D01*
X112255500Y-55762507D01*
X112169421Y-55601466D01*
X112169420Y-55601464D01*
X112116413Y-55426724D01*
X112098515Y-55245000D01*
X112116413Y-55063276D01*
X112169420Y-54888536D01*
X112255499Y-54727495D01*
X112255500Y-54727493D01*
X112371340Y-54586340D01*
X112512493Y-54470500D01*
X112673534Y-54384421D01*
X112673536Y-54384420D01*
X112848276Y-54331413D01*
X112984462Y-54318000D01*
X113075538Y-54318000D01*
X113211724Y-54331413D01*
X113211724Y-54331413D01*
G37*
G36*
X105485290Y-39131172D02*
G01*
X105581922Y-39140690D01*
X105747237Y-39190838D01*
X105747240Y-39190839D01*
X105899594Y-39272274D01*
X106033134Y-39381866D01*
X106142726Y-39515406D01*
X106224161Y-39667760D01*
X106224162Y-39667763D01*
X106274310Y-39833078D01*
X106291243Y-40005000D01*
X106274310Y-40176922D01*
X106224162Y-40342237D01*
X106224161Y-40342240D01*
X106142726Y-40494594D01*
X106033134Y-40628134D01*
X105899594Y-40737726D01*
X105747240Y-40819161D01*
X105747237Y-40819162D01*
X105581922Y-40869310D01*
X105485290Y-40878827D01*
X105453080Y-40882000D01*
X105366920Y-40882000D01*
X105334710Y-40878827D01*
X105238078Y-40869310D01*
X105072763Y-40819162D01*
X105072760Y-40819161D01*
X104920406Y-40737726D01*
X104786866Y-40628134D01*
X104677274Y-40494594D01*
X104595839Y-40342240D01*
X104595838Y-40342237D01*
X104545690Y-40176922D01*
X104528757Y-40005000D01*
X104545690Y-39833078D01*
X104595838Y-39667763D01*
X104595839Y-39667760D01*
X104677274Y-39515406D01*
X104786866Y-39381866D01*
X104920406Y-39272274D01*
X105072760Y-39190839D01*
X105072763Y-39190838D01*
X105238078Y-39140690D01*
X105334710Y-39131172D01*
X105366920Y-39128000D01*
X105453080Y-39128000D01*
X105485290Y-39131172D01*
X105485290Y-39131172D01*
G37*
G36*
X108025290Y-39131172D02*
G01*
X108121922Y-39140690D01*
X108287237Y-39190838D01*
X108287240Y-39190839D01*
X108439594Y-39272274D01*
X108573134Y-39381866D01*
X108682726Y-39515406D01*
X108764161Y-39667760D01*
X108764162Y-39667763D01*
X108814310Y-39833078D01*
X108831243Y-40005000D01*
X108814310Y-40176922D01*
X108764162Y-40342237D01*
X108764161Y-40342240D01*
X108682726Y-40494594D01*
X108573134Y-40628134D01*
X108439594Y-40737726D01*
X108287240Y-40819161D01*
X108287237Y-40819162D01*
X108121922Y-40869310D01*
X108025290Y-40878827D01*
X107993080Y-40882000D01*
X107906920Y-40882000D01*
X107874710Y-40878827D01*
X107778078Y-40869310D01*
X107612763Y-40819162D01*
X107612760Y-40819161D01*
X107460406Y-40737726D01*
X107326866Y-40628134D01*
X107217274Y-40494594D01*
X107135839Y-40342240D01*
X107135838Y-40342237D01*
X107085690Y-40176922D01*
X107068757Y-40005000D01*
X107085690Y-39833078D01*
X107135838Y-39667763D01*
X107135839Y-39667760D01*
X107217274Y-39515406D01*
X107326866Y-39381866D01*
X107460406Y-39272274D01*
X107612760Y-39190839D01*
X107612763Y-39190838D01*
X107778078Y-39140690D01*
X107874710Y-39131172D01*
X107906920Y-39128000D01*
X107993080Y-39128000D01*
X108025290Y-39131172D01*
X108025290Y-39131172D01*
G37*
G36*
X110565290Y-39131172D02*
G01*
X110661922Y-39140690D01*
X110827237Y-39190838D01*
X110827240Y-39190839D01*
X110979594Y-39272274D01*
X111113134Y-39381866D01*
X111222726Y-39515406D01*
X111304161Y-39667760D01*
X111304162Y-39667763D01*
X111354310Y-39833078D01*
X111371243Y-40005000D01*
X111354310Y-40176922D01*
X111304162Y-40342237D01*
X111304161Y-40342240D01*
X111222726Y-40494594D01*
X111113134Y-40628134D01*
X110979594Y-40737726D01*
X110827240Y-40819161D01*
X110827237Y-40819162D01*
X110661922Y-40869310D01*
X110565290Y-40878827D01*
X110533080Y-40882000D01*
X110446920Y-40882000D01*
X110414710Y-40878827D01*
X110318078Y-40869310D01*
X110152763Y-40819162D01*
X110152760Y-40819161D01*
X110000406Y-40737726D01*
X109866866Y-40628134D01*
X109757274Y-40494594D01*
X109675839Y-40342240D01*
X109675838Y-40342237D01*
X109625690Y-40176922D01*
X109608757Y-40005000D01*
X109625690Y-39833078D01*
X109675838Y-39667763D01*
X109675839Y-39667760D01*
X109757274Y-39515406D01*
X109866866Y-39381866D01*
X110000406Y-39272274D01*
X110152760Y-39190839D01*
X110152763Y-39190838D01*
X110318078Y-39140690D01*
X110414710Y-39131172D01*
X110446920Y-39128000D01*
X110533080Y-39128000D01*
X110565290Y-39131172D01*
X110565290Y-39131172D01*
G37*
G36*
X47065290Y-39131172D02*
G01*
X47161922Y-39140690D01*
X47327237Y-39190838D01*
X47327240Y-39190839D01*
X47479594Y-39272274D01*
X47613134Y-39381866D01*
X47722726Y-39515406D01*
X47804161Y-39667760D01*
X47804162Y-39667763D01*
X47854310Y-39833078D01*
X47871243Y-40005000D01*
X47854310Y-40176922D01*
X47804162Y-40342237D01*
X47804161Y-40342240D01*
X47722726Y-40494594D01*
X47613134Y-40628134D01*
X47479594Y-40737726D01*
X47327240Y-40819161D01*
X47327237Y-40819162D01*
X47161922Y-40869310D01*
X47065290Y-40878827D01*
X47033080Y-40882000D01*
X46946920Y-40882000D01*
X46914710Y-40878827D01*
X46818078Y-40869310D01*
X46652763Y-40819162D01*
X46652760Y-40819161D01*
X46500406Y-40737726D01*
X46366866Y-40628134D01*
X46257274Y-40494594D01*
X46175839Y-40342240D01*
X46175838Y-40342237D01*
X46125690Y-40176922D01*
X46108757Y-40005000D01*
X46125690Y-39833078D01*
X46175838Y-39667763D01*
X46175839Y-39667760D01*
X46257274Y-39515406D01*
X46366866Y-39381866D01*
X46500406Y-39272274D01*
X46652760Y-39190839D01*
X46652763Y-39190838D01*
X46818078Y-39140690D01*
X46914710Y-39131172D01*
X46946920Y-39128000D01*
X47033080Y-39128000D01*
X47065290Y-39131172D01*
X47065290Y-39131172D01*
G37*
G36*
X49605290Y-39131172D02*
G01*
X49701922Y-39140690D01*
X49867237Y-39190838D01*
X49867240Y-39190839D01*
X50019594Y-39272274D01*
X50153134Y-39381866D01*
X50262726Y-39515406D01*
X50344161Y-39667760D01*
X50344162Y-39667763D01*
X50394310Y-39833078D01*
X50411243Y-40005000D01*
X50394310Y-40176922D01*
X50344162Y-40342237D01*
X50344161Y-40342240D01*
X50262726Y-40494594D01*
X50153134Y-40628134D01*
X50019594Y-40737726D01*
X49867240Y-40819161D01*
X49867237Y-40819162D01*
X49701922Y-40869310D01*
X49605290Y-40878827D01*
X49573080Y-40882000D01*
X49486920Y-40882000D01*
X49454710Y-40878827D01*
X49358078Y-40869310D01*
X49192763Y-40819162D01*
X49192760Y-40819161D01*
X49040406Y-40737726D01*
X48906866Y-40628134D01*
X48797274Y-40494594D01*
X48715839Y-40342240D01*
X48715838Y-40342237D01*
X48665690Y-40176922D01*
X48648757Y-40005000D01*
X48665690Y-39833078D01*
X48715838Y-39667763D01*
X48715839Y-39667760D01*
X48797274Y-39515406D01*
X48906866Y-39381866D01*
X49040406Y-39272274D01*
X49192760Y-39190839D01*
X49192763Y-39190838D01*
X49358078Y-39140690D01*
X49454710Y-39131172D01*
X49486920Y-39128000D01*
X49573080Y-39128000D01*
X49605290Y-39131172D01*
X49605290Y-39131172D01*
G37*
G36*
X52145290Y-39131172D02*
G01*
X52241922Y-39140690D01*
X52407237Y-39190838D01*
X52407240Y-39190839D01*
X52559594Y-39272274D01*
X52693134Y-39381866D01*
X52802726Y-39515406D01*
X52884161Y-39667760D01*
X52884162Y-39667763D01*
X52934310Y-39833078D01*
X52951243Y-40005000D01*
X52934310Y-40176922D01*
X52884162Y-40342237D01*
X52884161Y-40342240D01*
X52802726Y-40494594D01*
X52693134Y-40628134D01*
X52559594Y-40737726D01*
X52407240Y-40819161D01*
X52407237Y-40819162D01*
X52241922Y-40869310D01*
X52145290Y-40878827D01*
X52113080Y-40882000D01*
X52026920Y-40882000D01*
X51994710Y-40878827D01*
X51898078Y-40869310D01*
X51732763Y-40819162D01*
X51732760Y-40819161D01*
X51580406Y-40737726D01*
X51446866Y-40628134D01*
X51337274Y-40494594D01*
X51255839Y-40342240D01*
X51255838Y-40342237D01*
X51205690Y-40176922D01*
X51188757Y-40005000D01*
X51205690Y-39833078D01*
X51255838Y-39667763D01*
X51255839Y-39667760D01*
X51337274Y-39515406D01*
X51446866Y-39381866D01*
X51580406Y-39272274D01*
X51732760Y-39190839D01*
X51732763Y-39190838D01*
X51898078Y-39140690D01*
X51994710Y-39131172D01*
X52026920Y-39128000D01*
X52113080Y-39128000D01*
X52145290Y-39131172D01*
X52145290Y-39131172D01*
G37*
G36*
X95325290Y-39131172D02*
G01*
X95421922Y-39140690D01*
X95587237Y-39190838D01*
X95587240Y-39190839D01*
X95739594Y-39272274D01*
X95873134Y-39381866D01*
X95982726Y-39515406D01*
X96064161Y-39667760D01*
X96064162Y-39667763D01*
X96114310Y-39833078D01*
X96131243Y-40005000D01*
X96114310Y-40176922D01*
X96064162Y-40342237D01*
X96064161Y-40342240D01*
X95982726Y-40494594D01*
X95873134Y-40628134D01*
X95739594Y-40737726D01*
X95587240Y-40819161D01*
X95587237Y-40819162D01*
X95421922Y-40869310D01*
X95325290Y-40878827D01*
X95293080Y-40882000D01*
X95206920Y-40882000D01*
X95174710Y-40878827D01*
X95078078Y-40869310D01*
X94912763Y-40819162D01*
X94912760Y-40819161D01*
X94760406Y-40737726D01*
X94626866Y-40628134D01*
X94517274Y-40494594D01*
X94435839Y-40342240D01*
X94435838Y-40342237D01*
X94385690Y-40176922D01*
X94368757Y-40005000D01*
X94385690Y-39833078D01*
X94435838Y-39667763D01*
X94435839Y-39667760D01*
X94517274Y-39515406D01*
X94626866Y-39381866D01*
X94760406Y-39272274D01*
X94912760Y-39190839D01*
X94912763Y-39190838D01*
X95078078Y-39140690D01*
X95174710Y-39131172D01*
X95206920Y-39128000D01*
X95293080Y-39128000D01*
X95325290Y-39131172D01*
X95325290Y-39131172D01*
G37*
G36*
X54685290Y-39131172D02*
G01*
X54781922Y-39140690D01*
X54947237Y-39190838D01*
X54947240Y-39190839D01*
X55099594Y-39272274D01*
X55233134Y-39381866D01*
X55342726Y-39515406D01*
X55424161Y-39667760D01*
X55424162Y-39667763D01*
X55474310Y-39833078D01*
X55491243Y-40005000D01*
X55474310Y-40176922D01*
X55424162Y-40342237D01*
X55424161Y-40342240D01*
X55342726Y-40494594D01*
X55233134Y-40628134D01*
X55099594Y-40737726D01*
X54947240Y-40819161D01*
X54947237Y-40819162D01*
X54781922Y-40869310D01*
X54685290Y-40878827D01*
X54653080Y-40882000D01*
X54566920Y-40882000D01*
X54534710Y-40878827D01*
X54438078Y-40869310D01*
X54272763Y-40819162D01*
X54272760Y-40819161D01*
X54120406Y-40737726D01*
X53986866Y-40628134D01*
X53877274Y-40494594D01*
X53795839Y-40342240D01*
X53795838Y-40342237D01*
X53745690Y-40176922D01*
X53728757Y-40005000D01*
X53745690Y-39833078D01*
X53795838Y-39667763D01*
X53795839Y-39667760D01*
X53877274Y-39515406D01*
X53986866Y-39381866D01*
X54120406Y-39272274D01*
X54272760Y-39190839D01*
X54272763Y-39190838D01*
X54438078Y-39140690D01*
X54534710Y-39131172D01*
X54566920Y-39128000D01*
X54653080Y-39128000D01*
X54685290Y-39131172D01*
X54685290Y-39131172D01*
G37*
G36*
X42787000Y-40882000D02*
G01*
X41033000Y-40882000D01*
X41033000Y-39128000D01*
X42787000Y-39128000D01*
X42787000Y-40882000D01*
X42787000Y-40882000D01*
G37*
G36*
X44525290Y-39131172D02*
G01*
X44621922Y-39140690D01*
X44787237Y-39190838D01*
X44787240Y-39190839D01*
X44939594Y-39272274D01*
X45073134Y-39381866D01*
X45182726Y-39515406D01*
X45264161Y-39667760D01*
X45264162Y-39667763D01*
X45314310Y-39833078D01*
X45331243Y-40005000D01*
X45314310Y-40176922D01*
X45264162Y-40342237D01*
X45264161Y-40342240D01*
X45182726Y-40494594D01*
X45073134Y-40628134D01*
X44939594Y-40737726D01*
X44787240Y-40819161D01*
X44787237Y-40819162D01*
X44621922Y-40869310D01*
X44525290Y-40878827D01*
X44493080Y-40882000D01*
X44406920Y-40882000D01*
X44374710Y-40878827D01*
X44278078Y-40869310D01*
X44112763Y-40819162D01*
X44112760Y-40819161D01*
X43960406Y-40737726D01*
X43826866Y-40628134D01*
X43717274Y-40494594D01*
X43635839Y-40342240D01*
X43635838Y-40342237D01*
X43585690Y-40176922D01*
X43568757Y-40005000D01*
X43585690Y-39833078D01*
X43635838Y-39667763D01*
X43635839Y-39667760D01*
X43717274Y-39515406D01*
X43826866Y-39381866D01*
X43960406Y-39272274D01*
X44112760Y-39190839D01*
X44112763Y-39190838D01*
X44278078Y-39140690D01*
X44374710Y-39131172D01*
X44406920Y-39128000D01*
X44493080Y-39128000D01*
X44525290Y-39131172D01*
X44525290Y-39131172D01*
G37*
G36*
X102945290Y-39131172D02*
G01*
X103041922Y-39140690D01*
X103207237Y-39190838D01*
X103207240Y-39190839D01*
X103359594Y-39272274D01*
X103493134Y-39381866D01*
X103602726Y-39515406D01*
X103684161Y-39667760D01*
X103684162Y-39667763D01*
X103734310Y-39833078D01*
X103751243Y-40005000D01*
X103734310Y-40176922D01*
X103684162Y-40342237D01*
X103684161Y-40342240D01*
X103602726Y-40494594D01*
X103493134Y-40628134D01*
X103359594Y-40737726D01*
X103207240Y-40819161D01*
X103207237Y-40819162D01*
X103041922Y-40869310D01*
X102945290Y-40878827D01*
X102913080Y-40882000D01*
X102826920Y-40882000D01*
X102794710Y-40878827D01*
X102698078Y-40869310D01*
X102532763Y-40819162D01*
X102532760Y-40819161D01*
X102380406Y-40737726D01*
X102246866Y-40628134D01*
X102137274Y-40494594D01*
X102055839Y-40342240D01*
X102055838Y-40342237D01*
X102005690Y-40176922D01*
X101988757Y-40005000D01*
X102005690Y-39833078D01*
X102055838Y-39667763D01*
X102055839Y-39667760D01*
X102137274Y-39515406D01*
X102246866Y-39381866D01*
X102380406Y-39272274D01*
X102532760Y-39190839D01*
X102532763Y-39190838D01*
X102698078Y-39140690D01*
X102794710Y-39131172D01*
X102826920Y-39128000D01*
X102913080Y-39128000D01*
X102945290Y-39131172D01*
X102945290Y-39131172D01*
G37*
G36*
X59765290Y-39131172D02*
G01*
X59861922Y-39140690D01*
X60027237Y-39190838D01*
X60027240Y-39190839D01*
X60179594Y-39272274D01*
X60313134Y-39381866D01*
X60422726Y-39515406D01*
X60504161Y-39667760D01*
X60504162Y-39667763D01*
X60554310Y-39833078D01*
X60571243Y-40005000D01*
X60554310Y-40176922D01*
X60504162Y-40342237D01*
X60504161Y-40342240D01*
X60422726Y-40494594D01*
X60313134Y-40628134D01*
X60179594Y-40737726D01*
X60027240Y-40819161D01*
X60027237Y-40819162D01*
X59861922Y-40869310D01*
X59765290Y-40878827D01*
X59733080Y-40882000D01*
X59646920Y-40882000D01*
X59614710Y-40878827D01*
X59518078Y-40869310D01*
X59352763Y-40819162D01*
X59352760Y-40819161D01*
X59200406Y-40737726D01*
X59066866Y-40628134D01*
X58957274Y-40494594D01*
X58875839Y-40342240D01*
X58875838Y-40342237D01*
X58825690Y-40176922D01*
X58808757Y-40005000D01*
X58825690Y-39833078D01*
X58875838Y-39667763D01*
X58875839Y-39667760D01*
X58957274Y-39515406D01*
X59066866Y-39381866D01*
X59200406Y-39272274D01*
X59352760Y-39190839D01*
X59352763Y-39190838D01*
X59518078Y-39140690D01*
X59614710Y-39131172D01*
X59646920Y-39128000D01*
X59733080Y-39128000D01*
X59765290Y-39131172D01*
X59765290Y-39131172D01*
G37*
G36*
X62305290Y-39131172D02*
G01*
X62401922Y-39140690D01*
X62567237Y-39190838D01*
X62567240Y-39190839D01*
X62719594Y-39272274D01*
X62853134Y-39381866D01*
X62962726Y-39515406D01*
X63044161Y-39667760D01*
X63044162Y-39667763D01*
X63094310Y-39833078D01*
X63111243Y-40005000D01*
X63094310Y-40176922D01*
X63044162Y-40342237D01*
X63044161Y-40342240D01*
X62962726Y-40494594D01*
X62853134Y-40628134D01*
X62719594Y-40737726D01*
X62567240Y-40819161D01*
X62567237Y-40819162D01*
X62401922Y-40869310D01*
X62305290Y-40878827D01*
X62273080Y-40882000D01*
X62186920Y-40882000D01*
X62154710Y-40878827D01*
X62058078Y-40869310D01*
X61892763Y-40819162D01*
X61892760Y-40819161D01*
X61740406Y-40737726D01*
X61606866Y-40628134D01*
X61497274Y-40494594D01*
X61415839Y-40342240D01*
X61415838Y-40342237D01*
X61365690Y-40176922D01*
X61348757Y-40005000D01*
X61365690Y-39833078D01*
X61415838Y-39667763D01*
X61415839Y-39667760D01*
X61497274Y-39515406D01*
X61606866Y-39381866D01*
X61740406Y-39272274D01*
X61892760Y-39190839D01*
X61892763Y-39190838D01*
X62058078Y-39140690D01*
X62154710Y-39131172D01*
X62186920Y-39128000D01*
X62273080Y-39128000D01*
X62305290Y-39131172D01*
X62305290Y-39131172D01*
G37*
G36*
X64845290Y-39131172D02*
G01*
X64941922Y-39140690D01*
X65107237Y-39190838D01*
X65107240Y-39190839D01*
X65259594Y-39272274D01*
X65393134Y-39381866D01*
X65502726Y-39515406D01*
X65584161Y-39667760D01*
X65584162Y-39667763D01*
X65634310Y-39833078D01*
X65651243Y-40005000D01*
X65634310Y-40176922D01*
X65584162Y-40342237D01*
X65584161Y-40342240D01*
X65502726Y-40494594D01*
X65393134Y-40628134D01*
X65259594Y-40737726D01*
X65107240Y-40819161D01*
X65107237Y-40819162D01*
X64941922Y-40869310D01*
X64845290Y-40878827D01*
X64813080Y-40882000D01*
X64726920Y-40882000D01*
X64694710Y-40878827D01*
X64598078Y-40869310D01*
X64432763Y-40819162D01*
X64432760Y-40819161D01*
X64280406Y-40737726D01*
X64146866Y-40628134D01*
X64037274Y-40494594D01*
X63955839Y-40342240D01*
X63955838Y-40342237D01*
X63905690Y-40176922D01*
X63888757Y-40005000D01*
X63905690Y-39833078D01*
X63955838Y-39667763D01*
X63955839Y-39667760D01*
X64037274Y-39515406D01*
X64146866Y-39381866D01*
X64280406Y-39272274D01*
X64432760Y-39190839D01*
X64432763Y-39190838D01*
X64598078Y-39140690D01*
X64694710Y-39131172D01*
X64726920Y-39128000D01*
X64813080Y-39128000D01*
X64845290Y-39131172D01*
X64845290Y-39131172D01*
G37*
G36*
X88507000Y-40882000D02*
G01*
X86753000Y-40882000D01*
X86753000Y-39128000D01*
X88507000Y-39128000D01*
X88507000Y-40882000D01*
X88507000Y-40882000D01*
G37*
G36*
X90245290Y-39131172D02*
G01*
X90341922Y-39140690D01*
X90507237Y-39190838D01*
X90507240Y-39190839D01*
X90659594Y-39272274D01*
X90793134Y-39381866D01*
X90902726Y-39515406D01*
X90984161Y-39667760D01*
X90984162Y-39667763D01*
X91034310Y-39833078D01*
X91051243Y-40005000D01*
X91034310Y-40176922D01*
X90984162Y-40342237D01*
X90984161Y-40342240D01*
X90902726Y-40494594D01*
X90793134Y-40628134D01*
X90659594Y-40737726D01*
X90507240Y-40819161D01*
X90507237Y-40819162D01*
X90341922Y-40869310D01*
X90245290Y-40878827D01*
X90213080Y-40882000D01*
X90126920Y-40882000D01*
X90094710Y-40878827D01*
X89998078Y-40869310D01*
X89832763Y-40819162D01*
X89832760Y-40819161D01*
X89680406Y-40737726D01*
X89546866Y-40628134D01*
X89437274Y-40494594D01*
X89355839Y-40342240D01*
X89355838Y-40342237D01*
X89305690Y-40176922D01*
X89288757Y-40005000D01*
X89305690Y-39833078D01*
X89355838Y-39667763D01*
X89355839Y-39667760D01*
X89437274Y-39515406D01*
X89546866Y-39381866D01*
X89680406Y-39272274D01*
X89832760Y-39190839D01*
X89832763Y-39190838D01*
X89998078Y-39140690D01*
X90094710Y-39131172D01*
X90126920Y-39128000D01*
X90213080Y-39128000D01*
X90245290Y-39131172D01*
X90245290Y-39131172D01*
G37*
G36*
X92785290Y-39131172D02*
G01*
X92881922Y-39140690D01*
X93047237Y-39190838D01*
X93047240Y-39190839D01*
X93199594Y-39272274D01*
X93333134Y-39381866D01*
X93442726Y-39515406D01*
X93524161Y-39667760D01*
X93524162Y-39667763D01*
X93574310Y-39833078D01*
X93591243Y-40005000D01*
X93574310Y-40176922D01*
X93524162Y-40342237D01*
X93524161Y-40342240D01*
X93442726Y-40494594D01*
X93333134Y-40628134D01*
X93199594Y-40737726D01*
X93047240Y-40819161D01*
X93047237Y-40819162D01*
X92881922Y-40869310D01*
X92785290Y-40878827D01*
X92753080Y-40882000D01*
X92666920Y-40882000D01*
X92634710Y-40878827D01*
X92538078Y-40869310D01*
X92372763Y-40819162D01*
X92372760Y-40819161D01*
X92220406Y-40737726D01*
X92086866Y-40628134D01*
X91977274Y-40494594D01*
X91895839Y-40342240D01*
X91895838Y-40342237D01*
X91845690Y-40176922D01*
X91828757Y-40005000D01*
X91845690Y-39833078D01*
X91895838Y-39667763D01*
X91895839Y-39667760D01*
X91977274Y-39515406D01*
X92086866Y-39381866D01*
X92220406Y-39272274D01*
X92372760Y-39190839D01*
X92372763Y-39190838D01*
X92538078Y-39140690D01*
X92634710Y-39131172D01*
X92666920Y-39128000D01*
X92753080Y-39128000D01*
X92785290Y-39131172D01*
X92785290Y-39131172D01*
G37*
G36*
X97865290Y-39131172D02*
G01*
X97961922Y-39140690D01*
X98127237Y-39190838D01*
X98127240Y-39190839D01*
X98279594Y-39272274D01*
X98413134Y-39381866D01*
X98522726Y-39515406D01*
X98604161Y-39667760D01*
X98604162Y-39667763D01*
X98654310Y-39833078D01*
X98671243Y-40005000D01*
X98654310Y-40176922D01*
X98604162Y-40342237D01*
X98604161Y-40342240D01*
X98522726Y-40494594D01*
X98413134Y-40628134D01*
X98279594Y-40737726D01*
X98127240Y-40819161D01*
X98127237Y-40819162D01*
X97961922Y-40869310D01*
X97865290Y-40878827D01*
X97833080Y-40882000D01*
X97746920Y-40882000D01*
X97714710Y-40878827D01*
X97618078Y-40869310D01*
X97452763Y-40819162D01*
X97452760Y-40819161D01*
X97300406Y-40737726D01*
X97166866Y-40628134D01*
X97057274Y-40494594D01*
X96975839Y-40342240D01*
X96975838Y-40342237D01*
X96925690Y-40176922D01*
X96908757Y-40005000D01*
X96925690Y-39833078D01*
X96975838Y-39667763D01*
X96975839Y-39667760D01*
X97057274Y-39515406D01*
X97166866Y-39381866D01*
X97300406Y-39272274D01*
X97452760Y-39190839D01*
X97452763Y-39190838D01*
X97618078Y-39140690D01*
X97714710Y-39131172D01*
X97746920Y-39128000D01*
X97833080Y-39128000D01*
X97865290Y-39131172D01*
X97865290Y-39131172D01*
G37*
G36*
X57225290Y-39131172D02*
G01*
X57321922Y-39140690D01*
X57487237Y-39190838D01*
X57487240Y-39190839D01*
X57639594Y-39272274D01*
X57773134Y-39381866D01*
X57882726Y-39515406D01*
X57964161Y-39667760D01*
X57964162Y-39667763D01*
X58014310Y-39833078D01*
X58031243Y-40005000D01*
X58014310Y-40176922D01*
X57964162Y-40342237D01*
X57964161Y-40342240D01*
X57882726Y-40494594D01*
X57773134Y-40628134D01*
X57639594Y-40737726D01*
X57487240Y-40819161D01*
X57487237Y-40819162D01*
X57321922Y-40869310D01*
X57225290Y-40878827D01*
X57193080Y-40882000D01*
X57106920Y-40882000D01*
X57074710Y-40878827D01*
X56978078Y-40869310D01*
X56812763Y-40819162D01*
X56812760Y-40819161D01*
X56660406Y-40737726D01*
X56526866Y-40628134D01*
X56417274Y-40494594D01*
X56335839Y-40342240D01*
X56335838Y-40342237D01*
X56285690Y-40176922D01*
X56268757Y-40005000D01*
X56285690Y-39833078D01*
X56335838Y-39667763D01*
X56335839Y-39667760D01*
X56417274Y-39515406D01*
X56526866Y-39381866D01*
X56660406Y-39272274D01*
X56812760Y-39190839D01*
X56812763Y-39190838D01*
X56978078Y-39140690D01*
X57074710Y-39131172D01*
X57106920Y-39128000D01*
X57193080Y-39128000D01*
X57225290Y-39131172D01*
X57225290Y-39131172D01*
G37*
G36*
X100405290Y-39131172D02*
G01*
X100501922Y-39140690D01*
X100667237Y-39190838D01*
X100667240Y-39190839D01*
X100819594Y-39272274D01*
X100953134Y-39381866D01*
X101062726Y-39515406D01*
X101144161Y-39667760D01*
X101144162Y-39667763D01*
X101194310Y-39833078D01*
X101211243Y-40005000D01*
X101194310Y-40176922D01*
X101144162Y-40342237D01*
X101144161Y-40342240D01*
X101062726Y-40494594D01*
X100953134Y-40628134D01*
X100819594Y-40737726D01*
X100667240Y-40819161D01*
X100667237Y-40819162D01*
X100501922Y-40869310D01*
X100405290Y-40878827D01*
X100373080Y-40882000D01*
X100286920Y-40882000D01*
X100254710Y-40878827D01*
X100158078Y-40869310D01*
X99992763Y-40819162D01*
X99992760Y-40819161D01*
X99840406Y-40737726D01*
X99706866Y-40628134D01*
X99597274Y-40494594D01*
X99515839Y-40342240D01*
X99515838Y-40342237D01*
X99465690Y-40176922D01*
X99448757Y-40005000D01*
X99465690Y-39833078D01*
X99515838Y-39667763D01*
X99515839Y-39667760D01*
X99597274Y-39515406D01*
X99706866Y-39381866D01*
X99840406Y-39272274D01*
X99992760Y-39190839D01*
X99992763Y-39190838D01*
X100158078Y-39140690D01*
X100254710Y-39131172D01*
X100286920Y-39128000D01*
X100373080Y-39128000D01*
X100405290Y-39131172D01*
X100405290Y-39131172D01*
G37*
G36*
X130760190Y-33428561D02*
G01*
X130760192Y-33428562D01*
X130760193Y-33428562D01*
X131283772Y-33645435D01*
X131754976Y-33960284D01*
X131754978Y-33960286D01*
X131754981Y-33960288D01*
X132155712Y-34361019D01*
X132155714Y-34361022D01*
X132155716Y-34361024D01*
X132470565Y-34832228D01*
X132470565Y-34832229D01*
X132687439Y-35355810D01*
X132798000Y-35911640D01*
X132798000Y-36478360D01*
X132737963Y-36780190D01*
X132687438Y-37034193D01*
X132470565Y-37557772D01*
X132155716Y-38028976D01*
X132155714Y-38028978D01*
X132155712Y-38028981D01*
X131754981Y-38429712D01*
X131754978Y-38429714D01*
X131754976Y-38429716D01*
X131283772Y-38744565D01*
X130760193Y-38961438D01*
X130760192Y-38961438D01*
X130760190Y-38961439D01*
X130204360Y-39072000D01*
X129637640Y-39072000D01*
X129081810Y-38961439D01*
X129081808Y-38961438D01*
X129081807Y-38961438D01*
X128558228Y-38744565D01*
X128087024Y-38429716D01*
X128087022Y-38429714D01*
X128087019Y-38429712D01*
X127686288Y-38028981D01*
X127686286Y-38028978D01*
X127686284Y-38028976D01*
X127371435Y-37557772D01*
X127154562Y-37034193D01*
X127104038Y-36780190D01*
X127044000Y-36478360D01*
X127044000Y-35911640D01*
X127154561Y-35355810D01*
X127371435Y-34832229D01*
X127371435Y-34832228D01*
X127686284Y-34361024D01*
X127686286Y-34361022D01*
X127686288Y-34361019D01*
X128087019Y-33960288D01*
X128087022Y-33960286D01*
X128087024Y-33960284D01*
X128558228Y-33645435D01*
X129081807Y-33428562D01*
X129081808Y-33428562D01*
X129081810Y-33428561D01*
X129637640Y-33318000D01*
X130204360Y-33318000D01*
X130760190Y-33428561D01*
X130760190Y-33428561D01*
G37*
G36*
X82246190Y-33174561D02*
G01*
X82246192Y-33174562D01*
X82246193Y-33174562D01*
X82769772Y-33391435D01*
X83240976Y-33706284D01*
X83240978Y-33706286D01*
X83240981Y-33706288D01*
X83641712Y-34107019D01*
X83641714Y-34107022D01*
X83641716Y-34107024D01*
X83956565Y-34578228D01*
X83956565Y-34578229D01*
X84173439Y-35101810D01*
X84284000Y-35657640D01*
X84284000Y-36224360D01*
X84233477Y-36478359D01*
X84173438Y-36780193D01*
X83956565Y-37303772D01*
X83641716Y-37774976D01*
X83641714Y-37774978D01*
X83641712Y-37774981D01*
X83240981Y-38175712D01*
X83240978Y-38175714D01*
X83240976Y-38175716D01*
X82769772Y-38490565D01*
X82246193Y-38707438D01*
X82246192Y-38707438D01*
X82246190Y-38707439D01*
X81690360Y-38818000D01*
X81123640Y-38818000D01*
X80567810Y-38707439D01*
X80567808Y-38707438D01*
X80567807Y-38707438D01*
X80044228Y-38490565D01*
X79573024Y-38175716D01*
X79573022Y-38175714D01*
X79573019Y-38175712D01*
X79172288Y-37774981D01*
X79172286Y-37774978D01*
X79172284Y-37774976D01*
X78857435Y-37303772D01*
X78640562Y-36780193D01*
X78580524Y-36478359D01*
X78530000Y-36224360D01*
X78530000Y-35657640D01*
X78640561Y-35101810D01*
X78857435Y-34578229D01*
X78857435Y-34578228D01*
X79172284Y-34107024D01*
X79172286Y-34107022D01*
X79172288Y-34107019D01*
X79573019Y-33706288D01*
X79573022Y-33706286D01*
X79573024Y-33706284D01*
X80044228Y-33391435D01*
X80567807Y-33174562D01*
X80567808Y-33174562D01*
X80567810Y-33174561D01*
X81123640Y-33064000D01*
X81690360Y-33064000D01*
X82246190Y-33174561D01*
X82246190Y-33174561D01*
G37*
M02*
