M48
; DRILL file {KiCad (5.1.0)-1} date 05/12/19 18:19:44
; FORMAT={-:-/ absolute / metric / decimal}
; #@! TF.CreationDate,2019-05-12T18:19:44+08:00
; #@! TF.GenerationSoftware,Kicad,Pcbnew,(5.1.0)-1
; #@! TF.FileFunction,Plated,1,2,PTH
FMAT,2
METRIC
T1C0.400
T2C0.800
T3C0.900
T4C3.200
%
G90
G05
T1
X41.91Y-50.8
X44.45Y-80.391
X50.165Y-80.391
X55.88Y-80.391
X61.595Y-80.391
X67.31Y-80.391
X68.707Y-44.069
X73.025Y-80.391
X78.74Y-80.391
X84.455Y-80.391
X87.63Y-50.8
X90.17Y-80.391
X95.885Y-80.391
X101.6Y-80.391
X107.315Y-80.391
X113.03Y-80.391
X114.3Y-44.069
X118.618Y-80.391
X124.46Y-80.391
X130.175Y-80.391
T2
X114.554Y-31.115
X116.205Y-31.115
X118.11Y-31.115
X120.015Y-31.115
X121.92Y-31.115
X116.205Y-55.245
X116.205Y-62.865
X118.745Y-55.245
X118.745Y-62.865
X87.63Y-55.245
X87.63Y-62.865
X90.17Y-55.245
X90.17Y-62.865
X70.485Y-55.245
X70.485Y-62.865
X73.025Y-55.245
X73.025Y-62.865
X53.34Y-55.245
X53.34Y-62.865
X55.88Y-55.245
X55.88Y-62.865
X121.92Y-55.245
X121.92Y-62.865
X124.46Y-55.245
X124.46Y-62.865
X104.775Y-55.245
X104.775Y-62.865
X107.315Y-55.245
X107.315Y-62.865
X93.345Y-55.245
X93.345Y-62.865
X95.885Y-55.245
X95.885Y-62.865
X41.91Y-40.005
X44.45Y-40.005
X46.99Y-40.005
X49.53Y-40.005
X52.07Y-40.005
X54.61Y-40.005
X57.15Y-40.005
X59.69Y-40.005
X62.23Y-40.005
X64.77Y-40.005
X76.2Y-55.245
X76.2Y-62.865
X78.74Y-55.245
X78.74Y-62.865
X59.055Y-55.245
X59.055Y-62.865
X61.595Y-55.245
X61.595Y-62.865
X127.635Y-55.245
X127.635Y-62.865
X130.175Y-55.245
X130.175Y-62.865
X41.91Y-55.245
X41.91Y-62.865
X44.45Y-55.245
X44.45Y-62.865
X110.49Y-55.245
X110.49Y-62.865
X113.03Y-55.245
X113.03Y-62.865
X99.06Y-55.245
X99.06Y-62.865
X101.6Y-55.245
X101.6Y-62.865
X87.63Y-40.005
X90.17Y-40.005
X92.71Y-40.005
X95.25Y-40.005
X97.79Y-40.005
X100.33Y-40.005
X102.87Y-40.005
X105.41Y-40.005
X107.95Y-40.005
X110.49Y-40.005
X81.915Y-55.245
X81.915Y-62.865
X84.455Y-55.245
X84.455Y-62.865
X64.77Y-55.245
X64.77Y-62.865
X67.31Y-55.245
X67.31Y-62.865
X47.625Y-55.245
X47.625Y-62.865
X50.165Y-55.245
X50.165Y-62.865
T3
X97.435Y-93.265
X100.935Y-88.265
X104.435Y-93.265
X107.935Y-88.265
X111.435Y-93.265
X114.935Y-88.265
X118.435Y-93.265
X121.935Y-88.265
X125.435Y-93.265
X128.935Y-88.265
X44.73Y-93.265
X48.23Y-88.265
X51.73Y-93.265
X55.23Y-88.265
X58.73Y-93.265
X62.23Y-88.265
X65.73Y-93.265
X69.23Y-88.265
X72.73Y-93.265
X76.23Y-88.265
T4
X41.148Y-105.537
X87.249Y-93.218
X81.407Y-35.941
X131.318Y-105.537
X129.921Y-36.195
T0
M30
